<?xml version="1.0" encoding="utf-8"?>
<!-- Generator: Adobe Illustrator 16.0.0, SVG Export Plug-In . SVG Version: 6.00 Build 0)  -->
<!DOCTYPE svg PUBLIC "-//W3C//DTD SVG 1.1//EN" "http://www.w3.org/Graphics/SVG/1.1/DTD/svg11.dtd">
<svg version="1.1" id="Layer_1" xmlns="http://www.w3.org/2000/svg" xmlns:xlink="http://www.w3.org/1999/xlink" x="0px" y="0px"
	 width="1800px" height="1800px" viewBox="0 0 1800 1800" enable-background="new 0 0 1800 1800" xml:space="preserve">
<g>
	<g>
		<path d="M984.6,1261.3v-13.5h-236l-5,13.5H984.6z"/>
		<polyline fill="none" stroke="#000000" stroke-linecap="round" stroke-linejoin="round" points="984.6,1247.8 748.6,1247.8 
			743.6,1261.3 984.6,1261.3 984.6,1247.8 		"/>
	</g>
	<g>
		<g>
			<path fill="#E73241" d="M892.6,1136.3l-140.5,9.3l6,103.2l222,1.2l1.301,13H999.1c2.301-28.1,14-49.8,35-65.2
				c19-11.5,38.5-12.3,58.5-2.5c10.301,6.2,18.801,17.5,25.301,33.7c3.1,7,7.399,12,13,15.3c5.199,2.5,11.1,3,17.5,1.5
				c-0.101-3.8-1.9-5.8-5.601-6.199c1.601-13.601-0.3-25.601-5.7-36.101c-11.899-24.3-26.6-45.6-44-63.7L892.6,1136.3z"/>
			
				<line fill="none" stroke="#000000" stroke-linecap="round" stroke-linejoin="round" x1="758.1" y1="1248.8" x2="752.1" y2="1145.6"/>
			<path fill="none" stroke="#000000" stroke-width="3" stroke-linecap="round" stroke-linejoin="round" d="M752.1,1145.6l140.5-9.3
				l200.5,3.5c17.4,18.101,32.101,39.4,44,63.7c5.4,10.5,7.301,22.5,5.7,36.101c3.7,0.399,5.5,2.399,5.601,6.199
				c-6.4,1.5-12.301,1-17.5-1.5c-5.601-3.3-9.9-8.3-13-15.3c-6.5-16.2-15-27.5-25.301-33.7c-20-9.8-39.5-9-58.5,2.5
				c-21,15.4-32.699,37.101-35,65.2H981.4l-1.301-13l-222-1.2"/>
		</g>
		<g>
			<path fill="#F7A600" d="M1138.4,1189.3c0.1-6.8-4.4-10.3-13.5-10.5l4.699,10.5H1138.4z"/>
			<path fill="none" stroke="#000000" stroke-linecap="round" stroke-linejoin="round" d="M1141.1,1218
				c-10.1-21.8-23.5-37-40.199-45.5c-33-16.8-63.7-13.2-91.801,10.8c-14.399,14.5-23.699,36.2-28,65.5"/>
			<path fill="none" stroke="#000000" stroke-linecap="round" stroke-linejoin="round" d="M1124.9,1178.8l4.699,10.5h8.801
				C1138.5,1182.5,1134,1179,1124.9,1178.8"/>
			
				<line fill="none" stroke="#000000" stroke-linecap="round" stroke-linejoin="round" x1="917.1" y1="1249.3" x2="917.1" y2="1136.1"/>
		</g>
		<g>
			<g>
				<path d="M1098,1209.601c-9.9-9.801-21.8-14.801-35.7-14.801c-13.899,0-25.8,5-35.7,14.801c-9.8,9.899-14.8,21.699-14.8,35.6
					c-0.1,13.9,4.8,25.699,14.601,35.6c9.8,9.801,21.699,14.7,35.699,14.7c13.9,0,25.801-4.899,35.7-14.7
					c9.8-9.9,14.8-21.699,14.9-35.6C1112.8,1231.3,1107.9,1219.5,1098,1209.601z"/>
				<path fill="none" stroke="#000000" stroke-linecap="round" stroke-linejoin="round" d="M1062.3,1194.8
					c-13.899,0-25.8,5-35.7,14.801c-9.8,9.899-14.8,21.699-14.8,35.6c-0.1,13.9,4.8,25.699,14.601,35.6
					c9.8,9.801,21.699,14.7,35.699,14.7c13.9,0,25.801-4.899,35.7-14.7c9.8-9.9,14.8-21.699,14.9-35.6c0.1-13.9-4.8-25.7-14.7-35.6
					C1088.1,1199.8,1076.2,1194.8,1062.3,1194.8"/>
			</g>
			<g>
				<path fill="#CCCCCC" d="M1061.6,1212.8c-9.1,0-16.8,3.2-23.199,9.7c-6.5,6.4-9.7,14.2-9.7,23.3c0,9.2,3.2,17,9.7,23.4
					c6.399,6.5,14.1,9.699,23.199,9.699c9,0,16.801-3.199,23.301-9.699c6.399-6.4,9.6-14.2,9.6-23.4c0-9.1-3.2-16.899-9.6-23.3
					C1078.4,1216,1070.6,1212.8,1061.6,1212.8z"/>
				<path fill="none" stroke="#000000" stroke-linecap="round" stroke-linejoin="round" d="M1038.4,1222.5
					c-6.5,6.4-9.7,14.2-9.7,23.3c0,9.2,3.2,17,9.7,23.4c6.399,6.5,14.1,9.699,23.199,9.699c9,0,16.801-3.199,23.301-9.699
					c6.399-6.4,9.6-14.2,9.6-23.4c0-9.1-3.2-16.899-9.6-23.3c-6.5-6.5-14.301-9.7-23.301-9.7
					C1052.5,1212.8,1044.8,1216,1038.4,1222.5"/>
			</g>
			<g>
				<path d="M1061.9,1219.7c-7.601,0-14,2.5-19.4,7.8c-5.4,5.101-8,11.4-8,18.601c0,7.399,2.6,13.6,8,18.799
					c5.4,5.201,11.8,7.701,19.4,7.701c7.5,0,14-2.5,19.3-7.701c5.399-5.199,8-11.399,8-18.799c0-7.2-2.601-13.5-8-18.601
					C1075.9,1222.2,1069.4,1219.7,1061.9,1219.7z"/>
				<path fill="none" stroke="#000000" stroke-linecap="round" stroke-linejoin="round" d="M1042.5,1227.5
					c-5.4,5.101-8,11.4-8,18.601c0,7.399,2.6,13.6,8,18.799c5.4,5.201,11.8,7.701,19.4,7.701c7.5,0,14-2.5,19.3-7.701
					c5.399-5.199,8-11.399,8-18.799c0-7.2-2.601-13.5-8-18.601c-5.3-5.3-11.8-7.8-19.3-7.8
					C1054.3,1219.7,1047.9,1222.2,1042.5,1227.5"/>
			</g>
			<g>
				<path fill="#CCCCCC" d="M1082.4,1240.5l-0.801-3.2l2.301-4.8l-5.5-5.5l-5,1l-4-1.5l-1.5-4.7l-6.9-0.1l-2.9,3.8l-2.699,1.3
					l-6.301-2l-5.5,4.2l1,5.3l-3.5,4.7l-4.3,0.4l-0.399,9.899l5.699,0.7v8.8l-2.1,2.101l6.4,6.3l2.5-1.6l6,2v3.299l10,0.9
					l1.699-3.699l3.801-1.801l3.5,2.301l7.699-5.801l-1.5-4.8l3.301-5.7l4.5-1.3v-6.8L1082.4,1240.5z M1070.7,1246.4
					c0,1.899-0.8,3.6-2.5,4.899c-1.601,1.301-3.601,2.101-6,2.101c-2.3,0-4.3-0.8-6-2.101c-1.601-1.3-2.5-3-2.5-4.899
					c0-2,0.899-3.601,2.5-5c1.7-1.4,3.7-2,6-2c2.399,0,4.399,0.6,6,2C1069.9,1242.8,1070.7,1244.4,1070.7,1246.4z"/>
				<path fill="#CCCCCC" d="M1068.2,1251.3c1.7-1.3,2.5-3,2.5-4.899c0-2-0.8-3.601-2.5-5c-1.601-1.4-3.601-2-6-2c-2.3,0-4.3,0.6-6,2
					c-1.601,1.399-2.5,3-2.5,5c0,1.899,0.899,3.6,2.5,4.899c1.7,1.301,3.7,2.101,6,2.101
					C1064.6,1253.4,1066.6,1252.601,1068.2,1251.3z"/>
				<polyline fill="none" stroke="#000000" stroke-linecap="round" stroke-linejoin="round" points="1082.4,1240.5 1087.9,1244.2 
					1087.9,1251 1083.4,1252.3 1080.1,1258 1081.6,1262.8 1073.9,1268.601 1070.4,1266.3 1066.6,1268.101 1064.9,1271.8 
					1054.9,1270.899 1054.9,1267.601 1048.9,1265.601 1046.4,1267.2 1040,1260.9 1042.1,1258.8 1042.1,1250 1036.4,1249.3 
					1036.8,1239.4 1041.1,1239 1044.6,1234.3 1043.6,1229 1049.1,1224.8 1055.4,1226.8 1058.1,1225.5 1061,1221.7 1067.9,1221.8 
					1069.4,1226.5 1073.4,1228 1078.4,1227 1083.9,1232.5 1081.6,1237.3 1082.4,1240.5 				"/>
				<path fill="none" stroke="#000000" stroke-linecap="round" stroke-linejoin="round" d="M1070.7,1246.4c0-2-0.8-3.601-2.5-5
					c-1.601-1.4-3.601-2-6-2c-2.3,0-4.3,0.6-6,2c-1.601,1.399-2.5,3-2.5,5c0,1.899,0.899,3.6,2.5,4.899c1.7,1.301,3.7,2.101,6,2.101
					c2.399,0,4.399-0.8,6-2.101C1069.9,1250,1070.7,1248.3,1070.7,1246.4"/>
			</g>
		</g>
	</g>
	<g>
		<g>
			<g>
				<path fill="#CCCCCC" d="M614.8,1177.4l-7.2-0.101c-5.3,2.5-9.3,6.7-12,12.5c-1.5,4-1.5,8,0,12l2.5,3.5L614.8,1177.4z"/>
				<path fill="none" stroke="#000000" stroke-linecap="round" stroke-linejoin="round" d="M614.8,1177.4l-16.7,27.899l-2.5-3.5
					c-1.5-4-1.5-8,0-12c2.7-5.8,6.7-10,12-12.5L614.8,1177.4"/>
				<g>
					<path d="M690.8,1208.8c-9.9-9.8-21.8-14.699-35.8-14.699c-13.9,0-25.8,4.899-35.6,14.699c-9.9,9.9-14.8,21.7-14.9,35.7
						c-0.1,13.9,4.8,25.7,14.6,35.5c9.9,9.8,21.8,14.8,35.7,14.8c14,0,25.9-5,35.7-14.8c9.9-9.8,14.9-21.6,15-35.5
						C705.5,1230.5,700.6,1218.7,690.8,1208.8z"/>
					<path fill="none" stroke="#000000" stroke-linecap="round" stroke-linejoin="round" d="M655,1194.101
						c-13.9,0-25.8,4.899-35.6,14.699c-9.9,9.9-14.8,21.7-14.9,35.7c-0.1,13.9,4.8,25.7,14.6,35.5c9.9,9.8,21.8,14.8,35.7,14.8
						c14,0,25.9-5,35.7-14.8c9.9-9.8,14.9-21.6,15-35.5c0-14-4.9-25.8-14.7-35.7C680.9,1199,669,1194.101,655,1194.101"/>
				</g>
				<g>
					<path fill="#CCCCCC" d="M654.3,1212c-9.1,0-16.8,3.2-23.2,9.7c-6.5,6.5-9.7,14.3-9.7,23.3c0,9.2,3.2,17,9.7,23.5
						c6.4,6.399,14.1,9.601,23.2,9.601c9.1,0,16.9-3.201,23.3-9.601c6.4-6.5,9.6-14.3,9.6-23.5c0-9-3.2-16.8-9.6-23.3
						S663.4,1212,654.3,1212z"/>
					<path fill="none" stroke="#000000" stroke-linecap="round" stroke-linejoin="round" d="M631.1,1221.7
						c-6.5,6.5-9.7,14.3-9.7,23.3c0,9.2,3.2,17,9.7,23.5c6.4,6.399,14.1,9.601,23.2,9.601c9.1,0,16.9-3.201,23.3-9.601
						c6.4-6.5,9.6-14.3,9.6-23.5c0-9-3.2-16.8-9.6-23.3s-14.2-9.7-23.3-9.7C645.2,1212,637.5,1215.2,631.1,1221.7"/>
				</g>
				<g>
					<path d="M654.6,1218.9c-7.6,0-14,2.6-19.4,7.8c-5.3,5.1-8,11.4-8,18.7s2.7,13.6,8,18.7c5.4,5.199,11.8,7.799,19.4,7.799
						s14-2.6,19.4-7.799c5.3-5.101,8-11.4,8-18.7s-2.7-13.601-8-18.7C668.6,1221.5,662.2,1218.9,654.6,1218.9z"/>
					<path fill="none" stroke="#000000" stroke-linecap="round" stroke-linejoin="round" d="M635.2,1226.7c-5.3,5.1-8,11.4-8,18.7
						s2.7,13.6,8,18.7c5.4,5.199,11.8,7.799,19.4,7.799s14-2.6,19.4-7.799c5.3-5.101,8-11.4,8-18.7s-2.7-13.601-8-18.7
						c-5.4-5.2-11.8-7.8-19.4-7.8S640.6,1221.5,635.2,1226.7"/>
				</g>
				<g>
					<path fill="#CCCCCC" d="M675.1,1239.8l-0.8-3.3l2.3-4.7l-5.5-5.5l-5,1l-4-1.5l-1.5-4.8h-6.8l-2.9,3.8l-2.8,1.2l-6.2-2l-5.5,4.3
						l0.9,5.2l-3.4,4.8l-4.4,0.301l-0.4,9.899l5.8,0.8v8.7l-2.1,2.101l6.4,6.299l2.4-1.6l6,2v3.301l10,1l1.7-3.801l3.8-1.699
						l3.5,2.199l7.7-5.8l-1.5-4.7l3.3-5.8l4.5-1.2l0.1-6.8L675.1,1239.8z M663.5,1245.601c0,1.899-0.9,3.6-2.5,4.899
						c-1.7,1.4-3.7,2.101-6,2.101c-2.4,0-4.4-0.7-6-2.101c-1.7-1.3-2.5-3-2.5-4.899c0-2,0.8-3.601,2.5-5c1.6-1.301,3.6-2,6-2
						c2.3,0,4.3,0.699,6,2C662.6,1242,663.5,1243.601,663.5,1245.601z"/>
					<path fill="#CCCCCC" d="M661,1250.5c1.6-1.3,2.5-3,2.5-4.899c0-2-0.9-3.601-2.5-5c-1.7-1.301-3.7-2-6-2c-2.4,0-4.4,0.699-6,2
						c-1.7,1.399-2.5,3-2.5,5c0,1.899,0.8,3.6,2.5,4.899c1.6,1.4,3.6,2.101,6,2.101C657.3,1252.601,659.3,1251.9,661,1250.5z"/>
					<polyline fill="none" stroke="#000000" stroke-linecap="round" stroke-linejoin="round" points="675.1,1239.8 680.7,1243.5 
						680.6,1250.3 676.1,1251.5 672.8,1257.3 674.3,1262 666.6,1267.8 663.1,1265.601 659.3,1267.3 657.6,1271.101 647.6,1270.101 
						647.6,1266.8 641.6,1264.8 639.2,1266.399 632.8,1260.101 634.9,1258 634.9,1249.3 629.1,1248.5 629.5,1238.601 633.9,1238.3 
						637.3,1233.5 636.4,1228.3 641.9,1224 648.1,1226 650.9,1224.8 653.8,1221 660.6,1221 662.1,1225.8 666.1,1227.3 671.1,1226.3 
						676.6,1231.8 674.3,1236.5 675.1,1239.8 					"/>
					<path fill="none" stroke="#000000" stroke-linecap="round" stroke-linejoin="round" d="M663.5,1245.601c0-2-0.9-3.601-2.5-5
						c-1.7-1.301-3.7-2-6-2c-2.4,0-4.4,0.699-6,2c-1.7,1.399-2.5,3-2.5,5c0,1.899,0.8,3.6,2.5,4.899c1.6,1.4,3.6,2.101,6,2.101
						c2.3,0,4.3-0.7,6-2.101C662.6,1249.2,663.5,1247.5,663.5,1245.601"/>
				</g>
			</g>
			<g>
				<path fill="#E73241" d="M771.6,1127.8l-5.5-4.5c-62.8-2.5-109,11.8-138.5,43c-27.5,21.4-36.4,46.9-26.5,76.5
					c2.4-28.1,13.2-45.6,32.4-52.3c19.1-6.7,36.4-4.7,51.7,6c15.3,10.8,23.6,28.3,24.6,52.5c12.1,17.899,27.8,17.5,47.3-1.1
					l-4.5-101.7L771.6,1127.8z"/>
				
					<line fill="none" stroke="#000000" stroke-linecap="round" stroke-linejoin="round" x1="752.6" y1="1146.2" x2="757.1" y2="1247.9"/>
				<path fill="none" stroke="#000000" stroke-width="3" stroke-linecap="round" stroke-linejoin="round" d="M757.1,1247.9
					c-19.5,18.6-35.2,18.999-47.3,1.1c-1-24.2-9.3-41.7-24.6-52.5c-15.3-10.7-32.6-12.7-51.7-6c-19.2,6.7-30,24.2-32.4,52.3
					c-9.9-29.6-1-55.1,26.5-76.5c29.5-31.2,75.7-45.5,138.5-43l5.5,4.5l-19,18.4"/>
			</g>
			<g>
				<path fill="none" stroke="#000000" stroke-linecap="round" stroke-linejoin="round" d="M758.6,1123.1
					c-7.4,7.7-11.8,15.801-13,24.7c-36.1-2-70.8,0.4-104,7.5"/>
				<path fill="none" stroke="#000000" stroke-linecap="round" stroke-linejoin="round" d="M756.6,1248.3
					c-12.5-70.3-55.6-97.5-129-82"/>
			</g>
			<g>
				<path fill="#999999" d="M647.9,1155.2c1.5,2.399,0.3,4.899-3.5,7.6l13.9-1.5l0.3-2C655.8,1156.3,652.1,1154.9,647.9,1155.2z"/>
				<path fill="#F7A600" d="M644.4,1162.8c3.8-2.7,5-5.2,3.5-7.6c-0.9,0.1-1.8,0.2-2.8,0.5c-3.3,2.5-4.6,5-3.7,7.399L644.4,1162.8z"
					/>
				<path fill="none" stroke="#000000" stroke-linecap="round" stroke-linejoin="round" d="M644.4,1162.8c3.8-2.7,5-5.2,3.5-7.6"/>
				<path fill="none" stroke="#000000" stroke-linecap="round" stroke-linejoin="round" d="M644.4,1162.8l13.9-1.5l0.3-2
					c-2.8-3-6.5-4.399-10.7-4.1"/>
				<path fill="none" stroke="#000000" stroke-linecap="round" stroke-linejoin="round" d="M647.9,1155.2c-0.9,0.1-1.8,0.2-2.8,0.5
					c-3.3,2.5-4.6,5-3.7,7.399l3-0.3"/>
			</g>
		</g>
		<g>
			<g>
				<path fill="#FFFFFF" d="M756.4,1140.1l-4.3,6.7c90.4-4.899,177.7-3.5,262,4l79,10v-21c-21.199-31-52.199-53.699-93-68
					c-61.3-19-127.7-19-199,0l-28.2,43c16.5-21,34.8-33,54.9-36c52.5-8,104.101-7.899,154.8,0.5c36.601,6.9,73.301,33.601,110,80.5
					c-36.699-46.899-73.399-73.6-110-80.5c-50.699-8.399-102.3-8.5-154.8-0.5c-20.1,3-38.4,15-54.9,36L756.4,1140.1z M936.7,1080.2
					c17.399,1.6,33.2,4.7,47.3,9.399c19.6,6,35.6,17.101,47.8,33.301c9.101,11.899,6.601,19-7.3,21.3l-87.9-4.5
					c-11.399,0.2-16.199-3.9-14.8-12.5l0.8-38.9C922.5,1082.101,927.2,1079.3,936.7,1080.2z M896.1,1078.3
					c11.6-0.399,17.2,3.601,16.8,11.9v35.6c0.899,6.4-3.5,10.601-12.8,13H797.6c-19.2,0.8-22.4-8.399-10-27.5
					c7.5-13.899,16.8-22.1,28-25C840.6,1081.8,867.4,1079.101,896.1,1078.3z"/>
				<path d="M984,1089.6c-14.1-4.699-29.9-7.8-47.3-9.399c-9.5-0.9-14.2,1.9-14.101,8.1l-0.8,38.9c-1.399,8.6,3.4,12.7,14.8,12.5
					l87.9,4.5c13.9-2.3,16.4-9.4,7.3-21.3C1019.6,1106.7,1003.6,1095.6,984,1089.6z"/>
				<path d="M912.9,1090.2c0.399-8.3-5.2-12.3-16.8-11.9c-28.7,0.801-55.5,3.5-80.5,8c-11.2,2.9-20.5,11.101-28,25
					c-12.4,19.101-9.2,28.3,10,27.5h102.5c9.3-2.399,13.7-6.6,12.8-13V1090.2z"/>
				<path fill="none" stroke="#000000" stroke-linecap="round" stroke-linejoin="round" d="M984,1089.6
					c19.6,6,35.6,17.101,47.8,33.301c9.101,11.899,6.601,19-7.3,21.3l-87.9-4.5c-11.399,0.2-16.199-3.9-14.8-12.5l0.8-38.9
					c-0.1-6.199,4.601-9,14.101-8.1C954.1,1081.8,969.9,1084.9,984,1089.6"/>
				<path fill="none" stroke="#000000" stroke-linecap="round" stroke-linejoin="round" d="M912.9,1090.2v35.6
					c0.899,6.4-3.5,10.601-12.8,13H797.6c-19.2,0.8-22.4-8.399-10-27.5c7.5-13.899,16.8-22.1,28-25c25-4.5,51.8-7.199,80.5-8
					C907.7,1077.9,913.3,1081.9,912.9,1090.2"/>
				<path fill="none" stroke="#000000" stroke-linecap="round" stroke-linejoin="round" d="M1092.6,1159.8
					c-36.699-46.899-73.399-73.6-110-80.5c-50.699-8.399-102.3-8.5-154.8-0.5c-20.1,3-38.4,15-54.9,36c-5.7,7.4-11.2,15.8-16.5,25.3
					"/>
				<path fill="none" stroke="#000000" stroke-width="3" stroke-linecap="round" stroke-linejoin="round" d="M756.4,1140.1
					l16.5-25.3l28.2-43c71.3-19,137.7-19,199,0c40.801,14.301,71.801,37,93,68v21l-79-10c-84.3-7.5-171.6-8.899-262-4L756.4,1140.1"
					/>
			</g>
		</g>
	</g>
	<g>
		<g>
			<path d="M903.9,1164.9c1.199-2.101,1.199-4.601,0-7.4c-8-0.2-14,0.8-18.101,2.9v1.8C892.2,1164.6,898.2,1165.4,903.9,1164.9z"/>
		</g>
		<g>
			<path fill="#CCCCCC" d="M902.8,1157.6c-5.9,2.2-11.6,3.2-17,2.801v1.8c6.8,0,12.4,0.899,17,2.5
				C903.6,1162.3,903.6,1159.9,902.8,1157.6z"/>
		</g>
		<g>
			<g>
				<path fill="#999999" d="M902.1,1159.4c-0.399-0.5-0.899-0.7-1.3-0.7c-0.6,0-1,0.2-1.4,0.7c-0.3,0.5-0.5,1-0.5,1.699
					c0,0.601,0.2,1.101,0.5,1.7c0.4,0.4,0.8,0.601,1.4,0.601c0.4,0,0.9-0.2,1.3-0.601c0.301-0.6,0.5-1.1,0.5-1.7
					C902.6,1160.4,902.4,1159.9,902.1,1159.4z"/>
			</g>
		</g>
		<g>
			<polyline fill="none" stroke="#666666" stroke-width="0.7" stroke-linecap="round" stroke-linejoin="round" points="
				901.8,1161.6 901.4,1160.8 900.6,1161.6 899.9,1160.8 			"/>
		</g>
	</g>
</g>
</svg>
