<?xml version="1.0" encoding="utf-8"?>
<!-- Generator: Adobe Illustrator 16.0.0, SVG Export Plug-In . SVG Version: 6.00 Build 0)  -->
<!DOCTYPE svg PUBLIC "-//W3C//DTD SVG 1.1//EN" "http://www.w3.org/Graphics/SVG/1.1/DTD/svg11.dtd">
<svg version="1.1" xmlns="http://www.w3.org/2000/svg" xmlns:xlink="http://www.w3.org/1999/xlink" x="0px" y="0px" width="600px"
	 height="380px" viewBox="0 0 600 380" enable-background="new 0 0 600 380" xml:space="preserve">
<g id="Cuadrícula" display="none">
</g>
<g id="Capa_1">
</g>
<g id="Escritorio">
</g>
<g id="Guías">
</g>
<g id="Page_1">
	<g id="Capa_1_1_">
		
			<path fill-rule="evenodd" clip-rule="evenodd" stroke="#000000" stroke-width="2.3578" stroke-linecap="round" stroke-linejoin="round" stroke-miterlimit="2.4142" d="
			M450.431,303.685l81.021-7.08l3.384-7.074c6.341-0.84,9.231-2.862,12.88-8.583c2.998-7.751,2.021-21.896-0.788-23.576
			c3.221-9.433-0.512-21.897-2.842-33.689h-2.69l-7.733-77.631l1.949-15.665l-37.977-61.978c7.649-3.871,7.266-9.433-2.705-17.176
			c-31.158-19.536-63.36-29.809-109.754-21.216L56.844,123.483c-12.373,3.701-11.34,133.039-5.514,136.918l34.949,15.823
			c1.416,2.803,2.21,5.573,4.208,7.165s4.25,1.875,4.25,1.875l4.125,0.5c0,0,2.25-0.375,4.625-1.75s4.208-6.833,4.208-6.833
			s2.667,10.666,13,11c7.657,0.247,12.667-8.792,12.667-8.792l5,0.125l148.667,16c0,0,5.667,24,27.333,24.334s26-17.668,26-17.668
			L450.431,303.685L450.431,303.685z"/>
		
			<path fill-rule="evenodd" clip-rule="evenodd" fill="#E7E22C" stroke="#000000" stroke-width="2.3578" stroke-linecap="round" stroke-linejoin="round" stroke-miterlimit="2.4142" d="
			M501.832,58.474c-26.219-16.333-66.82-21.386-98.146-21.386l-22.494,15.656L324.96,67.566l-1.741,52.715h-17.346
			c-0.062-22.736,2.407-45.472,11.149-65.177l-266.41,72.91c0.713-1.851,1.042-5.66,3-6.5l328.747-90.828
			c17.234-4.041,36.87-5.051,56.962-1.851C464.055,33.377,494.486,47.19,501.832,58.474L501.832,58.474z M535.106,135.266
			l-125.184-10.441H303.658L48.058,169.287l-0.514,14.484l364.982-48.164l121.292,10.273L535.106,135.266L535.106,135.266z"/>
		
			<path fill-rule="evenodd" clip-rule="evenodd" fill="#FFFFFF" stroke="#000000" stroke-width="6.7365" stroke-linecap="round" stroke-linejoin="round" stroke-miterlimit="2.4142" d="
			M306.028,120.112L48.194,166.425c0.766-13.304,0.651-25.877,4.418-37.161l264.41-74.16
			C308.604,74.64,305.887,96.196,306.028,120.112L306.028,120.112z M403.787,121.292h-77.134l1.677-51.194l52.806-13.314
			L403.787,121.292L403.787,121.292z M411.741,119.441l-22.42-61.138c-2.987-6.73,4.475-10.783,10.707-10.783
			c33.851,0,70.984,6.063,97.62,21.056l36.81,59.788C497.131,119.441,451.859,115.061,411.741,119.441L411.741,119.441z
			 M229.01,133.926l6.666-44.803c1.298-5.562,4.522-10.103,9.126-14.145l-5.623,1.511c-4.588,4.21-7.983,8.762-9.111,14.313
			l-6.884,44.133L229.01,133.926L229.01,133.926z M166.962,145.04l6.161-39.922c1.181-4.882,4.074-9.263,8.38-12.793l-5.117,1.51
			c-4.137,3.541-7.201,7.921-8.211,12.803l-6.363,39.413L166.962,145.04L166.962,145.04z M118.212,153.622l5.43-35.871
			c1.034-4.541,3.81-8.252,7.619-11.612l-4.626,1.339c-3.64,3.373-6.582,7.073-7.458,11.454l-5.624,35.541L118.212,153.622
			L118.212,153.622z M83.782,159.854l5.278-33.179c0.901-4.032,3.173-7.743,6.835-10.774l-4.3,1.181
			c-3.493,3.031-5.929,6.732-6.817,10.943l-5.315,32.669L83.782,159.854L83.782,159.854z"/>
		
			<path fill-rule="evenodd" clip-rule="evenodd" fill="#E7E22C" stroke="#000000" stroke-width="2.3578" stroke-linecap="round" stroke-linejoin="round" stroke-miterlimit="2.4142" d="
			M544.086,223.682l-126.188,6.572l-6.554-94.647L347.44,144.2l5.43,78.472l-28.138-9.933l-4.489-64.838l-27.208,3.53l4.509,62.658
			l-64.688,2.191l-3.904-56.426l-21.349,3.031l3.923,54.235l-50.893,2.021l-3.437-49.684l-20.527,2.691l3.489,48.003l-34.624,1.01
			L85.761,178.72l-38.217,5.051c-0.968,22.566-0.939,59.446,3.451,76.631l35.1,15.655l-1.652-23.907
			c0.038-6.741,1.171-12.294,4.717-17.014h8.757l4.168,6.741h7.583c1.123-3.2,2.128-5.73,4.164-7.921h11.453
			c5.462,5.9,8.083,12.134,10.099,19.375l1.69,24.418l150.189,16.503l-2.252-32.509c0.939-10.772,3.909-21.386,12.077-27.447h23.242
			c9.497,8.252,14.96,19.035,17.849,29.137l2.13,30.818c0.455,4.042,2.876,7.413,7.927,7.413h75.78l-3.904-56.426l126.74-8.412
			L544.086,223.682L544.086,223.682z"/>
		
			<path fill-rule="evenodd" clip-rule="evenodd" fill="#FFFFFF" stroke="#000000" stroke-width="2.3578" stroke-linecap="round" stroke-linejoin="round" stroke-miterlimit="2.4142" d="
			M532.892,151.94l-10.925,0.34l6.602,51.534l5.381,2.352l0.299,1.86l-1.625,0.84l0.373,5.381l3.305,6.402h4.21L532.892,151.94
			L532.892,151.94z M515.274,150.42h-19.707l1.987,26.278l9.911,11.793h-2.695l0.386,5.552h15.323L515.274,150.42L515.274,150.42z"
			/>
		
			<path fill-rule="evenodd" clip-rule="evenodd" fill="none" stroke="#000000" stroke-width="6.7365" stroke-linecap="round" stroke-linejoin="round" stroke-miterlimit="2.4142" d="
			M418.109,301.493L407.397,146.72c-0.334-4.882-3.374-7.412-8.054-6.903l-44.393,5.892c-2.835,0.341-2.931,3.871-2.639,8.084
			l10.203,147.361"/>
		
			<polygon fill-rule="evenodd" clip-rule="evenodd" fill="#FFFFFF" stroke="#000000" stroke-width="2.3578" stroke-linecap="round" stroke-linejoin="round" stroke-miterlimit="2.4142" points="
			402.758,139.37 408.578,229.414 360.353,223.272 355.349,145.863 402.758,139.37 		"/>
		
			<path fill-rule="evenodd" clip-rule="evenodd" stroke="#000000" stroke-width="0.5052" stroke-linecap="round" stroke-linejoin="round" stroke-miterlimit="2.4142" d="
			M547.229,261.742l1.011,14.653l-31.271,3.202l-1.061-15.325L547.229,261.742L547.229,261.742z M476.378,267.305l1.16,16.845
			l-45.289,5.05l-1.212-17.514L476.378,267.305L476.378,267.305z"/>
		
			<path fill-rule="evenodd" clip-rule="evenodd" fill="#FFFFFF" stroke="#000000" stroke-width="0.5052" stroke-linecap="round" stroke-linejoin="round" stroke-miterlimit="2.4142" d="
			M472.783,268.983l-27.589,2.872c-1.672,0.159-2.937,1.341-2.832,2.861l0.643,9.262c0.104,1.51,1.52,2.521,3.18,2.192l27.591-2.872
			c1.67-0.159,2.94-1.341,2.833-2.861l-0.639-9.262C475.863,269.665,474.46,268.824,472.783,268.983L472.783,268.983z
			 M537.926,263.593l-19.069,1.86c-1.18,0-1.954,1.011-1.861,2.352l0.563,8.092c0.079,1.179,0.989,2.189,2.156,2.02l19.072-1.859
			c1.168-0.16,1.938-1.17,1.848-2.521l-0.549-7.912C539.993,264.272,539.092,263.433,537.926,263.593L537.926,263.593z"/>
		
			<path fill-rule="evenodd" clip-rule="evenodd" stroke="#000000" stroke-width="0.5052" stroke-linecap="round" stroke-linejoin="round" stroke-miterlimit="2.4142" d="
			M476.017,271.855c-1.797,0.841-3.133,1-5.475,1.17l-17.76,1.35c-3.131,1.011-6.625,4.042-10.279,2.362l0.453,6.562
			c4.549,0,13.045-1.341,16.713-1.851c3.168-0.501,6.095-2.021,9.079-2.689c5.137-1.182,4.29,1.179,7.827,1.179L476.017,271.855
			L476.017,271.855z M540.12,266.123c-1.3,0.672-1.965,0.84-3.814,0.84l-12.081,0.681c-2.129,0.841-4.65,3.361-7.11,1.852
			l0.406,5.891c3.031,0,8.855-1.011,11.528-1.35c2.167-0.33,4.093-1.68,6.247-2.181c3.478-0.851,2.931,1,5.301,1.17L540.12,266.123
			L540.12,266.123z"/>
		<path fill-rule="evenodd" clip-rule="evenodd" fill="#FFFFFF" d="M459.271,275.728c-7.241,0-13.231,1.01-13.137,2.358
			c0.079,1.172,6.213,2.182,13.454,2.182c7.242,0,13.233-1.01,13.152-2.182C472.646,276.737,466.515,275.728,459.271,275.728
			L459.271,275.728z M528.71,269.154c-5.067-0.171-9.062,0.511-8.98,1.69c0.071,1.011,4.184,2.011,9.247,2.181
			c5.068,0.171,9.062-0.5,8.981-1.679C537.872,270.165,533.773,269.325,528.71,269.154L528.71,269.154z"/>
		
			<path fill-rule="evenodd" clip-rule="evenodd" fill="#FFFFFF" stroke="#000000" stroke-width="0.5052" stroke-linecap="round" stroke-linejoin="round" stroke-miterlimit="2.4142" d="
			M438.481,272.186l-4.354,0.34c-1.181,0-1.949,1.01-1.882,2.021l0.781,11.283c0.071,1.01,0.969,1.85,2.135,1.68l4.358-0.33
			c0.999-0.169,1.784-1.008,1.699-2.189l-0.771-11.113C440.37,272.696,439.48,272.015,438.481,272.186L438.481,272.186z
			 M545.111,262.753l-3.015,0.341c-0.668,0-1.289,0.84-1.227,1.68l0.676,9.772c0.07,1.011,0.789,1.679,1.454,1.511l3.017-0.16
			c0.675,0,1.289-0.851,1.218-1.86l-0.675-9.764C546.504,263.433,545.781,262.753,545.111,262.753L545.111,262.753z"/>
		
			<path fill-rule="evenodd" clip-rule="evenodd" fill="#FFFFFF" stroke="#000000" stroke-width="2.3578" stroke-linecap="round" stroke-linejoin="round" stroke-miterlimit="2.4142" d="
			M326.248,261.412c-7.581-9.772-18.091-10.783-23.51-3.881c-1.69,2.36-3.56-0.33-1.865-5.052c6.58-16.834,22.645-8.583,28.19,3.371
			C331.641,261.412,331.088,265.623,326.248,261.412L326.248,261.412z M316.061,304.014c-4.448-1.009-7.316-3.531-11.458-7.409
			c-1.827-2.022-2.156,0.508-1.294,3.199c1.842,4.721,5.543,7.07,9.207,8.932C316.472,309.905,319.676,305.195,316.061,304.014
			L316.061,304.014z"/>
		
			<path fill-rule="evenodd" clip-rule="evenodd" fill="#FFFFFF" stroke="#000000" stroke-width="2.3578" stroke-linecap="round" stroke-linejoin="round" stroke-miterlimit="2.4142" d="
			M312.751,256.19c-7.724,0.331-12.875,11.114-11.325,23.747c1.548,12.635,9.14,22.565,16.854,22.057
			c7.894-0.33,12.883-10.944,11.505-23.577C328.236,265.784,320.645,255.851,312.751,256.19L312.751,256.19z"/>
		
			<path fill-rule="evenodd" clip-rule="evenodd" stroke="#000000" stroke-width="0.5052" stroke-linecap="round" stroke-linejoin="round" stroke-miterlimit="2.4142" d="
			M309.546,297.451c-0.341,0-0.738-0.847-0.802-1.85c-0.063-0.85,0.215-1.69,0.556-1.69c0.335,0,0.731,0.841,0.789,1.69
			C310.159,296.604,309.881,297.451,309.546,297.451L309.546,297.451z M312.761,300.145c-0.506,0-1.091-1.182-1.193-2.693
			c-0.096-1.35,0.329-2.53,0.834-2.53s1.09,1.181,1.187,2.53C313.69,298.963,313.266,300.145,312.761,300.145L312.761,300.145z
			 M317.053,301.323c-0.841,0-1.605-1.35-1.724-3.03c-0.119-1.688,0.463-3.031,1.308-3.031c0.841,0,1.604,1.343,1.724,3.031
			C318.477,299.974,317.896,301.323,317.053,301.323L317.053,301.323z M321.919,298.633c-1.181,0-2.28-1.351-2.397-3.031
			c-0.119-1.69,0.798-3.029,1.979-3.029c1.179,0,2.283,1.339,2.397,3.029C324.017,297.282,323.1,298.633,321.919,298.633
			L321.919,298.633z M325.22,292.732c-1.35,0-2.455-1.352-2.568-3.031c-0.108-1.513,0.813-2.862,2.157-2.862s2.62,1.35,2.725,2.862
			C327.65,291.381,326.564,292.732,325.22,292.732L325.22,292.732z M326.616,286.171c-1.35,0-2.454-1.353-2.567-3.031
			c-0.119-1.691,0.797-3.031,2.148-3.031c1.346,0,2.784,1.34,2.903,3.031C329.218,284.818,327.961,286.171,326.616,286.171
			L326.616,286.171z M325.583,273.706c-1.347,0-2.262,1.34-2.148,3.031c0.104,1.51,1.208,2.86,2.56,2.86
			c1.346,0,2.431-1.351,2.326-2.86C328.204,275.046,326.934,273.706,325.583,273.706L325.583,273.706z M323.365,265.955
			c-1.352,0-2.268,1.35-2.148,3.028c0.112,1.691,1.217,3.031,2.566,3.031c1.347,0,2.433-1.34,2.313-3.031
			C325.985,267.305,324.71,265.955,323.365,265.955L323.365,265.955z M319.262,260.232c-1.181,0-2.097,1.35-1.993,2.861
			c0.118,1.68,1.224,3.029,2.404,3.029c1.176,0,2.09-1.35,1.979-3.029C321.546,261.582,320.441,260.232,319.262,260.232
			L319.262,260.232z M314.021,257.531c-0.841,0-1.422,1.351-1.317,2.87c0.118,1.682,0.888,3.031,1.729,3.031
			c0.839,0,1.42-1.35,1.302-3.031C315.631,258.882,314.865,257.531,314.021,257.531L314.021,257.531z M309.343,258.041
			c-0.676,0-1.086,1.35-0.968,3.031c0.104,1.521,0.703,2.861,1.374,2.861c0.505,0,0.92-1.341,0.816-2.861
			C310.447,259.391,309.849,258.041,309.343,258.041L309.343,258.041z M305.858,261.241c-0.505,0-0.931,1.181-0.826,2.692
			c0.095,1.351,0.686,2.53,1.19,2.53s0.924-1.18,0.835-2.53C306.948,262.422,306.364,261.241,305.858,261.241L305.858,261.241z
			 M319.484,268.315l-2.375,2.188c6.793,12.965,2.714,24.587-5.624,23.407C320.81,299.643,328.561,282.629,319.484,268.315
			L319.484,268.315z M307.54,285.488l1.443-1.009c-3.051-7.572-0.113-13.805,4.334-12.794
			C308.682,267.974,303.248,277.075,307.54,285.488L307.54,285.488z"/>
		
			<path fill-rule="evenodd" clip-rule="evenodd" fill="#D0D0D0" stroke="#000000" stroke-width="2.3578" stroke-linecap="round" stroke-linejoin="round" stroke-miterlimit="2.4142" d="
			M128.07,252.319c-4.495-6.572-10.929-7.082-14.149-2.53c-1.077,1.51-2.205-0.17-1.246-3.37
			c3.938-11.284,13.738-5.892,17.161,2.189C131.44,252.319,130.963,255.181,128.07,252.319L128.07,252.319z M122.117,280.608
			c-2.743-0.671-4.542-2.361-7.077-4.881c-0.934-1.353-1.156,0.329-0.689,2.188c1.053,3.031,3.526,4.713,5.628,5.892
			C122.395,284.647,124.364,281.448,122.117,280.608L122.117,280.608z"/>
		
			<path fill-rule="evenodd" clip-rule="evenodd" fill="#EDEDED" stroke="#000000" stroke-width="2.3578" stroke-linecap="round" stroke-linejoin="round" stroke-miterlimit="2.4142" d="
			M119.921,248.949c-4.702,0.169-7.747,7.241-6.832,15.664c1.09,8.412,5.755,14.984,10.457,14.813
			c4.692-0.34,7.742-7.412,6.822-15.834C129.278,255.181,124.614,248.608,119.921,248.949L119.921,248.949z"/>
		
			<path fill-rule="evenodd" clip-rule="evenodd" stroke="#000000" stroke-width="0.5052" stroke-linecap="round" stroke-linejoin="round" stroke-miterlimit="2.4142" d="
			M118.109,276.225c-0.17,0-0.374-0.497-0.42-1.179c-0.048-0.671,0.1-1.01,0.269-1.01c0.334,0,0.528,0.339,0.571,1.01
			C118.576,275.728,118.444,276.225,118.109,276.225L118.109,276.225z M120.087,278.086c-0.335,0-0.563-0.851-0.619-1.69
			c-0.071-1.01,0.047-1.679,0.387-1.679c0.335,0,0.717,0.669,0.789,1.679C120.705,277.235,120.427,278.086,120.087,278.086
			L120.087,278.086z M122.674,278.927c-0.505,0-0.917-1.011-0.988-2.02c-0.08-1.18,0.199-2.021,0.708-2.021
			c0.5,0,1.067,0.841,1.147,2.021C123.613,277.916,123.179,278.927,122.674,278.927L122.674,278.927z M125.743,277.075
			c-0.841,0-1.417-1.019-1.487-2.029c-0.065-1.01,0.368-2.021,1.208-2.021c0.675,0,1.416,1.011,1.487,2.021
			C127.022,276.057,126.417,277.075,125.743,277.075L125.743,277.075z M127.664,273.196c-0.84,0-1.586-1.011-1.652-2.021
			c-0.071-1.011,0.533-2.021,1.374-2.021c0.839,0,1.585,1.011,1.657,2.021C129.108,272.186,128.509,273.196,127.664,273.196
			L127.664,273.196z M128.542,268.824c-0.845,0-1.586-1.02-1.657-2.029c-0.081-1.172,0.533-2.021,1.378-2.021
			c0.84,0,1.572,0.85,1.652,2.021C129.987,267.805,129.382,268.824,128.542,268.824L128.542,268.824z M127.791,260.401
			c-0.845,0-1.449,1.011-1.378,2.021c0.08,1.171,0.816,2.021,1.658,2.021c0.84,0,1.454-0.851,1.374-2.021
			C129.373,261.412,128.631,260.401,127.791,260.401L127.791,260.401z M126.427,255.351c-0.84,0-1.454,0.84-1.374,2.021
			c0.071,1.011,0.812,2.02,1.657,2.02c0.841,0,1.445-1.009,1.375-2.02C128.004,256.19,127.272,255.351,126.427,255.351
			L126.427,255.351z M123.972,251.47c-0.84,0-1.289,0.85-1.208,2.021c0.071,1.011,0.647,2.021,1.487,2.021
			c0.675,0,1.279-1.01,1.208-2.021C125.378,252.319,124.647,251.47,123.972,251.47L123.972,251.47z M120.644,249.619
			c-0.505,0-0.774,1.01-0.704,2.021c0.071,1.01,0.477,2.021,0.982,2.021c0.505,0,0.939-1.011,0.874-2.021
			C121.725,250.629,121.149,249.619,120.644,249.619L120.644,249.619z M117.807,249.959c-0.34,0-0.605,1.011-0.538,2.02
			c0.084,1.181,0.476,2.021,0.816,2.021c0.335,0,0.613-0.841,0.533-2.021C118.548,250.97,118.142,249.959,117.807,249.959
			L117.807,249.959z M115.767,252.149c-0.34,0-0.614,0.84-0.548,1.851c0.062,0.84,0.453,1.681,0.793,1.681
			c0.335,0,0.614-0.841,0.557-1.681C116.499,252.989,116.102,252.149,115.767,252.149L115.767,252.149z M124.01,256.86l-1.427,1.352
			c4.146,8.751,1.818,16.505-3.28,15.824C124.949,277.748,129.713,266.294,124.01,256.86L124.01,256.86z M116.886,268.315
			l0.963-0.672c-2.035-5.051-0.302-9.262,2.616-8.422C117.429,256.691,114.312,262.753,116.886,268.315L116.886,268.315z"/>
		
			<path fill-rule="evenodd" clip-rule="evenodd" fill="#D0D0D0" stroke="#000000" stroke-width="2.3578" stroke-linecap="round" stroke-linejoin="round" stroke-miterlimit="2.4142" d="
			M101.292,252.319c-4.098-5.731-9.522-6.231-12.454-2.36c-0.75,1.34-1.851,0-1.044-2.86c3.537-9.774,11.949-5.063,14.952,1.851
			C104.158,252.319,103.813,254.671,101.292,252.319L101.292,252.319z M96.089,276.907c-2.389-0.512-3.843-2.021-6.194-4.382
			c-0.916-1.011-0.991,0.33-0.548,1.85c0.874,2.86,2.989,4.213,4.911,5.223C96.326,280.268,97.993,277.577,96.089,276.907
			L96.089,276.907z"/>
		
			<path fill-rule="evenodd" clip-rule="evenodd" fill="#EDEDED" stroke="#000000" stroke-width="2.3578" stroke-linecap="round" stroke-linejoin="round" stroke-miterlimit="2.4142" d="
			M94.178,249.28c-4.018,0.339-6.794,6.4-5.958,13.643s4.952,13.134,8.971,12.805c4.197-0.171,6.807-6.232,5.957-13.645
			C102.313,254.84,98.379,249.118,94.178,249.28L94.178,249.28z"/>
		
			<path fill-rule="evenodd" clip-rule="evenodd" stroke="#000000" stroke-width="0.5052" stroke-linecap="round" stroke-linejoin="round" stroke-miterlimit="2.4142" d="
			M92.625,273.025c-0.17,0-0.374-0.5-0.407-1.011c-0.038-0.5,0.095-1.01,0.264-1.01c0.171,0,0.374,0.51,0.406,1.01
			C92.926,272.525,92.794,273.025,92.625,273.025L92.625,273.025z M94.258,274.717c-0.17,0-0.553-0.681-0.614-1.521
			c-0.057-0.84,0.231-1.511,0.4-1.511c0.34,0,0.553,0.671,0.61,1.511C94.716,274.036,94.593,274.717,94.258,274.717L94.258,274.717z
			 M96.491,275.386c-0.335,0-0.732-0.84-0.789-1.68c-0.071-1.01,0.208-1.851,0.547-1.851c0.5,0,0.897,0.841,0.968,1.851
			C97.274,274.546,96.997,275.386,96.491,275.386L96.491,275.386z M99.069,273.706c-0.505,0-1.058-0.681-1.129-1.691
			c-0.056-0.839,0.393-1.679,0.898-1.679c0.675,0,1.236,0.84,1.293,1.679C100.201,273.025,99.744,273.706,99.069,273.706
			L99.069,273.706z M100.857,270.336c-0.674,0-1.393-0.671-1.463-1.683c-0.071-1.01,0.557-1.69,1.228-1.69
			c0.675,0,1.397,0.681,1.468,1.69C102.161,269.665,101.534,270.336,100.857,270.336L100.857,270.336z M101.613,266.634
			c-0.675,0-1.236-0.85-1.308-1.86c-0.062-0.84,0.386-1.68,1.063-1.68c0.67,0,1.407,0.84,1.463,1.68
			C102.902,265.784,102.284,266.634,101.613,266.634L101.613,266.634z M100.943,259.391c-0.675,0-1.133,0.672-1.063,1.682
			c0.071,1.011,0.624,1.681,1.294,1.681c0.845,0,1.303-0.67,1.232-1.681C102.336,260.063,101.783,259.391,100.943,259.391
			L100.943,259.391z M99.786,254.84c-0.675,0-1.288,0.841-1.218,1.852c0.057,0.84,0.788,1.69,1.463,1.69
			c0.671,0,1.289-0.851,1.228-1.69C101.188,255.681,100.461,254.84,99.786,254.84L99.786,254.84z M97.544,251.64
			c-0.505,0-0.963,0.68-0.898,1.69c0.062,0.84,0.624,1.68,1.129,1.68c0.675,0,1.123-0.84,1.063-1.68
			C98.767,252.319,98.219,251.64,97.544,251.64L97.544,251.64z M94.73,249.959c-0.335,0-0.614,0.841-0.557,1.681
			c0.071,1.01,0.468,1.851,0.803,1.851c0.505,0,0.783-0.841,0.717-1.851C95.632,250.8,95.235,249.959,94.73,249.959L94.73,249.959z
			 M92.228,250.299c-0.17,0-0.444,0.84-0.388,1.68c0.071,1.011,0.462,1.853,0.633,1.853c0.34,0,0.614-0.842,0.547-1.853
			C92.96,251.139,92.568,250.299,92.228,250.299L92.228,250.299z M90.504,252.149c-0.169,0-0.458,0.672-0.4,1.511
			c0.056,0.841,0.443,1.521,0.613,1.521c0.335,0,0.453-0.68,0.397-1.521C91.057,252.821,90.84,252.149,90.504,252.149
			L90.504,252.149z M97.69,256.19l-1.086,1.341c3.546,7.413,1.483,14.154-2.932,13.645C98.441,274.375,102.651,264.613,97.69,256.19
			L97.69,256.19z M91.472,266.123l0.808-0.5c-1.653-4.382-0.222-8.092,2.351-7.411C91.954,256.021,89.111,261.241,91.472,266.123
			L91.472,266.123z"/>
		<polygon fill-rule="evenodd" clip-rule="evenodd" fill="#FFFFFF" points="102.362,178.515 106.612,220.265 137.362,219.015 
			134.112,174.765 		"/>
		<polygon fill-rule="evenodd" clip-rule="evenodd" fill="#FFFFFF" points="159.862,170.265 162.862,217.515 209.112,216.015 
			205.534,165.015 		"/>
		<polygon fill-rule="evenodd" clip-rule="evenodd" fill="#FFFFFF" points="231.362,160.665 235.261,213.765 295.362,212.079 
			290.112,153.265 		"/>
		
			<polygon fill-rule="evenodd" clip-rule="evenodd" fill="#FDFDFD" stroke="#000000" stroke-width="2.3578" stroke-linecap="round" stroke-linejoin="round" stroke-miterlimit="2.4142" points="
			323.862,151.265 327.862,211.515 351.112,220.015 345.862,146.515 323.612,149.765 		"/>
		
			<path fill-rule="evenodd" clip-rule="evenodd" stroke="#000000" stroke-width="2.3578" stroke-linecap="round" stroke-linejoin="round" stroke-miterlimit="2.4142" d="
			M319.695,316.515"/>
	</g>
	<text transform="matrix(1 0 0 1 479.2939 340.835)" fill="#E8E8E8" font-family="'ArialRoundedMTBold'" font-size="14.7321">.com</text>
</g>
</svg>
