<?xml version="1.0" encoding="utf-8"?>
<!-- Generator: Adobe Illustrator 16.0.0, SVG Export Plug-In . SVG Version: 6.00 Build 0)  -->
<!DOCTYPE svg PUBLIC "-//W3C//DTD SVG 1.1//EN" "http://www.w3.org/Graphics/SVG/1.1/DTD/svg11.dtd">
<svg version="1.1" id="Ebene_2" xmlns="http://www.w3.org/2000/svg" xmlns:xlink="http://www.w3.org/1999/xlink" x="0px" y="0px"
	 width="566.93px" height="708.66px" viewBox="0 0 566.93 708.66" enable-background="new 0 0 566.93 708.66" xml:space="preserve">
<polygon fill="#C4C4C4" stroke="#000000" stroke-width="0.5" stroke-miterlimit="10" points="284.75,95.66 283.75,116.66 
	292.5,116.66 292,96.16 291.084,95.577 291,87.16 289.5,86.41 288.5,64.41 287,86.327 285.667,86.827 285.417,95.66 "/>
<ellipse fill="#757575" stroke="#000000" stroke-width="0.5" stroke-miterlimit="10" cx="288.125" cy="121.66" rx="8.125" ry="6"/>
<path fill="#C4C4C4" stroke="#000000" stroke-width="0.5" stroke-miterlimit="10" d="M294,160.41l-0.75-32.75l-0.228,0.005
	c0.146-0.438,0.228-0.9,0.228-1.38c0-2.692-2.463-4.875-5.5-4.875s-5.5,2.183-5.5,4.875c0,0.57,0.116,1.115,0.319,1.624
	l-0.069,0.001l-0.5,32.5c0,0-13.667,6.25-16.25,15s20.25-5,20.25-5l24.5,11.25C310.5,181.66,311.25,168.16,294,160.41z"/>
<path fill="#C4C4C4" stroke="#000000" stroke-width="0.5" stroke-miterlimit="10" d="M310.834,184.827
	c0,10.701-48.084,11.034-48.084,0.333s10.913-19.375,24.375-19.375C300.588,165.785,310.834,174.126,310.834,184.827z"/>
<path fill="#C4C4C4" stroke="#000000" stroke-width="0.5" stroke-miterlimit="10" d="M286.871,178.494
	c10.729,0.101,19.879,5.292,23.716,12.596c0-0.014,0.001-0.027,0.001-0.04c0.086-9.205-12.089-16.589-23.211-16.328
	c-11.543,0.271-24.368,6.678-24.454,15.882c0,0.014,0.001,0.027,0.001,0.04C266.897,183.413,276.144,178.394,286.871,178.494z"/>
<ellipse fill="#C4C4C4" stroke="#000000" stroke-width="0.5" stroke-miterlimit="10" cx="286.5" cy="198.661" rx="25.833" ry="20"/>
<path fill="#898888" stroke="#000000" stroke-width="0.5" stroke-miterlimit="10" d="M287.377,174.722
	c10.729,0.101,18.79,4.938,22.957,12.938c0-0.012,1-3,0.166-6c-0.759-2.73-8.5-11.333-23.333-11.333c-13.163,0-24.333,7-24,13.833
	c0,0.012,0.167,2.489,0.167,2.5C267.296,180.444,276.649,174.622,287.377,174.722z"/>
<ellipse fill="#757575" stroke="#000000" stroke-width="0.5" stroke-miterlimit="10" cx="287.166" cy="201.66" rx="18.5" ry="13.667"/>
<path fill="#C4C4C4" stroke="#000000" stroke-width="0.5" stroke-miterlimit="10" d="M256.064,492.66h60.17
	c-11.679-129.44-18.901-287.333-18.901-287.333c-1.666-12.667-18.667-8.333-18.333-0.333
	C279.404,214.682,266.211,373.004,256.064,492.66z"/>
<path fill="#969696" stroke="#000000" stroke-width="0.25" stroke-miterlimit="10" d="M290.705,492.66
	c0.181-123.155,0.399-286.118,0.295-286.5c-0.375-1.375-3.5-1.5-3.5,1c0,1.553-1.543,163.224-2.713,285.5H290.705z"/>
</svg>
