<?xml version="1.0" encoding="utf-8"?>
<!-- Generator: Adobe Illustrator 16.0.0, SVG Export Plug-In . SVG Version: 6.00 Build 0)  -->
<!DOCTYPE svg PUBLIC "-//W3C//DTD SVG 1.1//EN" "http://www.w3.org/Graphics/SVG/1.1/DTD/svg11.dtd">
<svg version="1.1" id="Ebene_1" xmlns="http://www.w3.org/2000/svg" xmlns:xlink="http://www.w3.org/1999/xlink" x="0px" y="0px"
	 width="566.93px" height="708.66px" viewBox="0 0 566.93 708.66" enable-background="new 0 0 566.93 708.66" xml:space="preserve">
<line fill="#C1E5DB" stroke="#000000" stroke-width="4" stroke-linecap="round" stroke-miterlimit="10" x1="283" y1="151.16" x2="283" y2="64.66"/>
<path fill="#C1E5DB" stroke="#000000" stroke-miterlimit="10" d="M200,690.66h165v-19h-10v-57h-15v-21v-32h-11v-289h-10v-24h-8v-11
	h-5v-12c0,0-16,1-15-63c0,0,0.5-11.5-7-12c0,0-9,1.5-8.5,12c0,0,5.5,58.5-14.5,63v11.5h-7v13h-7v22.5h-8.5v289H227v52h-17v53v3.5
	h-10.5L200,690.66z"/>
<polyline fill="none" stroke="#000000" stroke-miterlimit="10" points="261,225.66 261,225.66 306,225.66 "/>
<line fill="none" stroke="#000000" stroke-miterlimit="10" x1="261" y1="237.16" x2="306" y2="237.16"/>
<line fill="none" stroke="#000000" stroke-miterlimit="10" x1="254" y1="250.16" x2="311" y2="249.16"/>
<polyline fill="none" stroke="#000000" stroke-miterlimit="10" points="247,272.66 269.333,272.66 269.333,322.327 "/>
<polyline fill="none" stroke="#000000" stroke-miterlimit="10" points="320.001,271.994 297.667,271.994 297.667,321.66 "/>
<polyline fill="none" stroke="#000000" stroke-miterlimit="10" points="329.001,326.994 297.334,326.994 297.334,665.994 "/>
<polyline fill="none" stroke="#000000" stroke-miterlimit="10" points="238.334,326.994 270.001,326.994 270.001,665.994 "/>
<line fill="none" stroke="#000000" stroke-miterlimit="10" x1="272" y1="561.66" x2="293.334" y2="561.66"/>
<line fill="none" stroke="#000000" stroke-miterlimit="10" x1="329" y1="561.66" x2="329" y2="589.326"/>
<line fill="none" stroke="#000000" stroke-miterlimit="10" x1="238.5" y1="561.66" x2="238.5" y2="588.326"/>
<polyline fill="none" stroke="#000000" stroke-miterlimit="10" points="227.667,594.326 259.667,594.326 259.667,665.66 "/>
<polyline fill="none" stroke="#000000" stroke-miterlimit="10" points="340,593.66 304.334,593.66 304.334,665.66 "/>
<line fill="none" stroke="#000000" stroke-miterlimit="10" x1="340" y1="614.66" x2="340" y2="665.66"/>
<line fill="none" stroke="#000000" stroke-miterlimit="10" x1="227" y1="613.66" x2="227" y2="665.66"/>
<line fill="none" stroke="#000000" stroke-miterlimit="10" x1="210" y1="670.16" x2="355" y2="670.16"/>
</svg>
