<?xml version="1.0" encoding="utf-8"?>
<!-- Generator: Adobe Illustrator 16.0.0, SVG Export Plug-In . SVG Version: 6.00 Build 0)  -->
<!DOCTYPE svg PUBLIC "-//W3C//DTD SVG 1.1//EN" "http://www.w3.org/Graphics/SVG/1.1/DTD/svg11.dtd">
<svg version="1.1" id="Ebene_1" xmlns="http://www.w3.org/2000/svg" xmlns:xlink="http://www.w3.org/1999/xlink" x="0px" y="0px"
	 width="566.93px" height="708.66px" viewBox="0 0 566.93 708.66" enable-background="new 0 0 566.93 708.66" xml:space="preserve">
<g>
	<polygon fill="#B75A5A" points="223.481,239.901 273.409,152.639 325.137,239.901 487.518,241.251 364.72,308.272 448.385,452.21 
		272.06,355.952 96.635,452.66 180.749,307.373 62,238.552 	"/>
	<g>
		<g>
			<path d="M204.345,252.24c0.026,2.356,0.236,3.228,0.495,5.218c3.728,0.035,5.599,0.053,9.302,0.083
				c-0.158-1.907-0.293-2.717-0.288-5.048c1.02,0.025,1.529,0.038,2.542,0.061c-0.025,5.559,0.326,7.087,0.398,12.674
				c-0.979-0.004-1.469-0.006-2.452-0.01c-0.043-2.603,0.033-4.128-0.105-6.367c-3.679-0.011-5.537-0.019-9.238-0.032
				c0.234,2.318,0.131,3.821,0.215,6.355c-0.976-0.005-1.464-0.007-2.439-0.012c-0.203-5.365-0.89-7.345-0.973-12.993
				C202.818,252.198,203.328,252.212,204.345,252.24z"/>
			<path d="M235.729,258.398c0.088,3.834-3.724,7.087-8.382,7.086c-4.82-0.001-8.211-3.372-8.377-6.88
				c-0.175-3.681,3.597-6.135,8.5-6.112C232.482,252.516,235.653,255.092,235.729,258.398z M221.559,258.576
				c0.095,2.454,2.212,5.411,5.924,5.407c3.738-0.004,5.833-2.975,5.776-5.521c-0.05-2.23-1.938-4.542-5.896-4.565
				C223.433,253.873,221.461,256.054,221.559,258.576z"/>
			<path d="M237.844,252.771c0.934,0.009,1.401,0.013,2.335,0.023c0.007,4.996,0.15,5.82,0.15,10.911c3.094,0,4.64,0,7.734,0
				c0,0.618,0.001,0.927,0.001,1.545c-4.028,0-6.044,0-10.072,0C237.991,259.542,237.852,258.375,237.844,252.771z"/>
			<path d="M249.699,252.923c0.934,0.014,1.4,0.021,2.334,0.036c0.01,4.967,0.166,5.656,0.166,10.747c3.094,0,4.64,0,7.734,0
				c0,0.618,0,0.927,0,1.545c-4.028,0-6.044,0-10.072,0C249.86,259.542,249.709,258.501,249.699,252.923z"/>
			<path d="M263.504,265.25c0-2.422,0.019-3.871-0.021-5.814c-2.343-2.64-3.582-3.167-5.874-6.396
				c1.062,0.015,1.594,0.021,2.656,0.035c1.023,1.544,1.553,2.111,2.61,3.247c0.724,0.779,1.283,1.366,1.87,2.097
				c0.021,0,0.033,0,0.054,0c0.489-0.682,1.082-1.309,1.754-2.073c1.003-1.115,1.502-1.661,2.54-3.185
				c1.063,0.006,1.596,0.007,2.66,0.01c-2.42,3.179-3.534,3.634-5.906,6.25c0.041,1.941,0.02,3.397,0.02,5.828
				C264.921,265.25,264.45,265.25,263.504,265.25z"/>
			<path d="M276.929,265.25c-1.837-5.708-2.928-6.521-4.777-12.076c0.988,0.002,1.483,0.001,2.471,0
				c0.866,2.809,1.371,3.363,2.294,5.502c0.576,1.318,1.06,3.081,1.382,4.457c0.021,0,0.033,0,0.054,0
				c0.295-1.418,0.859-3.105,1.436-4.473c0.903-2.138,1.31-2.722,2.271-5.526c0.977-0.009,1.464-0.014,2.44-0.025
				c0.886,2.803,1.405,3.39,2.352,5.567c0.549,1.272,1.035,2.931,1.304,4.436c0.021,0,0.033,0,0.055,0
				c0.376-1.567,0.885-3.133,1.407-4.477c0.889-2.176,1.285-2.803,2.233-5.621c0.954-0.014,1.433-0.022,2.388-0.036
				c-2.036,5.597-2.876,6.563-4.928,12.271c-0.979,0-1.467,0-2.443,0c-0.913-2.973-1.349-4.69-2.333-6.866
				c-0.607-1.333-1.028-2.228-1.297-3.361c-0.021,0-0.032,0.001-0.053,0.001c-0.295,1.121-0.653,2.021-1.281,3.366
				c-0.96,2.171-1.498,3.887-2.529,6.859C278.396,265.25,277.907,265.25,276.929,265.25z"/>
			<path d="M311.305,258.4c0.135,3.83-3.734,7.084-8.354,7.084c-4.78,0-8.075-3.512-8.178-6.818
				c-0.108-3.469,3.404-5.979,8.232-6.045C307.941,252.554,311.189,255.098,311.305,258.4z M297.268,258.625
				c0.074,2.342,2.139,5.356,5.817,5.356c3.706,0,5.839-2.983,5.752-5.509c-0.076-2.213-2.036-4.495-5.926-4.445
				C299.049,254.075,297.19,256.218,297.268,258.625z"/>
			<path d="M329.208,258.382c0.159,3.952-3.892,7.104-8.55,7.103c-4.821-0.001-8.082-3.454-8.195-6.87
				c-0.118-3.583,3.363-6.096,8.238-6.125C325.686,252.46,329.071,254.975,329.208,258.382z M314.961,258.578
				c0.08,2.413,2.118,5.401,5.834,5.404c3.742,0.003,5.963-2.931,5.864-5.524c-0.086-2.271-2.128-4.588-6.054-4.562
				C316.707,253.922,314.877,256.099,314.961,258.578z"/>
			<path d="M331.314,252.732c1.474-0.197,3.231-0.367,5.162-0.421c3.499-0.097,5.996,0.462,7.684,1.463
				c1.708,1.015,2.793,2.361,2.902,4.349c0.11,2.006-0.863,3.945-2.656,5.236c-1.803,1.299-4.758,2.015-8.43,2.017
				c-1.738,0.001-3.188-0.062-4.414-0.165C331.635,259.645,331.34,258.126,331.314,252.732z M334.012,263.807
				c0.615,0.084,1.514,0.105,2.469,0.106c5.229,0.006,8.182-2.446,8.025-5.719c-0.135-2.859-2.746-4.642-7.9-4.512
				c-1.26,0.032-2.207,0.129-2.847,0.238C333.859,257.897,334.064,259.337,334.012,263.807z"/>
			<path d="M189.492,293.14c-1.837-5.709-2.313-8.265-4.89-14.471c0.987-0.001,1.481-0.001,2.47,0
				c1.228,3.136,1.587,4.531,2.447,7.42c0.537,1.778,1.021,3.557,1.343,4.934c0.021,0,0.032,0,0.054,0
				c0.295-1.419,0.858-3.112,1.476-4.955c0.967-2.879,1.496-4.29,2.152-7.378c0.984,0.004,1.477,0.006,2.463,0.012
				c1.185,3.101,1.569,4.513,2.45,7.409c0.51,1.693,0.993,3.388,1.261,4.891c0.021,0,0.033,0,0.054,0
				c0.376-1.566,0.886-3.154,1.45-4.934c0.956-2.879,1.465-4.298,2.215-7.316c0.966,0.007,1.449,0.01,2.415,0.017
				c-1.699,5.946-2.926,8.662-4.978,14.371c-0.978,0-1.467,0-2.444,0c-0.913-2.973-1.369-4.459-2.282-7.432
				c-0.564-1.82-0.912-3.198-1.248-4.7c-0.021,0-0.033,0-0.054,0c-0.231,1.479-0.661,2.858-1.332,4.7
				c-1.031,2.973-1.546,4.458-2.578,7.432C190.958,293.139,190.469,293.14,189.492,293.14z"/>
			<path d="M211.54,288.651c-0.752,1.795-1.129,2.692-1.881,4.488c-0.967,0-1.45,0-2.417,0c2.46-5.709,3.816-8.478,6.067-14.328
				c1.139,0.007,1.708,0.011,2.846,0.018c2.668,5.841,3.765,8.602,6.236,14.311c-0.999,0-1.498,0-2.497,0
				c-0.773-1.795-1.163-2.694-1.936-4.489C215.39,288.65,214.107,288.651,211.54,288.651z M217.476,287.211
				c-0.709-1.643-1.064-2.465-1.773-4.108c-0.403-0.933-0.671-1.78-0.96-2.619c-0.021,0-0.033,0-0.054,0
				c-0.25,0.86-0.542,1.729-0.892,2.597c-0.709,1.651-1.063,2.477-1.772,4.129C214.205,287.211,215.294,287.211,217.476,287.211z"/>
			<path d="M225.933,278.868c0.937,0.001,1.403,0.001,2.338,0.001c0.006,5.095,0,7.634,0,12.725c3.094,0,4.641,0,7.734,0
				c0,0.618,0,0.928,0,1.546c-4.028,0-6.043,0-10.071,0C225.934,287.431,225.958,284.594,225.933,278.868z"/>
			<path d="M239.495,278.868c0.935,0,1.402,0,2.337,0c0,2.753,0,4.13,0,6.882c0.032,0,0.048,0,0.081,0
				c0.483-0.55,0.968-1.059,1.424-1.524c2.213-2.143,3.32-3.214,5.533-5.357c1.16,0,1.739,0,2.899,0
				c-2.621,2.422-3.932,3.633-6.553,6.055c2.825,3.286,4.238,4.93,7.063,8.216c-1.106,0-1.66,0-2.766,0
				c-2.385-2.804-3.579-4.206-5.963-7.009c-0.688,0.627-1.03,0.94-1.718,1.567c0,2.176,0,3.264,0,5.44
				c-0.935,0-1.402,0.001-2.336,0.001C239.496,287.431,239.495,284.577,239.495,278.868z"/>
			<path d="M276.986,285.855c0,4.911-3.787,7.517-8.407,7.517c-4.781,0-8.138-2.922-8.138-7.241c0-4.529,3.572-7.495,8.406-7.495
				C273.79,278.636,276.986,281.622,276.986,285.855z M262.938,286.089c0,3.049,2.096,5.78,5.775,5.78
				c3.707,0,5.802-2.689,5.802-5.929c0-2.836-1.881-5.801-5.775-5.801C264.873,280.14,262.938,282.955,262.938,286.089z"/>
			<path d="M280.904,278.868c3.9,0,5.85,0,9.75,0c0,0.618,0.001,0.927,0.001,1.545c-2.965,0-4.449,0.001-7.414,0.001
				c0,1.897,0,2.846,0,4.743c2.739,0,4.11,0,6.849,0c0,0.61-0.001,0.915-0.001,1.524c-2.739,0-4.108,0-6.848,0
				c0,2.583,0,3.875,0,6.458c-0.935,0-1.402,0-2.337,0C280.904,287.431,280.904,284.577,280.904,278.868z"/>
			<path d="M301.448,278.868c3.899,0,5.851,0,9.75,0c0,0.618,0,0.927,0,1.545c-2.966,0-4.448,0.001-7.413,0.001
				c0,1.897,0,2.846,0,4.743c2.74,0,4.109,0,6.85,0c0,0.61-0.001,0.915-0.001,1.524c-2.739,0-4.108,0-6.849,0
				c0,2.583,0,3.875,0,6.458c-0.935,0-1.401,0-2.336,0C301.449,287.431,301.448,284.577,301.448,278.868z"/>
			<path d="M316.248,288.651c-0.752,1.795-1.13,2.693-1.882,4.489c-0.967,0-1.45,0-2.417,0c2.461-5.709,3.689-8.563,6.15-14.271
				c1.127,0,1.69-0.002,2.82-0.009c2.463,5.684,3.698,8.609,6.176,14.281c-0.999,0-1.498,0-2.497,0
				c-0.775-1.784-1.159-2.694-1.932-4.497C320.098,288.654,318.815,288.651,316.248,288.651z M322.185,287.198
				c-0.708-1.647-1.063-2.465-1.774-4.1c-0.404-0.928-0.674-1.778-0.941-2.602c-0.021,0-0.033,0-0.055,0
				c-0.269,0.849-0.563,1.718-0.911,2.586c-0.709,1.651-1.063,2.477-1.772,4.129C318.911,287.211,320.002,287.212,322.185,287.198z"
				/>
			<path d="M345.867,286.445c-0.104-2.157-0.288-4.623-0.171-6.326c-0.032,0.001-0.048,0.001-0.081,0.002
				c-0.708,1.619-1.439,3.457-2.382,5.583c-1.319,2.99-1.991,4.561-3.274,7.35c-0.709,0-1.063-0.002-1.771-0.001
				c-1.17-2.73-1.729-4.227-2.885-7.029c-0.849-2.072-1.596-3.895-2.078-5.547c-0.021,0-0.033,0.002-0.055,0.002
				c-0.087,1.752-0.204,4.17-0.38,6.387c-0.21,2.537-0.32,3.836-0.512,6.274c-0.892,0-1.338,0.001-2.229,0.001
				c0.5-5.677,0.688-8.833,1.347-14.427c1.207-0.024,1.811-0.037,3.02-0.064c1.155,2.65,1.803,3.965,3.021,6.817
				c0.741,1.815,1.34,3.487,1.784,5.038c0.032,0,0.05,0,0.082,0c0.469-1.513,1.137-3.212,1.966-5.136
				c1.324-2.953,1.924-4.34,3.429-6.967c1.211-0.029,1.816-0.042,3.025-0.07c-0.006,5.307,0.371,9.01,0.807,14.804
				c-0.913,0-1.371,0.001-2.284,0.001C346.068,290.599,346.011,289.161,345.867,286.445z"/>
			<path d="M362.513,285.745c-2.816,0.008-4.224,0.022-7.046,0.062c-0.043,2.29-0.08,3.505-0.107,5.712
				c3.138-0.003,4.708-0.004,7.844,0.002c-0.009,0.666-0.014,0.992-0.015,1.617c-4.071-0.002-6.106-0.002-10.178-0.002
				c0.019-5.812-0.169-9.684,0.393-14.918c3.952-0.07,5.925-0.097,9.832-0.105c-0.072,0.558-0.106,0.837-0.159,1.411
				c-2.971,0.008-4.463,0.027-7.455,0.079c-0.142,1.684-0.101,2.574-0.129,4.528c2.823-0.049,4.233-0.067,7.05-0.078
				C362.532,284.718,362.526,285.059,362.513,285.745z"/>
		</g>
	</g>
	<path fill="#D38484" d="M192.094,342.659c7.332,0,14.273,1.973,19.546,5.555c5.195,3.53,8.449,8.439,9.161,13.825
		c0.81,6.11-1.617,12.325-6.832,17.501c-5.358,5.317-12.974,8.881-21.446,10.035c-1.907,0.26-3.833,0.392-5.727,0.392
		c-7.332,0-14.273-1.973-19.546-5.556c-5.195-3.528-8.45-8.438-9.163-13.824c-1.698-12.827,10.988-25.18,28.278-27.536
		C188.272,342.791,190.199,342.66,192.094,342.659L192.094,342.659"/>
	<path fill="#35120A" d="M192.282,343.109c7.227,0,14.069,1.917,19.266,5.396c5.121,3.429,8.329,8.198,9.031,13.431
		c0.797,5.936-1.595,11.974-6.735,17.001c-5.281,5.165-12.789,8.628-21.14,9.749c-1.879,0.253-3.778,0.381-5.645,0.381
		c-7.227,0-14.07-1.917-19.268-5.396c-5.121-3.429-8.329-8.199-9.031-13.431c-1.674-12.461,10.831-24.462,27.874-26.75
		C188.514,343.237,190.413,343.109,192.282,343.109L192.282,343.109 M192.28,341.31c-1.926,0-3.895,0.129-5.885,0.396
		c-18.055,2.426-31.226,15.308-29.418,28.773c1.609,11.98,14.534,20.387,30.083,20.387c1.926,0,3.895-0.129,5.885-0.396
		c18.056-2.425,31.227-15.307,29.418-28.772C220.753,349.716,207.829,341.31,192.28,341.31L192.28,341.31z"/>
	<path d="M190.195,359.851c-1.649-0.301-0.6-1.05-0.6-1.05c-0.225-3.373-1.949-2.249-1.949-2.249c-0.75-1.2,0.3-1.725,0.3-1.725
		c0.675-3.823-1.35-0.675-1.35-0.675c-7.197,8.546-17.092,7.647-17.092,7.647c-1.05,1.049,1.649,0.749,1.199,1.649
		c-0.449,0.898,2.699,2.099,2.699,2.099c1.049,0,1.35-0.3,1.049,2.1c-0.3,2.398,3.299,3.148,3.299,3.148
		c1.349,0.6,8.096,1.049,8.096,1.049c4.049,0,4.049-1.649,4.798-2.249c0.749-0.599,1.949-5.547,1.949-5.547
		C193.344,360.001,190.195,359.851,190.195,359.851z M187.046,357.92c0,0,0.787,0.73,0.056,0.956
		c-0.731,0.225-2.474-0.45-3.148,1.462c0,0-0.619,0.73-1.406,0.168C182.548,360.506,183.448,357.526,187.046,357.92z
		 M187.384,359.663c0,0-0.619,1.573-3.261,1.405C184.123,361.068,185.079,359.438,187.384,359.663z M180.524,363.317
		c0.168-0.281,1.63-0.844,1.518,0.787c-0.112,1.631,0.113,1.799,0.844,1.631c0.731-0.169,1.293-0.394,1.687-0.506
		c0.394-0.113,0.675-1.462-0.281-1.462c-0.956,0-1.405-0.844-1.462-1.125c-0.056-0.281,0-1.068,0.563-0.843
		c0,0,2.53,1.012,4.498-0.788c0,0,2.024-1.349,1.012,0.619c0,0-2.474,0.899-2.024,2.418c0,0-1.687,2.643-4.836,2.643
		c0,0-1.462,0.337-1.406-0.788c0.057-1.124-0.506-0.787-0.731-0.449c-0.225,0.337-1.405,0.899-1.968,0.787
		c-0.562-0.113-0.225-0.787,0.45-1.181C179.063,364.666,180.355,363.599,180.524,363.317z M174.283,363.823
		c0,0,3.093-2.924,5.567-1.968c0,0,0.787,0.337-0.169,1.012c0,0-2.361-0.73-3.879,1.068
		C175.801,363.936,174.845,364.724,174.283,363.823z M176.082,364.948c0,0,0.506-2.024,2.812-1.462
		C178.894,363.486,177.994,365.173,176.082,364.948z M189.295,366.298c-0.449,2.699-5.847,3.298-6.447,3.148
		c-0.6-0.149-5.548-1.35-5.548-1.35c-0.75-0.899,0.75-0.899,0.75-0.899l2.699,0.3c3.749,0.15,6.597-2.249,6.597-3.149
		c0-0.898,1.68-1.361,2.399-2.248c0.563-0.694,0.75,1.05,0.75,1.05S189.745,363.6,189.295,366.298z"/>
	<path d="M212.011,361.424c0,0-11.695,1.274-17.168-4.947c0,0-1.724-1.874-1.349,0.075c0,0,1.274,1.724-0.675,2.624
		c0,0-1.35,0.749,0.15,1.573c0,0,1.949,3.975-2.249,10.121c0,0-0.6,4.049,7.497,2.774c0,0,5.397-2.324,6.222-2.174
		c0.825,0.149,4.348-0.675,3.599-4.947c0,0,2.924-1.125,2.924-2.325c0,0,0.45-1.724,1.35-1.499S214.484,361.424,212.011,361.424z
		 M198.217,362.999c0,0-1.575,1.349-3.749,0.225C194.468,363.224,196.942,362.1,198.217,362.999z M195.518,372.221
		c-1.5,0-2.1,0.073-1.875-0.45c0,0,1.874-2.024,3.148,0.074C196.792,371.845,197.017,372.221,195.518,372.221z M199.941,371.771
		c0,0.3-1.649,1.199-2.174-0.15c-0.525-1.349-2.549-2.024-3.598-1.124c-1.05,0.899-2.474,0.524-2.024-0.675
		c0,0,1.199-2.399,3.748-2.1c0,0,2.924,0.301,3.524,1.275C200.016,369.971,199.941,371.47,199.941,371.771z M203.314,367.422
		c-1.049,0.3-1.799,0-1.349,1.199c0.45,1.2,0.6,2.85-0.45,2.999c-1.049,0.15-0.975-0.15-0.899-1.199
		c0.075-1.05-0.375-2.399-1.274-2.399c-0.9,0-1.5-0.75-2.549-0.75c-1.05,0-2.399-0.524-1.949-1.274
		c0.45-0.749,1.125-0.974,1.649-1.273s0.975-0.226,1.725-0.601c0.75-0.374,1.724-1.799,1.574-2.023
		c-0.15-0.226-0.825-0.825-1.725-0.525c-0.899,0.3-3.298,1.124-3.148,0.075c0,0,4.498-2.024,5.772-0.149c0,0,0.3,1.949-1.349,2.848
		c-1.65,0.9-2.625,1.8-1.425,2.1s2.774,0.824,2.849,0.375c0.075-0.449-0.45-1.499,0-1.649c0.45-0.149,0.825-0.3,1.5,0.226
		C202.939,365.923,204.363,367.122,203.314,367.422z M202.115,363.974c0,0,2.849-0.675,3.148,1.499
		C205.263,365.473,203.614,365.772,202.115,363.974z M206.388,365.023c-0.45-0.825-0.15-1.874-2.549-1.949c0,0-1.35,0-0.9-0.676
		c0,0,4.273-0.975,4.423,2.399C207.362,364.798,206.838,365.848,206.388,365.023z"/>
	<path fill="#D38484" d="M370.529,347.238c6.836,2.292,12.679,6.337,16.455,11.39c3.72,4.978,5.19,10.658,4.139,15.997
		c-1.191,6.059-5.436,11.204-11.945,14.49c-6.69,3.376-14.927,4.381-23.194,2.828c-1.86-0.35-3.699-0.825-5.464-1.418
		c-6.836-2.293-12.682-6.337-16.457-11.39c-3.721-4.977-5.19-10.659-4.139-15.998c2.503-12.717,18.266-20.485,35.138-17.318
		C366.923,346.169,368.762,346.646,370.529,347.238L370.529,347.238"/>
	<path fill="#35120A" d="M358.018,343.918v1.8c1.588,0,3.206,0.096,4.807,0.286c8.179,0.972,15.564,4.296,20.793,9.356
		c5.098,4.935,7.515,10.932,6.808,16.886c-0.635,5.34-3.804,10.229-8.924,13.765c-5.195,3.588-12.032,5.563-19.251,5.563
		c-1.591,0-3.208-0.096-4.809-0.286c-8.18-0.972-15.564-4.295-20.793-9.357c-5.098-4.934-7.516-10.931-6.808-16.885
		c0.636-5.34,3.804-10.229,8.923-13.765c5.196-3.587,12.033-5.563,19.252-5.563L358.018,343.918 M358.016,343.918
		c-15.564,0.001-28.512,8.717-29.962,20.916c-1.603,13.491,11.46,26.136,29.176,28.241c1.696,0.201,3.372,0.299,5.021,0.299
		c15.565,0,28.511-8.716,29.961-20.915c1.604-13.492-11.459-26.137-29.175-28.241C361.34,344.016,359.664,343.918,358.016,343.918
		L358.016,343.918z"/>
	<g>
		<g>
			<path fill="#35120A" d="M359.755,363.624c-0.33-0.039-0.664-0.06-0.991-0.06v-1.349l-0.001,1.349
				c-2.708,0-4.91,1.341-5.121,3.117c-0.24,2.022,2.154,4.039,5.228,4.405c0.331,0.038,0.665,0.058,0.993,0.058
				c2.708,0,4.909-1.339,5.12-3.116C365.223,366.007,362.828,363.99,359.755,363.624z M359.548,368.246
				c-0.622,0-1.125-0.335-1.125-0.749s0.503-0.75,1.125-0.75c0.62,0,1.124,0.336,1.124,0.75S360.168,368.246,359.548,368.246z"/>
		</g>
	</g>
	<g>
		<g>
			<path fill="#35120A" d="M372.019,353.509l0.648,13.839l-1.35-0.076l-1.124-18.666c0-0.15-2.175-0.075-2.699-0.3l2.099,19.267
				l-0.824,0.075l-2.698-16.487c-1.535-0.424-3.14-0.742-4.799-0.939c-13.206-1.569-24.854,5.091-26.017,14.875
				c-1.163,9.784,8.599,18.987,21.806,20.558c13.206,1.569,24.855-5.091,26.018-14.875
				C383.893,363.93,379.348,357.368,372.019,353.509z M366.322,368.188c-0.3,2.519-3.086,4.306-6.46,4.306
				c-0.378,0-0.763-0.022-1.153-0.068c-3.871-0.46-6.74-3.104-6.406-5.903c0.299-2.519,3.086-4.307,6.46-4.307h0.001
				c0.377,0,0.762,0.022,1.15,0.068C363.787,362.745,366.655,365.388,366.322,368.188z M371.167,369.896
				c-0.621,0-1.125-0.335-1.125-0.749s0.504-0.75,1.125-0.75s1.125,0.336,1.125,0.75S371.788,369.896,371.167,369.896z"/>
		</g>
	</g>
	<path fill="#D38484" d="M400.685,243.195c6.199,0.84,11.866,3.13,15.957,6.446c4.03,3.268,6.278,7.358,6.327,11.518
		c0.057,4.719-2.633,9.146-7.574,12.467c-5.074,3.412-11.88,5.237-19.162,5.14c-1.639-0.021-3.281-0.143-4.883-0.359
		c-6.199-0.841-11.866-3.13-15.958-6.447c-4.029-3.268-6.277-7.358-6.327-11.518c-0.119-9.906,11.875-17.806,26.735-17.607
		C397.438,242.857,399.082,242.979,400.685,243.195L400.685,243.195"/>
	<path fill="#35120A" d="M398.63,279.495c-1.6,0-3.23-0.095-4.848-0.282c-7.341-0.852-14.037-3.532-18.855-7.55
		c-4.927-4.108-7.319-9.127-6.738-14.134c1.044-9.001,11.569-15.535,25.028-15.535c1.602,0,3.231,0.096,4.848,0.282
		c7.343,0.852,14.039,3.533,18.857,7.551c4.926,4.108,7.319,9.127,6.739,14.133C422.617,272.961,412.09,279.495,398.63,279.495z
		 M393.217,243.793c-12.53,0-22.305,5.864-23.242,13.943c-0.508,4.383,1.66,8.838,6.104,12.544
		c4.552,3.796,10.913,6.333,17.911,7.145c1.548,0.179,3.108,0.271,4.64,0.271c12.532,0,22.307-5.864,23.243-13.943
		c0.509-4.384-1.659-8.838-6.104-12.544c-4.553-3.796-10.914-6.334-17.913-7.145C396.31,243.884,394.748,243.793,393.217,243.793z"
		/>
	<path fill="#35120A" d="M397.855,251.146l-7.797,0.15l0.6,8.996l1.65,4.498l8.396-0.15v-5.697L397.855,251.146z M392.415,263.427
		l-1.229-4.948l1.092-0.271l1.229,4.948L392.415,263.427z M394.565,263.802l-1.362-7.024l1.104-0.213l1.361,7.023L394.565,263.802z
		 M396.965,263.352l-1.354-6.979l1.104-0.214l1.354,6.979L396.965,263.352z M398.802,262.902l-0.971-5.005l1.104-0.214l0.97,5.005
		L398.802,262.902z"/>
	<polygon fill="#35120A" points="392.608,265.84 400.554,265.84 400.854,268.989 393.507,269.064 	"/>
	<polygon fill="#35120A" points="388.185,260.442 391.334,271.238 403.554,271.163 402.879,260.068 401.304,259.918 
		401.829,269.738 392.758,269.889 389.834,260.218 	"/>
	<path fill="#D38484" d="M279.457,200.481c5.833,0.946,11.131,3.222,14.92,6.406c3.732,3.137,5.764,6.989,5.721,10.844
		c-0.049,4.374-2.685,8.404-7.42,11.347c-4.865,3.024-11.33,4.532-18.201,4.245c-1.547-0.066-3.095-0.222-4.602-0.466
		c-5.833-0.946-11.131-3.221-14.92-6.406c-3.734-3.137-5.766-6.988-5.722-10.844c0.104-9.183,11.598-16.178,25.62-15.592
		c1.547,0.065,3.095,0.222,4.602,0.466H279.457"/>
	<path fill="#35120A" d="M274.009,233.754c-14.716,0-26.688-7.735-26.688-17.243c0-9.508,11.972-17.243,26.688-17.243
		s26.688,7.735,26.688,17.243C300.697,226.019,288.726,233.754,274.009,233.754z M274.009,201.067
		c-13.724,0-24.89,6.929-24.89,15.444c0,8.515,11.166,15.443,24.89,15.443c13.723,0,24.889-6.928,24.889-15.443
		C298.898,207.996,287.732,201.067,274.009,201.067z"/>
	<path fill="#35120A" d="M278.93,216.287h-4.445l10.59-7.252l-0.508-0.742l-10.879,7.45l-10.817-7.473l-0.512,0.74l10.535,7.276
		h-3.879c-0.926,0-1.676,0.642-1.676,1.434v3.88c0,0.792,0.75,1.433,1.676,1.433h9.917c0.926,0,1.676-0.642,1.676-1.433v-3.88
		C280.606,216.929,279.856,216.287,278.93,216.287z"/>
	<path fill="#D38484" d="M156.026,241.303c6.477,0,12.609,1.548,17.267,4.358c4.59,2.769,7.464,6.62,8.093,10.845
		c0.715,4.793-1.429,9.668-6.035,13.729c-4.733,4.17-11.461,6.966-18.946,7.873c-1.685,0.203-3.387,0.307-5.059,0.307
		c-6.477,0-12.609-1.547-17.268-4.358c-4.59-2.768-7.464-6.62-8.094-10.845c-1.5-10.062,9.707-19.752,24.981-21.602
		C152.649,241.407,154.352,241.303,156.026,241.303L156.026,241.303"/>
	<path fill="#35120A" d="M150.988,278.917c-14.167,0-25.129-6.824-26.063-16.224c-0.508-5.108,2.035-10.181,7.16-14.286
		c5.012-4.016,11.93-6.64,19.477-7.39c1.439-0.144,2.892-0.216,4.318-0.216c14.168,0,25.129,6.823,26.063,16.225
		c0.507,5.107-2.035,10.18-7.16,14.286c-5.013,4.015-11.93,6.64-19.477,7.389C153.867,278.844,152.415,278.917,150.988,278.917z
		 M155.879,242.601c-1.367,0-2.76,0.069-4.14,0.206c-7.205,0.716-13.785,3.203-18.53,7.004c-4.633,3.711-6.939,8.223-6.494,12.704
		c0.828,8.325,11.263,14.603,24.273,14.603c1.367,0,2.76-0.069,4.14-0.207c7.205-0.716,13.785-3.203,18.53-7.003
		c4.632-3.711,6.939-8.223,6.494-12.703C179.324,248.878,168.889,242.601,155.879,242.601z"/>
	<path fill="#35120A" d="M166.805,258.568l-6.656,1.175l-0.086-2.656c3.415-0.007,6.18-1.688,6.18-3.762
		c0-2.079-2.778-3.763-6.205-3.763c-2.076,0-3.909,0.621-5.035,1.57c-1.069-1.132-3.077-1.897-5.384-1.897
		c-3.426,0-6.204,1.685-6.204,3.763c0,1.443,1.342,2.695,3.308,3.327h-0.967l-2.107,7.417l5.683-0.075l-8.962,5.342l0.691,1.159
		l9.227-5.501l-0.887,6.979l1.339,0.17l0.993-7.809l7.46,5.979l0.844-1.053l-6.639-5.32l6.874-0.09l-0.06-1.828l5.917,0.696
		L166.805,258.568z"/>
</g>
</svg>
