<?xml version="1.0" encoding="utf-8"?>
<!-- Generator: Adobe Illustrator 16.0.0, SVG Export Plug-In . SVG Version: 6.00 Build 0)  -->
<!DOCTYPE svg PUBLIC "-//W3C//DTD SVG 1.1//EN" "http://www.w3.org/Graphics/SVG/1.1/DTD/svg11.dtd">
<svg version="1.1" id="Ebene_2" xmlns="http://www.w3.org/2000/svg" xmlns:xlink="http://www.w3.org/1999/xlink" x="0px" y="0px"
	 width="566.93px" height="708.66px" viewBox="0 0 566.93 708.66" enable-background="new 0 0 566.93 708.66" xml:space="preserve">
<path fill="#317C93" d="M130,103.66c-25.712,2.571-34,67-21,120c9.052,36.904-66,78.423-71,117c-14,108,26,18,10,78s18,32,12,104
	s-66,92-8,140s62-14,110,0s54-30,100-12s60-30,88,10s42,36,98,20s52-2,88-46s-20-124,2-144s20-4-20-58s-11-69-3-115
	c3.894-22.388-67.86-77.063-69-147c-1.288-79.039-57.909-154.187-100-147c-40.997,7-98-23.66-150.741,54.246
	C164.589,123.21,130,103.66,130,103.66z"/>
<path fill="#686868" d="M209,435.66c0,0,1-6-12-10s-14-29-27-35c0,0-45-20-38-85c0,0,12-19,23-21c0,0-10-13,26-20l135-3
	c0,0,73,45,80,53s29,23,29,59c0,0,23,31,6,59c0,0,0,28-33,24l-106,9L209,435.66z"/>
<path fill="#999999" stroke="#7C7C7C" stroke-width="2" stroke-miterlimit="10" d="M306.25,204.16c0,1.333-10.083,1.917-7.75,11.25
	c0,0-19.25,9.417-28.25,9.75c0,0-7.583-2.167-10.25-1.5s-17.333,6-17.333,6L230,240.827c0,0-12,19.5-3,28.5c0,0,10.667,16,31,7.333
	s38.333-38.333,38.333-38.333l15.334-41.333L306.25,204.16z"/>
<path fill="#999999" stroke="#7C7C7C" stroke-width="2" stroke-miterlimit="10" d="M316,168.994c0,0-1.999,25.667,6.334,37.333
	c0,0,11.999,36.666-10.334,53.333c0,0,7.667,3,8.667-1s5.667-2.333,10.667,0s8,9.667,12.333,10s24.001,6,29.667,23.333
	c0,0,0.666,1.667,6.666,4.333s22,20,23.667,26.667s-0.667,7.667-7,3.333s-30.333-23-39-24.333c0,0-4.334-3-5.667-4.333
	s6,10.334,16,13.667s-0.334,2.667-4,1s-31.332-14-31.666-15.667s-15.667-1.666-22.667-8.333c0,0-38.667-4-52-9.667
	c0,0-15.333-4-2.333-25c0,0,8.333-16,25.333-24.667c0,0,15.667-7,17.667-10.333S316,168.994,316,168.994z"/>
<path fill="#999999" stroke="#7C7C7C" stroke-width="2" stroke-miterlimit="10" d="M249.333,229.327c0,0,6.087-2.322,13.5-2
	c15.333,0.667,36.333-6.833,39.167-11.333c0,0,7.333-7.667,12.667-28.667c0,0,3.333-17.917,4.667-25.333
	c0,0,3.916-17.083,0.666-22.583c0,0-2.5-5.667-12.5-7c0,0-15.5-7.75-24.167-9.083v-7.667c0,0-15.667-8.333-20.333-15
	c0,0-11.667-8-15.667-9.333l-9.25,1.5c0,0,1.5,8.833,3.583,9.167c1.167,2.167-2.167,11.5,0.417,10.833c0,0,1.417-0.917,2.833,0
	c1.13,0.731-0.5,5.083,1.083,4.833c0,0,0.333,1.583,1.667,1.583c0,0-0.75,5.333,3.333,5.75l5-2c0,0,3-1.667,4,1.667
	c0,0,0.667,2.667,0.667,3.667S248,127.994,245,129.994c0,0-5.667-0.667-9,6.667c0,0-6.333,27-6.667,34c0,0-0.333,6.334-6.333,17.667
	c0,0-8,19.667-8.333,30.667c0,0-2,26.667-4.667,27.333c0,0-0.333,1.333-2.667,4.333c0,0-9,1.667-12,2.333s-8.333-0.333-12.667,9
	c0,0,3.333,5.667,17.667,2.333c0,0,14.667-5.667,16-8s2.667-6,3-8.667s3-11,3.333-12s2-7.666,6.333-14.333c0,0,3.667-10,4.667-15
	c0,0,4.333-14.667,6.333-19.333s5.667-18,6.333-17s3,6.667,7.667,7c0,0,3.333,15.333,5.333,18.667c0,0,0.833,16.167-1,19
	c-5.667,1.333-11,3.667-13.333,4.667c0,0-10.5,1.5-16.333,5.333c0,0-5.167,5.833-4.167,7.5c0,0-0.833,2.5,1.667,3
	c0,0-1,4.5,1.5,3.333c0,0,0.167,3.167,2.333,2.333c0,0,1.667,1.667,3.5-0.167c1.642-1.642,4-6.167,8.5-6.833
	S250,231.161,249.333,229.327z"/>
<path fill="#AFAFAF" stroke="#7C7C7C" stroke-width="2" stroke-miterlimit="10" d="M238.083,92.827c0,0-5.083-3.167-0.417-10.833
	c0,0,4.666-8.334,13.333-8.667c0,0,16.333-12,26.333,0c0,0,5.333,5.333,6.333,15.333s3.999,5.667,2.333,18.667
	c0,0,3.668,3,4.334,10.333c0,0,7,3,9.333,8c0,0,7.333,4.833,7.833,6.75s-24.167-9.083-24.167-9.083s-2.333-3-1.333-4.667
	c0,0-4.333-1.667-5.333-6.333c0,0-13.667-6.667-16.667-13c0,0-7.333-3.666-9-6.333C251,92.994,239.833,94.328,238.083,92.827z"/>
<path fill="none" stroke="#7C7C7C" stroke-width="2" stroke-miterlimit="10" d="M269.667,162.327c0,0,1.666,15-15.667,14.667"/>
<path fill="none" stroke="#7C7C7C" stroke-width="2" stroke-miterlimit="10" d="M276.667,162.66c0,0-4.999,16,12.667,17.667
	c0,0,15-0.667,10-16.333"/>
<path fill="none" stroke="#7C7C7C" stroke-width="2" stroke-miterlimit="10" d="M265.333,199.327c0,0,11.667-2.333,20.667-1.333"/>
<path fill="none" stroke="#7C7C7C" stroke-width="2" stroke-miterlimit="10" d="M273.667,194.994c2,0,11.001-1,17.667-0.333"/>
<path fill="none" stroke="#7C7C7C" stroke-width="2" stroke-linecap="round" stroke-miterlimit="10" d="M224.563,232.035
	c0,0,3.938-5.375,4.813-5.125"/>
<path fill="none" stroke="#7C7C7C" stroke-width="2" stroke-linecap="round" stroke-miterlimit="10" d="M226.167,235.16
	c0,0,4.146-6.25,6.271-6.188"/>
<path fill="none" stroke="#7C7C7C" stroke-width="2" stroke-linecap="round" stroke-miterlimit="10" d="M227.688,238.473
	c0,0,5.063-6.625,6.563-6.375"/>
<path fill="none" stroke="#7C7C7C" stroke-width="2" stroke-linecap="round" stroke-miterlimit="10" d="M230.063,240.723
	c0,0,5.313-6.125,5.563-6.375"/>
<polygon fill="#1E1D1D" points="317.682,552.721 314.781,593.332 353.458,594.299 373.764,550.787 338.954,536.282 "/>
<path fill="none" stroke="#7C7C7C" stroke-width="2" stroke-miterlimit="10" d="M258.333,214.66c0,0,18.667-1.75,23.167-6
	c0,0,10.25-5.75,12.5-6s3.25-2.25,2.75-5c0,0-0.25-22,5.25-30.5"/>
<path fill="none" stroke="#7C7C7C" stroke-width="2" stroke-miterlimit="10" d="M296.667,280.994c1.667,0,59.333,5,94,37"/>
<path fill="none" stroke="#7C7C7C" stroke-width="2" stroke-miterlimit="10" d="M332.334,296.66c0,0-5.334-3.667-5.334-9.667"/>
<path fill="none" stroke="#7C7C7C" stroke-width="2" stroke-miterlimit="10" d="M340.667,267.994c0,0-17.999-3.667-19.333-3"/>
<path fill="#543E3E" d="M327,442.66c0,0-25,3-31,18s-8,38-8,38l31,57c0,0,4-10,11-7s20,14,28,9s7,9,7,9s35-50,42-50s8-8,25,9
	c0,0,29,47,33,53s31-14,50,5s4,2,4,2s29,1,21-15s-53-53-59-52l-24-21c0,0-16-17-28-14c0,0-24-12-30-20s-4-10-15-11
	S333,436.66,327,442.66z"/>
<path fill="#564D44" d="M134,534.66c0,0-7-13-13-15c0,0-14-4-3-9l45-36c0,0,7-7,9-13c0,0,9-20,22-21c0,0,10-5,15-5s12-9,34,5
	s22,4,27,13s12,9,15,25s3,27,5,40s0,32-1,42s-4,43-4,48s-25-7-32-3c0,0-14-6-38-6c0,0-18-9-29-9c0,0-19-6-28-8c0,0-7-10-15-15
	C143,567.66,120,552.66,134,534.66z"/>
<path fill="#443E3E" d="M274,457.66l30-4c0,0-21.854,19-7.341,46s25.915,39,25.915,39s0.758,0.731,1.749,1.991
	c2.076,2.639,5.173,7.595,4.471,13.009c-1.036,8,8.293,20,5.184,27c-3.11,7,7.256,16-10.366,15c-17.623-1-27.989,10-32.136,10
	c-4.146,0-6.22,3-6.22,3L274,457.66z"/>
<path fill="#7C7C7C" d="M338,603.66c0,0,58.52-86,69.813-89c0,0,22.587-6,32.854,22c0,0,49.279,69,51.333,87c0,0-53.387,1-77-2
	C415,621.66,342.106,607.66,338,603.66z"/>
</svg>
