<?xml version="1.0" encoding="utf-8"?>
<!-- Generator: Adobe Illustrator 16.0.0, SVG Export Plug-In . SVG Version: 6.00 Build 0)  -->
<!DOCTYPE svg PUBLIC "-//W3C//DTD SVG 1.1//EN" "http://www.w3.org/Graphics/SVG/1.1/DTD/svg11.dtd">
<svg version="1.1" id="Ebene_1" xmlns="http://www.w3.org/2000/svg" xmlns:xlink="http://www.w3.org/1999/xlink" x="0px" y="0px"
	 width="566.93px" height="708.66px" viewBox="0 0 566.93 708.66" enable-background="new 0 0 566.93 708.66" xml:space="preserve">
<path fill-rule="evenodd" clip-rule="evenodd" d="M439.75,644.441l-12.378-0.301l-1.51-16.909l-32.305-5.739l-1.814-21.735
	l-4.528-3.622l0.303-15.398l3.02-1.812l-0.604-6.644l-14.192-14.189l-0.904-86.654l8.152-9.058v-14.19l-3.623-3.02l-0.603,2.718
	l-12.984-6.643v-17.211l1.813-2.718v-4.829h-3.624v-11.172l-5.434-3.17l-3.474-2.114c-0.829-1.282-0.848-1.316-2.81-3.281
	c-0.605-24.001-2.211-51.955-0.25-74.75c1.784-0.127,3.628-1.952,4.75-2.75c1.206-6.038-6.119-27.866-6.25-35.75
	c-0.15-9.058-0.489-11.498-2-19.5c6.065-5.472,8.15-2.234,16-20.5c5.812-1.459,8.029-5.6,12.3-8.621
	c0.43-5.442-5.435-7.246,2.565-15.247c-2.235-4.405-10.813-6.332-15.398-9.662c-2.756-2.002-3.639-4.389-6.643-4.378
	c-5.159,0.024-10.113,8.152-14.19,9.964c-1.132-3.001-2.237-7.826-3.219-11.019c-1.485-4.815-0.013-10.225-2.177-14.451
	c-1.14-2.228-3.813-2.005-5.927-3.817c-2.079-1.78-5.268-2.463-6.038-4.832c-0.769-2.369,1.218-7.154,1.058-9.963
	c0,0-0.15-5.888,0.187-8.622c0.266-4.361-0.897-12.093-0.404-18.476c5.98-0.511,14.184,1.242,17.335-2.154
	c-6.201-0.202-13.488,0.663-16.72-2.461c6.8-3.756,14.069-7.034,18.594-13.106c-7.422,0.257-13.068,10.335-22.021,9.034
	c2.821-8.39,8.815-13.548,11.169-22.413c-5.57,5.007-8.655,12.543-15.156,16.604c-0.811-1.681-3.942-1.092-4.592-2.929
	c-0.711-7.527,1.533-17.578-0.372-22.518c-1.778,7.124-2.173,15.654-3.674,23.058c-3.28-0.047-5.838,1.081-9.261,2.225
	c-3.378-5.072-4.375-12.484-8.506-16.819c-0.713,8.412,7.804,15.34,3.266,21.969c-3.756-0.892-8.09-2.478-11.662-3.548
	c-0.423-11.426-3.623-22.343-2.417-34.872c0.568-5.906,4.186-10.557,3.172-16.908c-0.519-3.265-1.362-5.552-1.36-9.36
	c2.728-0.326,2.344-0.024,4.528-0.905c0.007-3.629-0.179-4.637-0.754-7.7c-3.423-0.907-3.623-1.66-5.737-1.51
	c-2.993-4.353-0.117-6.846,0.604-10.114c0.969-4.413,1.2-7.519,1.51-11.474c-0.737-0.041-1.178-1.666-2.114-1.51
	c-0.502,3.094-0.84,3.175-4.226,2.717c-0.966,0.763-0.842,1.958-1.812,2.717c-0.83-0.9-2.113-0.366-3.775-0.453
	c-3.924,5.285,3.4,12.128,0.905,18.568c-2.125,0.167-5.694-0.153-6.943,0.906c-1.857,6.153-0.453,9.662,4.832,9.208
	c-0.686,6.519-3.133,11.941-2.264,18.569c1.013,7.685,5.19,11.031,5.735,14.794c0.504,3.492-1.354,7.971-1.66,11.625
	c-0.727,8.638,1.352,17.793,1.057,27.776c-8.08,7.583-15.494,17.697-7.795,34.605c-1.371,2.487-3.292,4.066-2.75,8.5
	c2.013,2.598,7.363,0.768,9.75,3c-0.862,2.625-1.862,5.426-3.75,7c0.294,6.492,0.304,10.988,3.186,16.338
	c1.564,2.902,5.313,5.372,5.435,8.454c0.104,2.578-3.748,6.782-4.621,8.958c-2.698,6.685-1.718,14.481-6.5,20
	c3.345,3.009,7.938-1.136,11.574-1.482c3.443,12.184-9.429,23.789-8.302,28.229c1.042,4.106,4.846,0.029,7.549,3.321
	c-4.078,15.701-3.098,26.98-5.07,38.932c-0.585,3.545-2.35,5.492-4,9.75c-1.41,3.644-2.269,8.932-2.75,13.25
	c-1.249,11.173-1.747,23.53-4.5,32c-2.07,6.369-6.422,11.512-8.438,16.573c-0.034,2.893,4.075,1.66,1.723,5.191
	c-3.696-0.271-4.218,0.788-6.706,1.752l-0.302,9.663l-5.132,0.677v7.021l3.17,1.359l-1.585,8.83l-2.49,1.133l-0.227,9.964
	l-10.417,0.226l-1.585-2.264l-7.246-1.132l0.226,21.285l10.87,8.832l-2.491,46.647l-3.17,2.944v2.716l2.038,1.359l-0.906,24.229
	l-14.04,21.513l-0.68,12.907l2.717-0.228l-0.679,12.907l-5.511,16.533h1.811l-0.603,14.492h-37.439v24.758H97.064v31.703h342.385
	l53.441,0.604v-22.342L439.75,644.441z M292.521,146.95c-0.817-0.057-1.632-0.109-1.731,0.563c-1.91-0.418-1.306-3.299-4.02-2.921
	c0.024-2.696,0.05-5.39,0.074-8.084c2.758,0.535,4.852,1.721,6.9,2.949C292.95,141.699,291.758,144.838,292.521,146.95z"/>
<path fill-rule="evenodd" clip-rule="evenodd" fill="#BCDBC2" d="M279.528,52.729c0.359,2.125,1.086,3.892,1.095,6.361
	c-1.924-0.018-3.848-0.036-5.77-0.054c-0.474-1.441-0.731-3.098-0.533-5.198C275.871,53.28,277.376,52.673,279.528,52.729z"/>
<path fill-rule="evenodd" clip-rule="evenodd" fill="#BCDBC2" d="M274.831,61.347c2.961-0.217,1.691,6.051,1.086,7.516
	C273.702,68.175,275.245,63.795,274.831,61.347z"/>
<path fill-rule="evenodd" clip-rule="evenodd" fill="#BCDBC2" d="M278.293,61.377c1.689,0.488,2.133,7.892-0.646,7.5
	C277.902,66.418,277.143,62.924,278.293,61.377z"/>
<path fill-rule="evenodd" clip-rule="evenodd" fill="#BCDBC2" d="M280.602,61.399c2.864-0.313,1.831,6.186,1.088,7.515
	C278.729,69.128,279.991,62.863,280.602,61.399z"/>
<path fill-rule="evenodd" clip-rule="evenodd" fill="#BCDBC2" d="M285.798,61.446c2.299,0.03,3.564,6.539,1.088,7.516
	C284.396,68.542,286.399,63.716,285.798,61.446z"/>
<path fill-rule="evenodd" clip-rule="evenodd" fill="#BCDBC2" d="M267.894,61.86c3.417-0.108,1.922,4.599,2.246,7.525
	c-1.637,0.463-1.492-0.827-2.882-0.602C267.668,66.675,268.1,64.592,267.894,61.86z"/>
<path fill-rule="evenodd" clip-rule="evenodd" fill="#BCDBC2" d="M271.36,61.891c0.771,0.007,1.539,0.015,2.309,0.021
	c-0.411,2.881,1.27,7.895-2.376,7.484C271.316,66.895,271.337,64.393,271.36,61.891z"/>
<path fill-rule="evenodd" clip-rule="evenodd" fill="#BCDBC2" d="M283.483,62.001c2.459,0.254,0.506,4.845,1.092,6.939
	C282.112,68.687,284.067,64.096,283.483,62.001z"/>
<path fill-rule="evenodd" clip-rule="evenodd" fill="#BCDBC2" d="M282.24,71.804c0.042,1.79-0.729,2.753-1.194,4.032
	c-2.988-0.307-7.168,0.556-9.228-0.663C271.084,70.054,278.698,70.664,282.24,71.804z"/>
<path fill-rule="evenodd" clip-rule="evenodd" fill="#BCDBC2" d="M278.718,78.125c0.024,1.692,1.3,2.157,2.282,2.908
	c-1.994,0.605-6.337-1.393-10.385-0.673C271.482,77.746,275.151,77.989,278.718,78.125z"/>
<path fill-rule="evenodd" clip-rule="evenodd" fill="#BCDBC2" d="M278.659,84.472c-1.542,1.304-5.962-1.869-8.082-0.074
	c1.018,3.962,7.747,2.311,9.766,5.285c-3.579,3.699-6.908-1.709-10.372-1.825c0.014-1.732,0.03-3.465,0.045-5.195
	C271.215,82.851,276.773,83.116,278.659,84.472z"/>
<path fill-rule="evenodd" clip-rule="evenodd" fill="#BCDBC2" d="M271.075,93.065c0.102-0.677,1.058-0.479,1.739-0.56
	c1,1.304,0.237,4.344,1.101,5.782C271.903,97.592,272.844,93.998,271.075,93.065z"/>
<path fill-rule="evenodd" clip-rule="evenodd" fill="#BCDBC2" d="M280.726,111.049c0.251,2.207-4.518,1.054-5.199,0.53
	C275.472,109.93,280.055,110.033,280.726,111.049z"/>
<path fill-rule="evenodd" clip-rule="evenodd" fill="#BCDBC2" d="M282.187,77.578c0.67,0.099,1.026-0.118,1.159-0.566
	c1.24,0.497,0.461,2.98,1.703,3.478C284.493,81.365,282.25,79.079,282.187,77.578z"/>
<path fill-rule="evenodd" clip-rule="evenodd" fill="#BCDBC2" d="M282.638,91.44c1.606-1.808-0.975,2.468-1.192,4.028
	c-0.525,3.76,0.295,8.755-0.112,12.124c-0.846,0.885-2.958,0.481-4.623,0.533c-0.405-3.271-0.29-9.829-1.021-14.44
	C277.386,92.301,282.401,94.301,282.638,91.44z"/>
<path fill-rule="evenodd" clip-rule="evenodd" fill="#D3C842" d="M273.993,42.411c-1.602,1.639-1.646,6.415-0.075,8.08
	c2.486-0.962,6.783-0.086,8.676-1.651c0.028-3.078,0.058-6.156,0.085-9.235C278.804,40.071,278.815,46.154,273.993,42.411z"/>
<path fill-rule="evenodd" clip-rule="evenodd" fill="#BCDBC2" d="M314.182,114.242c0.602,2.952,1.563,11.29-0.695,13.272
	C311.745,124.864,313.812,118.373,314.182,114.242z"/>
<path fill-rule="evenodd" clip-rule="evenodd" fill="#BCDBC2" d="M286.875,133.047c3.892,0.184,5.783,2.328,9.211,2.97
	c-0.348,1.195-1.228,1.851-1.758,2.866C293.026,135.781,286.836,137.472,286.875,133.047z"/>
<path fill-rule="evenodd" clip-rule="evenodd" fill="#BCDBC2" d="M281.828,116.833c1.859,8.665,2.399,18.62,2.625,28.891
	c-0.586,2.288,3.224,0.266,2.864,2.335c-2.208,9.402-6.993,16.185-17.477,17.158c-3.851-8.173,4.127-13.884,5.38-20.157
	c1.686-8.44-2.085-16.331-0.329-27.136C278.095,118.467,279.18,116.855,281.828,116.833z"/>
<path fill-rule="evenodd" clip-rule="evenodd" fill="#BCDBC2" d="M312.883,130.395c1.828-0.727,1.775,4.801-0.038,4.04
	C312.857,133.087,312.87,131.742,312.883,130.395z"/>
<path fill-rule="evenodd" clip-rule="evenodd" fill="#BCDBC2" d="M316.342,131.003c1.714-0.105,2.015,2.077,1.125,2.898
	C316.207,133.805,316.242,132.434,316.342,131.003z"/>
<path fill-rule="evenodd" clip-rule="evenodd" fill="#BCDBC2" d="M301.308,133.178c0.849,0.878,0.907,2.54,1.12,4.049
	C300.228,137.671,301.716,134.491,301.308,133.178z"/>
<path fill-rule="evenodd" clip-rule="evenodd" fill="#BCDBC2" d="M322.058,136.827c1.339,1.98,1.537,6.656,0.492,9.244
	c-3.736-1.291-7.092-2.955-9.181-5.858c-5.976,3.238-8.478,10.013-18.56,9.07C296.284,137.755,310.322,135.965,322.058,136.827z"/>
<path fill-rule="evenodd" clip-rule="evenodd" fill="#BCDBC2" d="M325.475,142.054c2.482-1.835,4.645,1.522,8.078,0.652
	C332.29,145.036,326.243,143.846,325.475,142.054z"/>
<path fill-rule="evenodd" clip-rule="evenodd" fill="#BCDBC2" d="M312.182,143.669c3.265,1.943,6.801,3.618,9.761,5.861
	c0,1.359-1.01,1.691-0.609,3.457c-1.082-1.035-3.81-0.454-5.767-0.631c-0.729,2.17-1.205,4.598-1.223,7.497
	c-2.152-0.252-3.39,0.431-3.483,2.274c1.024,1.798,1.764,0.326,4.037,0.615c1.863-0.623,1.853-3.156,1.78-5.758
	c1.392-0.721,2.146-2.087,4.634-1.688c0.18,8.922-3.876,13.531-9.388,16.66c-9.637-1.409-12.205-9.756-12.516-20.322
	C305.004,150.342,309.513,147.939,312.182,143.669z M305.154,154.57c2.104,0.352,5.074,0.901,7.507,0.068
	c0.096-1.433-0.892-1.793-1.133-2.896C308.378,151.639,305.729,152.048,305.154,154.57z"/>
<path fill-rule="evenodd" clip-rule="evenodd" fill="#BCDBC2" d="M291.809,161.954c-0.002,17.479-2.142,40.934-20.567,39.65
	c-0.548-6.427,5.461-10.643,8.229-16.091c2.802-5.509,4.829-11.684,7.091-17.833C288.977,166.449,290.854,164.674,291.809,161.954z"
	/>
<path fill-rule="evenodd" clip-rule="evenodd" fill="#BCDBC2" d="M294.694,161.98c2.267,1.398,3.549,3.761,5.144,5.82
	c-0.86,6.873,0.228,12.928-0.191,20.783c-6.486,9.708-12.666,19.728-25.037,23.442c-0.451-2.252-2.242-4.516-3.395-7.535
	C292.554,204.083,293.002,182.4,294.694,161.98z"/>
<path fill-rule="evenodd" clip-rule="evenodd" fill="#BCDBC2" d="M303.278,170.141c1.895,1.196,4.032,2.145,5.742,3.519
	c0.735,18.135-5.725,30.813-14.811,41.432c-2.792,3.265-8.041,7.176-13.352,7.962c-0.398-2.586,4.053-3.967,6.404-5.717
	c2.394-1.782,7.063-4.951,8.151-7.43c4.305-9.798,6.176-24.892,7.85-38.03C303.269,171.297,303.274,170.718,303.278,170.141z"/>
<path fill-rule="evenodd" clip-rule="evenodd" fill="#BCDBC2" d="M281.324,172.252c1.033-0.156,1.18,0.555,0.571,0.58
	c-2.321,5.212-3.849,11.232-7.64,14.942c-2.974-0.703-6.178-1.181-9.221-1.816C264.595,175.414,277.608,178.568,281.324,172.252z"/>
<path fill-rule="evenodd" clip-rule="evenodd" fill="#BCDBC2" d="M314.808,172.557c0.992,2.55,0.323,4.459,3.396,6.959
	c-1.153,31.643-13.96,51.426-38.641,59.112c-1.125-2.417,3.639-4.336,6.408-6.294c2.923-2.07,5.586-5.044,8.14-6.275
	c11.933-11.347,15.667-31.043,17.797-52.375C313.341,173.783,314.306,173.411,314.808,172.557z"/>
<path fill-rule="evenodd" clip-rule="evenodd" fill="#BCDBC2" d="M318.775,180.099c5.553,23.855-7.776,46.449-24.182,56.356
	c-7.075,4.272-10.91,8.915-19.721,10.215c-0.87,1.294-0.465,2.661-4.645,2.843c-0.717-2.831,3.177-5.582,2.975-9.791
	c5.007,0.338,10.298-0.435,14.452-2.177c6.182-2.592,14.305-9.43,18.61-14.838C314.387,212.501,318.915,196.642,318.775,180.099z"/>
<path fill-rule="evenodd" clip-rule="evenodd" fill="#BCDBC2" d="M321.086,180.119c2.887,2.889,7.701,3.882,9.748,7.594
	c-1.454,26.347-19.165,40.56-35.699,52.789c-4.292,3.174-8.875,8.224-14.491,6.22C303.518,234.084,323.529,218.539,321.086,180.119z
	"/>
<path fill-rule="evenodd" clip-rule="evenodd" fill="#BCDBC2" d="M333.127,189.467c5.443,3.501,3.177,11.39,4.465,16.783
	c0.842,3.526,3.94,6.737,4.523,10.432c0.82,5.224-0.451,10.719,0.427,16.169c0.425,2.609,1.763,4.879,2.243,7.526
	c1.304,7.206,0.567,14.701,1.531,21.951c0.244,1.844,1.379,3.433,1.683,5.215c1.532,8.926,0.274,17.826,2.647,26.579
	c2.332,8.619,4.339,16.391,3.814,24.859c-5.402,1.99-11.951,5.837-18.873,8.135c2.622-23.084-2.114-43.478-0.606-77.898
	c0.37-8.419-0.116-19.331-0.419-27.408c-0.412-10.999-2.855-21.342-1.451-30.614C333.116,190.621,333.121,190.044,333.127,189.467z"
	/>
<path fill-rule="evenodd" clip-rule="evenodd" fill="#BCDBC2" d="M298.461,192.038c0.496,13.907-8.136,23.563-18.158,28.697
	c-1.006-3.202-3.393-5.052-5.709-6.979C285.454,209.479,292.775,201.586,298.461,192.038z"/>
<path fill-rule="evenodd" clip-rule="evenodd" fill="#BCDBC2" d="M307.688,193.275c-1.665,22.389-16.681,36.226-33.319,45.306
	c-1.18-3.025,2.137-11.365,4.747-14.392C296.351,221.738,300.999,206.47,307.688,193.275z"/>
<path fill-rule="evenodd" clip-rule="evenodd" fill="#BCDBC2" d="M331.287,200.997c0.492-0.103,0.544,0.229,0.57,0.583
	c3.562,29.301,0.875,62.735,2.611,93.547c0.646,11.436,2.387,22.5-0.874,32.902c-2.748,1.388-6.546,4.451-9.277,3.958
	c-0.245-22.772,0.825-52.192,2.414-74.453c0.534-7.444-0.588-15.03,0.201-21.94c0.274-2.42,1.588-5.038,1.801-7.483
	C329.562,218.532,326.354,208.959,331.287,200.997z"/>
<path fill-rule="evenodd" clip-rule="evenodd" fill="#BCDBC2" d="M377.883,219.319c-2.12,3.47-5.816,5.333-7.586,9.169
	c-5.029,0.51-7.911,3.208-10.452,6.252c-0.833,4.251,1.547,5.35,2.817,7.533c-1.916,9.309-7.032,15.359-14.035,19.501
	c2.96-14.327-7.541-29.934-4.225-42.76c1.503-5.812,8.311-9.66,13.971-12.575C363.229,212.35,371.929,214.484,377.883,219.319z"/>
<path fill-rule="evenodd" clip-rule="evenodd" fill="#BCDBC2" d="M324.816,214.214c-2.36,32.166-18.059,55.797-45.618,64.245
	c-2.53-0.562-3.941-2.23-7.489-1.801c2.984-6.311,10.058-13.433,8.897-25.898C300.397,243.728,313.659,230.04,324.816,214.214z"/>
<path fill-rule="evenodd" clip-rule="evenodd" fill="#BCDBC2" d="M327.037,224.052c1.083-1.395,0.353,3.807,0.53,5.196
	C326.485,230.647,327.209,225.442,327.037,224.052z"/>
<path fill-rule="evenodd" clip-rule="evenodd" fill="#BCDBC2" d="M373.17,229.665c1.679,0.837,2.552,2.456,2.263,5.219
	c-2.684,2.312-6.853,3.121-8.143,6.854c-2.876-0.8-4.39-2.941-5.144-5.825c2.228,0.1,2.254,2.364,4.014,2.928
	C369.257,236,374.401,235.434,373.17,229.665z"/>
<path fill-rule="evenodd" clip-rule="evenodd" fill="#BCDBC2" d="M323.517,230.367c0.669-0.088,1.022,0.138,1.147,0.589
	c-1.128,45.27-20.313,72.146-48.736,89.619c1.58-12.354,0.948-29.958,3.844-41.533C304.106,272.751,316.401,254.199,323.517,230.367
	z"/>
<path fill-rule="evenodd" clip-rule="evenodd" fill="#BCDBC2" d="M349.801,323.556c-3.051,19.694-7.551,53.444-1.227,71.001
	c-2.203-0.506-4.626-0.798-7.501-0.647c0.489-25.135-0.523-51.806,6.986-69.791C348.88,324.176,349.696,324.23,349.801,323.556z"/>
<path fill-rule="evenodd" clip-rule="evenodd" fill="#BCDBC2" d="M339.918,393.901c-1.542-1.149-5.039-0.392-7.499-0.647
	C333,368.5,336,345.25,338.784,328.653c1.94-0.939,3.861-1.895,5.801-2.833C341,341.5,338.25,374.75,339.918,393.901z"/>
<path fill-rule="evenodd" clip-rule="evenodd" fill="#BCDBC2" d="M336.463,329.788c0.385,0.005,0.77,0.006,1.155,0.011
	C332.5,346.5,329,390.25,331.267,393.243c-2.695-0.023-5.39-0.049-8.083-0.072C326,375,331,356.75,331.25,332.049
	C332.787,331.088,334.928,330.748,336.463,329.788z"/>
<path fill-rule="evenodd" clip-rule="evenodd" fill="#BCDBC2" d="M329.507,333.188c-1.007,21.062-5.757,41.562-8.059,60.543
	c-6.541-0.059-13.086-0.119-19.628-0.179C307,386.5,316,366.5,316.632,352.123c1.773-1.106,3.425-2.338,5.8-2.838
	C319,363.75,313.5,377,313.382,391.93c4.868-13.93,7.868-27.93,10.204-42.632c1.861-0.434,3.833-0.756,5.212-1.682
	c0.016-4.415-3.526-8.356-2.781-11.573C325.695,333.578,328.467,334.27,329.507,333.188z"/>
<path fill-rule="evenodd" clip-rule="evenodd" fill="#BCDBC2" d="M349.069,340.294c1.104,18.712,0.713,36.479,1.814,54.282
	C345.285,382.206,347.907,357.088,349.069,340.294z"/>
<path fill-rule="evenodd" clip-rule="evenodd" fill="#BCDBC2" d="M296.625,393.506c5.875-9.756,11.875-22.006,12.467-37.413
	c2.246-0.431,3.584-1.786,5.222-2.837c0.671-0.089,1.024,0.137,1.146,0.584c-2.21,12.91-6.71,22.91-11.268,32.81
	C302.906,389.443,301.136,394.572,296.625,393.506z"/>
<path fill-rule="evenodd" clip-rule="evenodd" fill="#BCDBC2" d="M306.766,357.806c0.672-0.088,1.025,0.137,1.15,0.587
	c-3.166,14.107-8.416,26.857-13.605,35.668c-2.695-0.023-5.391-0.049-8.083-0.072c3.522-3.738,13.772-24.238,14.728-32.191
	C302.859,360.428,305.052,359.363,306.766,357.806z"/>
<path fill-rule="evenodd" clip-rule="evenodd" fill="#BCDBC2" d="M298.637,362.926c0.983-0.205,1.088,0.461,1.143,1.164
	C294.75,376,290.25,384,285.65,393.982c-1.901,0.008-2.883,0.95-5.199,0.528c5.029-7.496,10.257-14.798,11.782-25.868
	C294.511,366.879,296.45,364.778,298.637,362.926z"/>
<path fill-rule="evenodd" clip-rule="evenodd" fill="#BCDBC2" d="M290.491,369.777c-1.491,9.973-7.741,17.723-12.932,25.284
	c-7.434-0.577-14.643,2.177-21.362,0.385c2.813-2.788,6.694-1.482,9.834-2.799c6.209-2.593,11.222-9.008,14.567-14.301
	c0.515,6.166-5.235,10.982-8.794,14.932C281.706,389.19,281.152,374.443,290.491,369.777z"/>
<path fill-rule="evenodd" clip-rule="evenodd" fill="#BCDBC2" d="M329.123,121.882c-0.669,2.435-3.479,7.713-5.295,10.922
	C320.796,127.955,327.329,125.395,329.123,121.882z"/>
<path fill-rule="evenodd" clip-rule="evenodd" fill="#BCDBC2" d="M296.78,123.318c1.145,0.047,4.685,5.675,3.972,7.542
	C298.017,131.84,298.688,125.011,296.78,123.318z"/>
<path fill-rule="evenodd" clip-rule="evenodd" fill="#BCDBC2" d="M342.342,128.353c-3.447,3.87-11.021,8.582-17.424,11.387
	C328.962,134.148,337.747,133.382,342.342,128.353z"/>
<path fill-rule="evenodd" clip-rule="evenodd" fill="#BCDBC2" d="M268.664,167.516c-0.488-0.109-0.545,0.223-0.582,0.574
	c3.666,6.121,12.955,1.35,16.184-1.583c-4.63,4.22-8.488,9.226-17.408,9.077c-0.485-6.487-3.837-12.936-0.405-18.479
	C267.793,159.981,266.058,165.883,268.664,167.516c12.151,0.14,16.931-7.227,20.352-15.979c1.578,0.741,2.139,2.478,2.85,4.069
	C285.405,159.886,280,175.747,268.664,167.516z"/>
<path fill-rule="evenodd" clip-rule="evenodd" fill="#BCDBC2" d="M289.535,157.893c1.833,0.994-3.096,5.394-1.767,4.023
	C287.935,160.147,289.044,159.334,289.535,157.893z"/>
<path fill-rule="evenodd" clip-rule="evenodd" fill="#BCDBC2" d="M324.443,255.202c-2.211,17.147-2.993,38.115-2.27,58.867
	c0.451,12.944-1.088,23.456,3.747,32.365c-16.244,3.854-30.238,15.03-41.229,26.18c-1.836,0.073-2.551,1.284-4.63,1.113
	c-2.868,7.732-9.982,15.21-19.79,17.718c-3.321,0.969-2.155-2.463-4.596-2.352c-0.144,1.021,0.553,2.896-1.177,2.3
	c0.003-0.387,0.007-0.768,0.011-1.157c18.025-11.163,8.838-50.035,20.247-67.938C300.682,309.466,314.947,284.762,324.443,255.202z"
	/>
<path fill-rule="evenodd" clip-rule="evenodd" fill="#BCDBC2" d="M294.81,149.283c10.082,0.943,12.584-5.832,18.56-9.07
	c2.089,2.904,5.444,4.568,9.181,5.858c1.045-2.588,0.847-7.264-0.492-9.244C310.322,135.965,296.284,137.755,294.81,149.283z"/>
<path fill-rule="evenodd" clip-rule="evenodd" fill="#BCDBC2" d="M279.563,238.629c24.681-7.687,37.488-27.469,38.641-59.112
	c-3.073-2.5-2.404-4.409-3.396-6.959c-0.502,0.854-1.467,1.226-2.9,1.128c-2.13,21.331-5.864,41.027-17.797,52.375"/>
<path fill-rule="evenodd" clip-rule="evenodd" fill="#BCDBC2" d="M327.567,229.248c-0.178-1.389,0.553-6.591-0.53-5.196
	C327.209,225.442,326.485,230.647,327.567,229.248z"/>
<path fill-rule="evenodd" clip-rule="evenodd" fill="#BCDBC2" d="M374.98,233.828c0.288-2.763-0.585-4.382-2.264-5.219
	c1.232,5.769-3.913,6.335-7.009,9.176c-1.76-0.564-1.786-2.829-4.015-2.928c0.754,2.884,2.269,5.024,5.144,5.824"/>
<path fill-rule="evenodd" clip-rule="evenodd" fill="#010202" d="M311.528,151.742c0.241,1.104,1.229,1.463,1.133,2.896
	c-2.433,0.833-5.402,0.284-7.507-0.068C305.729,152.048,308.378,151.639,311.528,151.742z"/>
<path fill-rule="evenodd" clip-rule="evenodd" fill="#BCDBC2" d="M249.667,399l-1.333,7.667L345.667,406l-0.333-10.333
	c0,0-44.599-0.415-92,2C252.136,397.727,250.435,398.858,249.667,399z"/>
<polygon fill-rule="evenodd" clip-rule="evenodd" fill="#728975" points="347.333,396.333 347.667,406.667 362.334,414.667 
	362.5,405.667 354,400.833 "/>
<path fill-rule="evenodd" clip-rule="evenodd" fill="#728975" d="M324.416,144.602c0,0-0.908,6.039-1.209,8.303
	s-0.453,5.586-1.509,9.058c-1.057,3.472-2.114,5.736-3.02,6.793c-0.906,1.057-2.718,3.17-2.718,3.17s0.757,4.981,2.417,5.284
	C320.037,177.513,325.924,155.32,324.416,144.602z"/>
<path fill-rule="evenodd" clip-rule="evenodd" fill="#728975" d="M325.171,146.716c0,0,0.604,24.757-4.982,31.4
	c0,0,0.906,1.208,3.32,3.02C325.924,182.947,327.135,149.132,325.171,146.716z"/>
<path fill-rule="evenodd" clip-rule="evenodd" fill="#010202" d="M307.617,164.981c0,0,4.626,2.867,6.949,2.14
	c0,0,0.95-0.1,1.439-0.921c0.489-0.82-2.49,0.074-3.964-0.25C310.566,165.628,307.617,164.981,307.617,164.981z"/>
<path fill-rule="evenodd" clip-rule="evenodd" fill="#EFC39B" d="M437.638,673.953l0.68-28.078l-51.177-0.228l-0.526-23.55
	l-22.646-0.906l-1.058-29.891h-3.171l-0.452-18.567l2.717-1.359c0,0,3.623-5.435,0.453-8.152l-4.982-3.623v-9.964h-3.17v-4.075
	l-1.358-1.358v-81.974l5.208-5.209v-23.323h-6.114v-17.209h-4.528l-0.227-8.38l-102.579,0.453l-0.453,6.114l3.17,0.453
	l-1.812,11.323l-2.264,1.358l-0.227,10.643h-13.134l-0.906-2.491l-4.605-1.357l-0.377,18.341l11.246,10.041l-2.112,48.609
	l-2.717,1.209l-0.756,1.734l2.265,1.586l-1.208,25.059l-13.888,22.344l-0.905,9.662h2.415l-0.302,16.001l-5.132,14.341l1.811,0.68
	l-0.905,16.68l-37.438-0.302l0.301,25.061l-77.671,0.68v27.4L437.638,673.953z"/>
<rect x="172.697" y="644.657" fill-rule="evenodd" clip-rule="evenodd" width="218.293" height="1.075"/>
<rect x="211.343" y="619.295" fill-rule="evenodd" clip-rule="evenodd" width="156.549" height="1.076"/>
</svg>
