<?xml version="1.0" encoding="utf-8"?>
<!-- Generator: Adobe Illustrator 16.0.0, SVG Export Plug-In . SVG Version: 6.00 Build 0)  -->
<!DOCTYPE svg PUBLIC "-//W3C//DTD SVG 1.1//EN" "http://www.w3.org/Graphics/SVG/1.1/DTD/svg11.dtd">
<svg version="1.1" id="Ebene_2" xmlns="http://www.w3.org/2000/svg" xmlns:xlink="http://www.w3.org/1999/xlink" x="0px" y="0px"
	 width="566.93px" height="708.66px" viewBox="0 0 566.93 708.66" enable-background="new 0 0 566.93 708.66" xml:space="preserve">
<path fill="#938776" stroke="#000000" stroke-width="0.5" stroke-miterlimit="10" d="M439.223,323.549
	c-0.964-0.785,1.056-28.922,0.368-28.922c-0.688,0-1.928,0.943-2.341,0.314c-0.412-0.629,0-1.101,0.551-1.572
	c0.551-0.473,1.652-2.046,0.826-2.518c-0.826-0.473-1.102-1.259-1.928-1.574c-0.826-0.314-1.651,0.315-1.651,1.416
	c0,1.102-0.552,0.631-0.826-0.156c-0.275-0.787,0.138-2.204,0.688-2.518c0.551-0.314,1.652-2.832-0.138-2.99
	c0,0-1.79-0.629-1.239-1.416c0.551-0.786,0.413-3.461-0.551-3.618s0-1.259-0.275-1.73s-5.644-3.776-7.847-0.157l-0.276,1.337
	c-0.275,0.472,0.689,1.573-0.274,1.73s-1.769,1.118-1.218,1.904c0.551,0.787-1.238,1.417-1.238,1.417
	c-1.791,0.156-0.688,2.674-0.139,2.988c0.551,0.314,0.965,1.73,0.689,2.518s-0.826,1.259-0.826,0.158
	c0-1.102-0.826-1.731-1.652-1.417c-0.826,0.315-1.102,1.102-1.928,1.573c-0.826,0.473,0.275,2.047,0.826,2.518
	c0.551,0.473,0.964,0.944,0.551,1.573c-0.413,0.63-1.652-0.314-2.34-0.314c-0.688,0-0.826,1.103-1.791,1.888
	c-0.963,0.787,0,2.203,0.276,2.676c0.275,0.471-0.413,2.045-0.964,2.988c-0.551,0.945-0.138,1.416-1.377,1.26
	c-1.238-0.158-1.102,0.943-1.514,2.045c-0.413,1.102-0.965,1.259-0.965,1.259c-0.412,0.315-0.021,4.388,0.805,4.86
	s0.414,1.574,0.414,1.574s-0.552,0.313-0.965,0.313s-0.413,0.944-0.826,0.158c-0.412-0.786-0.688-1.102-0.826-0.158
	c-0.138,0.944-0.551,2.203-0.963,3.147c-0.413,0.943-0.688,5.507-0.688,5.507c0.274,1.573,0.167,2.386,1.405,2.7
	C410.296,324.626,440.187,324.336,439.223,323.549z"/>
<path fill="#B2A58E" stroke="#000000" stroke-width="0.5" stroke-miterlimit="10" d="M150.662,319.994l92-1.333h116.667
	l24.667,1.333v3.334l64.666-1.334l49.336,38.5l48.669,0.834l1.995,176l-188-2l-10-33.333l-133.333-0.667l-6,28.667l-2,4
	l-35.333,5.333h-20.667l0.667-4l-137.998,0.001V367.325c0,0,17.331-4.664,19.998-4.664s11.333-1.999,18-1.333
	s16.667,0.666,16.667,0.666v4l20-2l3.333,4.001l2.667,0.666l3.836-1.667L150.662,319.994z"/>
<line fill="none" stroke="#000000" stroke-miterlimit="10" x1="361.332" y1="333.66" x2="425.665" y2="334.66"/>
<polygon points="460,435.994 499.333,435.994 499.333,459.994 460,459.328 "/>
<path fill="#938776" stroke="#000000" stroke-width="0.5" stroke-miterlimit="10" d="M161.832,318.994
	c0.964-0.688-1.056-25.308-0.368-25.308s1.927,0.825,2.34,0.275c0.413-0.551,0-0.964-0.551-1.376
	c-0.551-0.414-1.652-1.791-0.826-2.203c0.826-0.414,1.102-1.102,1.928-1.377s1.652,0.275,1.652,1.238
	c0,0.965,0.551,0.552,0.826-0.137s-0.138-1.928-0.688-2.203c-0.551-0.275-1.652-2.479,0.138-2.615c0,0,1.79-0.551,1.239-1.239
	c-0.55-0.688-0.413-3.029,0.551-3.167c0.964-0.137,0-1.101,0.275-1.514s5.644-3.305,7.847-0.139l0.276,1.171
	c0.275,0.413-0.688,1.377,0.275,1.515c0.964,0.137,1.768,0.978,1.218,1.666c-0.551,0.688,1.239,1.239,1.239,1.239
	c1.79,0.138,0.688,2.341,0.138,2.615c-0.551,0.275-0.964,1.515-0.688,2.203c0.275,0.688,0.826,1.101,0.826,0.138
	s0.826-1.515,1.652-1.239c0.826,0.276,1.102,0.964,1.927,1.377c0.826,0.413-0.275,1.79-0.826,2.202
	c-0.551,0.414-0.964,0.826-0.551,1.377s1.652-0.275,2.34-0.275s0.826,0.965,1.79,1.652c0.964,0.688,0,1.928-0.276,2.34
	c-0.275,0.414,0.413,1.79,0.964,2.616c0.55,0.826,0.138,1.239,1.377,1.102c1.239-0.138,1.101,0.825,1.514,1.79
	c0.413,0.963,0.964,1.102,0.964,1.102c0.413,0.275,0.021,3.84-0.805,4.252c-0.826,0.414-0.413,1.377-0.413,1.377
	s0.551,0.275,0.964,0.275s0.413,0.826,0.826,0.139c0.413-0.688,0.688-0.965,0.826-0.139c0.138,0.826,0.551,1.928,0.963,2.754
	c0.413,0.826,0.688,4.818,0.688,4.818c-0.275,1.377-0.167,2.088-1.405,2.363C190.759,319.936,160.868,319.682,161.832,318.994z"/>
<path fill="#B2A58E" stroke="#000000" stroke-width="0.5" stroke-miterlimit="10" d="M100.498,366.994V345.16c0,0-1.667-1-0.167-3.5
	c0,0-2.833-0.834-0.833-3.834l0.167-5.832l1.5-0.5l0.667-10.168c0,0,1.667-0.666,2.167-0.5c0.5,0.168,3.333-3,4-3.5
	s-1.833-0.5-1.667-1.666s0.167-7.334-1-8.5s-0.333-10-0.333-10.5s0.833,1.167,0.833,2.334c0,1.166,0.333,1.666,1.167,0.666
	s0.833-1,0.833-1l0.5-4.834c0,0-3.5-0.5-2.5-4.666l0.167-11.166c0,0,0.333-1.168,1.667,0.832c0,0-0.166,1.834,1.167,1.168
	c0,0,0.667-1.668,1.667-1.168s1.167-1.333,0-2c-1.167-0.666-3.167-3-2.333-4.5c0,0,1-2.832,1.167-3.666s0.5-1.833,1.667-1.666
	c1.167,0.166,1.5-0.168,2-0.834s2-3.166,0.5-3.5s-1-0.5-1.333-2.166c0,0,0.333-4.834,0.833-5.834s1-2.334,1.167-3.334
	s0.5-0.666,1,0.168c0.5,0.832,0.5-0.168,1-0.168s1.167-0.332,1.167-0.332s0.5-1.168-0.5-1.668s-0.667-2.999-0.167-3.332
	c0,0,0.667-0.168,1.167-1.334s0.333-2.333,1.833-2.166c1.5,0.166,1-0.334,1.667-1.334s1.5-2.666,1.167-3.166s-1.5-2.001-0.333-2.834
	s1.334-2,2.167-2s2.333,1,2.833,0.334c0.5-0.667,0-1.167-0.667-1.667s-2-2.167-1-2.667s1.333-1.333,2.333-1.666
	c1-0.334,2,0.333,2,1.5c0,1.166,0.667,0.666,1-0.167s-0.167-2.334-0.833-2.667s-2-3,0.167-3.166c0,0,2.167-0.667,1.5-1.5
	c-0.667-0.834-0.5-3.668,0.667-3.834s0-1.333,0.333-1.833s6.833-4.001,9.5-0.167l0.334,1.417c0.333,0.5-0.833,1.667,0.333,1.833
	s1.333,3,0.667,3.834c-0.667,0.833,1.5,1.5,1.5,1.5c2.167,0.166,0.833,2.833,0.167,3.166s-1.167,1.834-0.833,2.667s1,1.333,1,0.167
	c0-1.167,1-1.834,2-1.5c1,0.333,1.333,1.166,2.333,1.666s-0.333,2.167-1,2.667s-1.167,1-0.667,1.667c0.5,0.666,2-0.334,2.833-0.334
	s1,1.167,2.167,2s0,2.334-0.333,2.834s0.5,2.166,1.167,3.166s0.167,1.5,1.667,1.334c1.5-0.167,1.333,1,1.833,2.166
	s1.167,1.334,1.167,1.334c0.5,0.333,0.833,2.832-0.167,3.332s-0.5,1.668-0.5,1.668s0.667,0.332,1.167,0.332s0.5,1,1,0.168
	c0.5-0.834,0.833-1.168,1-0.168s0.667,2.334,1.167,3.334s0.833,5.834,0.833,5.834c-0.333,1.666,0.167,1.832-1.333,2.166
	s0,2.834,0.5,3.5s0.833,1,2,0.834c1.167-0.167,1.5,0.832,1.667,1.666s1.167,3.666,1.167,3.666c0.833,1.5-1.167,3.834-2.333,4.5
	c-1.167,0.667-1,2.5,0,2s1.667,1.168,1.667,1.168c1.333,0.666,1.167-1.168,1.167-1.168c1.333-2,1.667-0.832,1.667-0.832
	l0.167,11.166c1,4.166-2.5,4.666-2.5,4.666l0.5,4.834c0,0,0,0,0.833,1s1.167,0.5,1.167-0.666c0-1.167,0.833-2.834,0.833-2.334
	s0.833,9.334-0.333,10.5s-1.167,7.334-1,8.5s-2.333,1.166-1.667,1.666s3.5,3.668,4,3.5c0.5-0.166,2.167,0.5,2.167,0.5l0.667,10.168
	l-0.5,33.583l-23.5,0.833v-2l-2.167-0.333l-2-2l-2,2.167l-1.333-3.167l-3.667,2.667l-1.667,0.166v1.667l-13.667,0.167l-0.333-1.667
	h-1.5l-1.667-2.167l-2,2l-1.333-2l-2,1.834h-1.167l-0.167,0.833l-1.167,0.167l-0.333,1.166L100.498,366.994z"/>
<path fill="#B2A58E" stroke="#000000" stroke-width="0.5" stroke-miterlimit="10" d="M334.371,291.328
	c-0.02-2.611,0.21-6.881,1.146-7.889c1.238-1.338,0.354-11.461,0.354-12.034s-0.887,1.337-0.887,2.675
	c0,1.336-0.354,1.91-1.239,0.764c-0.886-1.146-0.886-1.146-0.886-1.146l-0.532-5.539c0,0,3.72-0.574,2.657-5.349l-0.177-12.798
	c0,0-0.354-1.338-1.772,0.955c0,0,0.177,2.102-1.238,1.337c0,0-0.709-1.91-1.771-1.337c-1.063,0.572-1.24-1.528,0-2.293
	c1.239-0.764,3.364-3.438,2.479-5.156c0,0-1.063-3.248-1.24-4.203c-0.177-0.955-0.53-2.101-1.771-1.91
	c-1.238,0.191-1.593-0.191-2.125-0.955c-0.53-0.764-2.125-3.629-0.53-4.012c1.593-0.382,1.063-0.572,1.417-2.482
	c0,0-0.354-5.54-0.887-6.686c-0.53-1.146-1.062-2.675-1.238-3.82c-0.178-1.146-0.533-0.764-1.063,0.191
	c-0.533,0.954-0.533-0.191-1.065-0.191c-0.53,0-1.237-0.382-1.237-0.382s-0.532-1.338,0.53-1.911
	c1.063-0.572,0.707-3.438,0.177-3.82c0,0-0.707-0.19-1.239-1.527c-0.53-1.338-0.355-2.674-1.948-2.482
	c-1.595,0.189-1.063-0.383-1.77-1.529c-0.709-1.146-1.595-3.057-1.241-3.629c0.354-0.573,1.596-2.293,0.354-3.248
	c-1.237-0.954-1.417-2.292-2.302-2.292c-0.886,0-2.48,1.146-3.011,0.382c-0.532-0.764,0-1.336,0.709-1.909
	c0.708-0.573,2.125-2.483,1.063-3.057s-1.417-1.528-2.479-1.91s-2.125,0.382-2.125,1.719s-0.709,0.765-1.063-0.19
	c-0.354-0.955,0.176-2.675,0.885-3.057c0.708-0.382,2.126-3.438-0.177-3.629c0,0-2.303-0.764-1.595-1.719
	c0.709-0.956,1.208-4.923-0.03-5.114c-1.241-0.19,0-1.527-0.354-2.101l-0.357-1.623c-2.832-4.395-9.738-0.383-10.094,0.191
	c-0.354,0.572,0.887,1.909-0.353,2.101c-1.24,0.19-1.417,3.438-0.71,4.394c0.709,0.955-1.594,1.719-1.594,1.719
	c-2.303,0.191-0.885,3.248-0.177,3.629c0.708,0.382,1.239,2.102,0.887,3.057c-0.354,0.955-1.063,1.527-1.063,0.191
	c0-1.338-1.063-2.102-2.126-1.72s-1.418,1.337-2.48,1.91s0.355,2.483,1.063,3.057c0.708,0.573,1.239,1.146,0.708,1.91
	c-0.531,0.764-2.125-0.383-3.009-0.383c-0.887,0-1.063,1.338-2.305,2.292c-1.239,0.955,0,2.675,0.355,3.248
	c0.355,0.572-0.531,2.482-1.24,3.629c-0.708,1.146-0.178,1.719-1.772,1.528c-1.594-0.19-1.415,1.146-1.946,2.483
	c-0.531,1.337-1.241,1.527-1.241,1.527c-0.531,0.383-0.884,3.248,0.179,3.82c1.063,0.573,0.531,1.911,0.531,1.911
	s-0.71,0.382-1.241,0.382s-0.531,1.146-1.063,0.191c-0.531-0.955-0.884-1.338-1.063-0.191c-0.177,1.146-0.708,2.674-1.239,3.82
	s-0.886,6.686-0.886,6.686c0.355,1.91-0.176,2.101,1.417,2.482c1.595,0.383,0,3.248-0.531,4.012s-0.886,1.146-2.125,0.955
	c-1.239-0.19-1.594,0.955-1.77,1.91c-0.177,0.955-1.241,4.203-1.241,4.203c-0.885,1.719,1.241,4.393,2.479,5.156
	c1.239,0.765,1.063,2.865,0,2.293c-1.063-0.573-1.77,1.338-1.77,1.338c-1.417,0.764-1.241-1.338-1.241-1.338
	c-1.416-2.293-1.771-0.955-1.771-0.955l-0.176,12.798c-1.063,4.775,2.657,5.349,2.657,5.349l-0.531,5.539c0,0,0,0-0.886,1.146
	c-0.887,1.146-1.24,0.572-1.24-0.764c0-1.338-0.886-3.248-0.886-2.675s-0.886,10.696,0.355,12.034
	c1.24,1.337,1.24,8.404,1.063,9.742c-0.178,1.336,2.478,1.336,1.77,1.909c0,0-1.154,1.556-2.821,0.056s-1.833-2.001-3.833-1.668
	c-2,0.334-2.833,0.834-3.833,0.168c-1-0.668-1.833-4.334-3.167-2.668c0,0-0.667,3.168,0,4.668c0,0,0.333,2.166-0.5,2.166
	s-1.667,0.166-1.167,2.5c0,0,0.5,4,0,5s-1,2-0.5,3s0,1.666,0.167,3s0.5,4.834,0.5,4.834s-3.5,0-5.167,0.166s-6-1-7.833,0.334
	c0,0-1,0.833-0.667-0.5c0.333-1.334-1.333-3.834-2.333-0.668c0,0,0,5,0.5,6.334s-0.833,8.334-0.833,8.334l26.684-1.473l-0.017-2.527
	l22.333-0.334l47.334,1.334l1.333,3.332l23.333-0.332l1-13l-3.333-3.668l-0.667,2.668c0,0-7.999,0.332-8.666,1.332
	c0,0-0.666-3.666,0-5.332c0.666-1.668,0-14,0-14s0.999-2-2.334-3.334l-1-3l-1.666,1.334l-7.667,0.332
	C335.665,291.326,334.378,292.178,334.371,291.328z"/>
<path fill="#B2A58E" stroke="#000000" stroke-width="0.5" stroke-miterlimit="10" d="M497.998,360.494V338.66c0,0,1.666-1,0.166-3.5
	c0,0,2.834-0.833,0.834-3.833l-0.167-5.833l-1.5-0.5l-0.667-10.167c0,0-1.666-0.667-2.166-0.5s-3.334-3-4-3.5s1.833-0.5,1.666-1.667
	c-0.166-1.166-0.166-7.333,1-8.5c1.168-1.166,0.334-10,0.334-10.5s-0.834,1.168-0.834,2.334s-0.332,1.666-1.166,0.666
	s-0.834-1-0.834-1l-0.5-4.833c0,0,3.5-0.5,2.5-4.667l-0.166-11.166c0,0-0.333-1.167-1.666,0.833c0,0,0.166,1.834-1.168,1.167
	c0,0-0.666-1.667-1.666-1.167s-1.166-1.333,0-2s3.167-3,2.334-4.5c0,0-1.001-2.833-1.168-3.667c-0.166-0.833-0.5-1.832-1.666-1.666
	s-1.5-0.167-2-0.834c-0.5-0.666-2-3.166-0.5-3.5c1.5-0.333,1-0.499,1.334-2.166c0,0-0.334-4.834-0.834-5.834s-1-2.333-1.166-3.333
	c-0.168-1-0.5-0.666-1,0.167s-0.5-0.167-1-0.167s-1.168-0.333-1.168-0.333s-0.5-1.167,0.5-1.667s0.668-2.999,0.168-3.333
	c0,0-0.668-0.167-1.168-1.334c-0.5-1.166-0.332-2.332-1.832-2.166s-1.001-0.334-1.668-1.334c-0.666-1-1.5-2.666-1.166-3.166
	s1.5-2,0.334-2.834c-1.168-0.832-1.334-2-2.168-2c-0.832,0-2.332,1-2.832,0.334s0-1.166,0.666-1.666s2-2.168,1-2.668
	s-1.334-1.332-2.334-1.666s-2,0.334-2,1.5s-0.666,0.667-1-0.166c-0.332-0.834,0.168-2.334,0.834-2.668c0.666-0.332,2-3-0.166-3.166
	c0,0-2.167-0.666-1.5-1.5c0.666-0.834,0.499-3.667-0.668-3.834c-1.166-0.166,0.001-1.332-0.332-1.832
	c-0.334-0.5-6.834-4.001-9.5-0.168l-0.334,1.418c-0.334,0.5,0.833,1.666-0.334,1.832c-1.166,0.167-1.333,3-0.666,3.834
	c0.666,0.834-1.5,1.5-1.5,1.5c-2.168,0.166-0.834,2.834-0.167,3.166c0.667,0.334,1.167,1.834,0.833,2.668
	c-0.332,0.833-1,1.332-1,0.166s-1-1.834-2-1.5s-1.333,1.166-2.333,1.666s0.333,2.168,1,2.668s1.167,1,0.667,1.666
	s-2-0.334-2.834-0.334c-0.832,0-1,1.168-2.166,2c-1.168,0.834,0,2.334,0.333,2.834s-0.5,2.166-1.167,3.166
	c-0.666,1-0.166,1.5-1.666,1.334s-1.334,1-1.834,2.166c-0.5,1.167-1.166,1.334-1.166,1.334c-0.5,0.334-0.834,2.833,0.166,3.333
	s0.5,1.667,0.5,1.667s-0.666,0.333-1.166,0.333s-0.5,1-1,0.167s-0.834-1.167-1-0.167c-0.168,1-0.667,2.333-1.167,3.333
	s-0.833,5.834-0.833,5.834c0.332,1.667-0.167,1.833,1.333,2.166c1.5,0.334,0,2.834-0.5,3.5c-0.5,0.667-0.833,1-2,0.834
	s-1.5,0.833-1.667,1.666c-0.166,0.834-1.166,3.667-1.166,3.667c-0.834,1.5,1.166,3.833,2.333,4.5s1,2.5,0,2
	s-1.667,1.167-1.667,1.167c-1.332,0.667-1.166-1.167-1.166-1.167c-1.334-2-1.667-0.833-1.667-0.833l-0.167,11.166
	c-1,4.167,2.5,4.667,2.5,4.667l-0.5,4.833c0,0,0,0-0.833,1s-1.167,0.5-1.167-0.666s-0.833-2.834-0.833-2.334
	s-0.833,9.334,0.333,10.5c1.168,1.167,1.167,7.334,1,8.5c-0.166,1.167,2.334,1.167,1.667,1.667s-3.5,3.667-4,3.5
	s-2.167,0.5-2.167,0.5l-0.666,10.167l0.5,33.584l23.5,0.832v-2l2.166-0.332l2-2l2,2.166l1.334-3.166l3.666,2.666l1.668,0.166v1.668
	l13.666,0.166l0.334-1.666h1.5l1.666-2.168l2,2l1.334-2l2,1.834h1.166l0.166,0.834l1.168,0.166l0.332,1.166L497.998,360.494z"/>
<polygon points="322.332,435.993 327.998,435.993 328.665,454.327 322.665,454.66 "/>
<polygon points="259.665,437.327 265.332,437.327 265.665,453.327 259.998,453.327 "/>
<polygon points="241.665,433.327 252.332,432.993 252.998,456.993 241.332,456.66 "/>
<polygon points="337.998,432.66 354.332,432.66 354.332,457.993 338.665,457.993 "/>
<polygon points="359.998,433.66 379.665,433.66 379.665,459.327 359.665,459.327 "/>
<polygon points="389.331,435.66 417.665,435.66 417.665,460.66 388.666,460.659 "/>
<polygon points="423.334,435.327 453.334,435.327 453.334,460.661 424.001,459.994 "/>
<path fill="#B2A58E" stroke="#000000" stroke-width="0.5" stroke-miterlimit="10" d="M454,467.328c0,0,3.334-13.334,8.667-18.667
	c0,0-1.334-14.667,3.333-14.667l6.667-15.333c0,0,0.666-2.667,4.666,0l3.334,16.667c0,0,4.666,0.667,3.333,12
	c0,0,6.001,8,10.667,15.333S514,487.994,514,487.994l-78.667,0.667L454,467.328z"/>
<polygon points="510,433.994 518.667,433.994 518.667,461.328 509.333,461.994 "/>
<rect x="529.333" y="437.994" width="5.334" height="20.667"/>
<polygon points="216.331,431.994 232.665,431.994 232.665,457.327 216.998,457.327 "/>
<polygon points="179.676,437.994 199.999,437.994 199.999,463.661 179.332,463.661 "/>
<polygon points="140.998,436.66 169.332,436.66 169.332,461.66 140.666,461.325 "/>
<polygon points="92.667,439.993 111.333,439.993 111.333,462.661 93.082,462.064 "/>
<polygon points="115.667,438.66 134.334,438.66 134.334,461.328 116.082,460.731 "/>
<polygon points="70.333,433.994 79,433.994 79,461.328 69.667,461.994 "/>
<rect x="56.333" y="436.994" width="5.334" height="20.667"/>
<line fill="none" stroke="#000000" stroke-miterlimit="10" x1="173.332" y1="331.66" x2="238.665" y2="330.994"/>
<polygon points="461.498,340.16 470.936,339.994 470.936,356.66 462.228,356.66 "/>
<polygon points="434.665,347.66 443.665,347.66 443.665,359.66 435.331,359.66 "/>
<polygon points="487.998,347.994 487.998,358.994 492.665,358.994 492.665,348.326 "/>
<path fill="none" stroke="#000000" stroke-width="0.75" stroke-miterlimit="10" d="M454.164,223.578c0,0,6.5-2.916,13.5-1.25"/>
<path fill="none" stroke="#000000" stroke-width="0.75" stroke-miterlimit="10" d="M445.831,232.744c0,0,21.166-7.75,29.833,0.25"/>
<path fill="none" stroke="#000000" stroke-width="0.75" stroke-miterlimit="10" d="M440.664,245.744c0,0,18.333-11.416,40.5-1.25"/>
<path fill="none" stroke="#000000" stroke-width="0.75" stroke-miterlimit="10" d="M437.665,258.91
	c2.738-1.545,18.369-13.035,47.167-1.25"/>
<path fill="none" stroke="#000000" stroke-width="0.75" stroke-miterlimit="10" d="M433.831,271.577c0,0,32.167-10.583,54.167,0.75"
	/>
<path fill="none" stroke="#000000" stroke-width="0.75" stroke-miterlimit="10" d="M431.664,288.577c0,0,31.333-16.917,58.5-1.25"/>
<path fill="none" stroke="#000000" stroke-width="0.75" stroke-miterlimit="10" d="M429.664,304.66c0,0,32.334-15.334,62.667-1"/>
<path fill="none" stroke="#000000" stroke-width="0.5" stroke-miterlimit="10" d="M294.751,191.51c0,0,7.997-3.35,13.497,1.4"/>
<path fill="none" stroke="#000000" stroke-width="0.5" stroke-miterlimit="10" d="M290.853,196.858c0,0,13.78-5.498,21.463,2.151"/>
<path fill="none" stroke="#000000" stroke-width="0.5" stroke-miterlimit="10" d="M285.895,202.016c0,0,21.656-5.674,31.38,2.152"/>
<path fill="none" stroke="#000000" stroke-width="0.5" stroke-miterlimit="10" d="M279.695,211.184c0,0,23.107-9.895,42.539,0.625"
	/>
<path fill="none" stroke="#000000" stroke-width="0.5" stroke-miterlimit="10" d="M275.332,222.66c0,0,34.333-12.334,51.667,2"/>
<path fill="none" stroke="#000000" stroke-width="0.75" stroke-miterlimit="10" d="M276.665,232.66c0,0,36.666-10.334,49.333,2"/>
<path fill="none" stroke="#000000" stroke-width="0.75" stroke-miterlimit="10" d="M273.142,248.814c0,0,32.523-15.82,55.523,1.18"
	/>
<path fill="none" stroke="#000000" stroke-width="0.75" stroke-miterlimit="10" d="M270.841,266.006c0,0,41.15-15.35,61.487,2.152"
	/>
<path fill="none" stroke="#000000" stroke-width="0.75" stroke-miterlimit="10" d="M268.582,287.327c0,0,23.262-21.979,66.417,0"/>
<polygon points="125.498,340.16 135.498,340.16 135.498,359.66 125.998,359.66 "/>
<polygon points="107.998,350.16 113.998,350.16 113.998,360.66 108.498,360.66 "/>
<polygon points="156.498,350.16 163.998,350.16 163.998,361.16 156.998,361.16 "/>
<path fill="none" stroke="#000000" stroke-width="0.75" stroke-miterlimit="10" d="M131.665,221.494c0,0,6.506-4.417,12.083,0"/>
<path fill="none" stroke="#000000" stroke-width="0.75" stroke-miterlimit="10" d="M130.332,229.66c0,0,8.666-3.833,14.333,1.167"/>
<path fill="none" stroke="#000000" stroke-width="0.75" stroke-miterlimit="10" d="M120.498,242.327c0,0,20.667-7.333,33.5,1.167"/>
<path fill="none" stroke="#000000" stroke-width="0.75" stroke-miterlimit="10" d="M117.332,250.994c0,0,26.667-8.167,40.5,1"/>
<path fill="none" stroke="#000000" stroke-width="0.75" stroke-miterlimit="10" d="M113.498,262.66c0,0,30.167-11.166,47.5,1.334"/>
<path fill="none" stroke="#000000" stroke-width="0.75" stroke-miterlimit="10" d="M110.498,278.826c0,0,26.167-13.499,53.167,1.001
	"/>
<path fill="none" stroke="#000000" stroke-width="0.75" stroke-miterlimit="10" d="M108.332,293.826c0,0,33.833-9.5,58.5,1.25"/>
<path fill="none" stroke="#000000" stroke-width="0.5" stroke-miterlimit="10" d="M173.498,366.327h28.5c0,0-1.5-12.667,1.5-12.667
	c0,0-5.5-8-0.5-18.5c0,0,4,4.5,6,17.5l65.5-3l3.833-1l33.923,0.666h67.743c0,0-0.5-7.166,3-9.166c0,0,2.5,1,4.5,12.5l-1,13.5h38.5"
	/>
<path fill="#B2A58E" stroke="#000000" stroke-width="0.5" stroke-miterlimit="10" d="M317.256,453.66c0,0,0.732-45.038,0.575-45.333
	c-2.666-5,3.757-5.667,3.091-11.667s-0.667-8.916,1.076-14c2.743-8-3.334-4.333-5-1c-1.668,3.333-1.334,2,2-5.333
	c3.332-7.333-0.667-2.5-0.667-2.5s-0.666-1,0-0.5c0.843,0.633,1.667-4,1.667-4s1.333-5,1.333-7.667c0-2.666-1.332-4.166-2.666-2.833
	s-2.667,1.5-0.667-0.833c2-2.334,1.167-5.667-0.166-5.5c-2.117,0.264-1.334,1-3,0.666c-2.271-0.455,0.423-0.167-2.577-3.834
	c-3-3.666-3.666-5-5.332-5.333c-1.668-0.333-3.667-5.333-5-5.333c-1.334,0,1.075-9.334-3.591-8.666c0,0,0,1.166-1.334,2.666
	c-0.7,0.787-1.334-1-1.334-1c-1-5-1.332-4.666-1.332-4.666c-2,1.666-1.668,5.332-1.668,5.332l-2.666-1.666
	c-3.666,0.166,0,7.334-1.334,7.334c-1.333,0-3.332,5-5,5.332c-1.667,0.334-2.333,1.668-5.333,5.334s0.333,3.334-2.667,3.666
	c-3,0.334-2.667-0.332-4.333,1c-1.667,1.334-0.333,2.668,1.667,5c2,2.334,0,0-0.667,2.668c-0.667,2.666-1-2.334-2.333-3.668
	c-1.333-1.333-1.333,1.334-1.333,4c0,2.667,0.667,5,0.667,5s1.333,4.334,1,5.334s-0.667,2.333-0.667,2.333s-4.333-5.666-1,1.667
	s2.667,8.333,1,5s0,0-2.667,4.667s-1.333,4-2,10s3.333,3,2,9.333s0.333,49,0.333,49H317.256z"/>
<path d="M292.832,393.16c0,0-2.334,6.001-7,7.334c0,0-0.001,5.834-5.167,7c0,0-1,6.166-3.167,7.166l-0.333,38.834l31.333,0.166
	l0.333-38c0,0-3.167-5.334-2.5-9c0,0-5.333-1.5-6.333-6.666C299.998,399.994,294.165,399.326,292.832,393.16z"/>
<path fill="none" stroke="#000000" stroke-width="0.75" stroke-miterlimit="10" d="M270.248,405.16c0,0,9.5-18.75,21-19.75
	c0,0,2.75-4.25,4.75,0c0,0,12.75,1.75,18.5,18.25"/>
</svg>
