<?xml version="1.0" encoding="utf-8"?>
<!-- Generator: Adobe Illustrator 16.0.0, SVG Export Plug-In . SVG Version: 6.00 Build 0)  -->
<!DOCTYPE svg PUBLIC "-//W3C//DTD SVG 1.1//EN" "http://www.w3.org/Graphics/SVG/1.1/DTD/svg11.dtd">
<svg version="1.1" id="Ebene_2" xmlns="http://www.w3.org/2000/svg" xmlns:xlink="http://www.w3.org/1999/xlink" x="0px" y="0px"
	 width="566.93px" height="708.66px" viewBox="0 0 566.93 708.66" enable-background="new 0 0 566.93 708.66" xml:space="preserve">
<path fill="#D8A22A" d="M34,330.854l91.333-0.757L183,323.494c0,0,25.667,5.502,26.667,5.778S375,327.345,375,327.345l38.667,0.55
	l30-1.926L477,328.446h25.334l28,1.651c0,0,28.334,9.905,10,12.106C522,344.403,517,340.276,515,350.731
	c-2,10.455,1,17.608-23,17.059c-24-0.551-7.08,16.405-38,7.016c-17.667-5.365-19.333-8.392-25-2.063s0.667,11.006-28.333,3.026
	c-29-7.979-19.001-10.18-33.667-1.376c-14.666,8.805-11.666-3.025-22.333-0.274s-16.001,15.407-22.667,9.079s-5-10.455-10.333-4.678
	c-5.333,5.778-4.001,4.953-26.667-1.1c-22.667-6.054-20-7.43-22.667-6.054s0-3.576-4.333,2.201
	c-4.333,5.778-8.333,7.429-23.667-1.65S215,362.976,207,372.329c-8,9.354-9,0.688-26.333,1.789s-17.167,7.841-29.167-2.614
	s-17,4.952-28.5,4.127c-11.741-0.842-3.833-1.376-19.5-7.429s-12.333-2.889-27,1.238s-32.333,1.375-33-8.254s1.667-10.317-19-11.968
	S-1,340.552,11.667,336.7c12.667-3.853,16-2.477,18.667-3.853C33,331.472,34,330.854,34,330.854z"/>
<path fill="#CC4E1D" d="M55.459,331.369c0,0,21-39,24.5-42.5c0,0,8.5-13.5,23-12.5c0,0,9-0.5,14.25-3.5c0,0,2.25-0.75,3.5-0.25
	c0,0,1.25-1,4-0.75c0,0,12-1,15.25-3c0,0,5.25-2.5,14.75-3c0,0,1.75-0.75,3-1.5c0,0,0,0,3.25,0.25c0,0,2-1.25,3.25-1.5
	s4.75-0.5,5.75-0.25c0,0,9.5-2,19-3.25c0,0,22.5-3,26.5-1.75c0,0,23.25,3.75,29.25-1c0,0,5.5-2,7.75-1.25c0,0,1-1.75,4.75-1.5
	c0,0,18.25-1.5,19.75-2.25c0,0,13.25-2.75,15.75-0.5c0,0,7-2.25,9.25,0.75c0,0,7-2.5,8.75,0.5c0,0,16-1,19.25,0.5
	c0,0,15.75,0.5,19.75,2.25c0,0,4-0.5,4.75,0.75c0,0,2.5-1.25,3,0.5s4.75,0.25,4.75,0.25s2.75-1.5,3,0.25s6.75-3,9.5,0.5
	c0,0,1,0.75,8.75,0.5c0,0,13-0.75,19.5,2.75c0,0,3,0,3,1.25c0,0,10.75-0.5,16.25,4.25c0,0,4.5-2,8.25,4c0,0,5-3,8.5,0.75
	c0,0,2.75-1.5,7.75,2.25c0,0,0.5-3.5,6.75,1.25c0,0,4,1.25,5.5,0.5c0,0,11.25-3.5,18,15.5c0,0,7.75,25,25.75,38.5
	c0,0,4.75-2,7.25,0.25l0.75,1c0,0-28.75-1-44.25,1.75c0,0-35.5-6.75-38.5-2.5c0,0-17.25-0.5-19.5,1.5c0,0-14.25-5-25.75,3
	c0,0-70-3.5-74.75-2.25s-47.75-1-48.5,0.75s-50.986-1.5-59.75-1.5c-5.25-3.75-16.75-10-41.25,1c0,0-38.5,0.25-50.25,0.5
	s-24-4.25-40.5-0.25L55.459,331.369z"/>
<path fill="#82412A" d="M167.5,270.16c0,0-6.333,2.833-5.833,5.833c0,0-0.458-0.015-1.25,0.185
	c-2.994,0.753-10.749,4.567-16.417,23.815c0,0-4.167,7.833-5.667,8.833c0,0-14.5,20.833-15.667,23c0,0,13.166-18,14.833-19.833
	c0,0,4.5-5.833,4.833-6.5s1.5-3.333,2-4.167c0,0,0.833,4.333,0.5,11.667c0,0-1,16.917-0.667,19.25h0.667c0,0-0.5-22.083,3-25.083
	c0,0,0.333-6.167,2.833-8.167c0,0,1.667-16.5,6.667-16.5c0,0-2.833-1.167-5,3.167c0,0,4.333-9.667,9.833-9.167
	c0,0,2.5,0.333,4.833,5.333c0,0-0.333-5-2.667-7.5C164.333,274.327,163.167,273.493,167.5,270.16z"/>
<path fill="#82412A" d="M155.167,267.327c0,0-8.833,3.833-10.333,6.5c0,0-5.334,1.333-5.667,6.333c0,0-4.666,2.833-5.333,3.833
	s7.5-4.167,9.833-4.167c0,0-5,3.167-5.333,4.167c0,0,7-3.833,7.667-6c0,0,0.167-1.5-1.167-0.167c0,0-2-1.167,0.333-2.5
	c0,0,1-0.833,1.333-1.5C146.5,273.827,152.833,267.494,155.167,267.327z"/>
<path fill="#82412A" d="M136.333,286.494c0,0-3.667,9.167-9,15.833c0,0-1.667,0.833-1.167,3.333c0,0-3.167,3.5-4,3.5
	c0,0,6.333-2.667,6.5-3.667s-0.5-1.667,0.167-2.833c0,0,4.875-8.75,8.542-16.25C137.375,286.41,137.625,284.702,136.333,286.494z"/>
<path fill="#82412A" d="M125,313.535c0,0,3.75-6.375,6.75-9c0,0,10.75-17.875,10.75-19.375c0,0,0.095-0.15,0.266-0.405
	c0.79-1.178,3.201-4.589,5.359-5.72c0,0,0.095-0.152,0.268-0.412c0.972-1.457,4.424-6.308,7.607-6.838c0,0-0.125,0.625-1.25,1.75
	c0,0,6-3.875,8.5-5.25c0,0-12,9.25-13.375,9.375c0,0-0.375,0.375-1,1.125s-4.75,4.313-5.938,6.5L132,304.66
	C132,304.66,125.188,312.598,125,313.535z"/>
<path fill="#82412A" d="M131.5,285.16c0,0-9.833,2.167-12.667,10.667c0,0-4.667,4.333-4.667,6.333c0,0-5.333,5.5-5.833,10.667
	c0,0-7.667-0.5-8.833,14.667c0,0-0.5,1.667,0.333,3.5v1.167l3.667,0.5l4.333,0.083c0,0-0.667-14.917,4.333-20.583
	c0,0,0.667-2.333,3-2.333c0,0,0.667-0.667,0.667-2.333c0,0,1.833-5.5,3.833-6.5c0,0,2-2.167,2-3.5
	C121.667,297.494,131.167,287.327,131.5,285.16z"/>
<path fill="#6B4D40" d="M51,269.827"/>
<path fill="#82412A" d="M110.167,324.327c0,0,7.5,0.166,13,5.333l0.667,0.5l-1.25,1.75
	C122.583,331.91,114.5,325.494,110.167,324.327z"/>
<path fill="#82412A" d="M121.333,309.827c0,0-3.167,4-2.667,6.333c0,0-3.167,3.667-3.167,6.333c0,0-0.333,1.667-0.5,2.333l0.5,0.833
	c0,0,0.333-7.167,4.5-9.5C120,316.16,119,314.661,121.333,309.827z"/>
<path fill="#82412A" d="M92.667,330.66c0,0,1.833-8,7.833-15.333c0,0,6.333-8.333,7.167-10.333c0,0,1.5-4.5,3.833-5
	c0,0,1.833-2.333,4.167-6.833c0,0,3.5-6.167,5.667-8c0,0-3.167,5.333-3.167,6.333c0,0,10.167-12.333,13.167-13.333
	c0,0,7-4.667,8.667-5.667c0,0-12.667,9.5-14.333,11.833c0,0-7.333,7.667-7.5,8.167c0,0-4,7.167-5.167,8.167c0,0-5.667,11-6.5,11.833
	c0,0,4.167-9,4.5-9.833c0,0-9.667,12.5-10.667,15.333c0,0-3.167,6.167-3.667,7.667c0,0,2-6,2.667-6.667
	C99.333,318.994,94.167,324.493,92.667,330.66z"/>
<path fill="#82412A" d="M103.833,279.16c0,0-2.431,1.237-5.403,3.667c-2.8,2.288-6.081,5.634-8.264,10c0,0-10,21.167-11.5,24.333
	c0,0-2.5,3.5-2.667,4.5c0,0,1.833-3.333,2.667-3.333c0,0,1.167,1.333-0.333,4c0,0,1.5-2,1.667-5.333c0,0,0.667-4.667,2.333-5.333
	c0,0,4.5-6.167,5.333-10c0,0,1-5.167,2.667-7.167c0,0,5.333-9.333,6.417-9.333c0,0,1.333-2.333,2.5-2.5c0,0,1.417,6.75,2.417,8.583
	c0,0-0.167,17.416-0.167,19.833c0,0,0.417-2.5,1.083-3.583c0,0,1.5,1.333,0.75,4.417c0,0,1.833-3.583,0.583-7
	c0,0-1.417-3-1.167-6.25c0,0,2-4.583,0.75-6.333c0,0-0.833-0.416-1.833-3.333c0,0-1.917-4.667-1.917-5.833
	S103.417,278.994,103.833,279.16z"/>
<path fill="#82412A" d="M94.583,278.16c0,0-22.583,26.5-24.5,37.333c0,0-0.667,6.083-6.167,15.917c0,0,4.667-13.083,3.583-15.5
	s-5.194,11.97-5.75,14.75c-0.25,1.25-0.667,1.333-0.667,1.333l-5.333-0.5c0,0,11.5-21.5,12.417-22.5s12.333-24.167,20.75-28.667
	c0,0-16.333,18.083-19.5,29.833c0,0,21.5-29.083,23.167-30.25L94.583,278.16z"/>
<path fill="#82412A" d="M81,307.66c0,0-7.5,3-10.5,13.833c0,0-2.833,9.167-4.833,9.833c0,0,3.5-0.667,6-9
	C71.667,322.327,72.667,315.827,81,307.66z"/>
<path fill="#82412A" d="M155.75,332.244c0,0,6.25-3.083,7.25-7.583c0,0-0.25-8.5,8.5-14s1.419-11.831,3-10.25
	c0,0-0.5-1.25,0.75-3.75c0,0-0.25-2.25,1.75-4c0,0,3.75-7.25,7-6.75l-2.25-1c0,0,4.75-1.25,5.75-2.5l0.167-0.583
	c0,0,0.833-6.5,8.333-10.333c0,0,14-10.333,15-11.5c0,0-12.667,11.333-16.5,14c0,0-2,1.833-2,4.5c0,0-0.167,1.5-1.167,2.5
	c0,0,3.333-2.333,4-3.333c0,0,0.167-2.5,3.167-3.333c0,0,8-4.667,8.667-5.5c0,0,9.166-5.833,9.333-6.5s3-2.833,4.167-2.5
	c0,0-6.667,5.166-7.167,6.333c0,0-7.833,5.833-8.5,7.5c0,0-2,2.167-3.5,2.667c0,0-2.833,1.333-1.333,2.833
	c0,0-0.167,0.5-2.667,1.833s-5.667,5.5-6,6.667s-2,3.167-4,5.333s-3.167,8-2.167,8.667s4.667,3.5,7.667-3.333
	c0,0,7-13.833,10.333-16.5c0,0,9-10.167,11.667-10.667c0,0-17.333,15-17,23.167c0,0,3.333-1,7.667-6.667s-4.833,6.667-4.833,8.167
	s-7.833,9.833-5,9.833s2.167-0.667,2.667-1.5s-0.167-5,2.167-6.5c0,0-1.5,3.833-0.333,4.5c0,0,1.667-1.833,1.667-3
	s-0.167-2.167,2-2.667c0,0,1.667-2.167,2-3.5c0,0,1.333-2.834,2.667-3.167c0,0-1.333-5.333,4.167-8.667c0,0-0.667-1.333,3.667-3.667
	c0,0,2.167-2.333,3.5-4s4.667-6.333,6.833-7.167s4-2.667,6.167-3.5c0,0,3-1.5,0.167,0.833c0,0-2,1.167-2.167,3.167
	c0,0-0.667,1.167-2.5,0.667c0,0-2.833-0.5-3.167,1.833c0,0-4.167,3.833-5,5.333c0,0,14.167-8.333,15.5-11.667c0,0-7,9.667-18.167,16
	c0,0-4.834,5.667-5.167,8c0,0-3.5,4.167-4,6.5c0,0-1.167,2.167-2.5,3.333c0,0-2.5,5-3.833,5.167c0,0,1,0.667-1.833,2.5
	c0,0,0.333,7.667-1.833,7.333l0.167,2.667c0,0,3.333-2.333,2.833-9.5c0,0,1.167-0.333,1.5-2c0,0,0.5-1.5,1.333-2.333
	c0,0,3.333-4.666,4-4.333c0,0,2.5-5.833,3.167-6.333c0,0,4.167-5.833,6.167-6.5c0,0,3.333-3.333,4.667-4.833c0,0,5-4.333,7.333-6
	c0,0,10-9.333,13-9.833c0,0,1.167,1.666-0.5,2.333s-9,5.5-10,8.5c0,0-1.833,1.167-1.833,0c0,0-5.333,3.667-6,4.833s-0.5,1.833-3,3.5
	c0,0-1.833-0.333-2,2.5c0,0-4.667,5.333-5.333,8.333c0,0-2.167,6-6.667,7.167c0,0-4.833,5.667-4.833,8.667c0,0,0,3,2.667-0.833
	c0,0,2.166-4,3.333-3.167s0.333,3.667,0,4.833s-7.167,16.5-4.667,20.667c0.583,1.25,0.5,1.5,0.5,1.5s-4.622-0.395-4.833-0.5
	c-3.667-1.833-14.333-11.25-41.083,1.167L155.75,332.244z"/>
<path fill="#82412A" d="M183.667,283.66c0,0,0.667-8.333,6.667-12.167c0,0,3.166-2,3.833-2s1.5-4.333,5.667-5.833
	c0,0-3.5,2.833-3.5,4.333c0,0,7.666-3.834,9.333-5.667c0,0-12.5,9-13,10.667c0,0-4.833,2.5-6,8.667L183.667,283.66z"/>
<path fill="#82412A" d="M186.833,303.327c0,0,0-14.833,29-36.833c0,0-25.333,20.833-25.5,31.667c0,0,0.5,0,1.333-2.167
	c0,0,14.667-24,27.5-30.667c0,0-22,17.5-29.333,37.333C189.833,302.66,187.833,304.327,186.833,303.327z"/>
<path fill="#82412A" d="M190.167,266.66c0,0,4-5.5,7.5-6.5s-2.333,2.167-2.5,2.667C195.167,262.827,190,266.16,190.167,266.66z"/>
<path fill="#82412A" d="M192,268.994c0,0,0.333-3.833,3.5-4.667c0,0,7.059-6.044,8.167-6.167c0,0-3.833,3-4,3.833
	c0,0-1.333,1.667-2.833,2.167l-1.333,0.833C195.5,264.994,193.167,269.994,192,268.994z"/>
<path fill="#82412A" d="M203.833,324.16c0,0,14-39.5,26.5-50.5h1.833C232.167,273.66,218.333,286.66,203.833,324.16z"/>
<path fill="#82412A" d="M240.167,266.994c0,0-8,9.167-12.667,20.333c0,0,8.5-14.833,13.833-20.5L240.167,266.994z"/>
<path fill="#82412A" d="M205.833,331.494c0,0-2.667-1-0.333-5c0,0,9.333-15.167,14.667-16.5c0,0,0.5-3.5,3.667-4
	c0,0,2-1.667,0.333-2.167h-1.833c0,0,2.333-1.167,2.833-2s1-2.834,2.167-3.167c0,0,2.333-2.833,3-2.667c0,0-1.333-3.667,3.167-7.5
	c0,0,2.833-6.5,4.833-7.333s2.5-4.167,3-4s1.833-3.667,2.833-3.667s2.666-4.833,8.833-4.833l1.833-0.167c0,0-9,9.167-11.833,20
	c0,0-4.333,4.333-5.167,7.833c0,0-6.833,9.667-8.667,12.333c0,0-7.5,8-7.5,15.5c0,0-0.667-12,5.167-16c0,0-1-2-3.167,1.167
	c0,0-2,4-4,6.167c0,0-12,11.667-4.5,16.333L205.833,331.494z"/>
<path fill="#82412A" d="M250.167,269.161c0,0,9.667-10.834,17.167-14.667c0,0-14.833,11-15.333,14.667H250.167z"/>
<path fill="#82412A" d="M252,269.161c0,0,14.833-10.834,18.333-11c0,0,1.833-1.833,3.833-1.667c0,0,2.833-3.667,5.167-3.667
	c0,0-3.833,2.333-4.167,4.333c0,0-3-1-5,2c0,0-8.167,2.5-16.167,9.833L252,269.161z"/>
<path fill="#82412A" d="M248,300.827c0,0-11.167,16.833-12.167,20.333c0,0,6-8.333,8-10.833
	C243.833,310.327,246.167,302.661,248,300.827z"/>
<path fill="#82412A" d="M250.5,276.494c0,0,9.167-11.833,18.167-16c0,0,5.167-2.5,7.5-3c0,0,5.667-4.833,8-5.833
	c0,0-7.333,5.667-7.333,6.167s0,0.5,0,0.5s-6.167,0.833-7.333,2.667C269.5,260.994,253,271.66,250.5,276.494z"/>
<path fill="#82412A" d="M259,277.035c0,0,1.375-1,1.875-2.25c0,0,1.625-8.625,6.625-9.875c0,0,3.5-2,4.5-3c0,0-4.25,3.75-4.625,3.75
	c0,0-4.75,2.875-5.625,9.25C261.75,274.91,261.5,276.785,259,277.035z"/>
<path fill="#82412A" d="M266.875,267.035c0,0,1.75-2.625,4.625-2.875c0,0,7.375-5.375,10-6.25c0,0,0.875-0.625,1.875-0.625
	l7.125-5.375c0,0,1.625-0.625,0,1c0,0-6.625,5.25-6.5,5s-3.5,0.25-4.625,2c0,0-1.75,1.5-4,2.75c0,0-2.875,1-3.375,1.875
	C272,264.535,268.75,265.16,266.875,267.035z"/>
<path fill="#82412A" d="M266.625,285.41c0,0,3.375-13.125,4-16.25s1.125-1.125,1.125,0.5S270.25,279.535,266.625,285.41z"/>
<path fill="#82412A" d="M273,267.41l12.25-9.75c0,0,7.125-5.25,7.25-5.75s2-0.875,2-0.875S278.5,265.41,273,267.41z"/>
<path fill="#82412A" d="M270.959,327.119c0,0,0.916-4.083-0.084-4.458c0,0-1,1-1.5-1.75c0,0-1-7,0.125-8.375
	c0,0,1.25-4.5,4.375-4.375c0,0,0.5-0.375,1.625-1.625c0,0,5-6,5.5-8.5s1.125-3.875,2-4.75s-0.125-2.25,3.125-4.625
	c0,0,0.125-2.125,1.375-2.25c0,0,0.75-2.625-0.875-2.5h-1c0,0,2.875-3.125,3.625-3.375s-0.125-1.25,1.75-0.625
	c0,0,5.25-10.5,8.5-11.375c0,0,0.75-0.625,0.375-1.625c0,0,0.5-1.125,1.5-1.375c0,0,1.125-0.875,1.875-1.625s5.875-4.875,8.25-5.375
	c0,0,1.625-1.375,2.875-1.25c0,0,2.75-4.375,4.25-4.5l1,0.125c0,0-4.25,2-4.25,5.625c0,0-2.875-0.125-3.125,0.75
	c0,0-8.625,5.75-8.75,7.125c0,0-0.875,3.125-2.375,4c0,0-4.25,8.375-5.375,9.25c0,0,0,3.875-2.875,5.875
	c0,0-0.875,15.75-7.625,17.625c0,0-1.25,2.75-4,2.875c0,0-3.625,4.807-3.625,5.875C277.625,312.16,274.084,325.994,270.959,327.119z
	"/>
<path fill="#82412A" d="M280.5,322.16l-5.25,1.75c0,0-1.75,2.75-3.5,4c0,0,4.25,1.5,5.75,1.5S281.25,322.91,280.5,322.16z"/>
<path fill="#82412A" d="M280.833,270.16c0,0,8.167-6.5,9.333-8.5s10.667-9.5,11.667-9.417l0.833-0.083c0,0-10,7-11.5,10.167
	C291.167,262.327,282.5,270.327,280.833,270.16z"/>
<path fill="#82412A" d="M310.584,252.744c0.191-0.447-12.584,10.083-12.917,10.75c0,0-0.001,4.167-3.167,4.333
	c0,0,0,5.666-2.333,6.333c0,0-1.666,3.333-1.833,4.333c0,0,2.166-2.667,2.166-3.333s2.666-2.5,4-6.167c0,0,0.5-3,2.167-2.333
	s0.834-3,0.667-3.333S310.334,253.327,310.584,252.744z"/>
<path fill="#82412A" d="M287.5,332.244c0,0,17.168-17.417,17.834-20.083c0,0,0.833-6.833,4.333-9.5c0,0,0.334-4.833,2.167-6.333
	c0,0,0-1.667,1.5-2.5l0.833-3.333c0,0,1-0.667,1,1.5c0,0-0.333,0.5-0.333,1.5s2.333-1.5,3.833-1.5c0,0-3.667,2.166-3.667,3.833
	s-1.832,4-2.666,4.667c0,0,1.834-0.333,2.5-1.833c0,0,1.166-2.167,1.833-2.167c0,0-1.499,2.833-1.333,4.167
	c0,0-0.5,2.167-3.167,2.833s-2,6.5-2,7s13.667-14.167,14.667-17.333s0.167-4.167-0.5-4.5c0,0-0.334-1.833,3.166-6l2-0.5
	c0,0-2-20.333,18.667-26.833c0,0-13.167,5.833-14.5,14.833c0,0-0.999,5-2.833,8.167l-0.5,3.167c0,0,6.833-3.667,8.333-3.167
	c0,0-0.833-2.667,2.167-3.167c0,0,1.5-1.667,1.833-2.833s-0.167-2.333,1.333-3.833s4.333-8.167,8.5-9.333c0,0-4.833,6.333-4.833,7.5
	c0,0,0.333,5.333-2.667,6.5c0,0-1.833,2.667-1.833,3.167s1.667,0.333,1.667,0.333s9-12.667,12.5-12.833c0,0-4.5,7.667-4.5,9.167
	c0,0,0.5,0.833,1,0.167s2.5-3,4.333-3.167c0,0,1.167-1.333,1.167-2.333s0.666-1.833,1.833-1.833c0,0,1.499-0.833,1.833-2
	c0,0,2-0.666,1.667,1.167l-0.833,2.167c0,0,2-1.167,3-2.5c0,0-0.5,2.667-1.667,3.5c0,0-1.333,0.333-1.333,2
	c0,0-1.001-0.333-1.334-1.5c0,0-0.666,1.5-0.333,3.667s-1.999,1.167-2.833,1s-2,1-1.667,3.833s0.167,3.833,0.167,3.833l1.166-2
	c0,0,1.834,4.167-1.333,7.167c0,0-2.999,1.167-3.333,3.5c0,0-1,1.5-3,1.5s-5.667,5.667-6.667,5.833s-1,3.5-1,3.5s5.5-3.5,5.5-5.667
	s0,2.167,0,2.167s2.999-2.167,2.333-4.167c0,0,1.501,4-4.666,7.167c0,0-2.334,1.667-2.334,2.667c0,0-0.167-2.5-1-1.167
	c0,0-2.666,3-3.166,4.667s-2.834-0.333-2.334,2.167c0,0-1.499,0.5-0.666,3.833c0,0-0.5,3.167-1.667,4.667c0,0,1.666-4.5-0.167-5
	s-2.666,4.667-3.333,6.167s2.333,7.833,2.333,7.833s-0.5-5.166,3-6.833c0,0,2-3,1.5-4.667c0,0,1.501-0.167-0.166,5
	c0,0-3,2.407-3,7.833c0,1,0.833,3,0.833,3s1.833-9.833,7.333-14.167c0,0,0.167-7.833,2.167-10.833c0,0-1.833,8.667-0.833,10.833
	c0,0-7.369,8.331-7.834,15.333c-0.083,1.25,0,1.333,0,1.333l-21.25-1.083l-9.833,0.583L287.5,332.244z"/>
<path fill="#82412A" d="M290.375,327.16c0,0,1-10.25,2.125-10.75c0,0,0.75-1.125-0.125-1.125c0,0-1.125-1.375,0.875-1.75
	c0,0,1.625-1,1-1.375c0,0-1.625-0.25-0.25-1.25c0,0,3.625-2.25,3.625-3.25s-0.625-2.375,0.5-2.625c0,0,3.875-2.5,1.375-3.25
	c0,0-2.125,0.5-0.625-1.25c0,0,1.875-0.75,2.25-2c0,0,0.5-4.375,3.125-7.125c0,0,1.375-2,1-2.375c0,0-1.25,1-1.75,1.75
	c0,0,1.75-2.5,2-4.125c0,0,1.75-16.125,4.125-19.25s12.75-11.5,15.75-13c0,0-14.75,11.625-14.875,13c0,0-2.125,16-3.5,20.125
	c0,0-2.5,7.625-3.75,9.125c0,0-0.125,2.5-1.125,2.25c0,0,0.5,4.5-0.625,4.75s-2.5,2.375-2.375,3.25c0,0,1.75-2.125,3.25-1.75
	c0,0,1.25-3.5,2.25-3.625s0.5-1.5,0.875-2.25s-0.875,0.125-1.375,0.25s1.125-3.25,2.125-3.625s1.875-1.625,1.875-1.625
	s0.75,1.25-0.375,4c0,0-1.625,3.25-1.375,4.875c0,0-3.5,3.125-4.875,3.25c0,0-1,0.5-1.125,1.625c0,0,0,1.125-1.625,2.25
	c0,0-1,1.125-1,1.5s-1.5,3-2.625,3.125c0,0-1.625,2.625-2,4.25S290.875,324.66,290.375,327.16z"/>
<path fill="#82412A" d="M306.25,295.91c0,0,2.25-11.75,4.875-14.75l-0.125-0.5c0,0,4.75-20.375,19.875-26.5l1.25-0.75h1.125
	c0,0-16.875,7.25-21,28.25c0,0,1.125,4.25-4,13.25c0,0,3-10.375,2.75-11.5C311,283.41,310.25,281.91,306.25,295.91z"/>
<path fill="#82412A" d="M362,282.16c0,0,3.75-4.125,3.875-10c0,0-0.375-2,3.375-4c0,0,1.5-1.5,0.875-3c0,0-1.375,2.375-2.875,3
	c0,0-2.75,1.75-2.75,3.875C364.5,272.035,365.125,276.285,362,282.16z"/>
<path fill="#82412A" d="M392.25,279.535c0,0,0-1.75,1.25-2.125s1.25-1.125,1.25-3.375s0.5-1.875,1.5-3.375s0-0.5,0-0.5
	s0.375-5,2.375-6l4.209-3.167l0.916,0.167c0,0-6.625,7.875-4.625,13.375c0,0,2.875-1.25,2.5-2.875s-1.25-0.875-0.25-2.625
	s1.625-0.75,2.375-3s2.084-3.792,2.084-3.792l1.291,0.042c0,0-0.125,3.875-1.625,4.375s-0.75,2.25-0.5,3.25s-1.625,3-2.375,3.75
	s-1.875,2.875-2,4.375s-1.875,2.375-2,3s0.875,3.375,0.875,3.375S399.375,280.785,392.25,279.535z"/>
<path fill="#82412A" d="M418.875,325.91c0,0-3.125-11.5-7.125-12.75c0,0,0-1.25,1.25-1.25s1.25-1.375-0.25-1.375
	s-0.75-0.75-0.125-1.25s-0.625-0.625-1.25-0.25s-1.875,0.875-1.25-1.375s-0.25-2.375-0.125-3.375s0.375-1.875-0.75-1.75
	s-2.25-0.375-1.5-2.5s0.125-3.25-0.5-3.25s-1.375-1.125-0.625-1.75s0.75-0.875-0.625-1.375s-3.125-1.75-3.5-1.75
	s0.25-0.25,0.75-2.25s0.75-2.125,0.875-5.5s0.25-9.375,2.375-11s1-5.375,1.5-6.875s1.875-3.875,1.625-2.25s-0.625,4.375,0.25,3.125
	s1.625-2.25,1.75-1.25s-0.375,0.25-0.875,2.5s0.25,4.625,0.625,3.5s0.125,2.75-0.25,4s-0.125,4.875-0.75,5s-1.5-0.125-1.5-1.5
	s0.875-2.375,0.625-3.5s0.625-4.625,0-4.25s-2,1.625-2.125,2.25s0.25,2.875,0,4.25s0.625,8.5,0.375,9.5s4-2.5,4.75-4.625
	s3.5-4.625,3.125-6.875s-1.625-1.125-1.75,0.625s-0.375,3-0.375,3s-1.625-1.625-0.375-4.375s3-4,3-3.5s-0.25-0.375,1.125-2
	s3.5-2.5,3.375-1.75s-0.875,0.5-1.5,2.5s-1.625,4.125-1.375,6.25s-0.625,6-1.875,7.125S413,287.16,413,289.285
	s-1.25,3.375-1.625,1.75s-0.625,6.25-0.625,8.75s0.75,2.125,1.75,0.75s3.375-1.875,3.375-5.75S416,290.16,416,290.16
	s2.25,6.625,0.75,10.25s1.25,2.5,2.5,9.75s0.75-1.625,1.125-4.5s-0.5-2.875-0.625-2.25s-0.625-0.375-0.125-2.125s0-2.5,0.5-3.875
	s0.125-2.5,0.75-2.625s-0.25-0.875-0.25-2s-1.75-3.25,0.125-4.375s3-0.75,3.875-2.375s-1-10.75,3.875-14.25
	c0,0-3.625,10.75-2.375,20c0,0,1.375,5.125-0.75,6.125s-1.25-0.25-0.625,2s0.5,1.75,0,5s-0.25,13.625,1.375,15.375
	c0,0-1.75-2.375-2.625-6.25s-1.875-0.625-1.875-0.625s0.25,0.875-0.625,3.625s-0.625,5.75-0.625,6.25
	S418.625,324.035,418.875,325.91z"/>
<path fill="#82412A" d="M428.625,318.035c-0.268,0.292-3.125-32.625,3.75-44.5c0,0,1.125-1.5,2.125-2.125s-4.125,4.625-4.625,38.875
	C429.875,310.285,430,316.535,428.625,318.035z"/>
<path fill="#82412A" d="M432,312.035c0,0-0.875-37.375,5.75-41.25l0.5,0.625c0,0-6.5,14.875-4.75,38.375
	C433.5,309.785,431.875,312.035,432,312.035z"/>
<path fill="#82412A" d="M463.25,321.535c0,0-0.875-18.5-0.875-19.125s1.125-0.75,1.75,1.25s1.5,11.625,0.875,13.5
	S463.375,320.91,463.25,321.535z"/>
<path fill="#82412A" d="M451,278.41c0,0,0.375,23.375,0.375,24.5s1.25,1.125,1.25,1.375s-1.5-23.25-0.5-24s2.375,28.875,2.25,31.25
	l1.875,2.25c0,0-3.625-34-0.625-36.875c0,0-1.25-1.75-2.75,0.25s-1,0.25-1,0.25S450.875,275.785,451,278.41z"/>
<path fill="#82412A" d="M439.875,295.66c0,0-1.625,17.875,0.875,28.875S438.625,299.91,439.875,295.66z"/>
<path fill="#82412A" d="M428.625,268.535c0,0-8.75,1-8.375,16.625c0,0,2.375,0.875,2.875-1.875S421.25,271.535,428.625,268.535z"/>
<path fill="#82412A" d="M389.625,274.66c0,0-7.979-9.021-9.75-9.75c-2.125-0.875,1-4,2.5-4.875s-2.125,1.25-1.875,3.5
	s0.5,1.5,0.5,1.5s1-3.25,3.25-3.625s-0.625,0.75-0.375,2s0.125,2-0.625,2.375s0.5,1.875,0.5,1.875s-0.125-2.375,2.125-3.625
	s-2.125,1.375-0.875,4L389.625,274.66z"/>
<path fill="#D8A22A" d="M154.403,329.413c0,0,1.42,6.017,6.519,2.423c0,0,0.25-0.417,0.167-1.504s-0.668-4.346,0.418-4.68
	c1.086-0.334-1.755-0.668-1.337,3.26c0,0-1.253-3.928,0.669-5.432c0,0-1.839,0.752-1.588,4.93c0.251,4.178,0.418-3.51-0.584-6.184
	c0,0,0.668,5.098,0,6.77c0,0-2.34-3.928,0.835-7.438c0,0-3.176,2.925-2.089,7.02c0,0-0.585-5.516-2.674-6.769
	c0,0,2.256,5.515,1.755,6.936c0,0-1.086-0.835-2.006-4.429c0,0,0.835,4.429,0.835,4.763c-1.337-2.005-2.507-2.674-2.507-2.674
	S154.738,328.578,154.403,329.413z"/>
<path fill="#D8A22A" d="M257.247,330.702c0,0-0.41,6.207,6.105,4.595c0,0,0.396-0.307,0.653-1.367
	c0.256-1.061,0.673-4.357,1.925-4.292c1.251,0.066-1.639-1.252-2.444,2.62c0,0-0.077-4.167,2.427-4.916c0,0-2.177,0.065-3.238,4.116
	c-1.061,4.051,1.554-3.182,1.344-6.071c0,0-0.912,5.07-2.146,6.42c0,0-1.223-4.55,3.239-6.76c0,0-4.276,1.655-4.428,5.921
	c0,0,1.131-5.438-0.674-7.363c0,0,0.63,6.026-0.348,7.198c0,0-0.881-1.175-0.711-4.907c0,0-0.523,4.495-0.629,4.811
	c-0.774-2.373-1.795-3.42-1.795-3.42S257.864,330.026,257.247,330.702z"/>
<path fill="#D8A22A" d="M380.009,336.495c0,0-1.421,6.017-6.519,2.423c0,0-0.25-0.417-0.167-1.504
	c0.083-1.086,0.669-4.346-0.418-4.68s1.755-0.668,1.337,3.26c0,0,1.254-3.928-0.668-5.432c0,0,1.838,0.752,1.588,4.93
	c-0.251,4.178-0.418-3.51,0.584-6.184c0,0-0.668,5.098,0,6.77c0,0,2.341-3.929-0.835-7.438c0,0,3.176,2.925,2.089,7.021
	c0,0,0.586-5.517,2.674-6.77c0,0-2.256,5.516-1.754,6.936c0,0,1.086-0.835,2.006-4.429c0,0-0.836,4.429-0.836,4.763
	c1.337-2.005,2.507-2.674,2.507-2.674S379.674,335.66,380.009,336.495z"/>
<path fill="#D8A22A" d="M379.911,334.329c0,0,1.421,6.017,6.519,2.423c0,0,0.25-0.417,0.167-1.504
	c-0.083-1.086-0.669-4.346,0.418-4.68s-1.755-0.668-1.337,3.26c0,0-1.254-3.928,0.668-5.432c0,0-1.838,0.752-1.588,4.93
	c0.251,4.178,0.418-3.51-0.584-6.184c0,0,0.668,5.098,0,6.77c0,0-2.341-3.929,0.835-7.438c0,0-3.176,2.925-2.089,7.021
	c0,0-0.586-5.517-2.674-6.77c0,0,2.256,5.516,1.754,6.936c0,0-1.086-0.835-2.006-4.429c0,0,0.836,4.429,0.836,4.763
	c-1.337-2.005-2.507-2.674-2.507-2.674S380.246,333.494,379.911,334.329z"/>
<path fill="#D8A22A" d="M77.201,327.646c0,0-2.514,5.648,3.72,5.876c0,0,0.452-0.18,1.043-1.096c0.591-0.915,2.1-3.863,3.167-3.471
	s-0.992-1.595-3.039,1.784c0,0,1.381-3.884,3.822-3.917c0,0-1.918-0.515-4.25,2.961c-2.33,3.477,2.458-2.54,3.28-5.274
	c0,0-2.556,4.461-4.1,5.387c0,0,0.517-4.543,5.17-5.413c0,0-4.299,0.404-5.914,4.321c0,0,2.875-4.744,1.972-7.006
	c0,0-1.545,5.755-2.804,6.582c0,0-0.358-1.322,1.086-4.739c0,0-2.018,4.03-2.22,4.296c0.15-2.405-0.375-3.646-0.375-3.646
	S77.973,327.184,77.201,327.646z"/>
<path fill="#D8A22A" d="M79.15,328.252c0,0,2.514,5.648-3.72,5.876c0,0-0.452-0.18-1.043-1.096c-0.591-0.915-2.1-3.863-3.167-3.471
	s0.992-1.595,3.039,1.784c0,0-1.381-3.884-3.822-3.917c0,0,1.918-0.515,4.25,2.961c2.33,3.477-2.458-2.54-3.28-5.274
	c0,0,2.556,4.461,4.1,5.387c0,0-0.517-4.543-5.17-5.413c0,0,4.299,0.404,5.914,4.321c0,0-2.875-4.744-1.972-7.006
	c0,0,1.545,5.755,2.804,6.582c0,0,0.358-1.322-1.086-4.739c0,0,2.018,4.03,2.22,4.296c-0.15-2.405,0.375-3.646,0.375-3.646
	S78.378,327.791,79.15,328.252z"/>
<path fill="#D8A22A" d="M468.491,330.995c0,0,1.421,6.017,6.519,2.423c0,0,0.25-0.417,0.167-1.504
	c-0.083-1.086-0.669-4.346,0.418-4.68s-1.755-0.668-1.337,3.26c0,0-1.254-3.928,0.668-5.432c0,0-1.838,0.752-1.588,4.93
	c0.251,4.178,0.418-3.51-0.584-6.184c0,0,0.668,5.098,0,6.77c0,0-2.341-3.929,0.835-7.438c0,0-3.176,2.925-2.089,7.021
	c0,0-0.586-5.517-2.674-6.77c0,0,2.256,5.516,1.754,6.936c0,0-1.086-0.835-2.006-4.429c0,0,0.836,4.429,0.836,4.763
	c-1.337-2.005-2.507-2.674-2.507-2.674S468.826,330.16,468.491,330.995z"/>
</svg>
