<?xml version="1.0" encoding="utf-8"?>
<!-- Generator: Adobe Illustrator 16.0.0, SVG Export Plug-In . SVG Version: 6.00 Build 0)  -->
<!DOCTYPE svg PUBLIC "-//W3C//DTD SVG 1.1//EN" "http://www.w3.org/Graphics/SVG/1.1/DTD/svg11.dtd">
<svg version="1.1" id="Ebene_1" xmlns="http://www.w3.org/2000/svg" xmlns:xlink="http://www.w3.org/1999/xlink" x="0px" y="0px"
	 width="566.93px" height="708.66px" viewBox="0 0 566.93 708.66" enable-background="new 0 0 566.93 708.66" xml:space="preserve">
<path fill="#968C62" d="M90,468.66l0.667-8l0.667-6.333l-2,0.333c0,0-0.667-4.334,1.667-5.667s2.333-5,2.333-6
	s1.333-5.666,2.667-2.666s-0.666,6.666,1.667,7.666s2.667,4.001,2.667,5.334s-2.333,1-2.333,1l0.333,6.333l1.333-0.333l1,8.666
	L90,468.66z"/>
<polygon fill="#3E5089" points="28,500.994 60.333,508.661 128.333,504.994 134.333,497.328 99.5,466.66 64,464.66 "/>
<path fill="#253470" d="M409.147,60.106l2.509,31.463l5.515,0.911c0,0,2.549,2.959,3.089,5.451
	c0.54,2.492,20.612,68.676,20.612,68.676l-38.536-1.878l3.813-73.571l-2.016-0.968l2.007-30.537
	C406.14,59.655,407.599,57.131,409.147,60.106z"/>
<polygon fill="#756C48" points="404.5,163.16 402.5,201.16 443,205.16 443,165.66 "/>
<polygon fill="#253470" points="402.5,201.16 398.5,241.16 468.5,245.16 445.5,208.16 442,204.66 "/>
<polygon fill="#756C48" points="398.5,241.16 398.5,689.16 464,681.16 464.5,349.16 469,349.16 469,271.66 466.5,269.16 
	466.5,244.66 "/>
<ellipse fill="#E0E0E0" stroke="#000000" stroke-miterlimit="10" cx="436" cy="303.66" rx="19.25" ry="25"/>
<path fill="#3E5089" d="M407.141,90.643c0,0-10.007-0.338-9.467,2.153l-24.302,74.402l28.964-2.468L407.141,90.643z"/>
<polygon fill="#968C62" points="372.25,163.91 404.5,163.16 402.5,201.16 369.5,203.16 "/>
<polygon fill="#3E5089" points="369.5,203.16 345,245.16 398.5,241.16 402.5,201.16 "/>
<polygon fill="#968C62" points="346.5,244.91 398.5,241.16 398.5,689.16 345,675.41 348.5,348.16 343.75,348.16 343.75,273.16 
	347,270.66 "/>
<rect x="412.25" y="274.91" fill="none" stroke="#000000" stroke-miterlimit="10" width="45.25" height="55"/>
<rect x="351.5" y="275.66" fill="none" stroke="#000000" stroke-miterlimit="10" width="35" height="54"/>
<ellipse fill="#FFFFFF" stroke="#000000" stroke-miterlimit="10" cx="368.5" cy="301.785" rx="15.75" ry="24.375"/>
<polygon fill="#3E5089" points="134,526.66 315.5,512.16 349,515.16 348.5,556.66 319.5,551.66 135,564.16 "/>
<path fill="none" stroke="#3E5089" stroke-miterlimit="10" d="M110,371.16"/>
<path fill="#968C62" d="M26.5,497.66l-4.5,190l45,18l262-34l16,3.75l3.5-118.75l-29-5L135,564.16l0.25-100.25l-2-1l-0.25-5.5h1.25
	c0,0,0.5-5.5-2.75-9.5c0,0-1.25-4-1-5.25s-3-2.5-2.75,0.25s-0.75,5.75-2,7s-2.5,5.5-2,7.5H125v6l-1.5,0.5l0.5,39.25l-7,0.25v-11
	l-2-0.5c0,0-1-8.5-2-8.25c-2.301,0.575-1.25,3.75-1.5,8l-2.25-0.5L109,502.41l-7.25,0.25l-0.5-22.5l-2-1.25c0,0,0-9-1.25-8.25
	s-1.75,5.5-1.5,7.25l-1.75,2l-0.25,24l-8.25,0.25l-0.25-9.5l-2.25-1.25c0,0-0.75-9.25-1.75-9.25s-1.5,6.75-1.75,9l-1.75,1.25
	l-0.25,10.75L71,506.328l-1-41.668l-1-1l-0.5-4.75l1.75,0.25c0,0,1-0.5-1.25-4.25s-2.5-9.75-2.5-9.75s-1.5-2.25-2,0.25
	s-1.75,7.75-3,9s-1.5,5.25-1.5,6s1.75,0.5,1.75,0.5l-0.25,6l-1.5,0.75l-1.25,38.5l-7-2.25l-0.75-10c0,0-1.25-10.5-2-10.25
	s-1.5,5.25-1.75,8s-0.75,11.5-0.75,11.5h-4c0,0,0.5-26.25-1.5-28.75s-2.5,24.25-3,27.25s-3.5-1.25-3.5-1.25l1.25-37l-2-0.25v-5.25
	l2-0.75c0,0,1-5.25-0.75-6.5s-2.25-3.75-2.25-5.5s-2.25-4.25-2.25-1s-0.5,5.5-2,7.75s-2.5,5.5-1.75,6.25s2,0,2,0l-0.75,5l-1.5,0.25
	V497.66z"/>
<path fill="#968C62" d="M341.5,549.66l-0.125-10.125l-3.5-0.125c-0.666-9-0.666-10.292-2-9.625s-1.333,9.791-1.333,9.791h-3
	l-0.167,8.709L321,547.493l-0.833-35L319,511.827l0.333-2.167l2.334-0.167c0,0,0.166-2.999-1.167-5.166s-1.833-6.834-1.833-7.667
	s-1.834-2.501-2.334,0.333s-0.834,5.834-1.5,6.834s-2.166,4.666-1.666,6.166l1-0.333l0.666,2.333h-1.5l-0.5,36H311.5l0.5,13.834
	l34-2.167l-0.167-9.833L341.5,549.66z"/>
<path fill="#968C62" d="M142.25,559.784l-0.333-11.667h3c0,0-0.625-9.249,0.708-9.916s1.958,0.75,2.625,9.75l3.5,0.125l0.125,10.125
	l6.188-0.083c0,0-0.438-22.063-0.188-22.063s0.813-0.188,0.813-0.188v-1.625l-1-0.125c0,0,0-2.563,0.625-2.625s0.75-0.5,1-1.875
	s1.875-2.813,2.188-1.5c0.44,1.851,0.014,1.848,0.813,3.125c0.313,0.5,1.125,1.188,1.063,2.125l-1.563,0.188v1.188l1.75,0.375
	l0.063,22.813l7.708-0.771l0.083-10.376h3c0,0-0.625-9.249,0.708-9.916s1.958,0.75,2.625,9.75l3.5,0.125l0.125,10.125L188,556.16
	c0,0-0.188-22.604,0.063-22.604s0.813-0.188,0.813-0.188v-1.625l-1-0.125c0,0,0-2.563,0.625-2.625s0.75-0.5,1-1.875
	s1.875-2.813,2.188-1.5c0.44,1.851,0.014,1.848,0.813,3.125c0.313,0.5,1.125,1.188,1.063,2.125L192,531.056v1.188l1.75,0.375
	l0.75,23.208l5.833-0.5l-0.417-10.542h3c0,0-0.625-9.249,0.708-9.916s1.958,0.75,2.625,9.75l3.5,0.125l-0.083,9.583l7.833-0.333
	c0,0-0.688-22.813-0.438-22.813s0.813-0.188,0.813-0.188v-1.625l-1-0.125c0,0,0-2.563,0.625-2.625s0.75-0.5,1-1.875
	s1.875-2.813,2.188-1.5c0.44,1.851,0.014,1.848,0.813,3.125c0.313,0.5,1.125,1.188,1.063,2.125L221,528.681v1.188l1.75,0.375
	l0.75,22.75l5.5-0.5l-0.208-10.834h3c0,0-0.625-9.249,0.708-9.916s1.958,0.75,2.625,9.75l3.5,0.125l0.125,10.125l6.313-0.875
	c0,0-0.438-22.063-0.188-22.063s0.813-0.188,0.813-0.188v-1.625l-1-0.125c0,0,0-2.563,0.625-2.625s0.75-0.5,1-1.875
	s1.875-2.813,2.188-1.5c0.44,1.851,0.014,1.848,0.813,3.125c0.313,0.5,1.125,1.188,1.063,2.125l-1.563,0.188v1.188l1.75,0.375
	l0.271,22.625l5.833-0.833l-0.375-10.501h3c0,0-0.626-9.249,0.708-9.916s1.959,0.75,2.625,9.75l3.5,0.125l0.118,9.544l0.007,0.581
	l6.75-0.583c0,0-0.125-23.104,0.125-23.104s0.813-0.188,0.813-0.188v-1.625l-1-0.125c0,0,0-2.563,0.625-2.625s0.75-0.5,1-1.875
	s1.875-2.813,2.188-1.5c0.44,1.851,0.014,1.848,0.813,3.125c0.313,0.5,1.125,1.188,1.063,2.125l-1.563,0.188v1.188l1.75,0.375
	L279,548.493l5.375-0.042l-0.334-11.667h3.001c0,0-0.625-9.249,0.709-9.916s1.959,0.75,2.625,9.75l3.5,0.125l0.291,11.25l4.5-0.5
	c0,0,0.209-23.688,0.459-23.688s0.813-0.188,0.813-0.188v-1.625l-1-0.125c0,0,0-2.563,0.625-2.625s0.75-0.5,1-1.875
	s1.875-2.813,2.188-1.5c0.439,1.851,0.014,1.848,0.813,3.125c0.313,0.5,1.125,1.188,1.063,2.125l-1.563,0.188v1.188l1.75,0.375
	l-0.146,24.959l6.833,0.166l1.167,14L142.5,578.66l-6.667-18.667L142.25,559.784z"/>
<polyline fill="none" stroke="#000000" stroke-width="0.75" stroke-miterlimit="10" points="67,705.16 64.667,513.662 65,466.328 
	64.667,458.995 "/>
<path d="M437.75,302.41c-0.148-1.994-2.547-1.818-2.673-3.487c-0.014-0.172-0.026-0.343-0.039-0.512
	c-0.013-0.168-0.525-1.085-0.538-1.251c-1.272-16.788,1.412-17.939,2.25-13.75c1,5,0.738,14.501,0.238,18.001"/>
<path d="M370,300.41c-0.148-1.994-2.547-1.818-2.673-3.487c-0.014-0.172-0.026-0.343-0.039-0.512
	c-0.013-0.168-0.525-1.085-0.538-1.251c-1.272-16.788,1.412-17.939,2.25-13.75c1,5,0.738,14.501,0.238,18.001"/>
<path d="M367.773,301.197c1.038-0.158,0.865-1.951,1.734-2.084c0.09-0.015,0.178-0.027,0.266-0.042
	c0.088-0.013,0.551-0.419,0.637-0.433c8.734-1.345,9.426,0.641,7.264,1.366c-2.581,0.866-7.557,0.892-9.403,0.598"/>
<path d="M437.023,303.697c1.038-0.158,0.865-1.951,1.734-2.084c0.09-0.015,0.178-0.027,0.266-0.042
	c0.088-0.013,0.551-0.419,0.637-0.433c8.734-1.345,9.426,0.641,7.264,1.366c-2.581,0.866-7.557,0.892-9.403,0.598"/>
</svg>
