<?xml version="1.0" encoding="utf-8"?>
<!-- Generator: Adobe Illustrator 16.0.0, SVG Export Plug-In . SVG Version: 6.00 Build 0)  -->
<!DOCTYPE svg PUBLIC "-//W3C//DTD SVG 1.1//EN" "http://www.w3.org/Graphics/SVG/1.1/DTD/svg11.dtd">
<svg version="1.1" id="Ebene_2" xmlns="http://www.w3.org/2000/svg" xmlns:xlink="http://www.w3.org/1999/xlink" x="0px" y="0px"
	 width="566.93px" height="708.66px" viewBox="0 0 566.93 708.66" enable-background="new 0 0 566.93 708.66" xml:space="preserve">
<path fill="#B79C51" d="M487.332,672.659c0,0-6.667-4.666-8.667-14s0-148.667,0-148.667s10-6.666,6.667-11.333h-6v-26.667h10.667
	c0,0,1.333-11.333,7.333-11.333h-19.333v-8l-2.667-2.667v-18.667c0,0,5.333-6.666,7.333-6.666s-142.666-0.667-142.666-0.667v-3.333
	h-8v-5.334H221.332v5.334h-8v4.666H68.665c0,0,7.333,4.001,9.333,7.334s0,16,0,16l-4,2v10H54.665c0,0,8,2,8.667,9.333h12v29.333h-8
	c0,0,0,7.334,8,12.667v146c0,0-5.333,13.333-8,13.333s-22.667,0-22.667,0v7.334h464v-6H487.332z M145.332,649.992c-6,6-12,22-12,22
	h-21.333c1.333-3.333-10-16-10-16v-144c4-0.667,7.333-10,7.333-10h29.333c0.667,7.333,6.667,11.333,6.667,11.333V649.992z
	 M213.999,648.992c-6,6-12,22-12,22h-21.334c1.334-3.333-10-16-10-16v-144c4-0.667,7.334-10,7.334-10h29.333
	c0.667,7.333,6.667,11.333,6.667,11.333V648.992z M311.332,649.658c-9.692,6-8.671,21.666-8.671,21.666l-50.667,0.667
	c2.155-3.333-10.663-16.333-10.663-16.333v-144c6.461-0.667,11.847-10,11.847-10h47.384c1.078,7.333,10.771,11.333,10.771,11.333
	V649.658z M382.665,650.325c-6,6-12,22-12,22h-21.334c1.334-3.333-10-16-10-16v-144c4-0.667,7.334-10,7.334-10h29.333
	c0.667,7.333,6.667,11.333,6.667,11.333V650.325z M450.998,648.659c-6,6-12,22-12,22h-21.334c1.334-3.333-10-16-10-16v-144
	c4-0.667,7.334-10,7.334-10h29.333c0.667,7.333,6.667,11.333,6.667,11.333V648.659z"/>
<path fill="#82A091" d="M325.25,372.035c0,0-0.5-1.375,0.125-1.5s1.125-2.125,0.875-2.75s-1.5,0.875-1.5,0.875l-1.25-0.875
	l0.5-0.625c0,0-1-0.5-3.125,0.375c-0.99,0.408-1.299,0.597-1.349,0.685c-0.347-0.095-1.005-0.24-1.276-0.06
	c-0.375,0.25-0.125,0.375-0.125,1s-0.125,0.75-1.375,1.75s-1.375,1.5-1.375,2.375s-0.125,0.5-0.625,1.875s-0.625,1.875-0.625,3.375
	s0.25,3.375-1.125,3.875l-1.375,0.5l-9.375-0.125c0,0-6.5-3.875-8.25-3.5c0,0-0.875-0.5,0.375-3.25c0,0,0.375-0.5-0.75-0.75
	l0.5-4.875l-0.875-2.25c0,0,1.375-2.625-1-1c0,0-1.75-1.75-2.75-0.5s1.375-2.125-1.25-15.125c0,0-0.25-3.125-3.75-2.25
	c0,0-1.375,1-0.875,2.75c0,0,0.375,0.875-1.125,1.75c0,0-0.75,1.5-2,0.125s-1.75-1.875-1.5-2.5s0.75-0.5,0.75-1.375
	s0.875-1.25,0.875-1.25s1.375-1.375-0.25-2.5s-5.375-0.5-5.875,0.625l-0.5,0.25l-0.125-4.5c0,0,1.25-0.875,0-1.25l0.25-2.25
	c0,0,1.75-1.25-0.375-1.5c0,0,4-1.375,4-2.25c0,0,3.125-3.625,0.875-6.625c0,0-1.25-1.625-2-2.25c0,0,0.5-1-1.875-1.75l0.375-1.625
	c0,0,2.792,0.167,1.958-2.583c0,0,1.167-0.084,1.5-0.417s0.583-0.75,0.833-0.833s0.25-0.167,0.5-0.583s0.333-0.167,0.583-0.5
	s-0.417-0.083,0.25-0.333s0.417-0.917,0.417-0.917s-0.333-0.333,0.333-0.417s0.583-0.083,0.583-0.583s0-0.583,0.167-0.833
	s0.5-1,0.5-1s-0.75-0.583,0-0.583s1.334-0.334,0.833-0.667c-0.5-0.333-0.167-0.333,0.083-0.917s0-0.5-0.25-0.5s-0.75,0.25-2,1.167
	s-4.083,2.083-4.75,2.333c0,0-2.083,1.417-1.667,2.833l-1.583,1.083L273,317.244c0,0,0.417-1.25-0.25-1.5c0,0,0.583-0.25,0.583-0.5
	s-0.75-0.333-0.833-0.583s0.25-1.167,0-1.25s-0.75,0.584-0.917,1.167s-1,0.583-1,0.583s0.083,0.667,0.833,0c0,0-0.417,0.667-0.167,1
	l-0.667,0.333l0.667,0.583l0.333,1.5l-0.333,1l-1.667-1.417c0,0,0.75-0.667,0-1.5c0,0-0.834-1.583-2.667-2
	c0,0-4.25-1.833-4.667-2.583s-1.667-0.583-1.5-0.083s0.667,1,0.667,1s-0.167,0.333-0.167,0.667s0.25,0.5,0.583,0.583
	s0.25,0.333,0.25,0.833s-0.167,0.833,0.083,0.833s-0.167-0.833,0.25,0s-0.833,0.917,0.417,0.833
	c0.373-0.025,0.555-0.063,0.647-0.093c-0.045,0.042-0.087,0.12-0.064,0.26c0.083,0.5-0.167,1.167,0.083,1.167s0.583-0.583,0.667,0
	s-0.417,1.083,0.25,1s0.75-0.084,0.833,0.333s-0.417,0.25,0.083,0.417s0.167-0.25,0.5,0.167s-0.084,0.917,0.583,0.75
	s0.25-0.833,0.667-0.167s0.25,1,0.417,1.25s1.167,1.583,2.75,1.667c0,0,0.333,0.417,0.333,1.167c0,0,0.333,1.583-2.25,2.5
	c0,0-2.083,1.667-1.583,4.583s1.75,4.083,3.583,5s2.167,0.5,2.167,0.5v0.5c0,0-1.667,0.583,0.25,1.5v2.167
	c0,0-0.5,0.833,0.083,1.083l0.083,4.417c0,0-2,2-2.167,2.5c0,0-2.167-1.583-3-0.25c0,0-2.333,0.25-2,6.167s1.5,14.834,1.333,17.917
	c0,0-5.667,3.416-6.417,3.416c0,0,0.25-1.166,0.417-1.416s0.167-1.417,0.167-1.417l-0.417-1.333c0,0,0.083-0.584,0.5-0.917
	s0.333-1.5,0.333-2s-0.833,0.25-1,0.75s-0.333-1.417-1-1.5s-2.583-0.584-3.083,0.583s-1.25-0.416-1.25-0.916
	s-0.084,1.832,0.083,2.416c0,0,0.333,0.418-0.25,0.834s-0.25,1.166-0.167,1.833s-0.25,2.667-0.25,3.667s0,2,0,2
	s-7.333,2.082-11.5,2.499c0,0-2.833,0.751-5.833-0.166c0,0-0.917-2-1.167-2.917s-1.417-4.251-1.833-5.417s-0.667-1.833-2.417-3.083
	c0,0-3.583-3.083-5.5-1.083l-0.667,1l-2.083,0.083c0,0,0.75,1.001,1,1.417s0.583,1.499-0.167,1.916s0,1.416,0.333,1.75
	s-0.083,1.25,0.083,2.167s0,4.166,0.417,4.833s1.75,1.25,2.25,0.917s1.5,0.167,1.5,0.167l0.167,1.666c0,0-2.417,1.335-2.333,4.751
	c0,0,0.584,3.166,1.167,4.083c0,0,0.333,2.249-0.667,3.083c0,0-1.833,0.416-1.667,2c0,0,0.5,1.5,0.333,3.75l0.167,2.667
	c0,0,0.333,0.666,0.167,1.833s0.333,2.168,0.833,2.584s1.833,0.917,2.333,0.25s0.917-2.334,0.25-2.667s-1.417-0.917-1.417-0.917
	s0.5-1-0.25-1.875c0,0,0-3.5,0.75-5c0,0,1.375-0.75,1.75-1.125s1.125-0.25,1.125-0.25l2.5-0.125c0,0,1.375-0.25,0.25-0.875
	s0.375-0.5,0.375-0.5s1.25,0.25,1.625,1.125s0.75,4.5,0.75,4.5s0.125,1.25-0.5,1.625c0,0,0,1.375,0.25,1.875s0.625,4.125,0.25,5
	s0.25,1.625,0,2.125s-0.75,1.375-0.875,2.25s2.5-0.125,2.5-0.125l0.375-2.875c0,0,0.25-2.5-0.25-4.125s0.625-3.5,0.625-3.5
	s0,2.375,0.75,2.375c0,0,0.75,6.375-0.875,8.25h2.75l-0.25-1.625c0,0,1.75,0.25,1.75-0.25s0.25-1.25,0.25-1.25
	s0.5,0.125,0.875-0.625s0.375-1.125,0.875-1.125s0-1.125,0-1.125s-0.125-1.125,0.5-1.375s0.125-1.5,0.125-2.125
	s-0.875-4.75-0.125-5.25s-0.25-1.125-0.25-1.125s0.25-2.625,0.75-2.875l5.125,0.125c0,0,0.875,4.5,1.5,4.875s0.25,1.125,0,1.625
	s-0.125,1.875,0.25,2.625c0,0,1,2,0.75,3.625s0.625,2.75,0.625,2.75l0.5,3.25c0,0,3-0.125,2.5-0.25s-1.375-1.75-1.375-1.75
	s1.625,0.25,1.875-0.625s0-4.875,0-5.5s0.25-4.375,0.25-5s0.625,1.5,0.625,3s0.125,3.75,0.5,4.25s1.375,1.75,1.75,1.625
	s1.25,0.625,2-1.25s0.625-2.375,0.125-3.125S263,402.535,263,402.535v-1.25h1.5c0,0,0.75,2.25,0.125,2.75s0.625,1.875,0.625,1.875
	l0.125,5.375c0,0-0.5,1.75,0,2.125s-0.75,1.875-0.75,1.875l2.625,0.125l-0.625-1.5c0,0,0.75-2,0.375-2.625s-0.125-4.5-0.125-4.5
	s1-2.75,0.375-4.25c0,0,0-1.25,0.5-1.125s7.375,1.125,8.25,0.75c0,0,0.5,9.75,0.5,10.125s-1.125,0.875-1.125,0.875l-0.125,3
	l4.875-0.25l-0.375-2.375L279,412.41l0.125-8.375c0,0,0.25-1.25,0.25-1.625s4.125-0.5,4.125-0.5l0.125,1.375c0,0-1.125,1-1.125,2.25
	c0,0,1.25,1.875,2.75,0.75c0,0,0,5-0.5,8.25l0.125,1.75l1.75-0.875c0,0,0-1.25,0.375-1.75s-0.125-1.875-0.125-2.25
	s0.125-4,0.125-4.5s1.25-1.875,0.75-3.25c0,0-0.375-1.5,0-1.625s1-0.625,1-0.625s0.25,1.75,0.375,2.375s0.625,1.5,0.625,2.125
	s0,3.375,0.625,3.625s1.25,1.125,1.25,1.125l0.25,1.875c0,0,0.375,0.125,0.25,0.75s-0.25,1.375-0.25,1.375l-0.125,0.625l3.25,0.125
	l-0.125-1.875c0,0-0.625-0.5-0.625-1.125s0.5-1.375,0.5-1.375l-0.5-0.875v-1.125c0,0,1.625-0.5,0.125-2.25l-0.125-0.875
	c0,0-0.25-0.875,0.125-1.375s0.5-0.875,0.375-1.25s0.375-1.875,0.375-1.875s1.25-0.5,1.25,0.625S297,414.91,297,414.91l0.125,1
	l2.5-0.25l-0.375-14.125c0,0,0.75-1,0.875-1.625l0.75-0.25c0,0,0.5-1.25-0.5-1.625c0,0-0.625-1-1.25-1.125s-0.375-0.875-0.375-0.875
	l5.375,0.25c0,0,0.5,2.25,1.125,2.5l-0.375,0.875c0,0,0,1.5,0.625,2.5s-0.25,2.25-0.25,2.25s-0.375,0.625,0.5,1.5
	s-0.25,0.625-0.5,1.125s-0.5,2.375,0.5,2.875s0.875,3,1,3.5s0.125,0.75,0.75,1.375s1.25,1,1.25,1l0.5-0.375l-0.125-1.125
	c0,0,0.5-1.125,0.25-1.5s0.5-1.375-0.375-1.625s-0.25-2,0.625-1.875s0.5-2.75,0-3.5s-0.5-1.125-0.375-2s0.875-3.5,1-3.875
	s0-2.625,1.125-1.375c0,0,0.25,1.875,0.625,1.75s0,1.5-0.25,2.375s-1.375,2-0.5,3.375s0,3.125,0,3.125l-0.75,3
	c0,0-0.75,2.25,0.5,1.875l-0.125,1.375l4-0.125c0,0-0.25-1.875-0.875-2.5l-0.375-1c0,0,1-1.625,0-2.625l-0.25-3.25
	c0,0,1-1.625,0.875-2.375c0,0,1.75-1,1.5-1.75c0,0,0.125-1.25,0.625-1.5s0.875-2.5,0.875-2.5l1.75-0.75c0,0,0.75,1.375,2.5,2
	c0,0,1.25,0.25,0.75,1.5c0,0,0,2-0.875,3.125c0,0-1,1.625-0.25,1.875c0,0,0.25,0.625-0.25,0.75s-1.875,1.25-1.375,2.25
	s1.875,1.75,1.875,1.75s2.125-0.125,1.375-2.375s0.5-1.875,0.5-1.875s0.5-1,0.25-1.875s0.125-2.625,0.625-3.125s0.5-1.25,0.5-1.25
	s0.5-1.5-1-2.75c0,0-0.75-0.875-0.375-2.5s0.25-2.625,0.5-3.125s0.375-3.25-0.625-4.5s-1.125-2.875-1.25-3.25
	s1.375-0.875,0.75-2.375c0,0,2.125-0.5,1.875-2.625c0,0,0-4.375,1.125-5.625C325.625,373.035,326.375,372.535,325.25,372.035z
	 M274.917,334.827c-1.083-1.667-0.583-2.667-0.583-2.667c1.667,0,2.25,1.333,2.25,1.333
	C276.417,334.41,274.917,334.827,274.917,334.827z M274.833,327.66c0,0,1.833,1.083,1.833,1.583c0,0-1.416,1.667-2.583,1.5
	C274.083,330.744,273.5,329.66,274.833,327.66z M270.667,327.744c0.333,0,1.5,2,1.5,2.667c0,0-1.25,0.5-3.083-0.75
	C269.083,329.66,270.333,327.744,270.667,327.744z M271.5,335.077c-1.583-0.083-2-1.583-2-1.583c1.5-1.583,2.75-1.25,2.75-1.25
	C272.583,332.577,271.5,335.077,271.5,335.077z M228.708,382.369c0,0,0.292-0.708,0.375-0.958s0.417-0.083,0.417-0.083l0.042,1.208
	L228.708,382.369z M229.5,380.286c0,0.208-0.833,0-0.833,0s0.5-0.958,0.875-0.958C229.542,379.328,229.5,380.078,229.5,380.286z
	 M247.5,395.327c-0.042-0.167,0.542-1.458,0.542-1.458l2.917,1.625C250.958,395.494,247.542,395.494,247.5,395.327z
	 M251.083,388.994c-0.042,2.167,0.167,5.208,0.167,5.208l-3.167-1.416l-0.083-4.5c0,0-0.583-4.291-4.292-4.75
	c0,0-3.917-0.25-4.417-0.125s-0.458-0.667-0.458-0.667L254,383.452C254,383.452,251.125,386.827,251.083,388.994z M254.417,382.036
	c0,0-0.625,0.333-0.542,0.458s-11.125-0.042-11.125-0.042s11.375-1.916,11.625-2.041S254.417,382.036,254.417,382.036z
	 M260.833,380.66l-0.167-2.834c0.833-0.417,4-2.083,4-2.083L260.833,380.66z M272.917,353.577c-0.25-0.417-0.25-0.75-0.333-0.5
	s-0.25,0.583-1-0.167s1.667-2.333,1.667-2.333l0.417,2.833C273.667,353.41,273.167,353.994,272.917,353.577z M286,373.66
	c-0.25-0.333-2-1-2-1c-0.334-0.583-0.167-3.834-0.167-3.834C284.584,369.576,286.25,373.993,286,373.66z M296,385.66
	c0,0-0.75-2.001-1.333-2.167l-0.083-1.166l1.5,0.5L296,385.66z M294.667,381.41c0-0.25-0.167-1.25-0.167-1.25
	c3.25,1,4.584,2.333,4.584,2.333C298.001,382.493,294.667,381.66,294.667,381.41z M304,395.16c0,0-4.416,0.417-4.25-0.083
	s4.5-2.5,4.5-2.5C304,392.827,304,395.16,304,395.16z M304.667,391.16c0,0-5.333,2.833-5.5,3.25l-0.25-10.917
	c0,0,1.584,0.166,1.917,0s4.833,1.834,4.833,1.834l0.5,0.083C306.167,385.41,304.584,390.41,304.667,391.16z M307.084,384.993
	l-2.5-1.166l3.833-0.084L307.084,384.993z"/>
</svg>
