<?xml version="1.0" encoding="utf-8"?>
<!-- Generator: Adobe Illustrator 16.0.0, SVG Export Plug-In . SVG Version: 6.00 Build 0)  -->
<!DOCTYPE svg PUBLIC "-//W3C//DTD SVG 1.1//EN" "http://www.w3.org/Graphics/SVG/1.1/DTD/svg11.dtd">
<svg version="1.1" id="Ebene_1" xmlns="http://www.w3.org/2000/svg" xmlns:xlink="http://www.w3.org/1999/xlink" x="0px" y="0px"
	 width="566.93px" height="708.66px" viewBox="0 0 566.93 708.66" enable-background="new 0 0 566.93 708.66" xml:space="preserve">
<path fill-rule="evenodd" clip-rule="evenodd" fill="#FAE895" d="M340.25,579.5c0-0.75-2.583-11.864-2.583-11.864
	S333.75,552.5,335.25,542s4.797-11.486,11.5-14c2-0.75,5-3.25,5-3.25l7.5,1.75l8.25,13.5l2.75,11L369,561.75L340.25,579.5z"/>
<path fill-rule="evenodd" clip-rule="evenodd" fill="#3F7830" d="M344.5,570.5L344,562l-4-4.5l4.5-2.75l-1.431-4.339l2.681,0.339
	l1.601-4.891l2.399,0.391l5.75,6.5l0.5-4.5l5.5,4.5l1.75-5l-1.323-2.966l-2.826-6.331L351,536.75l3.656-8.25L354.5,524l-0.5-12l37,2
	l33.728,0.296l9.561-17.11l21.639-16.105L466,446l28-7l23.821,8.371l18.116-9.567L569,434.5c0,0-44.521,13.921-25.428,16.211
	s-21.453,36.685-32.907,30.957c-8-4-33.115,13.686-32.666,24s-31.118,1.655-22.667,11.333s-28.584,35.059-34,27.333
	s-45.761,1.581-34.214,6.124s-29.511,41.657-23.786,25.21S340,580.5,340,580.5v-5L344.5,570.5"/>
<path fill-rule="evenodd" clip-rule="evenodd" fill="#3F7830" d="M0,318c0,0,6.357-21.259,26.679-26.129
	s26.408-21.258,57.865-10.064S135,312,159,318s43.714-13.139,51.857-16.569S233,291,241,307s7.217,7.416,9.108,37.708
	S268,390,282,399s11-24,22-30s65.77-7.195,67.885,5.402S389,398,376,406S203.503,550.357,194.751,573.179
	c-3.064,7.991-40.155-1.037-45.266-38.431c-2.152-15.747-12.152-41.08-29.486-38.414c-14.519,2.233-47.333-22.666-26.667-37.333
	S34.667,415.666,48,401s-13.591-3.946-12.129-20.973s-16.409-38.557-17.807-30.792s-5.633-22.007-9.516-16.454S0,318,0,318z"/>
<path fill-rule="evenodd" clip-rule="evenodd" fill="#FAE895" d="M206.75,572.25l3-16L214.5,531l12.5-30.75c0,0,5-8.25,12.5-9.25
	s5.5-3.5,18.25-6.5c0,0,22.793-7.205,22.25-9.5c0,0,29-12,38.25-20.25c0,0,21.5-12.75,22.75-14.5s18.75-20,20.5-20.75
	s17.25-12,35.75-15.5c0,0,2.5-3.75,3,3.5s0.75,24.25,0.75,24.25s1,3-4.25,4s-22,5.75-25.75,7.25s-20,13-21.25,16.75
	s-8.75,7.75-10,10.75s-4.5,4.75-6.25,6.75s-5.25,2.75-8.25,3.75s-8.5,6.5-11.25,8.25s-20.75,17-30.5,19.25s-40.75,15.75-42,17.75
	s-18.25,7.334-24.5,46.917l-2.5,6.583c0,0-2.75,1.25-3.75-0.75s0-5.5-1.75-3.75S206.75,572.25,206.75,572.25z"/>
<path fill-rule="evenodd" clip-rule="evenodd" fill="#886E4B" d="M217,573.167c0,0,4.667-34.834,22.333-45.167
	s33.333-15.5,35.333-16s23.833-10.667,26.833-13.167s15.501-11.333,16.834-13.333s11.166-6.167,11.166-6.167s3-1.333,5.167-2.833
	s4-5.499,9.5-10.333c0,0,15.332-18.501,24.166-21.834s14.666-4.833,22-6.5s11.168-4.667,11.834-5.167s6.666-1.833,6.666-1.833
	l11,0.5l21,1.667l0.5,1.166l-9.5,5.667l-19.5,15l-24.5,16l-25,16.167L352,493.5l-10.167,6.333c0,0-16.166,10-17.666,13.167
	s-4,10.167-4,19.5s3.166,33.667,3.666,36s0.667,3.333,0.667,3.333s-8,9.333-14,10s-3.5-1.5-7-3S299.668,577,296.334,581
	s-5.001,4.333-12.334,2.333s-7.5-5.5-12-3s-2.667,5.834-11,5.167s-6-3.333-15.667-4.833s-4-2.167-11.333-0.167
	s-7,4.166-12.333,1.333s-5-7.333-4.667-9"/>
<path fill-rule="evenodd" clip-rule="evenodd" d="M120.777,265.201c3.078,1.285,5.735,2.987,9.057,4.025
	c-0.178-1.744-1.179-3.273,1.515-3.02c0.292,1.633-0.347,2.342-0.506,3.524c8.461,3.283,16.596,6.884,23.15,12.076
	c7.934,1.914,14.212,7.302,22.142,10.064c1.33,0.462,3.151,0.017,4.529,0.502c11.594,4.108,22.971,13.577,35.727,14.093
	c0.076-1.486-1.458-3.557,0.504-4.028c1.617-0.446,1.04,1.308,2.012,1.513c0.993-0.853,0.786-2.91,3.021-2.521
	c0.778,0.734,0.445,2.577,0.502,4.027c0.957,1.343,2.896-1.95,3.522,0.504c-0.115,1.743-2.679,4.625-0.502,5.535
	c2.192-0.826,1.05-4.987,3.018-6.039c1.33-0.154,1.651,0.698,1.508,2.014c1.476,0.133,1.552-1.139,3.024-1.005
	c0.937,2.108,1.262,3.057,2.509,5.533c-0.407-1.924,1.076-1.948,2.015-2.516c2.997,1.497,5.356-0.676,7.553-1.511
	c2.938,9.807-1.14,26.63,3.018,35.225c1.859-10.108-1.744-19.476,0-27.675c0.859-4.035,5.3-6.395,4.529-11.57
	c-0.689-1.464-2.159,3.14-3.522,1c1.774-4.932,7.394-6.029,8.557-11.572c-6.083,1.801-8.029,7.743-14.093,9.562
	c-0.266-3.596,0.751-8.463-1.004-10.569c-6.371-2.668-4.219,7.06-7.052,9.562c-1.569-0.943-1.153-3.872-1.505-6.039
	c-2.062-0.453-3.488-1.544-5.031-2.516c-8.173,1.524-16.17,0.145-20.631-2.516c-10.683-6.367-24-11.393-36.235-15.099
	c-12.466-4.939-24.551-12.178-37.24-17.106c-7.246-2.815-13.283-4.193-19.117-8.055c-2.707-1.781-5.294-4.159-8.051-6.039
	c-3.867-2.628-6.842-8.47-10.067-9.559c-4.774-1.619-11.104,0.362-15.601-0.501c-1.28-0.292-2.453-2.017-3.525-1.01
	c0,2.687,0,5.371,0,8.053c1.382,1.204,2.098,1.946,2.013,3.524c3.477,3.053,9.942,1.63,15.601,1.506
	c7.116,7.148,14.984,13.542,24.658,18.12c1.234-0.908-1.355-3.635,1.512-3.522C122.418,263.151,121.797,264.373,120.777,265.201z
	 M47.309,219.404c-0.163,1.849,0.43,4.456-0.502,5.537c-1.723,0.223-4.529,1.147-6.041,0c0.397-2.575-0.707-3.652-0.503-6.035
	c-3.122-0.104-6.072-0.038-8.053,1.005c-0.056,4.47,0.271,9.329-0.5,13.08c15.372,1.57,30.993-0.387,45.292-1.506
	c1.619-2.756,1.221-9.599,0.502-13.083c-3.355,0-6.713,0-10.064,0c-0.901,1.786-0.368,5.005-2.014,6.038
	c-2.076-0.063-3.151,0.875-5.533,0.502c-0.73-1.621-0.479-4.217-0.508-6.54C55.51,218.889,50.888,218.626,47.309,219.404z
	 M27.681,240.542c-0.339,5.029-0.601,10.188-1.002,15.097c-0.867,10.507-3.113,21.685,1.51,28.684
	c-1.23-22.478,2.017-43.104,1.508-61.896C27.355,226.277,28.157,233.593,27.681,240.542z M75.993,233.999
	c-12.797,0.117-30.143,2.178-44.284,1.007c-1.444,16.512-2.322,36.253-1.01,53.845c1.991,1.516,3.825,0.741,6.041,0
	c2.534,4.813,9.991,0.466,13.587,0c2.588-5.819,9.384-6.472,13.083-10.066c4.203,1.784,6.927,3.017,12.583,2.516
	C75.491,265.366,77.549,249.321,75.993,233.999z M141.411,249.599c-2.938-2.383-5.569-6.202-8.553-7.549
	c-3.405-1.535-7.922-0.319-11.577-2.01c-2.397-1.11-2.377-3.805-5.533-4.021c-2.96,1.394-6.632,2.09-10.065,3.012
	c1.427,3.415,5.85,5.161,10.065,3.018c8.43,3.485,17.74,6.082,24.654,11.075c12.204,13.939,35.414,21.629,54.349,28.682
	c10.162,3.785,18.249,11.066,29.69,9.562c-15.351-8.135-31-15.97-48.816-21.638c-0.021-0.084-1.813-1.313-1.875-1.313
	c-0.021-0.042-1.625-0.979-1.645-1.203C160.711,262.213,150.317,256.833,141.411,249.599z M115.749,246.077
	c0.929-0.028,1.133-0.38,2.01-0.501c6.233-0.886-1.526-1.131-3.522,0.501C114.738,246.077,115.245,246.077,115.749,246.077z
	 M124.805,247.084c-1.691,1.493-6.862-0.487-8.557,1.008c3.711,1.094,9.037,0.171,12.581-0.503c-2.354-0.5-4.189-1.516-6.541-2.013
	C121.513,247.691,124.891,245.655,124.805,247.084z M210.349,319.043c-1.752-0.76-3.179-1.844-4.025-3.521
	c-1.343-0.837-4.493,0.137-4.528-2.013c1.624-5.056,7.672-1.917,11.069-0.503c-2.39-5.94-10.216-8.211-18.114-11.575
	c-7.233-3.076-11.99-6.737-19.126-7.548c-8.076-5.167-19.289-7.205-26.162-13.585c-17.058-7.097-33.556-14.751-47.807-24.658
	c-2.827-2.49-3.045-6.185-7.546-7.045c-4.967-0.949-11.738,2.011-15.606-2.015c0.232,11.974-0.893,22.592-0.5,34.724
	c2.417-0.902,1.619,1.399,2.512,2.013c0.952-0.894,2.036-1.655,4.026-1.508c1.324,0.356,0.994,2.364,2.014,3.019
	c1.175,0,2.348,0,3.529,0c0.516,1.16,1.73,1.622,1.506,3.524c1.872,0.188,1.316-2.04,3.522-1.513c0.707,1.306,0.698,3.33,1.51,4.531
	c2.102,0.425,2.376-0.982,4.027-1.003c0.861,0.812,1.25,2.099,1.005,4.023c3.186,1.842,8.504,1.555,8.555,6.539
	c7.271-0.31,8.196,7.305,16.102,3.524c1.151,1.21,0.087,3.043-0.504,4.025c3.326,0.306,5.164-0.876,8.555-0.503
	c-0.549,3.258,6.837,1.516,7.047,5.536c1.994,0.187,4.818-0.461,6.04,0.502c0.554,1.359,0.095,2.578-0.506,4.027
	c1.681,0,3.355,0,5.035,0c2.222,3.529,9.773,3.68,13.589,4.022c0.695,0.644,0.302,2.377,1.002,3.023
	c2.767,0.418,3.437-1.257,6.041-1.005c0.578,0.592,0.57,1.777,0.502,3.018c2.665,1.362,7.45,0.604,8.053,4.027
	c0.647-0.868,1.04-1.979,2.519-2.015c0.152,0.681,0.712,0.963,0.498,2.015c1.484-0.886,4.282-2.51,6.544-1.01
	c-0.786-3.132,1.393-3.3,4.024-3.018c-0.246-1.147-0.996-2.572,0-3.521c3.387-1.052,5.731,0.046,6.544-0.506
	c0.23-1.244-0.177-3.385-0.504-6.039C204.151,315.016,209.087,320.639,210.349,319.043z M119.773,250.101
	c4.195-0.33,9.726,0.672,13.085-0.502C130.738,247.932,123.436,248.917,119.773,250.101z M134.364,250.604
	c-3.026,1-7.754,0.298-11.573,0.506c3.022,1.168,8.213,0.169,12.075,0.503c0.31,0.028,0.6,0.073,0.504,0.504
	c-2.246,1.101-7.792-1.155-10.565,0.504c2.37,1.513,9.716,1.59,12.075,0C135.958,252.031,135.18,251.306,134.364,250.604z
	 M129.833,255.134c3.199-0.328,7.712,0.662,10.067-0.502C137.757,254.146,131.14,253.148,129.833,255.134z M141.911,257.148
	c-1.524,0.319-4.33-0.646-5.031,0.504C138.412,257.336,141.218,258.295,141.911,257.148z M255.136,300.927
	c1.259-0.419,2.702-0.66,4.529-0.503c-0.415-1.26,0.981-4.331-1.004-4.025C258.272,298.693,255.942,299.047,255.136,300.927z
	 M256.145,303.952c1.036-0.31,3.496,0.812,3.022-1.01C258.388,301.562,256.214,302.963,256.145,303.952z M262.187,302.942
	c0.277,2.512,8.534,2.053,9.56,0.501C270.464,301.584,264.261,302.369,262.187,302.942z M275.268,307.973
	c6.717,7.039,19.977,7.532,26.165,15.096c-0.409,11.071,13.054,14.22,21.641,21.639c7.452,6.44,12.188,15.393,16.603,20.13
	c4.655,4.983,13.248,13.512,18.621,12.579c-0.214-1.115-1.153-2.729,0.505-3.015c2.385,1.776,1.56,0.674,4.529,0
	c-0.186,3.575,1.066,1.521,2.514,4.026c-0.546,2.132-3.21,2.153-3.019,5.026c2.234-1.054,4.617-0.537,6.544-2.515
	c0.806,1.664,1.524,0.287,3.521,0.504c-0.66-5.96-7.83-6.447-12.075-8.557c-5.102-2.53-12.831-7.441-15.099-11.573
	c-11.724-10.916-21.535-22.002-35.224-31.704c-5.501-3.895-11.314-7.571-10.565-16.604c-6.147-5.435-17.251-5.901-25.164-9.563
	C274.499,305.391,275.664,305.904,275.268,307.973z M262.685,307.472c3.358,0,6.712,0,10.065,0
	C271.536,305.736,263.928,305.92,262.685,307.472z M257.153,309.483c0.865,0.873,3.107,0.558,3.523-0.503
	C259.995,308.292,257.159,308.021,257.153,309.483z M272.75,308.476c-2.024,0.322-5.351-0.652-6.541,0.504
	C268.234,308.658,271.559,309.633,272.75,308.476z M338.172,377.417c-0.039,0.784,1.464,0.354,0.504,0
	c-9.902-5.029-20.022-9.837-27.174-17.611c-6.688-3.818-14.581-6.657-19.631-12.58c-4.756-5.586-7.477-12.201-13.081-16.605
	c-8.342-6.561-19.872-9.828-24.153-21.137c-1.782,11.102,2.539,14.965,4.53,23.147c20.285,11.583,31.913,31.826,51.831,43.781
	c0.266-1.941-0.899-2.46-0.505-4.529c1.568-1.283,2.414-3.288,4.528-4.025c0.586,2.297,3.499-0.842,4.028,1.508
	c-0.317,1.869-1.417,2.947-2.012,4.529c1.694,0.016,2.234-2.642,4.024-1.007c0.206,2.389-1.723,2.647-1.512,5.035
	c2.283-1.316,2.797,1.342,2.514,4.026c2.705-0.589,2.818,1.405,2.014,3.017c2.518-0.252,2.896,2.006,6.546,1.009
	c0.595-4.453-4.945-2.773-3.525-8.052c1.795-1.069,7.981-2.611,8.05,0.506C336.735,378.669,336.291,376.881,338.172,377.417z
	 M279.293,313.509c-4.355-1.346-11.746,0.344-15.099-2.012c1.583,0.235,1.425-1.264,2.016-2.013c-1.008,0-2.016,0-3.017,0
	C263.114,315.938,274.056,314.046,279.293,313.509z M274.764,309.988c-1.633-0.728-6.451-0.912-8.052,0
	C268.344,310.718,273.16,310.899,274.764,309.988z M300.933,310.995c2.167,2.841,1.313,8.7,3.522,12.074
	c2.661,4.071,10.646,7.168,16.103,11.072c13.232,9.474,21.286,24.39,34.722,32.709c3.951,2.446,6.86,4.108,11.071,6.037
	c1.726,0.798,3.803,2.27,5.534,1.515c-4.932-2.359-8.936-6.033-13.588-9.564c-4.262-3.235-9.165-5.726-13.585-9.563
	c-5.828-5.057-9.107-12.458-14.593-17.11c-9.378-7.952-26.6-10.54-27.175-26.668C300.802,310.036,296.402,308.84,300.933,310.995z
	 M261.177,311.497c-0.065-1.112-2.135-0.215-3.02-0.502C257.863,312.231,261.471,313.435,261.177,311.497z M275.771,312
	c2.064-0.927-5.545-0.34-7.551-0.503c-0.593-0.075-1.137-0.896-1.508,0C268.832,312.567,272.841,311.737,275.771,312z M238.027,312
	c0.394,4.141,1.187,7.878,4.027,9.56c-0.736,3.326,0.65,3.051,1.51,5.537c0.769-4.153,0.877-11.465,0-15.6
	C241.487,311.431,240.416,312.371,238.027,312z M209.851,315.018c0.355-1.252-2.155-2.129-2.516-1.007
	C208.291,314.227,208.242,315.449,209.851,315.018z M263.193,314.011c-0.65-0.691-2.189-0.497-3.528-0.502
	C259.05,315.184,263.071,314.743,263.193,314.011z M268.724,315.018c2.693,2.257,10.009,0.685,13.088,0
	C278.338,314.391,272.135,314.06,268.724,315.018z M262.187,316.025c-0.239,1.576,1.353,1.327,1.504,2.514
	c1.582,0.25,1.332-1.73,2.519-0.501c0.238-1.579-1.357-1.327-1.508-2.516C263.487,315.316,263.606,316.443,262.187,316.025z
	 M276.274,318.038c4.164-0.133,9.291,1.437,13.085,0C286.266,316.263,278.136,317.32,276.274,318.038z M297.408,322.566
	c-4.715-5.352-18.006-2.121-26.167-4.027C274.521,325.324,288.279,321.627,297.408,322.566z M266.209,320.05
	c1.397,0.801,3.515,3.508,5.537,2.01C269.746,321.56,268.182,317.53,266.209,320.05z M299.425,329.108
	c0.69-1.184-0.561-3.909-1.01-5.534c-6.67-0.042-14.747-1.352-21.132,0C281.307,328.771,289.304,330.003,299.425,329.108z
	 M278.791,327.096c-2.183-0.834-3.421-2.619-5.536-3.521C274.425,325.098,276.564,328.297,278.791,327.096z M252.623,376.412
	c5.451,3.776,7.007,11.443,15.597,12.076c0,1.008,0,2.013,0,3.02c1.782-0.27,2.592,0.429,3.022,1.509
	c1.854,8.548,12.679,8.119,12.077,19.121c3.927-0.238,5.803,1.584,9.057,2.016c-0.277,3.466,1.155,5.222,3.522,6.036
	c1.306-0.534,0.708-2.982,2.014-3.522c3.163,2.032,4.155-2.922,7.549-2.514c-0.659-3.368-1.871-6.183-3.524-8.555
	c0.15-1.025,1.008-1.339,1.512-2.012c-1.295-0.383-2.133-1.223-2.516-2.518c-1.873-0.19-1.317,2.039-3.524,1.51
	c-0.492-2.09,0.063-3.365-2.008-4.529c1.635-1.379,2.162-3.869,4.024-5.033c5.357-0.833,5.644,3.41,7.546,6.041
	c-0.291-3.813,4.236-2.813,4.027-6.546c0.17-1.67-1.382-1.572-1.512-4.023c0.33-0.675,1.074-0.938,2.016-1.009
	c0.408-1.922-2.427-0.588-2.016-2.514c0.092-1.584,2.712-0.643,2.517-2.516c-6.688-11.093-20.746-14.813-27.178-26.167
	c-6.166-2.354-8.158-9-13.079-13.086c-4.047-3.356-11.008-4.817-14.09-9.56c-1.715-2.625-1.107-5.413-3.524-8.554
	C252.708,342.079,253.354,361.198,252.623,376.412z M295.898,343.703c5.695,6.407,14.881,8.114,22.143,13.587
	c9.342,7.039,19.039,12.822,29.188,17.112c-10.224-5.952-15.598-19.587-25.667-28.182c-2.955-2.528-7.351-5.037-11.572-8.055
	c-3.239-2.309-7.822-7.659-11.068-8.555c-4.725-1.292-9.236,0.554-13.587,0.503C290.594,333.174,291.868,339.165,295.898,343.703z
	 M290.361,338.671c-1.95-1.74-2.652-4.721-5.536-5.536C286.21,335.12,288.269,339.076,290.361,338.671z M241.051,340.683
	c1.377,0.633,1.417,2.608,3.52,2.514c0-1.676,0-3.348,0-5.032C242.623,338.232,242.206,339.834,241.051,340.683z M296.402,346.722
	c-2.92-1.274-3.042-5.351-6.041-6.544C291.77,342.639,293.113,347.822,296.402,346.722z M245.575,349.741c0-1.511,0-3.019,0-4.528
	c-0.499,0-1.004,0-1.508,0C242.861,347.316,244.997,348.032,245.575,349.741z M306.971,352.76
	c-4.398-0.134-6.706-5.027-10.568-4.025C299.738,350.152,303.059,355.022,306.971,352.76z M245.076,354.77c0-0.832,0-1.672,0-2.512
	c-0.671,0-1.344,0-2.017,0C243.093,353.731,244.211,354.125,245.076,354.77z M317.038,359.806
	c-2.707-2.498-4.745-5.661-10.067-5.535C309.735,356.636,313.062,360.227,317.038,359.806z M317.038,361.314
	c1.402,1.916,7.339,8.015,11.067,6.037C324.452,365.588,321.647,360.453,317.038,361.314z M328.609,369.365
	c1.288,1.387,8.423,6.498,11.066,3.522C336.552,371.426,332.736,368.175,328.609,369.365z M314.521,374.402
	c0.215-0.962,1.083-1.268,1.004-2.52c-0.674,0-1.344,0-2.016,0C313.795,372.78,313.77,373.975,314.521,374.402z M339.174,375.405
	c2.284,0.251,4.599,3.107,7.047,1.507C343.958,376.434,341.537,372.688,339.174,375.405z M342.7,382.952
	c1.246-0.072,2.445-0.09,2.513,1.012c-0.899,0.961-1.707,4.634-0.501,6.035c-0.371-2.221,2.747-0.948,3.021-2.52
	c-0.934-2.709-2.084-4.196-0.505-7.045c-0.812-0.861-2.103-1.247-4.028-1.005C343.448,381.021,342.295,381.21,342.7,382.952z
	 M350.247,381.444c0.308,1.204-0.629,3.65,0.506,4.025c0.935-3.09,1.892,1.084,3.521,0.505c-0.54-1.475-1.429-2.602-1.009-5.034
	C352.079,380.93,351.785,381.806,350.247,381.444z M358.802,415.667c1.564,0.44,2.344,1.677,4.024,2.011
	c2.683-2.857,6.638-4.435,10.569-6.041C369.174,409.65,362.332,413.617,358.802,415.667z M532.915,414.655
	c-5.932-0.522-10.281,5.459-15.602,6.546c-4.884,0.991-10.016-1.704-14.585,0.501c1.419,0.416,1.295-0.711,2.51-0.501
	c-0.146,1.023-1.363,0.983-1.508,2.009c14.412,4.745,20.979-6.331,31.199-9.057C535.06,411.971,532.98,413.943,532.915,414.655z
	 M345.717,426.732c1.266,0.915,3.448,0.915,3.528,3.021c4.327-2.883,6.612-7.808,11.069-10.566
	C354.029,413.696,348.532,422.481,345.717,426.732z M517.821,426.732c4.325-3.556,11.512-4.256,15.598-8.05
	c-0.073-0.59,0.089-1.428-0.504-1.509C527.658,419.811,520.146,423.369,517.821,426.732z M517.313,427.741
	c0.621,2.315-1.533,4.46,0,6.035c4.884-3.669,11.757-5.35,16.613-9.055c-0.311-1.365,0.635-3.994-0.508-4.532
	C528.279,422.938,522.301,424.841,517.313,427.741z M498.197,422.707c-5.25,1.651-14.122,3.925-21.138,4.53
	c-6.155,0.527-13.783-0.255-18.619,2.011c-4.296,2.019-7.578,8.231-11.577,12.076c-1.935,1.867-4.145,3.548-6.04,5.54
	c-1.924,2.028-3.559,4.854-5.531,6.542c-3.173,2.711-8.857,4.666-13.084,7.546c-5.635,3.845-10.611,9.163-16.606,13.088
	c-6.147,4.021-12.047,8.756-18.115,12.074c-7.673,4.198-16.711,7.63-24.155,10.063c-2.895,0.947-6.054,1.361-9.058,2.517
	c-12.896,4.948-26.02,18.33-18.622,35.729c10.617-9.007,20.598-19.105,33.719-26.167c6.512-3.503,13.419-6.646,20.131-10.567
	c6.627-3.871,14.145-6.163,20.631-10.067c8.252-4.958,15.478-13.99,24.156-20.631c4.063-3.104,8.648-6.32,13.084-9.559
	c4.52-3.306,9.189-7.331,13.587-9.058c7.514-2.958,15.741-2.056,23.146-4.028c6.374-1.693,11.613-4.242,17.611-6.542
	C502.037,432.699,503.814,420.938,498.197,422.707z M530.904,431.262c3,0.638,3.872-3.488,2.515-5.534
	C532.075,427.066,530.145,427.819,530.904,431.262z M504.234,426.732c1.65,1.7,10.081,1.78,11.068-0.5
	C511.731,426.517,506.99,425.635,504.234,426.732z M504.234,429.753c1.209,1.003,0.885,1.704,0,4.023
	c3.12,0.741,6.95,0.769,10.564,1.011c-0.377-2.734,0.625-4.078,0.504-6.544C511.45,428.585,506.524,427.858,504.234,429.753z
	 M516.312,438.309c5.271-1.274,9.137-3.945,13.591-6.039c-0.312-1.203,0.63-3.649-0.51-4.026
	C525.406,431.969,516.903,431.185,516.312,438.309z M332.635,437.804c0.203,2.149,3.608,1.092,3.017,4.025
	c4.286-2.705,13.173-7.334,10.065-12.581C339.767,430.511,337.62,435.579,332.635,437.804z M446.365,431.766
	c-13.279,7.364-24.801,17.684-37.241,26.671c-14.171,10.237-30.094,20.257-44.786,29.185c-3.131,1.906-7.048,3.131-10.064,5.035
	c-2.79,1.767-4.763,4.377-7.549,6.038c-9.267,5.522-20.854,9.539-24.156,21.638c3.326-2.388,8.398,1.964,9.06,0.504
	c0.193-8.49,6.255-15.854,12.581-19.619c13.073-7.795,30.312-9.423,43.277-18.122c3.951-2.647,7.174-5.893,11.573-8.553
	c8.586-5.196,15.975-10.952,23.651-16.609c3.997-2.942,8.904-5.215,12.078-8.051c6.673-5.963,10.647-12.923,17.617-19.628
	C450.707,431.077,448.453,431.344,446.365,431.766z M532.915,431.262c-2.76,2.61-6.829,3.906-10.563,5.542c0,1.338,0,2.682,0,4.021
	C526.604,439.009,536.12,437.192,532.915,431.262z M504.739,439.313c0.833,0,1.674,0,2.514,0c-0.104-1.575,0.34-3.69-0.505-4.526
	c-0.672,0-1.343,0-2.009,0C504.739,436.295,504.739,437.804,504.739,439.313z M508.259,439.313c2.012,0,4.032,0,6.04,0
	c0.004-1.335-0.189-2.872,0.5-3.522c-2.214-0.126-3.889-0.804-6.54-0.502C508.259,436.631,508.259,437.97,508.259,439.313z
	 M531.908,441.829c-0.434-2.371,2.188-3.155,0-4.529C531.333,437.937,530.9,441.268,531.908,441.829z M515.808,440.323
	c0.306,1.198-0.632,3.651,0.504,4.022c1.5-1.353,4.145-1.553,5.537-3.021c0-1.17,0-2.345,0-3.521
	C518.931,437.745,517.669,439.332,515.808,440.323z M515.808,445.351c0.69,2.069-1.215,4.114,0,5.035
	c0.311-1.371,0.996-2.355,2.014-3.015c4.027,1.981,8.183-3.192,12.575-4.03c0-1.512,0-3.018,0-4.526
	C524.96,440.411,520.904,443.401,515.808,445.351z M497.186,442.839c2.5,0.482,2.688-1.344,4.53-1.515
	c0.892,1.066,1.133,1.494,0.508,3.021c3.168,0.856,7.654,0.396,11.567,0.504c0-1.509,0-3.021,0-4.526
	C507.477,440.373,500.283,439.558,497.186,442.839z M324.583,449.378c3.036-1.991,7.444-2.616,9.056-6.037
	c-0.156-0.682-0.716-0.962-0.499-2.017C328.484,440.024,318.03,447.115,324.583,449.378z M519.328,449.378
	c0.289,0.888-0.607,2.956,0.503,3.018c0.094-0.744,1.22-0.458,2.018-0.5c1.396,0.947,0.039,4.651,2.014,5.032
	c-0.187-4.042,0.192-7.524,3.014-8.554c1.617-0.442,0.694,1.654,2.013,1.508C531.306,440.539,523.014,448.77,519.328,449.378z
	 M502.224,449.882c2.439,0.096,1.582-3.114,4.027-3.018c0.694,0.31,0.067,1.937,1.002,2.01c0.998-4.182,3.181,1.26,4.026,2.016
	c0.245-2.272,1.412-3.622,2.512-5.033c-3.243-0.267-7.681,0.278-11.567-0.506C502.224,446.864,502.224,448.374,502.224,449.882z
	 M465.483,449.378c-2.445,0.412-5.337,2.111-6.037,3.018c5.028,0.66,8.179-2.061,11.577-1.506
	C471.673,447.902,467.293,449.077,465.483,449.378z M307.979,457.933c0.722,0.281,1.227,0.788,1.507,1.509
	c4.417-2.626,8.746-5.338,12.075-9.056C315.688,449.586,312.946,456.164,307.979,457.933z M460.959,453.406c0,1.679,0,3.354,0,5.03
	c1.198,0.575,4.584-0.238,6.041-1.005C468.212,451.244,465.161,452.834,460.959,453.406z M447.875,460.952
	c4.237-0.457,8.158-1.23,12.075-2.012c0-1.842,0-3.69,0-5.534C454.576,454.573,451.257,457.797,447.875,460.952z M292.376,465.482
	c5.056,3.063,11.848-2.105,15.1-5.537C302.55,458.252,297.245,463.874,292.376,465.482z M445.357,462.461
	c-0.373,2.385,0.563,3.461,0.504,5.54c6.684-1.979,16.73-2.923,21.638-5.038C464.536,455.68,452.846,462.303,445.357,462.461z
	 M436.299,469.507c2.952-0.403,5.979-0.728,8.555-1.506c-0.021-1.83,0.285-3.975-1.009-4.53
	C441.531,465.68,438.706,467.385,436.299,469.507z M456.931,466.484c-0.394,2.246,0.675,3.022,0.501,5.038
	c4.297-1.635,6.154-0.036,10.572,0.506C467.726,465.184,463.197,464.307,456.931,466.484z M454.918,466.484
	c-6.487,3.079-16.951,2.176-22.646,6.044c0,1.512,0,3.019,0,4.525c6.647-1.252,16.466-3.645,24.157-5.531
	C456.313,469.453,456.835,466.75,454.918,466.484z M276.779,471.522c0.417,1.595,1.464,2.553,2.514,3.522
	c4.609-2.27,8.862-4.896,13.587-7.044C286.765,465.126,281.903,470.268,276.779,471.522z M458.44,472.028
	c-8.037,1.798-21.772,5.154-30.193,7.041c-0.952,1.319,1.157,2.945,0.505,5.534c12.934-1.824,24.226-5.292,34.721-9.559
	C462.335,473.446,460.605,471.541,458.44,472.028z M258.661,478.566c6.14,3.957,12.982,0.098,18.118-2.518
	C272.989,469.43,263.713,477.122,258.661,478.566z M426.742,478.061c1.423,1.179,3.308-0.412,5.027-0.499
	c-0.593-1.254,0.232-3.929-1.512-4.029C429.456,475.414,427.129,475.773,426.742,478.061z M429.252,485.613c0,2.008,0,4.023,0,6.035
	c9.962-2.45,21.479-3.351,26.675-10.568c1.433,0.414,0.047,3.644,2.01,3.523c0.069-2.615,1.931-3.436,1.51-6.543
	C449.499,480.694,440.17,483.947,429.252,485.613z M424.728,478.566c-7.663,3.067-7.017,8.914-6.545,18.115
	c0.238,4.689-0.2,10.254,0,14.597c0.149,3.227-0.206,7.226,2.015,8.555c0.164-2.016-0.899-2.794-0.508-5.033
	c5.125-4.413-3.845-30.414,5.038-29.693c2.443,0.199,1.725,2.343,3.52,4.025c0.136-4.33-0.359-8.026-2.01-10.565
	C425.729,478.566,425.232,478.566,424.728,478.566z M248.094,483.095c1.987-0.142,1.539,2.152,3.522,2.012
	c3.044-0.813,5.074-2.642,8.552-3.019C257.347,477.382,251.43,480.354,248.094,483.095z M237.025,487.119
	c1.375,0.807,2.479,1.881,4.026,2.518c2.042-1.477,4.556-2.482,7.545-3.021C247.227,481.501,239.565,484.817,237.025,487.119z
	 M449.886,486.615c-0.242,1.591,0.904,1.782,0.504,3.524c1.271,0.578,2.877,0.816,3.52,2.01c0.235-1.795,1.243-5.443,0-7.043
	C452.751,485.79,451.668,486.551,449.886,486.615z M400.065,495.173c0,2.184,0,4.361,0,6.543c5.723-1.996,12.271-3.164,17.108-6.044
	c-1.066-2.279,0.197-6.899-1.001-9.057C411.489,490.156,405.467,492.357,400.065,495.173z M423.215,501.716
	c0.238,4.604-1.371,10.225,1.513,12.58c4.028-5.653,3.365-21.865-0.504-27.177C421.112,490.857,422.945,496.434,423.215,501.716z
	 M222.932,492.149c2.129,0.894,4.951,1.089,6.544,2.52c2.278-1.748,4.41-3.641,8.046-4.026
	C234.638,484.896,227.796,491.079,222.932,492.149z M446.863,487.621c-2.957,2.572-8.606,2.468-12.575,4.027
	c-0.252,2.26,0.258,3.773,0.501,5.537c5.769-0.215,3.609-5.586,10.568-3.521c0.681-0.999,1.754-1.603,3.021-2.016
	C447.781,490.398,448.608,487.728,446.863,487.621z M429.252,492.656c0,2.013,0,4.025,0,6.038c2.163-0.019,3.707-0.652,5.036-1.509
	C433.146,494.046,433.808,490.079,429.252,492.656z M213.373,504.23c3.675-1.646,6.783,0.681,10.065,1.008
	c1.674-2.855,3.12-5.938,4.528-9.061C220.144,490.427,215.703,498.634,213.373,504.23z M366.851,513.288
	c1.975-0.294,1.29,2.072,2.52,2.515c-0.079-1.917,0.026-3.661,1.009-4.524c1.536-0.365,1.477,0.863,3.017,0.504
	c6.624-5.122,16.398-7.089,25.664-9.567c-0.183-1.324,0.843-4.849,0-6.543C387.855,501.082,376.613,506.441,366.851,513.288z
	 M429.76,499.699c-0.687,0.832,0.405,2.936,0,5.035c4.939-1.102,11.854-2.897,10.564-8.557
	C437.148,497.694,433.388,498.636,429.76,499.699z M416.173,497.186c-12.544,5.911-29.732,7.176-40.767,14.597
	c1.176,1.349,1.735,3.302,3.021,4.524c11.966-5.481,25.104-9.786,38.746-13.588C416.671,501.049,418.29,497.248,416.173,497.186z
	 M400.569,508.76c0.09,2.266,0.397,4.301,1.008,6.04c5.453-1.255,10.668-2.757,15.597-4.533c0-2.175,0-4.356,0-6.535
	C411.839,505.606,405.528,506.507,400.569,508.76z M429.76,505.741c0.262,3.088-0.579,7.292,0.498,9.562
	c3.75,0.146,0.975-3.549,3.019-4.528c1.19-0.01,1.484,0.867,3.022,0.504c2.253-1.776,4.011-4.044,5.034-7.048
	C437.124,506.188,434.293,505.862,429.76,505.741z M206.324,517.313c4.044-1.198,9.059-0.345,11.573,1.511
	c0.4-4.966,4.096-6.642,4.53-11.575C213.232,502.309,208.726,510.904,206.324,517.313z M379.432,517.313
	c1.213,1.218,1.334-1.221,3.525-0.503c0.696,0.812,0.426,2.593,1.512,3.022c-0.144-1.316,0.182-2.169,1.508-2.016
	c0.996,0.351,1.337,1.343,1.51,2.515c4.482-1.559,7.864-4.212,13.083-5.029c-0.158-2.196-0.584-4.118-1.008-6.035
	C392,511.097,385.527,514.017,379.432,517.313z M388.494,520.836c0.022,1.992,1.03,2.994,3.018,3.017
	c0.541-1.306,0.322-3.367,1.513-4.02c3.708,0.316,4.902,5.821,8.553,4.523c-1.343-0.663-2.943-1.076-2.518-3.521
	c3.104-1.45,7.351-0.075,9.059,1.512c-0.266-1.098-1.219-3.252,0.504-3.523c1.183,0.159,1.127,1.559,2.012,2.012
	c-1.039-4.068,5.204-2.36,7.045-2.012c0-2.518,0-5.036,0-7.546C407.697,514.208,397.018,516.441,388.494,520.836z M356.785,520.332
	c1.35,0,2.687,0,4.03,0c0.617-1.913,3.019-4.673,2.516-6.036C361.411,516.567,358.471,517.822,356.785,520.332z M205.82,519.324
	c-0.778,4.258-2.365,7.694-2.01,13.089c3.191-0.35,6.658-1.326,9.563-0.504c0.56-4.303,3.195-6.534,3.521-11.073
	C214.488,518.452,210.047,518.709,205.82,519.324z M322.064,523.853c3.602,0.099,6.936,0.452,9.563,1.512
	C332.905,520.751,321.822,518.126,322.064,523.853z M322.064,543.984c3.558-1.419,8.01-2.805,12.08-1.007
	c-0.638-5.905-2.493-10.588-3.021-16.605c-2.048-1.468-5.596-1.446-9.059-1.508C321.697,531.979,321.884,536.751,322.064,543.984z
	 M203.308,535.435c-0.203,5.332-2.024,9.043-2.516,14.088c3.341-0.89,6.64-0.352,8.557,1.504c0.609-6.09,2.419-10.987,3.015-17.104
	C209.674,533.121,205.229,533.892,203.308,535.435z M322.064,546.498c4.149-0.806,8.382,0.957,12.08,0
	C333.695,540.767,323.134,542.692,322.064,546.498z M322.568,547.51c0.884,5.491,1.465,11.283,2.015,17.106
	c3.158-1.663,7.318-4.013,12.079-2.511c-1.241-3.965-1.691-8.717-2.013-13.592C331.571,547.217,326.539,546.384,322.568,547.51z
	 M197.776,568.141c2.145-1.132,6.767-0.409,9.055,0c0.688-4.846,0.898-10.168,2.01-14.594
	C199.649,547.192,196.698,561.056,197.776,568.141z M325.587,566.63c2.546-2.566,8.228,0.938,11.579-1.002
	C336.544,559.723,324.689,563.536,325.587,566.63z M284.327,332.631c-1.045-1.321-3.036-4.325-4.531-3.522
	C281.673,329.916,282.033,332.241,284.327,332.631z M256.648,305.962c0.06,1.111,2.134,0.212,3.017,0.504
	C260.239,305.214,256.526,305.3,256.648,305.962z M443.845,294.388c-9.311,9.813-24.618,13.626-36.735,20.63
	c15.661-1.116,28.057-9.851,38.752-17.615c5.351,2.369,9.822,5.613,15.598,7.549c4.915,4.084,12.116,10.891,19.128,9.565
	C467.885,308.259,456.557,300.631,443.845,294.388z M383.96,406.604c4.478-0.388,7.249-2.482,11.077-3.521
	C390.553,403.464,386.675,404.449,383.96,406.604z M375.406,410.129c3.228-0.298,5.462-1.587,7.551-3.019
	C380.074,407.749,377.563,408.754,375.406,410.129z M532.412,362.32c1.138,13.122,0.195,32.684,0.503,48.313
	c1.17,1.38,2.863-0.882,4.03,0.502c-1.273,7.115-1.067,15.71-1.008,24.154c0.842,1.508,5.394-0.699,5.532,1.515
	c-0.06,2.114-3.862,0.494-5.532,1c-0.294,1.809,3.004,0.014,2.514,2.014c0.024,2.035-3.596,0.426-4.524,1.507
	c0,2.017,0,4.026,0,6.047c-0.946,0.984-1.848,0.15-3.022,0c0.072,2.754-0.583,4.785-1.002,7.04c-2.463,0.613-2.887-0.81-3.526-2.016
	c-1.6,2.93,0.984,10.047-2.016,11.579c-1.993-1.867-2.799-4.918-3.521-8.058c-1.25,0.603-0.607,3.088-3.019,2.52
	c-0.694-0.646-0.498-2.186-0.508-3.524c-0.923,0.131-1.764,2.872-2.515,1.511c-1.619-2.238-4.393-3.317-6.036-5.533
	c-2.06,2.278-4.767,0.659-8.049,0.501c-0.967-1.213-0.317-4.044-0.504-6.04c-5.39-3.384-7.865,2.441-11.576,3.023
	c-4.474,0.696-9.442-2.041-15.094,0.5c-1.247,0.435,0.146,3.506-1.009,4.029c-0.648,0.695-2.187,0.497-3.522,0.503
	c-1.859,5.925,2.954,10.328-0.501,13.584c0.92,1.594,2.339,4.808,1.006,7.05c-0.951,0.994-2.38,0.243-3.527,0
	c-0.666,0.167,0.788,4.127-0.503,5.029c-0.643,0.69-2.184,0.499-3.521,0.503c-1.288,2.573-2.251,5.468-3.019,8.555
	c-0.836,0-1.681,0-2.515,0c0.401,3.086-1.039,4.331-1.512,6.542c-4.435-0.919-6.669,0.738-11.073,1.003
	c-1.305,1.042-0.702,4-2.01,5.037c0.131,1.034,2.229,0.121,2.01,1.506c-1.039,5.5-3.021,10.066-8.553,11.073
	c-1.031,0.812-1.27,2.426-2.016,3.522c-2.486,1.063-4.818-0.822-5.532,2.014c-2.394,0.378-0.663-3.362-3.521-2.518
	c-3.024,0.952-0.723,4.133-2.016,6.55c-3.096-0.771-5.178-2.543-9.058-2.524c-1.316,0.694,0.246,4.272-1.004,5.032
	c-4.249,0.224-5.751-2.298-9.058-3.017c-1.004,0.759,2.682,3.013,1.003,4.532c-3.592,0.405-5.837-0.535-7.547-2.016
	c-1.111,0.565-0.784,2.572-2.01,3.02c-2.201-2.539-6.233-1.068-7.551-5.027c-1.325-0.154-0.397,1.944-2.013,1.5
	c-2.139-0.377-2.242-2.789-3.021-4.523c-5.773-0.233-5.527-5.065-10.563-5.033c-0.441,2.411,1.004,6.707-1.009,7.548
	c-2.459-1.064-2.612-4.432-3.528-7.045c-3.147,0.878-2.947,5.099-5.026,7.045c-2.801,0.056-6.106-0.406-7.551,1.007
	c0.287,1.222,3.255-0.232,3.017,1.51c0.089,2.432-1.589,3.108-2.515,4.524c0.569,1.11,3.322,0.034,3.521,1.512
	c-0.555,2.967-4.296,2.747-6.037,4.534c1.22,1.628,5.181,0.519,7.046,1.507c0.504,4.697,4.93,5.471,8.553,7.043
	c0,1.177,0,2.348,0,3.525c-1.337-0.003-2.877,0.19-3.521-0.504c-0.201,2.483-0.258,5.108-1.512,6.541
	c-3.028,0.349-4.426-0.937-5.536-2.521c-0.984,0.865-0.159,3.532-1.507,4.033c-3.077-0.78-3.555-4.164-5.03-6.546
	c-1.365,0.988,0.302,5.005-1.004,6.041c-1.834,0.321-1.985-1.039-2.016-2.517c-0.671-0.079-1.519,2.045-2.017,0.501
	c-1.242,0.483,0.696,1.937,0,3.52c-0.816,1.032-3.711-0.021-4.529,1.009c-0.317,3.171,2.759,2.948,3.524,5.038
	c-0.272,4.824-0.381,6.396,1.509,9.053c-2.063-0.117-4.111-0.248-5.532-1.006c0.46-2.552,2.96-3.076,2.012-7.045
	c-0.472-1.543-2.79-1.24-3.526-2.518c-0.537-0.899,0.135-3.959,0.502-5.53c1.189-0.165,1.896-0.798,3.524-0.505
	c-0.058-2.119-1.946-2.413-2.013-4.53c0.735-0.78,2.577-0.442,4.025-0.502c0.504-3.021-1.107-8.156,1.008-9.563
	c2.155,0.022,1.345,3.019,1.513,5.033c2.122,0.779-0.111-2.795,2.016-2.015c2.681,1.51,2.675,5.707,4.524,8.049
	c1.468-0.708-0.633-4.989,1.51-5.032c2.816,0.878,2.388,4.997,5.537,5.541c0.746-0.759,0.809-2.211,1.005-3.521
	c-1.611-1.571-5.143-1.236-5.035-4.528c0.65-0.695,2.187-0.504,3.525-0.509c-0.935-2.627-5.994,0.578-6.542-1.508
	c-0.572-2.584,3.128-0.895,3.017-3.022c-3.089,0.076-5.868-0.169-7.541-1.506c-0.131-2.809,1.973-3.396,3.516-4.528
	c-0.208-1.136-2.668-0.016-3.018-1.009c0.51-2.676,3.479-2.896,4.528-5.032c-6.967-1.232-15.715,5.64-18.113,11.073
	c-4.345,9.823,4.451,30.587,3.338,40.555c-3.181,0.831-2.313-8.03-2.333-10.364c-3.023-1.044-8.587-1.524-12.08-0.501
	c-0.473,2.406,1.347,3.996-0.5,5.032c-2.413-1.531-2.705-5.841-3.022-9.06c-1.361-14.01-5.972-39.78,1.009-50.322
	c4.438-6.707,14.408-11.163,22.14-15.6c6.963-3.993,13.85-9.055,21.35-13.061c0,0,42.277-28.386,48.5-33
	c3.259-2.416,8.348-6.798,12.178-9.296c4.726-3.079,8.886-5.787,13.084-8.053c-8.168,0.097-25.78-3.245-35.729-1.003
	c-1.854,0.417-2.953,1.557-4.026,2.516c-9.025,3.951-19.026,4.79-27.679,8.052c-12.224,4.605-21.158,14.343-28.179,23.649
	c-5.685,2.484-6.937,8.887-11.572,12.079c-2.223,1.532-5.398,2.074-8.053,3.523c-2.334,1.274-4.847,2.901-7.046,4.526
	c-11.564,8.553-23.062,17.792-35.224,23.147c-19.938,8.787-41.607,11.665-53.341,28.685c-4.803,6.964-7.765,16.909-10.063,26.677
	c-0.659,2.778-0.627,6.641-3.024,9.053c1.373-17.3,8.116-35.226,19.119-45.292c16.195-14.799,44.886-18.287,64.419-30.191
	c9.667-5.893,16.591-15.123,25.659-19.625c1.925-0.951,4.18-0.879,6.041-2.011c3.595-2.198,7.298-6.681,10.064-9.561
	c9.247-9.639,17.852-22.014,30.192-26.677c9.902-3.734,20.737-3.801,28.685-8.551c0.397-7.775-1.147-18.016-1.51-28.182
	c-16.061,4.832-30.721,9.354-41.77,19.627c-4.641,4.319-8.152,9.751-12.578,14.09c-5.734,5.621-14.983,10.039-22.647,15.098
	c-8.957,5.914-17.543,12.039-28.181,17.106c-8.728,4.167-19.192,9.491-30.193,12.582c-4.655,1.311-10.308,3.5-15.597,5.533
	c-7.586,2.92-13.918,4.652-18.617,9.061c-4.733,10.361-9.948,21.151-14.089,33.212c-4.665,13.569-3.699,29.549-8.557,43.78
	c-2.787-0.404-3.308-3.063-5.535-4.025c-2.466,0.555-4.147,1.894-6.544,2.523c-0.159-14.692,6.063-26.339,7.044-40.766
	c0.917-13.43,6.66-27.376,14.593-38.249c4.14-5.676,20.021-9.594,28.182-12.582c18.463-6.748,38.167-13.681,55.356-22.141
	c9.204-4.529,16.324-10.501,25.159-17.612c4.933-3.963,10.64-7.827,15.602-13.083c3.84-4.07,6.566-9.121,10.565-12.079
	c5.337-3.942,11.735-5.094,19.629-8.554c-0.9-7.826,1.137-17.798,1.509-24.149c-4.154,0.719-6.462,3.838-11.071,1.506
	c-0.165-1.18-0.796-1.89-0.505-3.521c-5.022-1.164-3.89,3.827-5.536,6.035c-1.677,0-3.354,0-5.032,0
	c-3.247,2.122-1.47,9.265-7.047,9.058c-1.425-3.415-0.045-7.446-1.004-10.562c-0.846-2.743-3.572-3.364-3.521-6.046
	c-2.263,0.25-3.772-0.252-5.536-0.501c-1.14,2.384,0.293,7.339-2.017,8.555c-6.759,0.552-10.098-2.313-11.071-7.548
	c-0.95-1.271-1.763,0.462-3.014-0.506c-0.565-1.583-0.048-1.135,0-3.018c-0.671-1.005-3.292-0.065-2.517-2.516
	c-2.69,4.642,2.688,28.048-8.057,26.168c-3.104-0.546-2.558-3.971-5.032-6.04c-1.875-0.529-1.621,1.063-2.512,1.511
	c2.871,3.45,9.76,7.091,7.04,11.573c1.496,3.167,2.159,7.664-0.5,10.063c-4.361-1.243-6.661,2.762-9.563,4.531
	c-3.303-0.046-3.061-3.648-6.539-3.521c-0.242-1.584,0.713-1.966,1.002-3.022c-3.133-1.87-6.236-2.349-9.563-0.497
	c3.422-12.864-10.023-12.63-11.57-22.146c-1.335-0.004-2.873,0.188-3.522-0.504c-0.161-1.166,0.079-1.931,0.503-2.516
	c-1.008,0-2.016,0-3.017,0c-4.259-5.755-12.792-8.829-12.081-18.618c1.23-16.955-0.729-41.341,1.51-58.877
	c-5.098,7.104-0.816,20.882-2.514,31.702c-0.961,0.213-0.913,1.442-2.521,1.005c0.375,4.06-0.813,6.565-0.501,10.57
	c-1.331,0.403-3.195,0.403-4.526,0c0.104,3.794-1.743,5.641-5.535,5.539c-1.951,2.746-0.164,9.225-2.519,11.57
	c-3.575-0.807,1.983-8.76-1.507-11.072c-1.658,2.202,0.103,7.823-2.015,9.563c-3.983-1.319,1.717-8.328-1.508-10.568
	c-4.475,1.903-10.773,0.216-13.087-3.02c-1.365-0.361,0.361,2.372-1.002,2.013c-2.385,0.271-1.375-2.847-1.012-4.024
	c6.939,2.134,10.69,5.502,18.116,2.012c-0.345,2.662,4.427,1.539,4.534,1.511c4.026-1.109,1.993-8.535,5.029-9.563
	c0.199-1.885-2.067-2.813-0.505-4.53c-0.208-1.128-2.668-0.013-3.018-1.005c-0.826-4.372,1.972-8.131,2.016-12.077
	c0.671,0,1.341,0,2.013,0c0.496-4.875-5.064-6.106-2.521-10.064c-4.068-0.958-2.159-7.903-7.04-8.049c0-1.008,0-2.013,0-3.021
	c-1.747,0.403-1.936-0.746-3.522-0.502c-1.995,0.861-2.519,3.188-6.039,2.514c-1.199-1.376-0.998-3.039-0.506-5.033
	c-1.32-0.692-1.73-2.293-3.519-2.514c-1.877-0.195-0.933,2.423-2.52,2.514c-2.104,0.256-3.41-0.279-4.53-1.004
	c0.083,2.266,2.677,2.021,3.024,4.025c-1.768,3.535-1.468,6.476-3.522,10.063c-3.806,0.28-5.824-1.22-8.055-2.516
	c-1.526,2.995,3.261,6.759,0.502,9.562c-4.116,0.472-4.195-2.995-7.045-2.516c-0.833,0.068,0.532,2.102,0,3.521
	c-3.149-0.632-1.75,3.281-3.522,4.027c-4.264-2.91-9.122-0.032-14.091-0.502c-0.353-3.25-5.153-3.885-8.05-3.021
	c-0.69-0.648-0.496-2.186-0.502-3.523c-1.703,0.142-2.89,0.802-5.029,0.506c-4.925-3.376-13.02-5.476-20.633-7.545
	c-1.191-1.185,0.077-2.476,0-4.029c-1.508,0-3.021,0-4.533,0c-3.381-4.166-10.509-4.588-17.611-5.033
	c-0.848-1.677,0.323-1.717,0.504-3.521c-7.856,3.355-7.561-5.424-15.1-4.025c0.417-6.623-8.787-3.625-9.055-9.562
	c-5.01,1.236-4.197-3.413-8.053-2.013c-0.938-1.403-2.245-2.453-2.519-4.531c-2.986,0.306-5.052-0.313-5.532-2.514
	c-3.727,2.829-5.481,0.335-9.059,1.509c-0.216-0.958-1.44-0.91-1.006-2.517c-2.572,0.474-4.767,0.856-6.039-1.005
	c-6.862,1.294-12.812,2.757-16.104,8.555c-2.98-0.631-3.596,1.098-5.032,2.01c-8.132,1.04-13.831-2.67-19.624-1.003
	c-1.272-1.259,0.573-1.976,0.498-3.521c-0.973-2.551-2.048-5-3.519-7.048c-0.242-15.206,1.181-31.174,2.014-45.792
	c0.187-3.358-0.202-7.796,0.502-11.071c0.419-1.963,3.173-3.545,2.515-6.038c3.885-0.807,9.041-2.481,13.587-1.01
	c0.023,2.33-0.282,4.979,1.005,6.042c3.163,0.645,1.675-3.357,2.017-5.536c4.21-1.488,10.268-1.138,15.597-1.511
	c0.425,1.926,0.659,4.042,0.504,6.544c1.423,0.416,1.306-0.708,2.514-0.503c1.498-0.682,0.887-3.475,1.006-5.536
	c3.727-0.805,10.367-0.805,14.089,0c2.167,3.034,0.043,10.359,1.508,14.09c7.199,3.816,20.324-1.317,23.153,6.542
	c5.989-1.207,15.07-6.733,18.114,0.503c14.208,0.558,20.733,9.588,30.195,16.102c6.087,4.193,13.607,9.119,20.631,11.574
	c1.451,0.509,1.701,1.111,2.139,1.111c0.063,0.188,1.375,0.875,1.384,0.902c21.897,6.45,39.264,17.438,58.877,26.167
	c2.73-6.015,13.172-4.875,10.564,5.035c5.527-2.51,8.45-8.634,15.102-8.552c1.227,3.132,0.076,8.641,2.008,11.066
	c3.021,0,6.039,0,9.062,0c1.139-3.302-1.596-9.322-0.505-12.579c3.537,1.492,1.765,8.3,3.024,12.075
	c8.811,4.269,22.333,3.83,30.189,9.061c1.947,14.49,13.616,19.257,25.16,24.153c11.597,15.078,24.658,28.684,42.776,37.238
	c1.885-3.244-0.994-6.045-2.013-8.051c0.456-10.736,0.881-15.385,1.506-27.175c-0.546-1.633-3.625-0.736-3.019-3.522
	c10.668-2.409,21.652-4.511,35.226-4.026c0.283-6.087,0.549-5.968-2.426-12.605c-0.304-0.673-0.332-3.167,0.334-4.333
	c5.079-5.49,9.667-7,14.001-7.833C416,299.75,413.75,300.5,409,296.25c17.5-1.25,20.071-4.593,29.25-9.5
	c1.063-0.955,4.537-3.946,5-5.5c1.986,4.758,10.75,9.5,10.75,9.5c-0.5,0.167,26.584,9,33.75,8c0.082,2.261-3.246,5.24-4.083,6.583
	c6.848,2.88,14.667,8.167,17.834,5.167c0.702,2.3-3.854,6.006-0.5,7c-8.5,6.167-2.001,8.833,6.252,9.09
	c7.301,1.93,20.211-1.753,25.159,2.518c0.857,9.042,0.488,19.308,1.007,28.684L532.412,362.32z"/>
<path fill="#FDD697" d="M453.834,428.335c-1.5,0.335-11.833,1.833-13.333,3.666c0,0-32.834-3.666-37.834-1.166
	c0,0-1.333-28.5-1.833-28.5s0.333-2.334-9.167-2c0,0-13.942,3.431-18.776,5.264l0,0c0,0,0.59-17.667,2.017-20.633
	s-0.073-4.634,0.427-7.3s2.427-5.696,1-7.5s-2.333-6.834-4.333-7c0,0,2.97-26.525,2.401-27.013s-1.568-1.82-1.568-1.82
	s22.166-5.333,32.833-3l1.834,0.167l-3.167-15.667c0,0,13.666,5.167,42.333-16.5c33.5,24.5,39.333,17,39.333,17
	s-8.499,8.333-1.166,17.166c0,0,17.166,4.167,25.944,2.154c1.222-0.986-2.682,81.364-1.944,82.682c0,0-6-0.333-8.667,2.333
	c0,0-29.166,6.667-37.5,4.666C462.667,425.334,456.378,427.767,453.834,428.335z"/>
<path fill-rule="evenodd" clip-rule="evenodd" fill="#FDD697" d="M59.383,218.401c0.03,2.323-0.222,4.918,0.508,6.54
	c2.381,0.373,3.457-0.564,5.533-0.502c1.646-1.033,1.113-4.251,2.014-6.038c3.352,0,6.709,0,10.064,0
	c0.719,3.484,1.117,10.327-0.502,13.083c-14.299,1.119-29.92,3.076-45.292,1.506c0.772-3.751,0.445-8.61,0.5-13.08
	c1.98-1.043,4.931-1.108,8.053-1.005c-0.203,2.383,0.901,3.46,0.503,6.035c1.512,1.147,4.318,0.223,6.041,0
	c0.932-1.081,0.339-3.688,0.502-5.537C50.888,218.626,55.51,218.889,59.383,218.401z"/>
<path fill-rule="evenodd" clip-rule="evenodd" fill="#FDD697" d="M71.965,226.956c0.075-0.934,1.705-0.313,2.016-1.008
	c0-0.84,0-1.677,0-2.515c-1.187,0.01-1.484-0.867-3.021-0.503C71.115,224.446,70.401,226.844,71.965,226.956z"/>
<path fill-rule="evenodd" clip-rule="evenodd" fill="#FDD697" d="M35.229,223.938c-0.159,1.166,0.08,1.927,0.504,2.516
	c0.508,0,1.006,0,1.51,0c0.881-0.464,1.113-1.577,1.006-3.021C37.011,223.364,35.829,223.354,35.229,223.938z"/>
<path fill-rule="evenodd" clip-rule="evenodd" fill="#FDD697" d="M53.347,226.956c1.583,0.242,1.971-0.716,3.021-1.008
	c0.075-1.252-0.791-1.556-1.005-2.515c-0.674,0-1.347,0-2.016,0C53.792,225.268,52.458,226.114,53.347,226.956z"/>
<path fill-rule="evenodd" clip-rule="evenodd" fill="#FDD697" d="M36.241,230.98c2.346,0.504,2.813-0.879,2.51-3.02
	c-0.835,0-1.677,0-2.51,0C36.241,228.966,36.241,229.973,36.241,230.98z"/>
<path fill-rule="evenodd" clip-rule="evenodd" fill="#FDD697" d="M71.965,230.98c1.167,0.162,1.931-0.083,2.518-0.503
	c-0.129-1.717-1.078-2.613-3.021-2.517C71.453,229.148,72.33,229.441,71.965,230.98z"/>
<path fill-rule="evenodd" clip-rule="evenodd" fill="#FDD697" d="M53.847,230.478c0.881,0.04,1.565-0.112,2.018-0.504
	c0.149-1.324-0.7-1.651-2.018-1.509C53.847,229.136,53.847,229.806,53.847,230.478z"/>
<path fill-rule="evenodd" clip-rule="evenodd" fill="#DDB780" d="M29.697,222.427c0.508,18.792-2.738,39.418-1.508,61.896
	c-4.623-6.999-2.377-18.177-1.51-28.684c0.401-4.909,0.663-10.068,1.002-15.097C28.157,233.593,27.355,226.277,29.697,222.427z"/>
<path fill-rule="evenodd" clip-rule="evenodd" d="M53.847,228.464c1.317-0.142,2.167,0.185,2.018,1.509
	c-0.452,0.393-1.137,0.544-2.018,0.504C53.847,229.806,53.847,229.136,53.847,228.464z"/>
<path fill-rule="evenodd" clip-rule="evenodd" fill="#FDD697" d="M75.993,281.302c-5.656,0.501-8.38-0.732-12.583-2.516
	c-3.699,3.594-10.496,4.247-13.083,10.066c-3.596,0.466-11.053,4.813-13.587,0c-2.216,0.741-4.05,1.516-6.041,0
	c-1.312-17.592-0.434-37.333,1.01-53.845c14.141,1.17,31.487-0.891,44.284-1.007C77.549,249.321,75.491,265.366,75.993,281.302z"/>
<path fill-rule="evenodd" clip-rule="evenodd" fill="#DDB780" d="M172.105,267.214c-0.001,0.057,0.937,0.536,1.624,0.953
	c0.5,0.333,2.375,1.166,2.396,1.25c17.816,5.667,32.966,13.816,48.317,21.951c-11.442,1.504-19.528-5.776-29.69-9.562
	c-18.935-7.053-42.145-14.742-54.349-28.682c-6.914-4.993-16.224-7.59-24.654-11.075c-4.215,2.143-8.638,0.396-10.065-3.018
	c3.433-0.922,7.104-1.618,10.065-3.012c3.155,0.216,3.135,2.91,5.533,4.021c3.655,1.691,8.171,0.475,11.577,2.01
	c2.984,1.348,5.616,5.166,8.553,7.549C150.317,256.833,160.711,262.213,172.105,267.214z"/>
<path fill-rule="evenodd" clip-rule="evenodd" d="M90.584,240.542c1.278,0.055,1.188,1.879,0.503,2.515
	C90.217,242.597,89.787,241.298,90.584,240.542z"/>
<path fill-rule="evenodd" clip-rule="evenodd" d="M87.062,242.049c1.238,0.338,1.544,2.929,1.004,3.526
	C86.518,245.555,86.272,242.905,87.062,242.049z"/>
<path fill-rule="evenodd" clip-rule="evenodd" d="M100.147,244.565c1.286,0.056,0.997,1.686,1.004,3.023
	C99.333,248.064,100.453,245.605,100.147,244.565z"/>
<path fill-rule="evenodd" clip-rule="evenodd" fill="#886E4B" d="M114.236,246.077c1.997-1.632,9.755-1.388,3.522-0.501
	c-0.877,0.121-1.082,0.473-2.01,0.501C115.245,246.077,114.738,246.077,114.236,246.077z"/>
<path fill-rule="evenodd" clip-rule="evenodd" fill="#886E4B" d="M132.858,249.599c-3.359,1.174-8.89,0.172-13.085,0.502
	C123.436,248.917,130.738,247.932,132.858,249.599z"/>
<path fill-rule="evenodd" clip-rule="evenodd" fill="#886E4B" d="M139.9,254.632c-2.355,1.164-6.868,0.174-10.067,0.502
	C131.14,253.148,137.757,254.146,139.9,254.632z"/>
<path fill-rule="evenodd" clip-rule="evenodd" d="M112.726,257.148c1.379,0.009,1.193,2.374,0.502,3.017
	C111.851,260.158,112.036,257.792,112.726,257.148z"/>
<path fill-rule="evenodd" clip-rule="evenodd" fill="#886E4B" d="M136.88,257.652c0.701-1.149,3.507-0.185,5.031-0.504
	C141.218,258.295,138.412,257.336,136.88,257.652z"/>
<path fill-rule="evenodd" clip-rule="evenodd" d="M141.411,270.735c1.69-0.513,0.786,1.564,1.008,2.518
	C141.393,272.885,140.359,271.738,141.411,270.735z"/>
<path fill-rule="evenodd" clip-rule="evenodd" d="M151.98,275.265c1.091,0.444,1.536,2.812-0.504,2.516
	C150.384,276.733,151.539,276.154,151.98,275.265z"/>
<path fill-rule="evenodd" clip-rule="evenodd" d="M162.544,279.287c1.806-0.287,1.532,1.492,1.508,3.022
	C162.255,282.599,162.527,280.822,162.544,279.287z"/>
<path fill-rule="evenodd" clip-rule="evenodd" d="M186.703,290.365c1.852-0.466,0.913,2.649,0.5,3.016
	C185.825,293.368,186.012,291.003,186.703,290.365z"/>
<path fill-rule="evenodd" clip-rule="evenodd" d="M199.282,294.889c1.968-0.014,0.089,2.533,1.006,2.514
	C199.365,299.055,198.073,295.526,199.282,294.889z"/>
<path fill-rule="evenodd" clip-rule="evenodd" fill="#DDB780" d="M258.661,296.398c1.985-0.306,0.589,2.765,1.004,4.025
	c-1.827-0.156-3.27,0.084-4.529,0.503C255.942,299.047,258.272,298.693,258.661,296.398z"/>
<path fill-rule="evenodd" clip-rule="evenodd" d="M211.361,299.419c1.512-0.507,0.893,1.121,1.002,2.012c-0.499,0-1.002,0-1.506,0
	C210.643,300.379,211.198,300.1,211.361,299.419z"/>
<path fill-rule="evenodd" clip-rule="evenodd" fill="#DDB780" d="M259.167,302.942c0.474,1.822-1.986,0.7-3.022,1.01
	C256.214,302.963,258.388,301.562,259.167,302.942z"/>
<path fill-rule="evenodd" clip-rule="evenodd" fill="#886E4B" d="M271.747,303.443c-1.026,1.552-9.283,2.011-9.56-0.501
	C264.261,302.369,270.464,301.584,271.747,303.443z"/>
<path fill-rule="evenodd" clip-rule="evenodd" fill="#DDB780" d="M274.764,303.443c7.912,3.662,19.016,4.128,25.164,9.563
	c-0.749,9.034,5.064,12.71,10.565,16.604c13.688,9.702,23.5,20.788,35.224,31.704c2.268,4.132,9.997,9.043,15.099,11.573
	c4.245,2.109,11.415,2.597,12.075,8.557c-1.996-0.217-2.715,1.16-3.521-0.504c-1.927,1.978-4.31,1.461-6.544,2.515
	c-0.191-2.873,2.473-2.895,3.019-5.026c-1.447-2.506-2.699-0.451-2.514-4.026c-2.97,0.674-2.145,1.776-4.529,0
	c-1.658,0.286-0.719,1.899-0.505,3.015c-5.373,0.933-13.966-7.596-18.621-12.579c-4.415-4.737-9.15-13.69-16.603-20.13
	c-8.587-7.419-22.05-10.568-21.641-21.639c-6.188-7.564-19.447-8.058-26.165-15.096
	C275.664,305.904,274.499,305.391,274.764,303.443z"/>
<path fill-rule="evenodd" clip-rule="evenodd" fill="#886E4B" d="M272.75,307.472c-3.354,0-6.708,0-10.065,0
	C263.928,305.92,271.536,305.736,272.75,307.472z"/>
<path fill-rule="evenodd" clip-rule="evenodd" fill="#DDB780" d="M260.677,308.98c-0.417,1.061-2.658,1.375-3.523,0.503
	C257.159,308.021,259.995,308.292,260.677,308.98z"/>
<path fill-rule="evenodd" clip-rule="evenodd" fill="#886E4B" d="M266.209,308.98c1.19-1.157,4.517-0.183,6.541-0.504
	C271.559,309.633,268.234,308.658,266.209,308.98z"/>
<path fill-rule="evenodd" clip-rule="evenodd" fill="#886E4B" d="M266.712,309.988c1.602-0.912,6.419-0.728,8.052,0
	C273.16,310.899,268.344,310.718,266.712,309.988z"/>
<path fill-rule="evenodd" clip-rule="evenodd" fill="#DDB780" d="M258.157,310.995c0.885,0.287,2.955-0.61,3.02,0.502
	C261.471,313.435,257.863,312.231,258.157,310.995z"/>
<path fill-rule="evenodd" clip-rule="evenodd" fill="#886E4B" d="M266.712,311.497c0.371-0.896,0.915-0.075,1.508,0
	c2.006,0.163,9.615-0.424,7.551,0.503C272.841,311.737,268.832,312.567,266.712,311.497z"/>
<path fill-rule="evenodd" clip-rule="evenodd" fill="#FAE895" d="M243.564,311.497c0.877,4.135,0.769,11.446,0,15.6
	c-0.86-2.486-2.246-2.211-1.51-5.537c-2.84-1.682-3.634-5.419-4.027-9.56C240.416,312.371,241.487,311.431,243.564,311.497z"/>
<path fill-rule="evenodd" clip-rule="evenodd" fill="#FFFFFF" d="M207.334,314.011c0.361-1.123,2.871-0.246,2.516,1.007
	C208.242,315.449,208.291,314.227,207.334,314.011z"/>
<path fill-rule="evenodd" clip-rule="evenodd" fill="#DDB780" d="M259.665,313.509c1.339,0.005,2.877-0.188,3.528,0.502
	C263.071,314.743,259.05,315.184,259.665,313.509z"/>
<path fill-rule="evenodd" clip-rule="evenodd" fill="#886E4B" d="M281.812,315.018c-3.079,0.685-10.395,2.257-13.088,0
	C272.135,314.06,278.338,314.391,281.812,315.018z"/>
<path fill-rule="evenodd" clip-rule="evenodd" fill="#DDB780" d="M264.702,315.522c0.151,1.189,1.746,0.938,1.508,2.516
	c-1.187-1.229-0.937,0.751-2.519,0.501c-0.152-1.187-1.744-0.938-1.504-2.514C263.606,316.443,263.487,315.316,264.702,315.522z"/>
<path fill-rule="evenodd" clip-rule="evenodd" fill="#886E4B" d="M289.359,318.038c-3.794,1.437-8.921-0.133-13.085,0
	C278.136,317.32,286.266,316.263,289.359,318.038z"/>
<path fill-rule="evenodd" clip-rule="evenodd" fill="#886E4B" d="M271.242,318.539c8.16,1.906,21.452-1.325,26.167,4.027
	C288.279,321.627,274.521,325.324,271.242,318.539z"/>
<path fill-rule="evenodd" clip-rule="evenodd" fill="#DDB780" d="M271.747,322.061c-2.022,1.498-4.14-1.209-5.537-2.01
	C268.182,317.53,269.746,321.56,271.747,322.061z"/>
<path fill-rule="evenodd" clip-rule="evenodd" fill="#886E4B" d="M277.283,323.575c6.386-1.352,14.462-0.042,21.132,0
	c0.449,1.625,1.7,4.35,1.01,5.534C289.304,330.003,281.307,328.771,277.283,323.575z"/>
<path fill-rule="evenodd" clip-rule="evenodd" fill="#DDB780" d="M273.275,323.595c2.115,0.903,3.354,2.687,5.536,3.521
	C276.585,328.318,274.446,325.119,273.275,323.595z"/>
<path fill-rule="evenodd" clip-rule="evenodd" fill="#FAE895" d="M254.132,325.083c2.417,3.141,1.81,5.929,3.524,8.554
	c3.082,4.743,10.043,6.204,14.09,9.56c4.921,4.085,6.913,10.731,13.079,13.086c6.432,11.354,20.489,15.074,27.178,26.167
	c0.195,1.873-2.425,0.932-2.517,2.516c-0.411,1.926,2.424,0.592,2.016,2.514c-0.941,0.071-1.686,0.334-2.016,1.009
	c0.13,2.451,1.682,2.354,1.512,4.023c0.209,3.732-4.318,2.732-4.027,6.546c-1.902-2.631-2.188-6.874-7.546-6.041
	c-1.862,1.164-2.39,3.654-4.024,5.033c2.07,1.164,1.516,2.439,2.008,4.529c2.207,0.529,1.651-1.7,3.524-1.51
	c0.383,1.295,1.221,2.135,2.516,2.518c-0.504,0.673-1.361,0.986-1.512,2.012c1.653,2.372,2.865,5.187,3.524,8.555
	c-3.394-0.408-4.386,4.546-7.549,2.514c-1.306,0.54-0.708,2.988-2.014,3.522c-2.367-0.814-3.8-2.57-3.522-6.036
	c-3.254-0.432-5.13-2.254-9.057-2.016c0.602-11.002-10.223-10.573-12.077-19.121c-0.43-1.08-1.24-1.778-3.022-1.509
	c0-1.007,0-2.012,0-3.02c-8.59-0.633-10.146-8.3-15.597-12.076C253.354,361.198,252.708,342.079,254.132,325.083z"/>
<path fill-rule="evenodd" clip-rule="evenodd" d="M264.194,328.104c1.857-0.464,0.92,2.654,0.508,3.02
	C263.453,330.42,263.813,329.389,264.194,328.104z"/>
<path fill-rule="evenodd" clip-rule="evenodd" fill="#DDB780" d="M279.796,329.108c1.495-0.802,3.485,2.201,4.531,3.522
	C282.033,332.241,281.673,329.916,279.796,329.108z"/>
<path fill-rule="evenodd" clip-rule="evenodd" fill="#886E4B" d="M285.334,330.114c4.351,0.051,8.862-1.795,13.587-0.503
	c3.246,0.896,7.829,6.246,11.068,8.555c4.222,3.019,8.617,5.527,11.572,8.055c10.069,8.595,15.443,22.23,25.667,28.182
	c-10.148-4.29-19.846-10.073-29.188-17.112c-7.262-5.473-16.447-7.18-22.143-13.587
	C291.868,339.165,290.594,333.174,285.334,330.114z"/>
<path fill-rule="evenodd" clip-rule="evenodd" d="M269.729,331.124c1.291,0.057,1.003,1.684,1.009,3.018
	C269.127,334.282,268.909,331.938,269.729,331.124z"/>
<path fill-rule="evenodd" clip-rule="evenodd" fill="#DDB780" d="M284.825,333.135c2.884,0.815,3.586,3.796,5.536,5.536
	C288.269,339.076,286.21,335.12,284.825,333.135z"/>
<path fill-rule="evenodd" clip-rule="evenodd" d="M273.254,336.656c0.508,0,1.012,0,1.51,0c-0.275,0.734,0.587,2.604-0.498,2.517
	C272.572,339.69,273.477,337.607,273.254,336.656z"/>
<path fill-rule="evenodd" clip-rule="evenodd" fill="#3F7830" d="M244.571,338.165c0,1.684,0,3.356,0,5.032
	c-2.103,0.094-2.143-1.881-3.52-2.514C242.206,339.834,242.623,338.232,244.571,338.165z"/>
<path fill-rule="evenodd" clip-rule="evenodd" fill="#DDB780" d="M290.361,340.177c2.999,1.194,3.121,5.271,6.041,6.544
	C293.113,347.822,291.77,342.639,290.361,340.177z"/>
<path fill-rule="evenodd" clip-rule="evenodd" d="M279.293,342.696c1.545-0.77,1.545,3.289,0,2.517
	C279.293,344.375,279.293,343.533,279.293,342.696z"/>
<path fill-rule="evenodd" clip-rule="evenodd" fill="#3F7830" d="M244.067,345.213c0.504,0,1.009,0,1.508,0c0,1.509,0,3.017,0,4.528
	C244.997,348.032,242.861,347.316,244.067,345.213z"/>
<path fill-rule="evenodd" clip-rule="evenodd" d="M285.837,347.727c0.826-0.08,0.826,3.104,0,3.02
	C283.609,350.812,285.385,348.129,285.837,347.727z"/>
<path fill-rule="evenodd" clip-rule="evenodd" fill="#DDB780" d="M296.402,348.735c3.862-1.002,6.17,3.891,10.568,4.025
	C303.059,355.022,299.738,350.152,296.402,348.735z"/>
<path fill-rule="evenodd" clip-rule="evenodd" fill="#3F7830" d="M243.059,352.258c0.673,0,1.346,0,2.017,0c0,0.84,0,1.68,0,2.512
	C244.211,354.125,243.093,353.731,243.059,352.258z"/>
<path fill-rule="evenodd" clip-rule="evenodd" fill="#DDB780" d="M306.971,354.271c5.322-0.126,7.36,3.037,10.067,5.535
	C313.062,360.227,309.735,356.636,306.971,354.271z"/>
<path fill-rule="evenodd" clip-rule="evenodd" d="M291.871,355.275c1.465,0.01,1.191,2.846,0.505,3.524
	C290.912,358.789,291.188,355.954,291.871,355.275z"/>
<path fill-rule="evenodd" clip-rule="evenodd" fill="#DDB780" d="M328.105,367.352c-3.729,1.978-9.665-4.121-11.067-6.037
	C321.647,360.453,324.452,365.588,328.105,367.352z"/>
<path fill-rule="evenodd" clip-rule="evenodd" d="M300.429,363.83c0.504,0,1.004,0,1.508,0c0.401,1.742-0.558,2.125-1.004,3.021
	C299.821,366.785,300.716,364.719,300.429,363.83z"/>
<path fill-rule="evenodd" clip-rule="evenodd" fill="#DDB780" d="M339.676,372.888c-2.644,2.976-9.778-2.136-11.066-3.522
	C332.736,368.175,336.552,371.426,339.676,372.888z"/>
<path fill-rule="evenodd" clip-rule="evenodd" fill="#3F7830" d="M313.51,371.883c0.672,0,1.342,0,2.016,0
	c0.079,1.252-0.789,1.558-1.004,2.52C313.77,373.975,313.795,372.78,313.51,371.883z"/>
<path fill-rule="evenodd" clip-rule="evenodd" fill="#DDB780" d="M346.221,376.912c-2.448,1.601-4.763-1.256-7.047-1.507
	C341.537,372.688,343.958,376.434,346.221,376.912z"/>
<path fill-rule="evenodd" clip-rule="evenodd" fill="#3F7830" d="M343.2,379.43c1.926-0.242,3.217,0.144,4.028,1.005
	c-1.579,2.849-0.429,4.336,0.505,7.045c-0.274,1.571-3.393,0.299-3.021,2.52c-1.206-1.401-0.398-5.074,0.501-6.035
	c-0.067-1.102-1.267-1.084-2.513-1.012C342.295,381.21,343.448,381.021,343.2,379.43z"/>
<path fill-rule="evenodd" clip-rule="evenodd" fill="#3F7830" d="M353.265,380.94c-0.42,2.433,0.469,3.56,1.009,5.034
	c-1.629,0.579-2.586-3.595-3.521-0.505c-1.135-0.375-0.198-2.821-0.506-4.025C351.785,381.806,352.079,380.93,353.265,380.94z"/>
<path fill-rule="evenodd" clip-rule="evenodd" fill="#DDB780" d="M373.396,411.637c-3.932,1.606-7.887,3.184-10.569,6.041
	c-1.681-0.334-2.46-1.57-4.024-2.011C362.332,413.617,369.174,409.65,373.396,411.637z"/>
<path fill-rule="evenodd" clip-rule="evenodd" fill="#FAE895" d="M534.93,414.153c-10.22,2.726-16.787,13.802-31.199,9.057
	c0.145-1.025,1.361-0.985,1.508-2.009c-1.215-0.21-1.091,0.917-2.51,0.501c4.569-2.205,9.701,0.49,14.585-0.501
	c5.32-1.087,9.67-7.068,15.602-6.546C532.98,413.943,535.06,411.971,534.93,414.153z"/>
<path fill-rule="evenodd" clip-rule="evenodd" fill="#DDB780" d="M360.314,419.187c-4.457,2.759-6.742,7.684-11.069,10.566
	c-0.08-2.105-2.263-2.105-3.528-3.021C348.532,422.481,354.029,413.696,360.314,419.187z"/>
<path fill-rule="evenodd" clip-rule="evenodd" fill="#FAE895" d="M532.915,417.174c0.593,0.081,0.431,0.919,0.504,1.509
	c-4.086,3.794-11.272,4.494-15.598,8.05C520.146,423.369,527.658,419.811,532.915,417.174z"/>
<path fill-rule="evenodd" clip-rule="evenodd" fill="#FAE895" d="M533.419,420.189c1.143,0.538,0.197,3.167,0.508,4.532
	c-4.856,3.705-11.729,5.386-16.613,9.055c-1.533-1.575,0.621-3.72,0-6.035C522.301,424.841,528.279,422.938,533.419,420.189z"/>
<path fill-rule="evenodd" clip-rule="evenodd" d="M390.505,422.205c1.627,0.573,0.825,4.216,0.508,6.541
	C389.852,427.558,390.83,424.233,390.505,422.205z"/>
<path fill-rule="evenodd" clip-rule="evenodd" fill="#FDD697" d="M501.716,437.804c-5.998,2.3-11.237,4.849-17.611,6.542
	c-7.404,1.973-15.632,1.07-23.146,4.028c-4.397,1.727-9.067,5.752-13.587,9.058c-4.436,3.238-9.021,6.455-13.084,9.559
	c-8.679,6.641-15.904,15.673-24.156,20.631c-6.486,3.904-14.004,6.196-20.631,10.067c-6.712,3.921-13.619,7.064-20.131,10.567
	c-13.121,7.062-23.102,17.16-33.719,26.167c-7.397-17.398,5.727-30.78,18.622-35.729c3.004-1.155,6.163-1.569,9.058-2.517
	c7.444-2.434,16.482-5.865,24.155-10.063c6.068-3.318,11.968-8.054,18.115-12.074c5.995-3.925,10.972-9.243,16.606-13.088
	c4.227-2.88,9.911-4.835,13.084-7.546c1.973-1.688,3.607-4.514,5.531-6.542c1.896-1.992,4.105-3.673,6.04-5.54
	c3.999-3.845,7.281-10.058,11.577-12.076c4.836-2.266,12.464-1.483,18.619-2.011c7.016-0.605,15.888-2.879,21.138-4.53
	C503.814,420.938,502.037,432.699,501.716,437.804z"/>
<path fill-rule="evenodd" clip-rule="evenodd" fill="#FAE895" d="M533.419,425.728c1.357,2.046,0.485,6.172-2.515,5.534
	C530.145,427.819,532.075,427.066,533.419,425.728z"/>
<path fill-rule="evenodd" clip-rule="evenodd" fill="#FAE895" d="M515.303,426.232c-0.987,2.28-9.418,2.2-11.068,0.5
	C506.99,425.635,511.731,426.517,515.303,426.232z"/>
<path fill-rule="evenodd" clip-rule="evenodd" d="M379.939,426.732c0.746,0.932,0.96,2.391,1.008,4.026
	C379.395,430.623,379.428,427.393,379.939,426.732z"/>
<path fill-rule="evenodd" clip-rule="evenodd" fill="#FAE895" d="M515.303,428.243c0.121,2.466-0.881,3.81-0.504,6.544
	c-3.614-0.242-7.444-0.27-10.564-1.011c0.885-2.319,1.209-3.021,0-4.023C506.524,427.858,511.45,428.585,515.303,428.243z"/>
<path fill-rule="evenodd" clip-rule="evenodd" fill="#FAE895" d="M529.393,428.243c1.14,0.377,0.198,2.823,0.51,4.026
	c-4.454,2.094-8.32,4.765-13.591,6.039C516.903,431.185,525.406,431.969,529.393,428.243z"/>
<path fill-rule="evenodd" clip-rule="evenodd" fill="#DDB780" d="M345.717,429.248c3.107,5.247-5.779,9.876-10.065,12.581
	c0.592-2.934-2.813-1.876-3.017-4.025C337.62,435.579,339.767,430.511,345.717,429.248z"/>
<path fill-rule="evenodd" clip-rule="evenodd" d="M366.851,429.753c2.448-0.366,1.592,4.462,1.008,5.536
	C366.908,434.059,366.777,432.006,366.851,429.753z"/>
<path fill-rule="evenodd" clip-rule="evenodd" fill="#FAE895" d="M522.353,440.824c0-1.339,0-2.683,0-4.021
	c3.733-1.636,7.803-2.932,10.563-5.542C536.12,437.192,526.604,439.009,522.353,440.824z"/>
<path fill-rule="evenodd" clip-rule="evenodd" fill="#FAE895" d="M504.739,434.787c0.666,0,1.337,0,2.009,0
	c0.845,0.836,0.401,2.951,0.505,4.526c-0.84,0-1.681,0-2.514,0C504.739,437.804,504.739,436.295,504.739,434.787z"/>
<path fill-rule="evenodd" clip-rule="evenodd" fill="#FAE895" d="M508.259,435.289c2.651-0.302,4.326,0.376,6.54,0.502
	c-0.689,0.65-0.496,2.188-0.5,3.522c-2.008,0-4.028,0-6.04,0C508.259,437.97,508.259,436.631,508.259,435.289z"/>
<path fill-rule="evenodd" clip-rule="evenodd" fill="#FAE895" d="M531.908,437.3c2.188,1.374-0.434,2.158,0,4.529
	C530.9,441.268,531.333,437.937,531.908,437.3z"/>
<path fill-rule="evenodd" clip-rule="evenodd" fill="#FAE895" d="M521.849,437.804c0,1.176,0,2.351,0,3.521
	c-1.393,1.469-4.037,1.669-5.537,3.021c-1.136-0.371-0.198-2.824-0.504-4.022C517.669,439.332,518.931,437.745,521.849,437.804z"/>
<path fill-rule="evenodd" clip-rule="evenodd" fill="#FAE895" d="M530.396,438.814c0,1.509,0,3.015,0,4.526
	c-4.393,0.838-8.548,6.012-12.575,4.03c-1.018,0.659-1.703,1.644-2.014,3.015c-1.215-0.921,0.69-2.966,0-5.035
	C520.904,443.401,524.96,440.411,530.396,438.814z"/>
<path fill-rule="evenodd" clip-rule="evenodd" d="M354.273,439.817c1.403,0.397,2.761,5.564,0,5.533
	C354.273,443.506,354.273,441.663,354.273,439.817z"/>
<path fill-rule="evenodd" clip-rule="evenodd" fill="#DDB780" d="M333.14,441.324c-0.217,1.055,0.343,1.335,0.499,2.017
	c-1.611,3.421-6.02,4.046-9.056,6.037C318.03,447.115,328.484,440.024,333.14,441.324z"/>
<path fill-rule="evenodd" clip-rule="evenodd" fill="#FAE895" d="M528.889,449.882c-1.318,0.146-0.396-1.95-2.013-1.508
	c-2.821,1.029-3.2,4.512-3.014,8.554c-1.975-0.381-0.617-4.085-2.014-5.032c-0.798,0.042-1.924-0.244-2.018,0.5
	c-1.11-0.062-0.214-2.13-0.503-3.018C523.014,448.77,531.306,440.539,528.889,449.882z"/>
<path fill-rule="evenodd" clip-rule="evenodd" fill="#FAE895" d="M502.224,445.351c3.887,0.784,8.324,0.239,11.567,0.506
	c-1.1,1.411-2.267,2.761-2.512,5.033c-0.846-0.756-3.028-6.197-4.026-2.016c-0.935-0.073-0.308-1.7-1.002-2.01
	c-2.445-0.097-1.588,3.113-4.027,3.018C502.224,448.374,502.224,446.864,502.224,445.351z"/>
<path fill-rule="evenodd" clip-rule="evenodd" fill="#FAE895" d="M471.023,450.89c-3.398-0.555-6.549,2.166-11.577,1.506
	c0.7-0.906,3.592-2.605,6.037-3.018C467.293,449.077,471.673,447.902,471.023,450.89z"/>
<path fill-rule="evenodd" clip-rule="evenodd" fill="#DDB780" d="M321.562,450.386c-3.329,3.718-7.658,6.43-12.075,9.056
	c-0.28-0.721-0.785-1.228-1.507-1.509C312.946,456.164,315.688,449.586,321.562,450.386z"/>
<path fill-rule="evenodd" clip-rule="evenodd" d="M342.196,451.391c2.659-0.022,0.488,5.042,0,6.542
	C340.054,456.967,342.396,453.574,342.196,451.391z"/>
<path fill-rule="evenodd" clip-rule="evenodd" fill="#FAE895" d="M467,457.432c-1.457,0.767-4.843,1.58-6.041,1.005
	c0-1.677,0-3.352,0-5.03C465.161,452.834,468.212,451.244,467,457.432z"/>
<path fill-rule="evenodd" clip-rule="evenodd" fill="#FAE895" d="M459.95,453.406c0,1.844,0,3.692,0,5.534
	c-3.917,0.781-7.838,1.555-12.075,2.012C451.257,457.797,454.576,454.573,459.95,453.406z"/>
<path fill-rule="evenodd" clip-rule="evenodd" fill="#DDB780" d="M307.476,459.945c-3.252,3.432-10.044,8.601-15.1,5.537
	C297.245,463.874,302.55,458.252,307.476,459.945z"/>
<path fill-rule="evenodd" clip-rule="evenodd" fill="#FAE895" d="M467.499,462.963c-4.907,2.115-14.954,3.059-21.638,5.038
	c0.06-2.079-0.877-3.155-0.504-5.54C452.846,462.303,464.536,455.68,467.499,462.963z"/>
<path fill-rule="evenodd" clip-rule="evenodd" d="M330.119,462.461c2.282,1.147,0.6,6.491,0,8.052
	C328.802,468.504,330.02,464.73,330.119,462.461z"/>
<path fill-rule="evenodd" clip-rule="evenodd" fill="#FAE895" d="M443.845,463.471c1.294,0.556,0.988,2.7,1.009,4.53
	c-2.576,0.778-5.603,1.103-8.555,1.506C438.706,467.385,441.531,465.68,443.845,463.471z"/>
<path fill-rule="evenodd" clip-rule="evenodd" fill="#FAE895" d="M468.004,472.028c-4.418-0.542-6.275-2.141-10.572-0.506
	c0.174-2.016-0.895-2.792-0.501-5.038C463.197,464.307,467.726,465.184,468.004,472.028z"/>
<path fill-rule="evenodd" clip-rule="evenodd" fill="#FAE895" d="M456.43,471.522c-7.691,1.887-17.51,4.279-24.157,5.531
	c0-1.507,0-3.014,0-4.525c5.694-3.868,16.158-2.965,22.646-6.044C456.835,466.75,456.313,469.453,456.43,471.522z"/>
<path fill-rule="evenodd" clip-rule="evenodd" fill="#DDB780" d="M292.88,468.001c-4.725,2.148-8.978,4.774-13.587,7.044
	c-1.05-0.97-2.098-1.928-2.514-3.522C281.903,470.268,286.765,465.126,292.88,468.001z"/>
<path fill-rule="evenodd" clip-rule="evenodd" d="M317.543,469.507c0,2.687,0,5.369,0,8.055
	C315.156,477.62,315.156,469.449,317.543,469.507z"/>
<path fill-rule="evenodd" clip-rule="evenodd" fill="#FAE895" d="M463.473,475.045c-10.495,4.267-21.787,7.734-34.721,9.559
	c0.652-2.589-1.457-4.215-0.505-5.534c8.421-1.887,22.156-5.243,30.193-7.041C460.605,471.541,462.335,473.446,463.473,475.045z"/>
<path fill-rule="evenodd" clip-rule="evenodd" fill="#DDB780" d="M276.779,476.049c-5.136,2.615-11.978,6.475-18.118,2.518
	C263.713,477.122,272.989,469.43,276.779,476.049z"/>
<path fill-rule="evenodd" clip-rule="evenodd" fill="#FAE895" d="M430.258,473.532c1.744,0.101,0.919,2.775,1.512,4.029
	c-1.72,0.087-3.604,1.678-5.027,0.499C427.129,475.773,429.456,475.414,430.258,473.532z"/>
<path fill-rule="evenodd" clip-rule="evenodd" fill="#FAE895" d="M459.446,478.061c0.421,3.107-1.44,3.928-1.51,6.543
	c-1.963,0.12-0.577-3.109-2.01-3.523c-5.195,7.218-16.713,8.118-26.675,10.568c0-2.012,0-4.027,0-6.035
	C440.17,483.947,449.499,480.694,459.446,478.061z"/>
<path fill-rule="evenodd" clip-rule="evenodd" fill="#FFFFFF" d="M426.237,478.566c1.65,2.539,2.146,6.235,2.01,10.565
	c-1.795-1.683-1.076-3.826-3.52-4.025c-8.883-0.721,0.087,25.28-5.038,29.693c-0.392,2.239,0.672,3.018,0.508,5.033
	c-2.221-1.329-1.865-5.328-2.015-8.555c-0.2-4.343,0.238-9.907,0-14.597c-0.472-9.201-1.118-15.048,6.545-18.115
	C425.232,478.566,425.729,478.566,426.237,478.566z"/>
<path fill-rule="evenodd" clip-rule="evenodd" fill="#DDB780" d="M260.168,482.088c-3.478,0.377-5.508,2.206-8.552,3.019
	c-1.984,0.141-1.535-2.153-3.522-2.012C251.43,480.354,257.347,477.382,260.168,482.088z"/>
<path fill-rule="evenodd" clip-rule="evenodd" d="M301.433,480.577c3.192-0.249,0.437,5.486,1.512,6.038
	C301.135,487.9,301.413,482.803,301.433,480.577z"/>
<path fill-rule="evenodd" clip-rule="evenodd" fill="#DDB780" d="M248.596,486.615c-2.989,0.539-5.503,1.545-7.545,3.021
	c-1.547-0.637-2.651-1.711-4.026-2.518C239.565,484.817,247.227,481.501,248.596,486.615z"/>
<path fill-rule="evenodd" clip-rule="evenodd" fill="#FAE895" d="M453.909,485.106c1.243,1.6,0.235,5.248,0,7.043
	c-0.643-1.193-2.249-1.432-3.52-2.01c0.4-1.742-0.746-1.934-0.504-3.524C451.668,486.551,452.751,485.79,453.909,485.106z"/>
<path fill-rule="evenodd" clip-rule="evenodd" fill="#FAE895" d="M416.173,486.615c1.198,2.157-0.065,6.777,1.001,9.057
	c-4.837,2.88-11.386,4.048-17.108,6.044c0-2.182,0-4.359,0-6.543C405.467,492.357,411.489,490.156,416.173,486.615z"/>
<path fill-rule="evenodd" clip-rule="evenodd" fill="#FFFFFF" d="M424.224,487.119c3.869,5.312,4.532,21.523,0.504,27.177
	c-2.884-2.355-1.274-7.977-1.513-12.58C422.945,496.434,421.112,490.857,424.224,487.119z"/>
<path fill-rule="evenodd" clip-rule="evenodd" fill="#DDB780" d="M237.523,490.643c-3.637,0.386-5.769,2.278-8.046,4.026
	c-1.594-1.431-4.415-1.626-6.544-2.52C227.796,491.079,234.638,484.896,237.523,490.643z"/>
<path fill-rule="evenodd" clip-rule="evenodd" fill="#FAE895" d="M448.379,491.648c-1.268,0.413-2.341,1.017-3.021,2.016
	c-6.959-2.064-4.8,3.307-10.568,3.521c-0.243-1.764-0.753-3.277-0.501-5.537c3.969-1.56,9.618-1.455,12.575-4.027
	C448.608,487.728,447.781,490.398,448.379,491.648z"/>
<path fill-rule="evenodd" clip-rule="evenodd" d="M286.336,489.132c2.58-0.207,1.527,5.264,1.012,6.54
	C285.406,495.096,286.72,491.267,286.336,489.132z"/>
<path fill-rule="evenodd" clip-rule="evenodd" fill="#FAE895" d="M434.288,497.186c-1.329,0.856-2.873,1.49-5.036,1.509
	c0-2.013,0-4.025,0-6.038C433.808,490.079,433.146,494.046,434.288,497.186z"/>
<path fill-rule="evenodd" clip-rule="evenodd" fill="#DDB780" d="M227.966,496.178c-1.409,3.122-2.854,6.205-4.528,9.061
	c-3.282-0.327-6.39-2.653-10.065-1.008C215.703,498.634,220.144,490.427,227.966,496.178z"/>
<path fill-rule="evenodd" clip-rule="evenodd" fill="#FAE895" d="M440.324,496.178c1.29,5.659-5.625,7.455-10.564,8.557
	c0.405-2.1-0.687-4.203,0-5.035C433.388,498.636,437.148,497.694,440.324,496.178z"/>
<path fill-rule="evenodd" clip-rule="evenodd" d="M270.738,496.682c0.682,1.044,1.418,6.43-1.009,6.037
	C269.635,500.275,269.618,497.91,270.738,496.682z"/>
<path fill-rule="evenodd" clip-rule="evenodd" fill="#FAE895" d="M417.174,502.719c-13.642,3.802-26.78,8.106-38.746,13.588
	c-1.286-1.223-1.846-3.176-3.021-4.524c11.034-7.421,28.223-8.686,40.767-14.597C418.29,497.248,416.671,501.049,417.174,502.719z"
	/>
<path fill-rule="evenodd" clip-rule="evenodd" d="M257.657,502.215c1.076,0.891,2.762,6.829-0.503,6.041
	C258.256,506.777,256.299,504.104,257.657,502.215z"/>
<path fill-rule="evenodd" clip-rule="evenodd" fill="#FAE895" d="M417.174,503.731c0,2.179,0,4.36,0,6.535
	c-4.929,1.776-10.144,3.278-15.597,4.533c-0.61-1.739-0.918-3.774-1.008-6.04C405.528,506.507,411.839,505.606,417.174,503.731z"/>
<path fill-rule="evenodd" clip-rule="evenodd" fill="#FAE895" d="M441.333,504.23c-1.023,3.004-2.781,5.271-5.034,7.048
	c-1.538,0.363-1.832-0.514-3.022-0.504c-2.044,0.979,0.731,4.674-3.019,4.528c-1.077-2.27-0.236-6.474-0.498-9.562
	C434.293,505.862,437.124,506.188,441.333,504.23z"/>
<path fill-rule="evenodd" clip-rule="evenodd" fill="#DDB780" d="M222.428,507.249c-0.435,4.934-4.13,6.609-4.53,11.575
	c-2.514-1.855-7.529-2.709-11.573-1.511C208.726,510.904,213.232,502.309,222.428,507.249z"/>
<path fill-rule="evenodd" clip-rule="evenodd" d="M245.076,507.249c1.69,1.371,0.551,4.528,0.499,6.039
	C243.864,512.925,244.444,508.372,245.076,507.249z"/>
<path fill-rule="evenodd" clip-rule="evenodd" fill="#FAE895" d="M399.562,509.268c0.424,1.917,0.85,3.839,1.008,6.035
	c-5.219,0.817-8.601,3.471-13.083,5.029c-0.173-1.172-0.514-2.164-1.51-2.515c-1.326-0.153-1.651,0.699-1.508,2.016
	c-1.086-0.43-0.815-2.211-1.512-3.022c-2.191-0.718-2.313,1.721-3.525,0.503C385.527,514.017,392,511.097,399.562,509.268z"/>
<path fill-rule="evenodd" clip-rule="evenodd" d="M234.506,510.774c2.655,0.042,1.54,6.493,1.002,8.05
	C233.292,518.027,235.091,513.214,234.506,510.774z"/>
<path fill-rule="evenodd" clip-rule="evenodd" fill="#FAE895" d="M417.679,511.278c0,2.51,0,5.028,0,7.546
	c-1.841-0.349-8.084-2.057-7.045,2.012c-0.885-0.453-0.829-1.853-2.012-2.012c-1.723,0.271-0.77,2.426-0.504,3.523
	c-1.708-1.587-5.954-2.962-9.059-1.512c-0.426,2.444,1.175,2.857,2.518,3.521c-3.65,1.298-4.845-4.207-8.553-4.523
	c-1.19,0.652-0.972,2.714-1.513,4.02c-1.987-0.022-2.995-1.024-3.018-3.017C397.018,516.441,407.697,514.208,417.679,511.278z"/>
<path fill-rule="evenodd" clip-rule="evenodd" fill="#DDB780" d="M216.894,520.836c-0.326,4.539-2.961,6.771-3.521,11.073
	c-2.905-0.822-6.372,0.154-9.563,0.504c-0.355-5.395,1.232-8.831,2.01-13.089C210.047,518.709,214.488,518.452,216.894,520.836z"/>
<path fill-rule="evenodd" clip-rule="evenodd" fill="#DDB780" d="M331.628,525.364c-2.628-1.06-5.962-1.413-9.563-1.512
	C321.822,518.126,332.905,520.751,331.628,525.364z"/>
<path fill-rule="evenodd" clip-rule="evenodd" d="M224.442,523.354c2.667-0.149,1.076,3.954,1.508,6.034
	C223.283,529.544,224.873,525.439,224.442,523.354z"/>
<path fill-rule="evenodd" clip-rule="evenodd" fill="#DDB780" d="M322.064,524.864c3.463,0.062,7.011,0.04,9.059,1.508
	c0.528,6.018,2.384,10.7,3.021,16.605c-4.07-1.798-8.522-0.412-12.08,1.007C321.884,536.751,321.697,531.979,322.064,524.864z"/>
<path fill-rule="evenodd" clip-rule="evenodd" fill="#DDB780" d="M212.363,533.923c-0.596,6.116-2.406,11.014-3.015,17.104
	c-1.917-1.855-5.215-2.394-8.557-1.504c0.492-5.045,2.313-8.756,2.516-14.088C205.229,533.892,209.674,533.121,212.363,533.923z"/>
<path fill-rule="evenodd" clip-rule="evenodd" d="M219.414,533.414c1.179,1.078,2,6.782-0.508,7.048
	C219.126,538.168,218.402,534.921,219.414,533.414z"/>
<path fill-rule="evenodd" clip-rule="evenodd" fill="#DDB780" d="M334.145,546.498c-3.698,0.957-7.931-0.806-12.08,0
	C323.134,542.692,333.695,540.767,334.145,546.498z"/>
<path fill-rule="evenodd" clip-rule="evenodd" fill="#DDB780" d="M334.649,548.514c0.321,4.875,0.771,9.627,2.013,13.592
	c-4.761-1.502-8.921,0.848-12.079,2.511c-0.55-5.823-1.131-11.615-2.015-17.106C326.539,546.384,331.571,547.217,334.649,548.514z"
	/>
<path fill-rule="evenodd" clip-rule="evenodd" d="M214.881,547.51c1.957,0.259,0.973,5.443,0.506,6.541
	C214.016,552.903,214.17,549.278,214.881,547.51z"/>
<path fill-rule="evenodd" clip-rule="evenodd" fill="#DDB780" d="M208.841,553.547c-1.112,4.426-1.322,9.748-2.01,14.594
	c-2.288-0.409-6.91-1.132-9.055,0C196.698,561.056,199.649,547.192,208.841,553.547z"/>
<path fill-rule="evenodd" clip-rule="evenodd" fill="#DDB780" d="M337.166,565.628c-3.352,1.94-9.033-1.564-11.579,1.002
	C324.689,563.536,336.544,559.723,337.166,565.628z"/>
<path fill-rule="evenodd" clip-rule="evenodd" fill="#DDB780" d="M122.289,261.175c-2.867-0.112-0.278,2.614-1.512,3.522
	c-9.674-4.578-17.542-10.971-24.658-18.12c-5.659,0.124-12.125,1.547-15.601-1.506c0.085-1.579-0.631-2.321-2.013-3.524
	c0-2.682,0-5.366,0-8.053c1.072-1.007,2.245,0.719,3.525,1.01c4.497,0.863,10.827-1.117,15.601,0.501
	c3.225,1.089,6.2,6.931,10.067,9.559c2.756,1.88,5.344,4.257,8.051,6.039c5.834,3.862,11.871,5.24,19.117,8.055
	c12.688,4.928,24.773,12.167,37.24,17.106c12.236,3.706,25.553,8.732,36.235,15.099c4.461,2.661,12.458,4.041,20.631,2.516
	c1.542,0.972,2.969,2.063,5.031,2.516c0.353,2.167-0.064,5.096,1.505,6.039c2.833-2.502,0.681-12.23,7.052-9.562
	c1.755,2.105,0.738,6.973,1.004,10.569c6.064-1.819,8.009-7.761,14.093-9.562c-1.163,5.543-6.782,6.64-8.557,11.572
	c1.363,2.139,2.833-2.464,3.522-1c0.771,5.176-3.669,7.535-4.529,11.57c-1.744,8.199,1.859,17.567,0,27.675
	c-4.157-8.595-0.08-25.418-3.018-35.225c-2.197,0.835-4.556,3.008-7.553,1.511c-0.939,0.568-2.421,0.592-2.015,2.516
	c-1.248-2.477-1.573-3.425-2.509-5.533c-1.473-0.133-1.549,1.138-3.024,1.005c0.143-1.316-0.179-2.167-1.508-2.014
	c-1.968,1.052-0.826,5.213-3.018,6.039c-2.177-0.91,0.387-3.792,0.502-5.535c-0.627-2.454-2.566,0.839-3.522-0.504
	c-0.057-1.451,0.276-3.293-0.502-4.027c-2.235-0.389-2.028,1.668-3.021,2.521c-0.972-0.206-0.395-1.959-2.012-1.513
	c-1.963,0.471-0.429,2.542-0.504,4.028c-12.755-0.516-24.132-9.985-35.727-14.093c-1.377-0.485-3.199-0.04-4.529-0.502
	c-7.93-2.763-14.208-8.15-22.142-10.064c-6.554-5.192-14.688-8.793-23.15-12.076c0.159-1.183,0.798-1.891,0.506-3.524
	c-2.693-0.253-1.693,1.276-1.515,3.02c-3.322-1.038-5.979-2.74-9.057-4.025C121.797,264.373,122.418,263.151,122.289,261.175z
	 M113.229,260.165c0.69-0.643,0.877-3.008-0.502-3.017C112.036,257.792,111.851,260.158,113.229,260.165z M91.088,243.057
	c0.685-0.636,0.774-2.46-0.503-2.515C89.787,241.298,90.217,242.597,91.088,243.057z M88.066,245.576
	c0.54-0.597,0.234-3.188-1.004-3.526C86.272,242.905,86.518,245.555,88.066,245.576z M101.151,247.588
	c-0.007-1.337,0.282-2.967-1.004-3.023C100.453,245.605,99.333,248.064,101.151,247.588z M142.419,273.253
	c-0.222-0.953,0.683-3.031-1.008-2.518C140.359,271.738,141.393,272.885,142.419,273.253z M151.476,277.781
	c2.04,0.296,1.595-2.072,0.504-2.516C151.539,276.154,150.384,276.733,151.476,277.781z M164.053,282.309
	c0.023-1.53,0.297-3.309-1.508-3.022C162.527,280.822,162.255,282.599,164.053,282.309z M187.203,293.38
	c0.413-0.367,1.351-3.482-0.5-3.016C186.012,291.003,185.825,293.368,187.203,293.38z M200.288,297.403
	c-0.917,0.019,0.962-2.528-1.006-2.514C198.073,295.526,199.365,299.055,200.288,297.403z M210.857,301.431c0.504,0,1.008,0,1.506,0
	c-0.109-0.891,0.509-2.519-1.002-2.012C211.198,300.1,210.643,300.379,210.857,301.431z"/>
<path fill-rule="evenodd" clip-rule="evenodd" fill="#886E4B" d="M122.289,245.576c2.351,0.497,4.187,1.513,6.541,2.013
	c-3.544,0.674-8.87,1.597-12.581,0.503c1.695-1.495,6.866,0.485,8.557-1.008C124.891,245.655,121.513,247.691,122.289,245.576z"/>
<path fill-rule="evenodd" clip-rule="evenodd" fill="#FAE895" d="M200.792,317.03c0.327,2.654,0.734,4.795,0.504,6.039
	c-0.813,0.552-3.157-0.546-6.544,0.506c-0.996,0.95-0.246,2.374,0,3.521c-2.631-0.282-4.81-0.115-4.024,3.018
	c-2.262-1.5-5.061,0.124-6.544,1.01c0.214-1.052-0.346-1.334-0.498-2.015c-1.479,0.036-1.872,1.147-2.519,2.015
	c-0.603-3.423-5.388-2.665-8.053-4.027c0.068-1.241,0.076-2.425-0.502-3.018c-2.604-0.252-3.274,1.423-6.041,1.005
	c-0.7-0.646-0.307-2.379-1.002-3.023c-3.816-0.342-11.367-0.494-13.589-4.022c-1.679,0-3.354,0-5.035,0
	c0.601-1.449,1.06-2.668,0.506-4.027c-1.222-0.964-4.046-0.316-6.04-0.502c-0.21-4.021-7.597-2.278-7.047-5.536
	c-3.391-0.373-5.229,0.81-8.555,0.503c0.591-0.982,1.655-2.815,0.504-4.025c-7.906,3.78-8.831-3.834-16.102-3.524
	c-0.051-4.984-5.37-4.697-8.555-6.539c0.244-1.925-0.144-3.212-1.005-4.023c-1.651,0.021-1.925,1.428-4.027,1.003
	c-0.812-1.201-0.803-3.226-1.51-4.531c-2.207-0.527-1.651,1.702-3.522,1.513c0.224-1.903-0.99-2.364-1.506-3.524
	c-1.181,0-2.354,0-3.529,0c-1.02-0.655-0.69-2.663-2.014-3.019c-1.99-0.147-3.074,0.615-4.026,1.508
	c-0.894-0.613-0.095-2.915-2.512-2.013c-0.393-12.132,0.732-22.75,0.5-34.724c3.868,4.026,10.639,1.066,15.606,2.015
	c4.5,0.861,4.719,4.555,7.546,7.045c14.25,9.907,30.749,17.561,47.807,24.658c6.874,6.381,18.086,8.419,26.162,13.585
	c7.136,0.812,11.893,4.472,19.126,7.548c7.898,3.364,15.724,5.635,18.114,11.575c-3.397-1.414-9.446-4.553-11.069,0.503
	c0.036,2.15,3.185,1.176,4.528,2.013c0.846,1.677,2.272,2.762,4.025,3.521C209.087,320.639,204.151,315.016,200.792,317.03z"/>
<path fill-rule="evenodd" clip-rule="evenodd" fill="#886E4B" d="M136.88,252.622c-2.359,1.59-9.705,1.513-12.075,0
	c2.772-1.659,8.319,0.596,10.565-0.504c0.095-0.431-0.194-0.476-0.504-0.504c-3.861-0.333-9.052,0.665-12.075-0.503
	c3.818-0.208,8.547,0.494,11.573-0.506C135.18,251.306,135.958,252.031,136.88,252.622z"/>
<path fill-rule="evenodd" clip-rule="evenodd" fill="#DDB780" d="M335.148,378.429c-0.068-3.117-6.255-1.575-8.05-0.506
	c-1.42,5.278,4.12,3.599,3.525,8.052c-3.65,0.997-4.028-1.261-6.546-1.009c0.805-1.611,0.691-3.605-2.014-3.017
	c0.283-2.685-0.23-5.343-2.514-4.026c-0.211-2.388,1.718-2.646,1.512-5.035c-1.79-1.635-2.33,1.022-4.024,1.007
	c0.595-1.582,1.694-2.66,2.012-4.529c-0.529-2.35-3.442,0.789-4.028-1.508c-2.114,0.737-2.96,2.742-4.528,4.025
	c-0.395,2.069,0.771,2.588,0.505,4.529c-19.918-11.955-31.546-32.198-51.831-43.781c-1.991-8.182-6.312-12.045-4.53-23.147
	c4.282,11.309,15.811,14.576,24.153,21.137c5.604,4.404,8.325,11.019,13.081,16.605c5.05,5.923,12.942,8.762,19.631,12.58
	c7.151,7.774,17.271,12.582,27.174,17.611c0.96,0.354-0.543,0.784-0.504,0C336.291,376.881,336.735,378.669,335.148,378.429z
	 M264.702,331.124c0.412-0.366,1.349-3.484-0.508-3.02C263.813,329.389,263.453,330.42,264.702,331.124z M270.738,334.141
	c-0.006-1.333,0.282-2.96-1.009-3.018C268.909,331.938,269.127,334.282,270.738,334.141z M274.266,339.173
	c1.085,0.087,0.223-1.783,0.498-2.517c-0.498,0-1.002,0-1.51,0C273.477,337.607,272.572,339.69,274.266,339.173z M279.293,345.213
	c1.545,0.771,1.545-3.287,0-2.517C279.293,343.533,279.293,344.375,279.293,345.213z M285.837,350.747c0.826,0.083,0.826-3.1,0-3.02
	C285.385,348.129,283.609,350.812,285.837,350.747z M292.376,358.8c0.687-0.679,0.96-3.515-0.505-3.524
	C291.188,355.954,290.912,358.789,292.376,358.8z M300.933,366.851c0.446-0.896,1.405-1.278,1.004-3.021c-0.504,0-1.004,0-1.508,0
	C300.716,364.719,299.821,366.785,300.933,366.851z"/>
<path fill-rule="evenodd" clip-rule="evenodd" fill="#886E4B" d="M263.193,309.483c1.001,0,2.008,0,3.017,0
	c-0.591,0.749-0.432,2.249-2.016,2.013c3.354,2.356,10.744,0.667,15.099,2.012C274.056,314.046,263.114,315.938,263.193,309.483z"/>
<path fill-rule="evenodd" clip-rule="evenodd" fill="#DDB780" d="M302.944,311.497c0.575,16.128,17.797,18.716,27.175,26.668
	c5.485,4.652,8.765,12.054,14.593,17.11c4.42,3.837,9.323,6.327,13.585,9.563c4.652,3.531,8.656,7.205,13.588,9.564
	c-1.731,0.755-3.809-0.717-5.534-1.515c-4.211-1.929-7.12-3.591-11.071-6.037c-13.436-8.319-21.489-23.236-34.722-32.709
	c-5.456-3.904-13.441-7.001-16.103-11.072c-2.209-3.375-1.355-9.233-3.522-12.074C296.402,308.84,300.802,310.036,302.944,311.497z"
	/>
<path fill-rule="evenodd" clip-rule="evenodd" fill="#DDB780" d="M452.406,430.254c-6.97,6.705-10.944,13.665-17.617,19.628
	c-3.174,2.836-8.081,5.108-12.078,8.051c-7.677,5.657-15.065,11.413-23.651,16.609c-4.399,2.66-7.622,5.905-11.573,8.553
	c-12.966,8.699-30.204,10.327-43.277,18.122c-6.326,3.765-12.388,11.129-12.581,19.619c-0.661,1.46-5.733-2.892-9.06-0.504
	c3.302-12.099,14.89-16.115,24.156-21.638c2.786-1.661,4.759-4.271,7.549-6.038c3.017-1.904,6.934-3.129,10.064-5.035
	c14.692-8.928,30.615-18.947,44.786-29.185c12.44-8.987,23.962-19.307,37.241-26.671
	C448.453,431.344,450.707,431.077,452.406,430.254z"/>
<path fill-rule="evenodd" clip-rule="evenodd" fill="#FAE895" d="M513.791,440.323c0,1.506,0,3.018,0,4.526
	c-3.913-0.107-8.399,0.353-11.567-0.504c0.625-1.527,0.384-1.955-0.508-3.021c-1.843,0.171-2.03,1.997-4.53,1.515
	C500.283,439.558,507.477,440.373,513.791,440.323z"/>
<path fill-rule="evenodd" clip-rule="evenodd" fill="#FAE895" d="M399.06,495.672c0.843,1.694-0.183,5.219,0,6.543
	c-9.266,2.479-19.04,4.445-25.664,9.567c-1.54,0.359-1.48-0.869-3.017-0.504c-0.982,0.863-1.088,2.607-1.009,4.524
	c-1.229-0.442-0.545-2.809-2.52-2.515C376.613,506.441,387.855,501.082,399.06,495.672z"/>
<path fill-rule="evenodd" clip-rule="evenodd" fill="#FAE895" d="M363.331,514.296c0.503,1.363-1.898,4.123-2.516,6.036
	c-1.344,0-2.681,0-4.03,0C358.471,517.822,361.411,516.567,363.331,514.296z"/>
<path fill-rule="evenodd" clip-rule="evenodd" d="M70.96,222.93c1.536-0.363,1.834,0.514,3.021,0.503c0,0.838,0,1.675,0,2.515
	c-0.312,0.694-1.941,0.074-2.016,1.008C70.401,226.844,71.115,224.446,70.96,222.93z"/>
<path fill-rule="evenodd" clip-rule="evenodd" d="M38.25,223.434c0.107,1.444-0.125,2.556-1.006,3.021c-0.504,0-1.002,0-1.51,0
	c-0.424-0.589-0.663-1.351-0.504-2.516C35.829,223.354,37.011,223.364,38.25,223.434z"/>
<path fill-rule="evenodd" clip-rule="evenodd" d="M53.347,223.434c0.668,0,1.341,0,2.016,0c0.214,0.959,1.08,1.262,1.005,2.515
	c-1.05,0.292-1.438,1.25-3.021,1.008C52.458,226.114,53.792,225.268,53.347,223.434z"/>
<path fill-rule="evenodd" clip-rule="evenodd" d="M36.241,227.96c0.833,0,1.675,0,2.51,0c0.302,2.141-0.165,3.524-2.51,3.02
	C36.241,229.973,36.241,228.966,36.241,227.96z"/>
<path fill-rule="evenodd" clip-rule="evenodd" d="M71.462,227.96c1.943-0.096,2.892,0.8,3.021,2.517
	c-0.587,0.42-1.352,0.665-2.518,0.503C72.33,229.441,71.453,229.148,71.462,227.96z"/>
<path fill-rule="evenodd" clip-rule="evenodd" fill="#FDD697" d="M442.847,288.183c2.408,1.449,2.82,1.65,7.044,4.524
	c0.776,0.292,12.776,6.04,12.61,6.126c0.166,0.167,4.34,1.752,4.499,2.431c0.167-0.264,2.471,0.763,3.501,1.402
	c0.883,0.55,3.931,1.578,5.666,2.5c3.135,1.653,9.514,2.204,11.968,5.156c-4.134,4.844-17.082-1.665-26.671-7.547
	c-3.597-2.214-6.129-3.608-9.059-5.539c-0.403-0.237-7.403-4.237-7.547-4.529c-12.857,11.459-27.857,16.126-40.357,22.292
	c-0.662-0.513,0.257-2.147-0.404-2.663c4.343-4.169,8.238-5.837,13.571-8.17c0.5-0.167,2.334-1.254,3.032-1.895
	c4.135-1.272,5.968-2.772,9.563-5.035C436.835,292.833,439.382,291.934,442.847,288.183z"/>
<path fill-rule="evenodd" clip-rule="evenodd" fill="#FDD697" d="M480.587,314.517c-7.012,1.326-14.253-3.684-20.253-8.017
	c-0.167,0-8.667-4.333-14.473-9.097c-10.695,7.764-23.091,16.499-38.752,17.615c12.117-7.003,28.414-11.039,37.725-20.852
	C457.546,300.41,467.885,308.259,480.587,314.517z"/>
<path fill-rule="evenodd" clip-rule="evenodd" fill="#DDB780" d="M395.037,403.083c-3.828,1.039-6.6,3.134-11.077,3.521
	C386.675,404.449,390.553,403.464,395.037,403.083z"/>
<path d="M456.474,390.262l0.25-20.5c12.139-27.395,21.25,0.084,21.25,0.084l-0.991,20.695h-19.123L456.474,390.262z"/>
<path d="M399.057,391.284l0.25-20.5c12.139-27.395,21.25,0.084,21.25,0.084l-0.991,20.695h-19.123L399.057,391.284z"/>
</svg>
