<?xml version="1.0" encoding="utf-8"?>
<!-- Generator: Adobe Illustrator 16.0.0, SVG Export Plug-In . SVG Version: 6.00 Build 0)  -->
<!DOCTYPE svg PUBLIC "-//W3C//DTD SVG 1.1//EN" "http://www.w3.org/Graphics/SVG/1.1/DTD/svg11.dtd">
<svg version="1.1" id="Ebene_2" xmlns="http://www.w3.org/2000/svg" xmlns:xlink="http://www.w3.org/1999/xlink" x="0px" y="0px"
	 width="566.93px" height="708.66px" viewBox="0 0 566.93 708.66" enable-background="new 0 0 566.93 708.66" xml:space="preserve">
<path fill="#A07E60" stroke="#5B5B5B" stroke-width="0.75" stroke-miterlimit="10" d="M498.25,396.41
	c-18.5-42-156.25-36.25-156.25-36.25l-0.75,13.5l-3.5,0.25l-0.5-7H321l-0.25,6.25l-21,1.25l-2.25-15.25l-2,0.25l-1.25-1l-9,0.5
	l0.5,1.25L271,360.41l-11.5-35.25l0.75-1.25c1.75,2.25,0.75-7.5,0.75-7.5c1.25-0.5,0-4,0-4l-3-4.417l0.667-3.333
	c0,0-2.667-11.333-2-13.333S248,289.994,248,289.994l-21.333-47.333c0,0-4.667-1.333-4.667-3.333s-6.667-8.667-6.667-8.667
	c-108.667,38.667-118.667,88.667-118.667,88.667s2.833,1.333,3.833,2.833s1.5,5.5,0,7.5s-2,3-2,3l-2,7l-2.5-0.5l0.5,18
	c3,20.5,0,21,0,21c-6.5,8.5,0.5,21.5,0.5,21.5c-1.5,6-3,105-3,105c18,24,409.75,7.25,409.75,7.25
	C502.75,498.16,498.25,396.41,498.25,396.41z M150.167,384.244l0.083-13.5c-0.583-6.668,3.5-11.75,3.5-11.75
	c0.75,3.5,0.917,24,0.917,24L150.167,384.244z M171.75,378.994v-19.416c1.583-10.584,6.25-9.751,6.25-9.751l0.583,2.75l0.667,24.251
	L171.75,378.994z M197,371.91v-21.089c0,0-1-9.917,10.5-9.161l0.75,3.917l0.583,23.499C208.833,369.076,198.25,371.658,197,371.91z
	 M243.833,364.744c0,0-15.583,1.166-17.75,1.25v-20.583c0,0-0.667-8.167,10.167-11c0,0,4.417-1.25,6.75,2.833l1,25.25
	L243.833,364.744z M311.917,431.326l-4.25-14.5c0,0,6.25-3.75,9.25,3.5l0.5,10.5L311.917,431.326z M335.917,431.076l-0.25-14
	c0,0,6.75-5.5,10.043,1.098l0.457,13.402L335.917,431.076z M390.167,380.326l0.5-10.5l4.25,0.5l0.5,10.5L390.167,380.326z
	 M434.917,383.826v-9h1.75l1,9.5L434.917,383.826z"/>
<path fill="#4C4C4C" d="M283.333,403.326c0,0-2.667-10-13.667-10.333s-10,14.999-10,14.333s-0.333,25-0.333,25L283,431.993
	L283.333,403.326z"/>
<path fill="none" stroke="#4C4C4C" stroke-width="0.75" stroke-miterlimit="10" d="M341.25,373.66l28.75-0.667
	c0,0,1.666,21.666,4,27.666s-0.666,7.667,0.334,10.667s10.333,27.667,10.333,27.667l21.667,1c0,0,0.667,18.332,0,19.666
	s0,12.666,0,14s-1.333,6.001,1,6.334s3,2.333,3,2.333l0.333,7.667c0,0-1.999,5.333-1.333,7.333s3.332,6.333,2.666,8.333
	s-0.333,9-0.333,9"/>
<path fill="none" stroke="#4C4C4C" stroke-width="0.75" stroke-miterlimit="10" d="M258,302.16c0,0-139,21.75-162.25,71.25"/>
<path fill="none" stroke="#4C4C4C" stroke-width="0.75" stroke-miterlimit="10" d="M248,289.994c0,0-118,20.167-152.5,75.167"/>
<path fill="none" stroke="#4C4C4C" stroke-width="0.75" stroke-miterlimit="10" d="M298.668,368.661
	c0,0-148.667,6.667-205.334,48.667"/>
<path fill="none" stroke="#4C4C4C" stroke-width="0.75" stroke-miterlimit="10" d="M299.333,378.327
	c0,0-154.667,7.668-206.667,45.002"/>
<path fill="none" stroke="#4C4C4C" stroke-width="0.75" stroke-miterlimit="10" d="M342.333,441.327
	c0,0-204.667,4.999-250.333,22.333"/>
<path fill="none" stroke="#4C4C4C" stroke-width="0.75" stroke-miterlimit="10" d="M341,451.66c0,0-217.667,0.667-248.333,17"/>
<path fill="#4C4C4C" d="M311,463.66c0,0,12.75,1.032,14.25,13.154v35.596l-26.75-0.258l0.5-34.048
	C299,478.104,299.5,463.66,311,463.66z"/>
<path fill="#4C4C4C" d="M270.582,464.66c0,0,11.558,1,12.918,12.75v34.5l-24.25-0.25l0.453-33
	C259.703,478.66,260.157,464.66,270.582,464.66z"/>
<path fill="#4C4C4C" d="M231.397,466.16c0,0,10.605,0.979,11.853,12.48v33.77L221,512.165l0.416-32.301
	C221.416,479.864,221.832,466.16,231.397,466.16z"/>
<path fill="#4C4C4C" d="M199.508,466.577c0,0,6.554,0.968,7.325,12.346v33.404l-13.75-0.242l0.257-31.952
	C193.34,480.133,193.597,466.577,199.508,466.577z"/>
<path fill="#4C4C4C" d="M170.595,470.661c0,0,5.283,0.875,5.905,11.153v30.179l-11.083-0.219l0.207-28.867
	C165.624,482.907,165.832,470.661,170.595,470.661z"/>
<path fill="#4C4C4C" d="M348.109,467.327c0,0,11.16,0.94,12.474,11.985v32.431l-23.416-0.235l0.438-31.021
	C337.604,480.487,338.042,467.327,348.109,467.327z"/>
<path fill="#4C4C4C" d="M381.907,468.66c0,0,9.254,0.885,10.343,11.266v30.483l-19.416-0.221l0.362-29.159
	C373.196,481.029,373.56,468.66,381.907,468.66z"/>
<path fill="#4C4C4C" d="M146.639,472.994c0,0,4.647,0.762,5.195,9.715v26.284l-9.75-0.19l0.182-25.143
	C142.266,483.66,142.448,472.994,146.639,472.994z"/>
<path fill="#4C4C4C" d="M128.171,475.327c0,0,4.171,0.67,4.662,8.546v23.12l-8.75-0.168l0.164-22.116
	C124.247,484.709,124.411,475.327,128.171,475.327z"/>
<path fill="#4C4C4C" d="M109.759,477.995c0,0,2.899,0.546,3.241,6.958v18.827l-6.083-0.137l0.113-18.01
	C107.03,485.634,107.144,477.995,109.759,477.995z"/>
<path fill="#4C4C4C" d="M243.333,433.66l-0.602-26.333c0,0-0.903-11.667-10.232-11c-9.329,0.667-10.833,12.667-10.833,12.667
	l0.301,26.333L243.333,433.66z"/>
<path fill="#4C4C4C" d="M207.333,437.064l-0.444-25.208c0,0-0.667-11.169-7.556-10.531c-6.889,0.64-8,12.127-8,12.127l0.223,25.208
	L207.333,437.064z"/>
<path fill="#4C4C4C" d="M177,440.47l-0.37-24.083c0,0-0.556-10.67-6.296-10.061c-5.741,0.611-6.667,11.585-6.667,11.585
	l0.186,24.083L177,440.47z"/>
<path fill="#4C4C4C" d="M151.667,443.903l-0.305-22.509c0,0-0.459-9.972-5.195-9.401s-5.5,10.826-5.5,10.826l0.153,22.509
	L151.667,443.903z"/>
<path fill="#4C4C4C" d="M132.333,446.393l-0.24-20.034c0,0-0.362-8.876-4.093-8.368c-3.731,0.508-4.333,9.637-4.333,9.637
	l0.121,20.034L132.333,446.393z"/>
<path fill="#4C4C4C" d="M117.667,449.492l-0.175-18.457c0,0-0.265-8.178-2.992-7.71c-2.727,0.468-3.167,8.879-3.167,8.879
	l0.088,18.457L117.667,449.492z"/>
<path fill="#4C4C4C" d="M107,451.911l-0.12-17.106c0,0-0.181-7.579-2.047-7.146c-1.866,0.433-2.167,8.229-2.167,8.229l0.061,17.106
	L107,451.911z"/>
<path fill="#4C4C4C" d="M129.5,362.642c0,0,4.75-1.132,5.75,6.796l0.5,17.933l-0.125,2.831l-9.875,3.209l0.125-19.254
	C125.875,374.156,125.25,364.906,129.5,362.642z"/>
<path fill="#4C4C4C" d="M115.156,369.891c0,0,3.681-1.104,4.456,6.63L120,394.017l-0.097,2.763l-7.653,3.131l0.097-18.785
	C112.347,381.125,111.862,372.1,115.156,369.891z"/>
<path fill="#4C4C4C" d="M104.52,377.987c0,0,2.301-1.015,2.785,6.094l0.242,16.079l-0.061,2.539l-4.783,2.877l0.061-17.264
	C102.764,388.313,102.461,380.018,104.52,377.987z"/>
<g>
	<polygon fill="#4C4C4C" points="244.5,360.91 243.5,337.16 244.463,361.469 	"/>
	<path fill="#4C4C4C" d="M241.806,364.849c-4.504,0.333-13.604,0.999-15.222,1.062v-20.583c0,0-0.667-8.167,10.167-11
		c0,0,4.417-1.25,6.75,2.833c-2-10.5-11.5-9-11.5-9c-8.5,3-7.25,15.25-7.25,15.25v22.75L241.806,364.849z"/>
</g>
<g>
	<polygon fill="#4C4C4C" points="209.5,365.743 208.793,347.233 209.325,368.642 	"/>
	<path fill="#4C4C4C" d="M197.5,371.827v-21.09c0,0-0.989-9.842,10.379-9.166c-2.531-6.21-8.535-5.169-8.535-5.169
		c-6.906,2.688-5.891,13.663-5.891,13.663l-0.203,22.845l16.047-3.808l0.006-0.102C208.681,369.152,198.711,371.583,197.5,371.827z"
		/>
	<path fill="#4C4C4C" d="M208.721,345.342l-0.034-0.877c-0.143-0.826-0.334-1.565-0.562-2.233L208.721,345.342z"/>
</g>
<g>
	<path fill="#4C4C4C" d="M179.69,374.575l0.06-1.185l-0.663-20.842c-0.001-0.006-0.002-0.011-0.003-0.017L179.69,374.575z"/>
	<path fill="#4C4C4C" d="M178.638,350.394l0.422,1.988C178.948,351.653,178.806,350.993,178.638,350.394z"/>
	<path fill="#4C4C4C" d="M172.25,378.771v-19.277c1.475-9.861,5.625-9.811,6.185-9.758c-2.06-6.106-6.966-5.085-6.966-5.085
		c-5.631,2.632-4.803,13.382-4.803,13.382L166.5,380.41L172.25,378.771z"/>
</g>
<path fill="#4C4C4C" d="M154.808,383.01l-4.141,1.15l0.083-13.5c-0.583-6.667,3.5-11.75,3.5-11.75
	c0.649,3.028,0.861,18.776,0.907,22.966l0.093-2.045l-0.563-19.532c-1.125-8.635-6.469-7.402-6.469-7.402
	c-4.781,2.467-4.078,12.542-4.078,12.542L144,386.41L154.808,383.01z"/>
<path fill="none" stroke="#4C4C4C" stroke-width="0.75" stroke-miterlimit="10" d="M261,316.41l-4.75-7.5
	c0,0-130.75,18.75-161,68.25"/>
<polygon fill="#4D4C4C" points="468.25,382.41 471.75,382.91 472,399.66 468,398.16 "/>
<polygon fill="#4D4C4C" points="487.75,389.91 490.75,391.66 490.5,401.16 487.75,399.91 "/>
<polygon fill="#4D4C4C" points="493.75,394.66 495.5,396.41 495.625,405.16 493.75,403.91 "/>
<path fill="#4D4C4C" d="M387.667,438.327l-0.333-16.333c0,0,0.999-9.666,9.333-9c0,0,7.333,1,7,9s0.667,18,0.667,18L387.667,438.327
	z"/>
<path fill="#4D4C4C" d="M413.001,450.327l-0.334-22.216c0,0-1.666-14.117,7.319-11.774c0,0,5.752,1.309,5.49,11.774
	c-0.261,10.466,0.524,22.883,0.524,22.883L413.001,450.327z"/>
<path fill="#4D4C4C" d="M433.3,451.327l-0.309-22.216c0,0-1.542-14.117,6.775-11.774c0,0,5.324,1.309,5.082,11.774
	c-0.241,10.466,0.485,22.883,0.485,22.883L433.3,451.327z"/>
<path fill="#4D4C4C" d="M451.865,452.02l-0.234-21.368c0,0-1.171-13.578,5.144-11.325c0,0,4.042,1.258,3.858,11.325
	c-0.184,10.066,0.368,22.01,0.368,22.01L451.865,452.02z"/>
<path fill="#4D4C4C" d="M466.498,452.738l-0.209-19.672c0,0-1.048-12.5,4.599-10.426c0,0,3.615,1.157,3.451,10.426
	c-0.164,9.268,0.329,20.263,0.329,20.263L466.498,452.738z"/>
<path fill="#4D4C4C" d="M479.074,454.155l-0.144-16.915c0,0-0.717-10.749,3.148-8.965c0,0,2.475,0.995,2.362,8.965
	c-0.112,7.969,0.226,17.423,0.226,17.423L479.074,454.155z"/>
<path fill="#4D4C4C" d="M488.329,455.521l-0.086-15.854c0,0-0.428-10.075,1.88-8.403c0,0,1.478,0.933,1.41,8.403
	c-0.067,7.469,0.135,16.33,0.135,16.33L488.329,455.521z"/>
<path fill="#4D4C4C" d="M494.665,456.899l-0.059-14.371c0,0-0.294-9.132,1.292-7.616c0,0,1.017,0.846,0.97,7.616
	c-0.046,6.771,0.093,14.802,0.093,14.802L494.665,456.899z"/>
<path fill="#4E4C4C" d="M434.667,371.994v11.666l6.333,1.334v-12L434.667,371.994z M435,383.66v-9h1.75l1,9.5L435,383.66z"/>
<path fill="#4C4C4C" d="M347.5,401.16c-12-0.5-13.75,12.75-13.75,12.75l0.75,16.25l1.485-0.064l-0.235-13.186
	c0,0,6.75-5.5,10.043,1.098l0.457,13.402l-8.095-0.395L338,431.91l22,0.5l0.5-18.25C360.75,402.41,347.5,401.16,347.5,401.16z"/>
<path fill="#4C4C4C" d="M321.25,409.91c-0.25-2-5.25-5.5-9-6s-8,3-8,3l7.75,24.25l-4.25-14.5c0,0,6.25-3.75,9.25,3.5l0.5,10.5
	l-5.5,0.5l10,0.75C322,431.91,321.5,411.91,321.25,409.91z"/>
<polygon fill="#4C4C4C" points="390.666,367.327 390.25,380.16 390.75,369.66 395,370.16 395.493,380.514 397.666,380.66 
	398.666,367.327 "/>
<path fill="#4C4C4C" d="M418.333,469.994c0,0,7.333,0.332,7.333,10.666s0.334,28,0.334,28l-14.334,0.667v-28.333
	C411.666,480.994,413.333,469.661,418.333,469.994z"/>
<path fill="#4C4C4C" d="M438.69,469.994c0,0,6.992,0.329,6.992,10.575c0,10.247,0.318,27.764,0.318,27.764l-13.668,0.661v-28.093
	C432.333,480.901,433.923,469.664,438.69,469.994z"/>
<path fill="none" stroke="#4C4C4C" stroke-miterlimit="10" d="M92,492.66c0,0-41,26.667,291.667,17.667c0,0,117-3.334,117.667-4.334
	"/>
<path fill="#4C4C4C" d="M457.52,473.994c0,0,4.605,0.285,4.605,9.219s0.209,24.205,0.209,24.205l-9.001,0.576v-24.491
	C453.333,483.503,454.38,473.706,457.52,473.994z"/>
<path fill="#4C4C4C" d="M470.79,476.326c0,0,3.07,0.267,3.07,8.587s0.14,22.543,0.14,22.543l-6.001,0.537v-22.811
	C467.999,485.183,468.697,476.058,470.79,476.326z"/>
<path fill="#4C4C4C" d="M482.146,475.992c0,0,2.729,0.267,2.729,8.587S485,507.122,485,507.122l-5.334,0.537v-22.811
	C479.666,484.849,480.287,475.724,482.146,475.992z"/>
<path fill="#4C4C4C" d="M489.883,478.992c0,0,1.706,0.236,1.706,7.593s0.077,19.933,0.077,19.933l-3.334,0.475v-20.169
	C488.332,486.823,488.721,478.755,489.883,478.992z"/>
<path fill="#4C4C4C" d="M495.911,478.659c0,0,1.28,0.236,1.28,7.593s0.058,19.933,0.058,19.933l-2.501,0.475V486.49
	C494.748,486.49,495.04,478.422,495.911,478.659z"/>
<path fill="none" stroke="#4C4C4C" stroke-width="0.75" stroke-miterlimit="10" d="M299.75,374.41c0,0-0.083,8.916-0.75,13.25
	l13,43.5l16,0.167v-1.667l10.333,0.334L338,440.327c0,0,4.666-0.667,4.333,1S343,445.66,342,445.66s-1.666,3.334-1.333,4.667
	S341,451.66,341,451.66l0.667,4c0,0-1,0-1.667,1.667s-1.666,0.999-0.333,4.333s4.333,2.667,4.333,4.667s-2.999,7.667-2.333,11.667
	s-2.334,20.666-2.334,23.333S340,516.66,340,516.66"/>
<polygon fill="#4C4C4C" points="168.5,288.41 176.25,285.16 177,299.41 169,302.16 "/>
<polygon fill="#4C4C4C" points="127.75,312.66 133,309.41 133.25,321.66 127.75,325.66 "/>
<polygon fill="#4C4C4C" points="106.688,333.66 109.125,330.41 109.313,342.91 107.063,345.41 "/>
</svg>
