<?xml version="1.0" encoding="utf-8"?>
<!-- Generator: Adobe Illustrator 16.0.0, SVG Export Plug-In . SVG Version: 6.00 Build 0)  -->
<!DOCTYPE svg PUBLIC "-//W3C//DTD SVG 1.1//EN" "http://www.w3.org/Graphics/SVG/1.1/DTD/svg11.dtd">
<svg version="1.1" id="Ebene_2" xmlns="http://www.w3.org/2000/svg" xmlns:xlink="http://www.w3.org/1999/xlink" x="0px" y="0px"
	 width="566.93px" height="708.66px" viewBox="0 0 566.93 708.66" enable-background="new 0 0 566.93 708.66" xml:space="preserve">
<polygon fill="#E8E0B8" points="167.402,505.963 168.333,479.661 175.667,479.328 176.402,460.463 185.902,459.964 185.902,440.463 
	184.402,437.963 185.902,433.463 183.902,432.463 217.402,427.463 303.402,433.963 285.402,421.463 302.402,421.963 
	348.402,425.463 349.402,436.963 420.402,442.463 420.902,479.463 437.902,480.963 438.902,483.463 454.902,483.963 
	454.902,505.463 215.902,510.463 "/>
<path fill="none" stroke="#C68193" stroke-miterlimit="10" d="M201.902,391.297"/>
<polyline fill="none" stroke="#AFAEA7" stroke-miterlimit="10" points="185.25,460.285 220.25,458.16 420.735,463.797 "/>
<polyline fill="none" stroke="#AFAEA7" stroke-miterlimit="10" points="185.069,437.464 219.902,433.797 420.736,445.964 "/>
<rect x="234.402" y="445.964" fill="#AFAEA7" width="4.167" height="9.333"/>
<rect x="224.236" y="445.464" fill="#AFAEA7" width="4.166" height="9.333"/>
<rect x="243.819" y="446.297" fill="#AFAEA7" width="4.166" height="9.333"/>
<rect x="253.402" y="446.797" fill="#AFAEA7" width="4.166" height="9.333"/>
<rect x="261.903" y="446.964" fill="#AFAEA7" width="4.166" height="9.333"/>
<rect x="271.653" y="447.63" fill="#AFAEA7" width="4.166" height="9.333"/>
<rect x="280.986" y="447.963" fill="#AFAEA7" width="4.166" height="9.333"/>
<rect x="288.819" y="448.298" fill="#AFAEA7" width="4.166" height="9.333"/>
<rect x="298.152" y="448.63" fill="#AFAEA7" width="4.166" height="9.333"/>
<rect x="307.486" y="448.963" fill="#AFAEA7" width="4.166" height="9.333"/>
<rect x="315.986" y="449.797" fill="#AFAEA7" width="4.166" height="8.833"/>
<rect x="324.653" y="450.048" fill="#AFAEA7" width="4.166" height="8.833"/>
<rect x="333.486" y="450.548" fill="#AFAEA7" width="4.166" height="8.833"/>
<rect x="342.319" y="450.548" fill="#AFAEA7" width="4.166" height="8.833"/>
<rect x="350.653" y="451.381" fill="#AFAEA7" width="4.166" height="8.833"/>
<rect x="359.153" y="451.715" fill="#AFAEA7" width="4.166" height="8.499"/>
<rect x="367.153" y="452.215" fill="#AFAEA7" width="4.166" height="8.499"/>
<rect x="375.32" y="452.548" fill="#AFAEA7" width="4.166" height="8.499"/>
<rect x="382.653" y="453.214" fill="#AFAEA7" width="4.166" height="7.999"/>
<rect x="390.653" y="453.465" fill="#AFAEA7" width="4.166" height="7.999"/>
<rect x="398.319" y="453.965" fill="#AFAEA7" width="4.166" height="7.999"/>
<rect x="405.986" y="453.965" fill="#AFAEA7" width="4.166" height="7.999"/>
<rect x="413.153" y="454.131" fill="#AFAEA7" width="4.166" height="7.999"/>
<rect x="214.069" y="446.131" fill="#AFAEA7" width="2.333" height="7.999"/>
<rect x="207.903" y="446.964" fill="#AFAEA7" width="2.333" height="7.999"/>
<rect x="201.736" y="447.797" fill="#AFAEA7" width="2.333" height="7.999"/>
<rect x="195.403" y="448.464" fill="#AFAEA7" width="2.333" height="7.999"/>
<rect x="189.569" y="449.297" fill="#AFAEA7" width="2.333" height="7.999"/>
<rect x="235.049" y="464.411" transform="matrix(1 -0.0073 0.0073 1 -3.4019 1.7353)" fill="#AFAEA7" width="4.167" height="9.333"/>
<rect x="224.879" y="463.985" transform="matrix(1 -0.0073 0.0073 1 -3.3995 1.6616)" fill="#AFAEA7" width="4.166" height="9.333"/>
<rect x="244.468" y="464.675" transform="matrix(1 -0.0073 0.0073 1 -3.404 1.804)" fill="#AFAEA7" width="4.166" height="9.333"/>
<rect x="254.054" y="465.105" transform="matrix(1 -0.0075 0.0075 1 -3.5165 1.9345)" fill="#AFAEA7" width="4.166" height="9.333"/>
<rect x="262.555" y="465.21" transform="matrix(1 -0.0073 0.0073 1 -3.4074 1.9354)" fill="#AFAEA7" width="4.166" height="9.333"/>
<rect x="272.31" y="465.806" transform="matrix(1 -0.0073 0.0073 1 -3.4115 2.0063)" fill="#AFAEA7" width="4.166" height="9.333"/>
<rect x="281.646" y="466.071" transform="matrix(1 -0.0073 0.0073 1 -3.4131 2.0742)" fill="#AFAEA7" width="4.166" height="9.333"/>
<rect x="289.481" y="466.349" transform="matrix(1 -0.0073 0.0073 1 -3.415 2.1311)" fill="#AFAEA7" width="4.166" height="9.333"/>
<rect x="298.816" y="466.614" transform="matrix(1 -0.0073 0.0073 1 -3.4167 2.1989)" fill="#AFAEA7" width="4.166" height="9.332"/>
<rect x="308.152" y="466.878" transform="matrix(1 -0.0073 0.0073 1 -3.4183 2.2668)" fill="#AFAEA7" width="4.166" height="9.333"/>
<rect x="316.656" y="467.651" transform="matrix(1 -0.0073 0.0073 1 -3.4219 2.3286)" fill="#AFAEA7" width="4.166" height="8.833"/>
<rect x="325.325" y="467.838" transform="matrix(1 -0.0073 0.0073 1 -3.423 2.3916)" fill="#AFAEA7" width="4.166" height="8.833"/>
<rect x="334.161" y="468.275" transform="matrix(1 -0.0073 0.0073 1 -3.426 2.4558)" fill="#AFAEA7" width="4.166" height="8.832"/>
<rect x="342.994" y="468.21" transform="matrix(1 -0.0073 0.0073 1 -3.4253 2.52)" fill="#AFAEA7" width="4.166" height="8.832"/>
<rect x="351.334" y="468.983" transform="matrix(1 -0.0073 0.0073 1 -3.4307 2.5806)" fill="#AFAEA7" width="4.166" height="8.832"/>
<rect x="359.835" y="469.254" transform="matrix(1 -0.0073 0.0073 1 -3.4312 2.6424)" fill="#AFAEA7" width="4.166" height="8.499"/>
<rect x="383.344" y="470.582" transform="matrix(1 -0.0073 0.0073 1 -3.4392 2.8139)" fill="#AFAEA7" width="4.165" height="7.999"/>
<rect x="391.345" y="470.776" transform="matrix(1 -0.0073 0.0073 1 -3.4396 2.8714)" fill="#AFAEA7" width="4.166" height="7.999"/>
<rect x="399.015" y="471.22" transform="matrix(1 -0.0073 0.0073 1 -3.4426 2.9272)" fill="#AFAEA7" width="4.166" height="7.999"/>
<rect x="406.682" y="471.164" transform="matrix(1 -0.0073 0.0073 1 -3.4428 2.9836)" fill="#AFAEA7" width="4.165" height="7.998"/>
<rect x="413.85" y="471.278" transform="matrix(1 -0.0073 0.0073 1 -3.4435 3.0356)" fill="#AFAEA7" width="4.165" height="7.999"/>
<path fill="#E5BF20" d="M310.736,399.13l-0.167-1c0.333-2-0.833-4-0.833-4s0.833-0.167,0.166-2
	c-0.267-0.732-0.719-1.111-1.166-1.312c-0.002-3.291-0.027-32.939-0.5-34.355c-0.5-1.5-0.834,0.167-0.834,0.167l0.163,33.984
	c-0.094,0.007-0.163,0.016-0.163,0.016c-1,0-1.166,4.667-1.166,4.667c-1.333,0.167-0.834,3.833-0.834,3.833
	c-6.834,2.667-6.666,9.5-6.666,9.5l18.833-0.667C317.569,403.129,310.736,399.13,310.736,399.13z"/>
<path fill="#66B291" d="M186,432.66l38.5-15l54.5,0.5c0,0,5.569-10.197,16.569-11.03h3.167c0,0,24,0,24.5,0s7,2.667,9.5,4.667
	s8.5,10.5,16.333,12.333L388,428.66l32.402,13.803l-71-5.5l-1-11.5l-63-4l18,12.5L220,428.66L186,432.66z"/>
<rect x="215.069" y="465.297" fill="#AFAEA7" width="2.333" height="7.999"/>
<rect x="208.902" y="466.13" fill="#AFAEA7" width="2.334" height="7.999"/>
<rect x="202.736" y="466.963" fill="#AFAEA7" width="2.333" height="7.999"/>
<rect x="196.403" y="467.63" fill="#AFAEA7" width="2.333" height="7.999"/>
<rect x="190.569" y="468.463" fill="#AFAEA7" width="2.333" height="7.999"/>
<rect x="182.736" y="468.963" fill="#AFAEA7" width="2.333" height="7.999"/>
<rect x="177.569" y="468.713" fill="#AFAEA7" width="2.333" height="7.999"/>
<rect x="231.868" y="486.15" transform="matrix(0.9995 -0.0327 0.0327 0.9995 -15.9681 7.9229)" fill="#AFAEA7" width="4.327" height="11.152"/>
<rect x="221.298" y="485.899" transform="matrix(0.9995 -0.0327 0.0327 0.9995 -15.9692 7.5786)" fill="#AFAEA7" width="4.326" height="11.153"/>
<rect x="241.654" y="486.227" transform="matrix(0.9995 -0.033 0.033 0.9995 -16.0781 8.3038)" fill="#AFAEA7" width="4.326" height="11.152"/>
<rect x="251.619" y="486.496" transform="matrix(0.9994 -0.0332 0.0332 0.9994 -16.1906 8.6933)" fill="#AFAEA7" width="4.326" height="11.153"/>
<rect x="260.448" y="486.406" transform="matrix(0.9995 -0.0327 0.0327 0.9995 -15.9648 8.8605)" fill="#AFAEA7" width="4.326" height="11.152"/>
<rect x="270.592" y="486.871" transform="matrix(0.9995 -0.0327 0.0327 0.9995 -15.9728 9.1918)" fill="#AFAEA7" width="4.326" height="11.152"/>
<rect x="280.291" y="486.949" transform="matrix(0.9995 -0.033 0.033 0.9995 -16.0809 9.5777)" fill="#AFAEA7" width="4.326" height="11.152"/>
<rect x="288.433" y="487.082" transform="matrix(0.9995 -0.033 0.033 0.9995 -16.0773 9.8439)" fill="#AFAEA7" width="4.327" height="11.152"/>
<rect x="298.133" y="487.162" transform="matrix(0.9994 -0.0332 0.0332 0.9994 -16.1835 10.235)" fill="#AFAEA7" width="4.327" height="11.151"/>
<rect x="307.832" y="487.24" transform="matrix(0.9995 -0.033 0.033 0.9995 -16.0719 10.4833)" fill="#AFAEA7" width="4.327" height="11.152"/>
<rect x="316.676" y="487.946" transform="matrix(0.9995 -0.033 0.033 0.9995 -16.0806 10.7749)" fill="#AFAEA7" width="4.327" height="10.555"/>
<rect x="325.681" y="487.952" transform="matrix(0.9995 -0.033 0.033 0.9995 -16.0759 11.0717)" fill="#AFAEA7" width="4.327" height="10.554"/>
<rect x="334.867" y="488.248" transform="matrix(0.9995 -0.0327 0.0327 0.9995 -15.9719 11.2949)" fill="#AFAEA7" width="4.327" height="10.555"/>
<rect x="344.034" y="487.946" transform="matrix(0.9995 -0.033 0.033 0.9995 -16.0693 11.6792)" fill="#AFAEA7" width="4.326" height="10.554"/>
<rect x="352.716" y="488.659" transform="matrix(0.9995 -0.0327 0.0327 0.9995 -15.9757 11.8793)" fill="#AFAEA7" width="4.327" height="10.554"/>
<rect x="392.543" y="489.783" transform="matrix(0.9995 -0.0327 0.0327 0.9995 -15.9749 13.1831)" fill="#AFAEA7" width="4.327" height="9.559"/>
<rect x="400.489" y="489.934" transform="matrix(0.9995 -0.033 0.033 0.9995 -16.0841 13.5377)" fill="#AFAEA7" width="4.327" height="9.559"/>
<rect x="407.725" y="489.608" transform="matrix(0.9995 -0.033 0.033 0.9995 -16.073 13.7792)" fill="#AFAEA7" width="4.326" height="9.558"/>
<rect x="416.171" y="489.561" transform="matrix(0.9995 -0.0328 0.0328 0.9995 -15.9656 13.9659)" fill="#AFAEA7" width="4.324" height="9.559"/>
<rect x="423.74" y="489.933" transform="matrix(0.9995 -0.0327 0.0327 0.9995 -15.9702 14.2108)" fill="#AFAEA7" width="4.325" height="9.559"/>
<rect x="430.921" y="490.311" transform="matrix(0.9995 -0.0328 0.0328 0.9995 -15.9823 14.4494)" fill="#AFAEA7" width="4.324" height="9.559"/>
<rect x="439.421" y="489.561" transform="matrix(0.9995 -0.0328 0.0328 0.9995 -15.9532 14.7274)" fill="#AFAEA7" width="4.324" height="9.559"/>
<rect x="447.171" y="489.561" transform="matrix(0.9995 -0.0328 0.0328 0.9995 -15.949 14.9812)" fill="#AFAEA7" width="4.324" height="9.559"/>
<rect x="206.069" y="485.547" fill="#AFAEA7" width="2.333" height="10.913"/>
<rect x="199.902" y="486.684" fill="#AFAEA7" width="2.334" height="10.913"/>
<rect x="193.736" y="487.819" fill="#AFAEA7" width="2.332" height="10.914"/>
<rect x="187.403" y="488.729" fill="#AFAEA7" width="2.333" height="10.913"/>
<rect x="181.569" y="489.866" fill="#AFAEA7" width="2.333" height="10.913"/>
<rect x="173.736" y="490.549" fill="#AFAEA7" width="2.333" height="10.913"/>
<rect x="369.936" y="443.394" transform="matrix(1 -0.0073 0.0073 1 -3.243 2.7151)" fill="#AFAEA7" width="4.166" height="8.499"/>
<rect x="378.105" y="443.667" transform="matrix(1 -0.0073 0.0073 1 -3.2455 2.7751)" fill="#AFAEA7" width="4.165" height="8.499"/>
<path fill="#C68193" d="M126.5,553.66c0,0-50,6-66,0.5l-40,3l1-57l39.5-0.5l1-59c0,0-2-13-4-16.5v-15c0,0,3.5-3,9-2
	c0,0,0.5-14.334,0.333-14.834S66.5,390.66,66.5,390.66s-1.167-2,1.833-2s3,0,3,0l0.333-15.333c0,0-0.167-1.667-1.333-2s0.5-2,0.5-2
	s0.667-0.667,0.667-2s-0.833-3.833,2-6s-2-24,1.833-27.833s1.333-0.667,2.833-1.5s1.5-2.833,1.833-5.667s0.333-10.167,1-10.667
	s1.167-1,1.167-1.667s0.333-8.333,0-9S81,303.16,81,303.16s0-1.333,0.667-0.833s0.5-11.833,0.5-11.833s-1-2.167-1.333-2.667
	s0.666-0.667,1.333-0.667s1.334-3.5,1.167-4.667s-0.333-3,0.5-3.667s5.833-39.5,6-40.333c0.161-0.803,7.9,32.579,9.063,39.496
	c0.044,0.263,0.079,0.487,0.104,0.67c0,0,2.167,1,1.5,3c0,0-0.333,5.833,1.5,5.5s2,2,0.333,2.833l-0.833,12.333c0,0,2,1,0.167,2.5
	L102,313.66c0,0,2,2.333,2.833,2.833c0,0,0.333,7.167,0.333,8.667s1,6.167,3,6.667s3.667,3.5,2.333,8.167
	c0,0,0.833,20.167,1.833,21.833c0,0,3.333,2.999,2.667,4.833s-0.5,2.834,0.333,3.667s1.833,2.833,0.667,2.833
	s-1.333,0.5-1.333,1.167s0.167,13.5,0.167,13.5s7.667,0.667,5.833,3.167c0,0-0.833,0.666-0.5,2.833s0.5,12.333,0.5,12.333
	s8,1.001,8.667,2.334s-0.167,13.833-0.167,13.833s-4.5,7-2.5,18l0.667,65.833l229.167-5l-0.333-5.834l4-0.666c0,0-0.333-3.5-0.5-4
	s-3-4.001-1-5.834l2.667-1.166l5.5-20.167c0,0-2.333-0.667-0.5-2.167l-0.167-11.833L365,448.66l1.667-0.5l9.5-19.5l9.833,19
	l1.833,0.333v1.167l-1,0.167l1.334,12c0,0,0.834,0.5,0.5,1.5s6.166,20.833,6.166,20.833s4-0.334,1,3.833l-0.333,6.834l6,0.166l0.5,4
	l136.834-0.333v25.833l-137.833,7.833l0.167,3l-17,1.167l-6.334-0.5l-250,21.5l-0.333-4.5L126.5,553.66z"/>
<path fill="#5B3E46" d="M363.375,494.723l0.056-3.938c0,0,0.225-1.813,1.289-1.75s1.121,0.313,1.289,1.313s0,4.313,0,4.313
	L363.375,494.723z"/>
<path fill="#5B3E46" d="M370.313,494.598l0.056-3.938c0,0,0.225-1.813,1.289-1.75s1.121,0.313,1.289,1.313s0,4.313,0,4.313
	L370.313,494.598z"/>
<path fill="#5B3E46" d="M376.375,494.66l0.067-3.938c0,0,0.271-1.813,1.557-1.75s1.354,0.313,1.557,1.313s0,4.313,0,4.313
	L376.375,494.66z"/>
<path fill="#5B3E46" d="M384.625,494.66l0.042-3.938c0,0,0.167-1.813,0.961-1.75c0.795,0.063,0.837,0.313,0.962,1.313
	c0.126,1,0,4.313,0,4.313L384.625,494.66z"/>
<path fill="#5B3E46" d="M388.5,494.66l0.039-3.938c0,0,0.157-1.813,0.902-1.75s0.785,0.313,0.902,1.313s0,4.313,0,4.313
	L388.5,494.66z"/>
<path fill="#5B3E46" d="M392.25,494.66l0.039-3.938c0,0,0.157-1.813,0.902-1.75s0.785,0.313,0.902,1.313s0,4.313,0,4.313
	L392.25,494.66z"/>
<polyline fill="none" stroke="#5B3E46" stroke-miterlimit="10" points="356.751,495.577 383.251,495.493 401.167,494.993 "/>
<polyline fill="none" stroke="#A3526F" stroke-width="0.5" stroke-miterlimit="10" points="356.5,501.16 375,501.493 
	377.333,535.16 "/>
<polyline fill="none" stroke="#A3526F" stroke-width="0.5" stroke-miterlimit="10" points="402,498.493 400,501.493 
	401.001,531.826 "/>
<polygon fill="#559377" points="366.834,463.493 380,463.035 382.25,483.91 360.125,484.535 "/>
<polygon fill="#66B291" points="380,463.035 388.667,462.827 394.25,483.785 381.5,483.785 "/>
<polygon fill="#559377" points="366.001,448.494 379.667,447.994 376.167,428.66 "/>
<polygon fill="#66B291" points="376.167,428.66 379.667,447.994 386,447.66 "/>
<path fill="#5B3E46" d="M374.501,460.411c0,0,0-7.667,0.3-7.667s0.899-1.166,2.1-0.916c1.201,0.25,1.051,0.083,1.275,1.083
	c0.226,1-0.074,7.5-0.074,7.5H374.501z"/>
<path fill="#5B3E46" d="M368.917,460.328c0,0,0-7.147,0.253-7.147c0.254,0,0.761-1.087,1.774-0.854
	c1.015,0.232,0.888,0.077,1.077,1.009c0.191,0.933-0.063,6.992-0.063,6.992H368.917z"/>
<path fill="#5B3E46" d="M381.833,459.745c0,0,0-5.881,0.16-5.881s0.48-0.894,1.122-0.702s0.562,0.063,0.682,0.83
	c0.121,0.767-0.04,5.753-0.04,5.753H381.833z"/>
<path fill="#5B3E46" d="M384.75,459.078c0,0,0-5.881,0.12-5.881s0.361-0.894,0.843-0.702c0.482,0.191,0.422,0.063,0.513,0.83
	s-0.03,5.753-0.03,5.753H384.75z"/>
<polyline fill="none" stroke="#A3526F" stroke-width="0.5" stroke-miterlimit="10" points="384.168,535.993 383.251,495.493 
	382.25,483.91 "/>
<path fill="none" stroke="#F4DA9A" stroke-miterlimit="10" d="M61.25,486.16c0,0,46.75-2.5,65.5-1.5"/>
<path fill="none" stroke="#F4DA9A" stroke-miterlimit="10" d="M61.661,438.136c0,0,46.349-1.492,64.809,0.772"/>
<path fill="#5B3E46" d="M86.881,454.964l4.249-0.092c0,0,2.463-13.307-1.759-11.965C89.371,442.907,86.351,441.973,86.881,454.964z"
	/>
<path fill="#5B3E46" d="M111.879,454.964l3.633-0.078c0,0,2.065-13.299-1.542-11.97
	C113.971,442.916,111.385,441.972,111.879,454.964z"/>
<path fill="#5B3E46" d="M65.621,455.198l3.018-0.065c0,0,1.685-12.461-1.309-11.225C67.331,443.908,65.181,443.018,65.621,455.198z"
	/>
<path fill="none" stroke="#F4DA9A" stroke-miterlimit="10" d="M67.417,392.362c0,0,38.153-2.952,52.879,1.368"/>
<path fill="#5B3E46" d="M87.631,412.214l4.249-0.092c0,0,2.344-18.822-1.867-16.96C90.013,395.162,86.984,393.812,87.631,412.214z"
	/>
<path fill="#5B3E46" d="M107.129,413.214l3.633-0.078c0,0,1.946-18.814-1.649-16.965
	C109.113,396.171,106.518,394.811,107.129,413.214z"/>
<path fill="#5B3E46" d="M70.127,412.464l3.22-0.069c0,0,1.702-17.721-1.482-15.982C71.865,396.412,69.564,395.127,70.127,412.464z"
	/>
<path fill="#5B3E46" d="M88.877,385.714l3.225-0.069c0,0,1.889-9.221-1.318-8.284C90.784,377.36,88.494,376.717,88.877,385.714z"/>
<path fill="#5B3E46" d="M103.838,385.465l2.45-0.053c0,0,1.405-8.34-1.027-7.502C105.261,377.91,103.519,377.319,103.838,385.465z"
	/>
<path fill="#5B3E46" d="M74.362,385.464l2.414-0.052c0,0,1.383-8.333-1.015-7.497C75.762,377.915,74.044,377.325,74.362,385.464z"/>
<path fill="none" stroke="#9B6475" stroke-miterlimit="10" d="M123.667,436.577c0,0,1-13.916,0.167-14.25s-2.333,5.5-3.5,13.5
	h-1.417c0,0,1.916-13.167,0.583-13.667s-2.667,2.583-3.833,13.583l-2.167-0.083c0,0,2.667-17.499-0.833-14.333
	c0,0-1.834,0.332-2.667,13.166l-0.083,0.834h-2.25c0,0,1.167-16.333-1.5-14c0,0-2.5-1.5-2.5,13.333l0.167,1.083l-3.5-0.083
	c0,0,1.75-15-0.667-14.5c0,0-2.25-1.583-3.083,0.917l0.083,13.583l-3.167,0.167c0,0,1.5-15.084-1.833-14.834c0,0-1.833-0.5-2,1.167
	l-0.5,13.333l-2.833,0.334c0,0,0.917-15.084-2.167-14.5c0,0-1.834-0.334-2.167,1.833l0.25,12.833H79.5c0,0,0.417-14.166-2-14.166
	c0,0-2.083-0.666-2.417,2l0.417,12.25l-2.333-0.084c0,0-0.333-15.167-3-13.5c0,0-2,0.5-0.833,8l0.5,5.167l-3.083-0.333
	c0,0-0.167-10.584-1.75-12c-1.834-1.641-2.333,3.166-1.833,6.333S64,435.993,64,435.993"/>
<path fill="#66B291" d="M82.125,360.535c0,0,0.125,5.5,1.75,5.5c0,0,1.25,1.5,2.25-4c0,0,1.375-2.125,1.875,0.25
	c0,0-0.5,4.375,1.375,4c0,0,1.875,0.25,2.375-4c0,0,0.875-2.5,2,0.25c0,0,0.25,3,1.125,3.125c0,0,1.875,0.5,2.125-3.125
	c0,0,2.5-1.875,3.625,0.25c0,0-0.125,2.75,0.875,3.125c0,0,1.75-0.125,1.5-1.75s1.125-2,1.625-1s0.5,3.5,1.625,3.125
	s1-1.375,1-2.125s2-1.75,2.25-0.5s0,3.625,1,3.375s1.375-0.875,1.25-1.875s1.125-1.375,1.375-0.375s-0.375,2.125,0.25,2.625
	s1.125,0.375,1.125,0.375s1-3-1.75-5.25l-2.25-22.542l-2.375,0.917l-1.625-0.25l-0.5,10.25c0,0-1.25-0.5-2.25-0.25
	s-2.5,1.375-2.75,0.75s-1.25-10.625-1.5-11.25s-2.125-2.75-2.125-2.75l-2.875-0.125l-0.375,12.625c0,0-1.375,1.75-2.25,0.875
	s-3.125-0.75-3.25-0.375s-2.375,2.125-2.375-1s0.125-10,0.125-10s-0.875-1-1.125-2s-1.75-1.25-1.75-1.25s-1.25,1.375-1.125,2.75
	s-0.75,8.5-0.75,9.5s1,2.75-0.125,3s-2.125,0.5-2.375,0s-0.875-0.875-1.625-0.25s-2,1.375-2,0.75s-0.25-11.125-0.25-11.125
	L74,336.66c0,0,0.125,22.5,0.25,22.875s-3.5,4.25-2.875,6.625c0,0,0.75,0.75,1.375,0.875s0.875-0.875,1.125-1.625
	s0.25-3.625,0.625-2.875s-0.125,3.25,0.625,3.5s1.75-0.5,1.875-2.75s0.75-2,0.75-1.125s0.125,3.375,0.75,3.375
	s1.75-1.75,1.875-3.625S81.875,360.16,82.125,360.535z"/>
<path fill="#66B291" d="M85.125,338.035c0,0,3.5-5.25,4.75-5.5c0,0,4.625,3.5,5.625,5.25l2.625,0.375c0,0,3.625-3.875,4.75-4.375
	c0,0,4.875,5.625,5,6.375s-0.75,0.5-0.75,0.5l3.25-0.25c0,0,1.708-8.291-2.208-8.583c0,0-2.958-3.417-3-6.667
	s-0.333-8.667-0.333-8.667s-2.833-2.208-3.083-3.583c0,0-13.875-6.375-19.5,0.125l-0.375,2L81,315.66l-1,10.667l-0.875,5.083
	l-1.375,0.75L77,331.785l-2.125,2.875L74,337.535l3.75-4.125l5.125,3.875L85.125,338.035z"/>
<polyline fill="#5B3E46" points="87.875,339.16 87.625,349.035 92.25,349.16 91.875,338.91 90.375,336.285 87.75,338.91 "/>
<polyline fill="#5B3E46" points="101.912,340.493 101.75,349.792 104.75,349.91 104.507,340.257 103.534,337.785 101.831,340.257 
	"/>
<polyline fill="#5B3E46" points="77.602,340.45 77.5,349.175 79.375,349.285 79.223,340.229 78.615,337.91 77.551,340.229 "/>
<path fill="#66B291" d="M83.5,280.16l3.375,6.25l3.375-6.5l3.75,6.625l3.125-6.375l2.625,7l1.25-0.25c0,0-0.5-5.75-0.125-6.25
	s-1.162-0.492-1.5-2.125c-2.25-10.875-9.542-40.042-9.542-40.042L83.5,280.16z"/>
<polyline fill="none" stroke="#AFAEA7" stroke-miterlimit="10" points="175.069,479.797 222.167,477.161 438.417,482.91 "/>
<rect x="308.653" y="426.963" fill="#AFAEA7" width="4.166" height="7.541"/>
<rect x="317.153" y="427.637" fill="#AFAEA7" width="4.166" height="7.138"/>
<rect x="325.82" y="427.84" fill="#AFAEA7" width="4.166" height="7.137"/>
<rect x="334.653" y="428.243" fill="#AFAEA7" width="4.166" height="7.138"/>
</svg>
