<?xml version="1.0" encoding="utf-8"?>
<!-- Generator: Adobe Illustrator 16.0.0, SVG Export Plug-In . SVG Version: 6.00 Build 0)  -->
<!DOCTYPE svg PUBLIC "-//W3C//DTD SVG 1.1//EN" "http://www.w3.org/Graphics/SVG/1.1/DTD/svg11.dtd">
<svg version="1.1" id="Ebene_2" xmlns="http://www.w3.org/2000/svg" xmlns:xlink="http://www.w3.org/1999/xlink" x="0px" y="0px"
	 width="566.93px" height="708.66px" viewBox="0 0 566.93 708.66" enable-background="new 0 0 566.93 708.66" xml:space="preserve">
<g>
	<g>
		<path fill="#B7A558" stroke="#844F42" stroke-miterlimit="10" d="M216.594,525.278c0,0,173.035,4.088,178.937,1.815
			c0,0,83.791,6.069,88.118-1.47l3.116-4.813c0,0,5.948,1.639,9.807-4.454c2.179-3.438,1.724-6.087,1.724-6.087
			s5.026,2.465,8.688,0.271c4.223-2.53,8.988-7.752,8.23-9.72c-0.758-1.967-4.214-19.16-4.214-19.16s3-17-140.552-6.807
			l-1.606-5.933l-7.931,1.697c0,0-11.779-9.471-13.869-11.377c-2.089-1.907-5.662-7.082-5.662-7.082s0.3-8.021-4.393-8.475
			s-3.513-3.844-3.513-3.844l-8.419-8.957l-2.999-7.204l-2.15-3.238c0,0-0.001-3.672-1.25-3.614s-2.885-2.871-3.68-3.836
			s-2.591-7.389-7.903-8.647c-5.313-1.258-4.883-2.779-4.69-4.039c0.193-1.261-1.816-1.419-3.35-2.1
			c-1.532-0.681-9.278-11.337-9.631-13.573s1.167-7.312,1.928-7.096s8.127-2.875,9.068-4.169c0.942-1.295,3.848-3.43,3.197-12.159
			c0,0-0.114-2.497-1.979-10.421c0,0-4.021-5.821-2.364-7.899c1.657-2.078,1.065-4.054-0.978-4.961
			c-2.044-0.907,1.111-3.054-3.181-3.858c0,0-1.124-2.701-4.235-5.062s-3.306-6.605-11.763-5.468
			c-8.457,1.139-17.777-0.187-20.206,1.426c-2.429,1.613-11.793,4.795-11.793,4.795s-6.957,6.575-8.102,8.88
			c-1.146,2.305-12.695,23.355-14.224,33.687c0,0-0.385,2.52,2.08,7.162c2.465,4.642,6.796,22.713-6.733,27.837
			c-13.53,5.125-14.757,0.176-33.564,10.297c0,0-48.413,8.474-57.051,11.122c-8.638,2.647-37.415,2.714-41.876,3.669
			s-3.325,3.906-3.325,3.906s-4.631,2.715-6.617,3.057c-1.986,0.341-2.234,5.858-1.655,7.583c0.58,1.726-0.396,2.271-3.632,2.669
			c-3.235,0.398-3.393,2.408-3.563,4.168c-0.169,1.76-5.176,1.738-6.764,5.314c-1.588,3.577-1.541,10.081-3.367,13.919
			c-1.827,3.838-8.915,23.933-13.238,27.885s-8.842,3.658-7.761,10.866c0,0-3.041,4.645,14.656,3.083c0,0,38.414-2.761,47.814,0.313
			c0,0,6.834,1.689,11.545,0.723c4.711-0.967,20.137-2.925,20.887-2.959c0.749-0.034,18.095,1.674,18.629,2.4
			c0.534,0.727,0.116,8.003,0.116,8.003l38.12,1.758l26.528-5.469C216.002,519.632,216.286,522.207,216.594,525.278z"/>
		<path opacity="0.8" fill="#897E52" d="M289.05,382.396c0,0-3.618,8.425,3.115,13.371c0,0,2.896,3.121,2.499,5.392
			s0.705,4.473-1.02,5.052c-1.726,0.58-11.49-4.979-13.296-6.147c-1.805-1.169-5.02-5.776-6.778-5.946
			c-1.76-0.17-3.476-4.847-4.271-5.811c-0.795-0.965-4.339-7.31-6.133-8.229c-1.793-0.919-4.951-4.277-5.496-5.254
			c-0.545-0.976-1.386-2.939-1.727-4.926s-1.834-18.186-1.834-18.186s-1.514-11.192,1.823-14.849l-1.521-0.431l5.456-12.013
			c0,0,14.258-0.152,15.246-0.448c0.987-0.295,6.97-0.819,8.229-0.627c1.261,0.192,5.121,2.519,7.518,5.662s3.304,1.1,4.235,5.062
			c0,0,2.021,0.408,3.181,3.858c0,0,4.053,1.065,0.978,4.961c0,0-1.157,2.055,0.989,5.21s3.74,16.096,3.74,16.096
			s1.718,10.182-12.652,13.343L289.05,382.396z"/>
		<path fill="none" stroke="#844F42" stroke-miterlimit="10" d="M216.002,519.632c0,0,7.454-19.361,7.179-25.355
			s2.298-8.113,9.654-7.783c7.356,0.331,53.461,1.556,56.79,1.403c3.33-0.152,4.961-8.236,26.425-5.882
			c21.465,2.354,40.778,1.47,49.436,1.073c8.656-0.396,99.321-2.548,102.015-2.004c2.693,0.545,12.74-0.687,22.583,10.209
			c9.843,10.895,8.196,18.645,8.196,18.645"/>
		<path fill="none" stroke="#844F42" stroke-miterlimit="10" d="M45.467,500.914c0,0,13.453,13.232,30.413-9.9
			c0,0,6.367-13.973,15.968-1.065c0,0-0.56,2.362-9.187,3.424c0,0-4.479,4.209-3.312,7.826c0,0,2.725,1.211,0.833,3.633
			c-1.891,2.422-3.57,2.166-3.07,5.813c0.5,3.646,0.5,3.646,0.5,3.646"/>
		<path fill="none" stroke="#844F42" stroke-miterlimit="10" d="M91.848,489.948c0,0,30.393,0.609,34.224,4.104
			c3.831,3.496,6.662,7.036,6.8,10.033c0.137,2.996-0.262,8.854-0.262,8.854"/>
		<path fill="none" stroke="#844F42" stroke-miterlimit="10" d="M132.067,501.12l-21.25,2.308c0,0-20.177-3.414-31.816-2.547"/>
		<path fill="none" stroke="#844F42" stroke-miterlimit="10" d="M317.646,416.623c0,0-59.927-2.511-72.174,3.306"/>
		<path fill="none" stroke="#844F42" stroke-miterlimit="10" d="M263.085,340.039c0,0-2.806-6.629-7.595-1.904
			c0,0-3.994,5.688-0.688,12.294c0,0,2.603,7.64,10.514,5.525c0,0,2.724-0.626,0.236-5.768c0,0-0.603-2.225-1.908-3.416"/>
		<path fill="none" stroke="#844F42" stroke-miterlimit="10" d="M254.801,350.429c-1.443-4.188,1.245-11.068,1.245-11.068
			c3.109-3.146,5.29,0.759,5.29,0.759"/>
		<path fill="none" stroke="#844F42" stroke-miterlimit="10" d="M261.52,344.115c0,0-2.793-0.873-2.735,0.375
			c0.057,1.249,0.057,1.249,0.875,2.713c0.818,1.465,2.554,1.135,2.873,2.622c0.318,1.486,0.17-1.76-0.625-2.725
			S261.52,344.115,261.52,344.115z"/>
		<path fill="#844F42" d="M277.961,342.445c0,0,6.521-6.974,11.041,0.661C289.002,343.106,283.457,345.863,277.961,342.445z"/>
		<path fill="#844F42" d="M291.9,362.661c0,0,7.584,5.326,10.551,4.522C305.417,366.38,304.925,362.898,291.9,362.661z"/>
		<path fill="#844F42" d="M291.9,362.661c0,0,11.819-4.212,11.695-1.453s-1.434,3.319-3.272,3.237
			C298.484,364.362,291.9,362.661,291.9,362.661z"/>
		<path fill="none" stroke="#844F42" stroke-miterlimit="10" d="M319.906,420.441c0,0-58.463-1.494-72.765,3.165"/>
		<path fill="none" stroke="#844F42" stroke-miterlimit="10" d="M217.125,516.827l-0.515-11.238c0,0,0.849-8.798-5.418-9.012
			l-0.48-10.489l-24.225,1.11l-23.952,1.597c0,0-3.758-0.078-3.495,5.666s0.07,7.004,0.07,7.004s-8.752,0.151-7.873,13.875"/>
		<path fill="none" stroke="#844F42" stroke-miterlimit="10" d="M159.111,501.465c0,0,27.342-1.502,28.459-1.554
			c0.25-0.011,23.123-3.311,23.622-3.334"/>
		<path fill="none" stroke="#844F42" stroke-miterlimit="10" d="M189.475,525.101c0,0,0.65-24.055-1.904-25.189"/>
		<path fill="none" stroke="#844F42" stroke-miterlimit="10" d="M181.653,425.354c0,0-45.031,5.816-48.344,9.972
			c0,0-33.637-2.213-49.233,1.504"/>
		<path fill="none" stroke="#844F42" stroke-miterlimit="10" d="M322.269,424.67c0,0-68.941-2.599-74.921,3.432"/>
		<path fill="none" stroke="#844F42" stroke-miterlimit="10" d="M182.587,434.821l0.729,4.972c0,0,42.897-3.216,45.679-2.593
			c2.781,0.624,12.961-6.6,18.536-5.103l-0.797-6.471c-0.343-7.492-5.792-6.241-5.792-6.241s-27.948,1.78-30.945,1.917
			c-2.997,0.138-0.48-10.488-0.48-10.488"/>
		<path fill="none" stroke="#844F42" stroke-miterlimit="10" d="M486.766,520.811c0,0-4.463-17.314-7.945-20.492"/>
		<path fill="none" stroke="#844F42" stroke-miterlimit="10" d="M488.36,497.38c3.513,3.843,6.287,9.722,6.287,9.722
			s2.209,4.57,1.789,9.929"/>
		<path fill="none" stroke="#844F42" stroke-miterlimit="10" d="M506.983,510.54c0,0-1.459-17.286-4.428-23.823"/>
		<path fill="#706859" d="M298.596,344.92c-0.999,0.046-3.123-2.61-3.52-0.34s-2.452,1.113-1.055,4.303s1.137,2.951,2.738,5.13
			c1.601,2.18,2.089,1.907,2.838,1.872c0.75-0.034,1.714-0.829,1.714-0.829l0.432-1.521l-1.501-5.437L298.596,344.92z"/>
		<line fill="none" stroke="#844F42" stroke-miterlimit="10" x1="256.825" y1="375.487" x2="243.25" y2="365.974"/>
		<line fill="none" stroke="#844F42" stroke-miterlimit="10" x1="258.783" y1="374.522" x2="243.897" y2="363.691"/>
		<line fill="none" stroke="#844F42" stroke-miterlimit="10" x1="244.566" y1="361.909" x2="260.077" y2="372.711"/>
		<line fill="none" stroke="#844F42" stroke-miterlimit="10" x1="244.849" y1="359.895" x2="259.957" y2="370.089"/>
		<line fill="none" stroke="#844F42" stroke-miterlimit="10" x1="260.222" y1="367.699" x2="245.417" y2="357.954"/>
		<line fill="none" stroke="#844F42" stroke-miterlimit="10" x1="245.982" y1="356.136" x2="260.227" y2="365.071"/>
		<line fill="none" stroke="#844F42" stroke-miterlimit="10" x1="247.243" y1="354.779" x2="259.869" y2="362.71"/>
		<line fill="none" stroke="#844F42" stroke-miterlimit="10" x1="247.327" y1="352.695" x2="260.152" y2="360.695"/>
		<line fill="none" stroke="#844F42" stroke-miterlimit="10" x1="248.586" y1="351.339" x2="259.924" y2="358.453"/>
		<path fill="none" stroke="#844F42" stroke-miterlimit="10" d="M249.273,349.932l10.298,6.285c0,0,0.856,13.225,0.482,15.995
			c-0.374,2.77-4.313,4.201-4.313,4.201s-11.728-4.718-12.91-8.668c-1.182-3.95,17.082-42.326,17.082-42.326"/>
		<line fill="none" stroke="#844F42" stroke-miterlimit="10" x1="249.948" y1="348.273" x2="255.103" y2="351.541"/>
		<line fill="none" stroke="#844F42" stroke-miterlimit="10" x1="250.628" y1="346.741" x2="254.364" y2="349.072"/>
		<line fill="none" stroke="#844F42" stroke-miterlimit="10" x1="251.071" y1="345.47" x2="253.5" y2="346.609"/>
	</g>
	<path opacity="0.8" fill="#897E52" d="M224.772,372.326l18.059-4.581c0,0,3.205,31.721-3.105,36.014s-16.391,2.753-16.391,2.753
		s10.485-11.492,5.532-21.275C223.914,375.452,224.772,372.326,224.772,372.326z"/>
</g>
<polygon fill="#844F42" points="300.25,339.476 295,341.651 299.748,343.654 "/>
</svg>
