<?xml version="1.0" encoding="utf-8"?>
<!-- Generator: Adobe Illustrator 16.0.0, SVG Export Plug-In . SVG Version: 6.00 Build 0)  -->
<!DOCTYPE svg PUBLIC "-//W3C//DTD SVG 1.1//EN" "http://www.w3.org/Graphics/SVG/1.1/DTD/svg11.dtd">
<svg version="1.1" id="Ebene_2" xmlns="http://www.w3.org/2000/svg" xmlns:xlink="http://www.w3.org/1999/xlink" x="0px" y="0px"
	 width="566.93px" height="708.66px" viewBox="0 0 566.93 708.66" enable-background="new 0 0 566.93 708.66" xml:space="preserve">
<path fill-rule="evenodd" clip-rule="evenodd" fill="#D3D1D1" stroke="#000000" stroke-miterlimit="10" d="M191.251,359.91
	c0,0,26,65.75,31.5,139h12.75c0,0,67.25-56.5,70-57.5C305.501,441.41,276.251,368.66,191.251,359.91z"/>
<path fill-rule="evenodd" clip-rule="evenodd" fill="#D3D1D1" stroke="#000000" stroke-miterlimit="10" d="M149.501,397.16
	c0,0,40.167,2.582,58.167,14.582c0,0,11.333,40.168,15.083,87.168l-8.75-0.25l-4.75-14.75l-32.25-4.5l-6.25,11.75l-7.75-1.25
	C163.001,489.91,151.251,400.91,149.501,397.16z"/>
<path fill-rule="evenodd" clip-rule="evenodd" fill="#D3D1D1" stroke="#000000" stroke-miterlimit="10" d="M93.251,423.91
	c0,0,42.25-5.25,61.25,4l8.5,62l-8.75-1.25l-5.25-12.5l-24.75-5l-4,8.5h-6C114.251,479.66,102.501,441.16,93.251,423.91z"/>
<path fill-rule="evenodd" clip-rule="evenodd" fill="#D3D1D1" stroke="#000000" stroke-miterlimit="10" d="M259.751,478.41l35,10
	c0,0,8-47.25,10.5-47L259.751,478.41z"/>
<path fill-rule="evenodd" clip-rule="evenodd" fill="#D3D1D1" stroke="#000000" stroke-miterlimit="10" d="M305.085,441.41
	c-1.5,1.416-6.251,20.916-10.084,47c0.667,0.332,24.25-7,46.5-6.75l10.75,14.75l7.75-0.25
	C360.001,496.16,307.085,440.242,305.085,441.41z"/>
<path fill-rule="evenodd" clip-rule="evenodd" fill="#D3D1D1" stroke="#000000" stroke-miterlimit="10" d="M305.501,441.41
	c0,0,43.75-33.25,99.5-20.25c0,0-35.75,60.25-39,72.75l-0.75,2l-5.5,0.25C359.751,496.16,309.751,442.66,305.501,441.41z"/>
<path fill-rule="evenodd" clip-rule="evenodd" fill="#D3D1D1" stroke="#000000" stroke-miterlimit="10" d="M418.751,463.41
	c0,0,46.5-21,83.25-15c0,0-57.75,41.5-59.25,52.75l-7.75,0.75L418.751,463.41z"/>
<path fill-rule="evenodd" clip-rule="evenodd" fill="#7C7C7C" stroke="#000000" stroke-miterlimit="10" d="M365.001,496.16
	c0,0,37.75-75.75,40-75c0,0-31.5,70.5-33,75H365.001z"/>
<path fill-rule="evenodd" clip-rule="evenodd" fill="#7C7C7C" stroke="#000000" stroke-miterlimit="10" d="M442.751,501.16
	c0,0,1.75-13.25,59.25-52.75l-29,32.25c0,0,7.999,2.542,12.082,4.876c-3.541,0.083-23.832,0.124-41.332,15.374L442.751,501.16z"/>
<path fill-rule="evenodd" clip-rule="evenodd" fill="#3A3A3A" stroke="#000000" stroke-miterlimit="10" d="M442.917,501.244
	c4.5-3.167,18.958-15.583,42.334-15.584l18,9.25c0,0-2.876,5.229-3.626,6.313C499.53,501.359,442.875,501.244,442.917,501.244z"/>
<path fill-rule="evenodd" clip-rule="evenodd" fill="#3A3A3A" stroke="#000000" stroke-miterlimit="10" d="M76.251,480.91
	c0,0,26.5-10.418,35.5-8.918l2.5,7.668c0,0-12.75,7.25-12.5,7.5s-19.25,0.25-19.25,0.25L76.251,480.91z"/>
<polygon fill-rule="evenodd" clip-rule="evenodd" fill="#3A3A3A" stroke="#000000" stroke-miterlimit="10" points="120.251,479.66 
	124.251,471.16 149.001,476.16 154.251,488.66 128.751,480.91 "/>
<polygon fill-rule="evenodd" clip-rule="evenodd" fill="#3A3A3A" stroke="#000000" stroke-miterlimit="10" points="170.751,491.16 
	177.001,479.41 209.251,483.91 214.001,498.66 206.751,498.91 183.501,491.16 "/>
<path fill-rule="evenodd" clip-rule="evenodd" fill="#3A3A3A" stroke="#000000" stroke-miterlimit="10" d="M235.501,498.91
	l24.25-20.5l35.25,10c0,0,39.5-8.75,46.5-6.75l10.75,14.5L235.501,498.91z"/>
<polygon fill-rule="evenodd" clip-rule="evenodd" fill="#3A3A3A" stroke="#000000" stroke-miterlimit="10" points="400.751,494.41 
	404.251,487.41 426.501,487.41 432.501,501.91 441.002,501.326 440.751,506.66 422.001,500.41 417.501,501.66 "/>
<polygon fill-rule="evenodd" clip-rule="evenodd" fill="#727C69" stroke="#000000" stroke-miterlimit="10" points="82.501,487.41 
	82.501,498.494 73.834,494.828 73.834,508.16 65.834,508.16 65.834,525.828 440.835,525.828 441.001,506.494 422.001,500.41 
	417.501,501.66 400.751,494.41 394.751,494.41 376.001,495.66 372.001,496.16 365.001,496.16 359.751,496.16 352.251,496.16 
	236.167,498.992 222.751,498.91 214.001,498.66 206.751,498.91 183.501,491.16 170.751,491.16 154.251,488.66 128.751,480.91 
	120.251,479.66 114.251,479.66 101.751,487.16 "/>
<path fill-rule="evenodd" clip-rule="evenodd" fill="#D3D1D1" stroke="#000000" stroke-miterlimit="10" d="M418.751,463.41
	c0,0-27-11.5-46-12.25c0,0,21,40.5,22,43.25h6l3.5-7h22.25l6,14.5h2.5C435.001,501.91,419.751,463.66,418.751,463.41z"/>
<polygon fill-rule="evenodd" clip-rule="evenodd" fill="#3A3A3A" stroke="#000000" stroke-miterlimit="10" points="386.751,478.91 
	372.501,489.16 375.751,494.41 376.001,495.66 394.751,494.41 "/>
<path fill-rule="evenodd" clip-rule="evenodd" fill="#727C69" stroke="#000000" stroke-miterlimit="10" d="M441.002,501.326
	c0,0,79.749-0.416,83.749,0.834s26.583,24.167,26.583,24.167l-110.499-0.499L441.002,501.326z"/>
<rect x="6.083" y="525.66" fill="#727C69" stroke="#000000" stroke-miterlimit="10" width="558.334" height="15"/>
<path fill-rule="evenodd" clip-rule="evenodd" fill="#3A3A3A" stroke="#000000" stroke-miterlimit="10" d="M441.001,509.993
	l82.499,0.167c0,0,11,5,15.5,11h-98.333L441.001,509.993z"/>
</svg>
