<?xml version="1.0" encoding="utf-8"?>
<!-- Generator: Adobe Illustrator 16.0.0, SVG Export Plug-In . SVG Version: 6.00 Build 0)  -->
<!DOCTYPE svg PUBLIC "-//W3C//DTD SVG 1.1//EN" "http://www.w3.org/Graphics/SVG/1.1/DTD/svg11.dtd">
<svg version="1.1" xmlns="http://www.w3.org/2000/svg" xmlns:xlink="http://www.w3.org/1999/xlink" x="0px" y="0px"
	 width="566.93px" height="708.66px" viewBox="0 0 566.93 708.66" enable-background="new 0 0 566.93 708.66" xml:space="preserve">
<g id="Ebene_1">
</g>
<g id="Ebene_2">
	<g>
		<rect x="18" y="148.417" fill="#138536" width="194.667" height="193.583"/>
		<path fill="#888989" d="M212.375,302.938c0,0-27.043-3.271-35.709,7.396c-5.275,6.493-4.357,16.949-3.999,31.5L57.5,342.167
			c0,0-7.382-84.547,26.166-119.333c23.811-24.688,66.127-40,128.772-35.459L212.375,302.938z"/>
		<rect x="174" y="244.034" fill="#FFFFFF" width="29" height="2.5"/>
		<rect x="113.853" y="301.501" fill="#FFFFFF" width="2.5" height="29.938"/>
		<path fill="#FFFFFF" d="M115.393,277.72c0.606-13.886,14.098-29.728,33.169-30.156c-0.045-0.12-0.139,1.897,0.103,2.103
			c-17.667-0.167-30,15.5-31,28.167C117.811,277.547,115.151,277.597,115.393,277.72z"/>
	</g>
	<g>
		<line fill="#138536" x1="18.146" y1="342.019" x2="211.647" y2="342.019"/>
	</g>
</g>
</svg>
