<?xml version="1.0" encoding="utf-8"?>
<!-- Generator: Adobe Illustrator 16.0.0, SVG Export Plug-In . SVG Version: 6.00 Build 0)  -->
<!DOCTYPE svg PUBLIC "-//W3C//DTD SVG 1.1//EN" "http://www.w3.org/Graphics/SVG/1.1/DTD/svg11.dtd">
<svg version="1.1" id="Ebene_1" xmlns="http://www.w3.org/2000/svg" xmlns:xlink="http://www.w3.org/1999/xlink" x="0px" y="0px"
	 width="566.93px" height="708.66px" viewBox="0 0 566.93 708.66" enable-background="new 0 0 566.93 708.66" xml:space="preserve">
<g>
	<polygon fill="#BAB9B9" stroke="#010202" stroke-width="0.25" stroke-miterlimit="10" points="189.833,415.41 168.583,493.91 
		188.583,492.41 203.333,419.91 	"/>
	<polygon fill="#A5A4A3" stroke="#010202" stroke-width="0.25" stroke-miterlimit="10" points="174.583,493.45 188.458,492.41 
		203.208,419.91 196.958,417.535 	"/>
	<path fill="none" stroke="#010202" stroke-width="0.25" stroke-miterlimit="10" d="M311.75,371.785"/>
	<path fill="none" stroke="#010202" stroke-width="0.25" stroke-miterlimit="10" d="M178.75,494.035"/>
	
		<ellipse fill="#A1A0A0" stroke="#010202" stroke-width="0.25" stroke-miterlimit="10" cx="379.709" cy="299.66" rx="27.125" ry="26.75"/>
	
		<ellipse fill="#A1A0A0" stroke="#010202" stroke-width="0.25" stroke-miterlimit="10" cx="201.458" cy="397.535" rx="23.375" ry="22.375"/>
	<path fill="#BAB9B9" stroke="#010202" stroke-width="0.25" stroke-miterlimit="10" d="M195.067,381.254c0,0-0.79,1.786-0.068,2.489
		c0.722,0.704,1.615,1.099,3.125,0.925c1.511-0.172,4.516-1.032,5.099-1.72c0.583-0.688,0.994-1.976,0.187-2.524
		s-8.415-54.802-8.415-54.802l-3.144-2.35l-5.287,3.334L195.067,381.254z"/>
	<path fill="#BAB9B9" stroke="#010202" stroke-width="0.25" stroke-miterlimit="10" d="M309.834,354.91
		c0,0,52.25-37.25,52.75-37.625s1.867-0.75,2.875-0.75c0.791,0,1.959-1.583,1.209-3.458s-1.459-3.792-3.459-4.667
		s-3.791-0.25-3.875,1c-0.051,0.759-1,1.25-1.75,1.5S356,311.66,356,311.66l-51.541,35.875l0.5,4.625l1.75,2.375l2,0.625
		L309.834,354.91z"/>
	<polygon fill="#BAB9B9" stroke="#010202" stroke-width="0.25" stroke-miterlimit="10" points="378.75,413.077 400,491.577 
		380,490.077 365.25,417.577 	"/>
	<polygon fill="#A5A4A3" stroke="#010202" stroke-width="0.25" stroke-miterlimit="10" points="394.002,491.117 380.125,490.077 
		365.375,417.577 371.625,415.202 	"/>
	<path fill="#BAB9B9" stroke="#010202" stroke-width="0.25" stroke-miterlimit="10" d="M219.758,406.33c0,0-0.7-1.822-1.709-1.811
		c-1.007,0.01-1.918,0.36-2.868,1.548c-0.948,1.188-2.471,3.918-2.4,4.815c0.071,0.898,0.688,2.102,1.648,1.922
		c0.959-0.181,51.404,38.855,51.404,38.855l3.333-3l2.833-2.334L219.758,406.33z"/>
	<polygon fill="#BAB9B9" stroke="#010202" stroke-width="0.25" stroke-miterlimit="10" points="281.083,396.66 279.583,441.16 
		288.834,442.16 288.084,398.16 	"/>
	
		<ellipse fill="#90908E" stroke="#010202" stroke-width="0.25" stroke-miterlimit="10" cx="283.584" cy="340.91" rx="22.25" ry="21.75"/>
	<path fill="#A1A0A0" stroke="#010202" stroke-width="0.25" stroke-miterlimit="10" d="M213.833,300.41
		c0,14.498-9,27.375-26.375,26.75c-14.488-0.521-26.125-12.252-26.125-26.75s11.378-26.75,25.875-26.75
		S213.833,285.913,213.833,300.41z"/>
	<path fill="#A1A0A0" stroke="#010202" stroke-width="0.25" stroke-miterlimit="10" d="M307.584,242.785
		c0,14.221-10.555,25.875-24.5,25.875c-13.945,0-24.375-11.529-24.375-25.75s10.43-25.75,24.375-25.75
		C297.029,217.16,307.584,228.564,307.584,242.785z"/>
	
		<ellipse fill="#A1A0A0" stroke="#010202" stroke-width="0.25" stroke-miterlimit="10" cx="366.334" cy="396.16" rx="23.375" ry="22.375"/>
	<path fill="#BAB9B9" stroke="#010202" stroke-width="0.25" stroke-miterlimit="10" d="M279,268.41l0.083,58.875l9,0.25
		l-0.168-59.292c0,0,2.168-0.708,0.918-2.333s-8.902-1.104-10.125-0.125C277.458,266.785,277.375,266.91,279,268.41z"/>
	<path fill="#605F5F" stroke="#010202" stroke-width="0.1" stroke-miterlimit="10" d="M278.208,267.285
		c2.667-1.375,8.292-1.5,10.75,0.125c0.291-0.5,0.625-0.5-0.125-1.5c-1.23-1.64-9.02-1.234-10.125-0.125
		C278.542,265.952,277.25,267.16,278.208,267.285z"/>
	<path fill="#BAB9B9" stroke="#010202" stroke-width="0.25" stroke-miterlimit="10" d="M345.871,390.374c0,0,0.898,1.733,1.9,1.61
		c1-0.123,1.865-0.572,2.678-1.858c0.811-1.286,2.02-4.168,1.85-5.052c-0.172-0.886-0.918-2.013-1.852-1.727
		c-0.934,0.285-41.113-23.063-41.113-23.063l-1,5l-0.125,3.125L345.871,390.374z"/>
	<path fill="#BAB9B9" stroke="#010202" stroke-width="0.25" stroke-miterlimit="10" d="M308.959,354.535
		c0.375,0.25,40.75,25.875,40.75,25.875l-1.625,2l-38.125-21.625L308.959,354.535z"/>
	<path fill="#BAB9B9" stroke="#010202" stroke-width="0.25" stroke-miterlimit="10" d="M216.612,384.049c0,0-1.946-0.16-2.374,0.753
		c-0.427,0.913-0.507,1.885,0.151,3.256c0.659,1.37,2.458,3.926,3.298,4.251c0.84,0.326,2.192,0.292,2.445-0.65
		c0.254-0.943,37.576-19.998,37.576-19.998l-0.25-3.25l-0.5-5.625L216.612,384.049z"/>
	<polygon fill="#BAB9B9" stroke="#010202" stroke-width="0.25" stroke-miterlimit="10" points="217.958,381.66 258.208,354.035 
		259.833,357.91 259.333,361.285 256.958,362.785 218.958,382.91 	"/>
	<g>
		<path fill="#BAB9B9" stroke="#010202" stroke-width="0.1" stroke-miterlimit="10" d="M205.221,308.375
			c-1.001,0.106-1.899,0.453-2.79,1.686c-0.891,1.232-2.28,4.032-2.165,4.926c0.115,0.894,0.635,1.565,0.637,1.434
			C201,311.258,205.76,308.317,205.221,308.375z"/>
		<path fill="#BAB9B9" stroke="#010202" stroke-width="0.25" stroke-miterlimit="10" d="M206.903,310.046
			c0,0-0.789-1.787-1.794-1.727c-1.006,0.059-1.899,0.453-2.79,1.686c-0.89,1.232-2.279,4.032-2.164,4.926
			c0.114,0.895,0.789,2.066,1.738,1.84c0.95-0.227,57.19,38.515,57.19,38.515l1.625-3.25l3.125-4.5L206.903,310.046z"/>
	</g>
	<path fill="#BAB9B9" stroke="#010202" stroke-width="0.25" stroke-miterlimit="10" d="M212.5,309.035l51.23,27.849
		c0,0,4.506,0.12,3.479,3.526c-1.028,3.406-2.043,5.238-3.771,6.038c-1.728,0.8-52.113-33.641-52.113-33.641L212.5,309.035z"/>
	
		<ellipse fill="#90908E" stroke="#010202" stroke-width="0.25" stroke-miterlimit="10" cx="284.834" cy="462.66" rx="24.166" ry="23.167"/>
	
		<ellipse fill="#A1A0A0" stroke="#010202" stroke-width="0.25" stroke-miterlimit="10" cx="283.459" cy="367.285" rx="28.125" ry="29.125"/>
	<path fill="#BAB9B9" stroke="#010202" stroke-width="0.25" stroke-miterlimit="10" d="M354.459,308.91l-50.875,27
		c0,0-4.5,0.25-3.375,3.625s2.875,6.375,4.625,7.125s51.125-35.125,51.125-35.125L354.459,308.91z"/>
	<path fill="#BAB9B9" stroke="#010202" stroke-width="0.25" stroke-miterlimit="10" d="M365.709,378.66c0,0-1.25,1.5-0.75,2.375
		s1.25,1.5,2.75,1.75s4.625,0.25,5.375-0.25s1.5-1.625,0.875-2.375s6.844-53.734,6.844-53.734l-4.469-0.203l-4-0.813L365.709,378.66
		z"/>
	<path fill="#BAB9B9" stroke="#010202" stroke-width="0.25" stroke-miterlimit="10" d="M358.809,282.895
		c-1.053-0.63-50.498-30.246-52.725-31.235c-2.25-1-1.875-3-4.375-3s-7.332,6.224-4.875,9.5c0.75,1,2.75,0.5,2.75,0.5s2-0.75,3.5,1
		c1.41,1.646,45.926,27.717,51.23,30.821C355.387,287.701,356.912,285.142,358.809,282.895z"/>
	<path fill="#605F5F" stroke="#010202" stroke-width="0.1" stroke-miterlimit="10" d="M302.162,248.622
		c-1.937-0.751-7.014,5.451-5.565,9.157c0.44,1.131,1.237,0.631,1.237,0.631s0.724-7.91,6.041-8.5
		C303.875,249.91,303.932,249.308,302.162,248.622z"/>
	<path fill="#BAB9B9" stroke="#010202" stroke-width="0.25" stroke-miterlimit="10" d="M354.455,411.795
		c0,0,1.943-0.203,2.193-1.179c0.252-0.977,0.15-1.947-0.748-3.173c-0.902-1.225-3.143-3.404-4.027-3.569
		c-0.887-0.166-2.209,0.118-2.283,1.091c-0.076,0.975-53.256,42.195-53.256,42.195l2.834,2.5l4.332,2.166L354.455,411.795z"/>
	<path fill="#6E6E6E" stroke="#010202" stroke-width="0.25" stroke-miterlimit="10" d="M303.885,477.035
		c1.27-0.959,5.117-9.027,5.117-14.325c0-7.413-3.656-14.058-9.438-18.557c-0.113-0.09-0.23-0.139-0.35-0.17L303.885,477.035z"/>
	<path fill="#BAB9B9" stroke="#010202" stroke-width="0.25" stroke-miterlimit="10" d="M267.333,250.91
		c-1.563-1.813-3.375-1.5-4.25-1s-1,1.375-1,1.375l-54.353,32.051c1.979,2.338,3.575,5.007,4.676,7.9l52.302-31.577
		c1.313-1.188,2.125,0.25,4.125-1.25C270.365,255.535,268.896,252.723,267.333,250.91z"/>
	<path fill="#BAB9B9" stroke="#010202" stroke-width="0.25" stroke-miterlimit="10" d="M292.334,388.993
		c0,0-14.001,1.667-15.334-0.666l-14,105.666h42.666L292.334,388.993z M279.083,398.41h10.5l11,88.25h-33L279.083,398.41z"/>
	<path fill="#5F5E5E" stroke="#010202" stroke-width="0.1" stroke-miterlimit="10" d="M200.708,316.285c0,0-1.417-1,0.917-5.042
		s4.025-2.863,3.596-2.869s-4.538,4.597-4.317,8.045"/>
	<path fill="#5F5E5E" stroke="#010202" stroke-width="0.1" stroke-miterlimit="10" d="M263.24,249.973
		c-0.416-0.374,2.875-1.094,3.969,0.938c3.656,3.25,2.125,6.75,1.5,7.5C268.115,250.285,264.49,251.098,263.24,249.973z"/>
	<path fill="#5F5E5E" stroke="#010202" stroke-width="0.1" stroke-miterlimit="10" d="M361.828,307.963c0,0,1.654-1.014,3.923,3.114
		c2.268,4.129,0.314,5.299,0.544,4.917c0.23-0.382-1.593-6.382-4.686-7.925"/>
	<path fill="#605F5F" stroke="#010202" stroke-width="0.1" stroke-miterlimit="10" d="M364.959,380.91
		c0.539,0.851,1.25,1.5,2.75,1.75s4.625,0.25,5.375-0.25s1.119-1.264,1-1.208C369.418,383.41,364.668,380.452,364.959,380.91z"/>
	<path fill="#5F5E5E" stroke="#010202" stroke-width="0.1" stroke-miterlimit="10" d="M347.656,391.937
		c0.992-0.169,1.865-0.572,2.678-1.858c0.811-1.287,2.02-4.168,1.85-5.054c-0.172-0.886-0.732-1.521-0.729-1.39
		C351.686,388.793,347.121,392.028,347.656,391.937z"/>
	<path fill="#605F5F" stroke="#010202" stroke-width="0.1" stroke-miterlimit="10" d="M356.563,410.705
		c0.205-0.985,0.148-1.947-0.752-3.173c-0.898-1.225-3.139-3.404-4.025-3.569c-0.887-0.166-1.682,0.125-1.559,0.168
		C355.111,405.805,356.451,411.236,356.563,410.705z"/>
	<path fill="#605F5F" stroke="#010202" stroke-width="0.1" stroke-miterlimit="10" d="M218.159,404.579
		c-1.006,0.058-1.918,0.361-2.868,1.549c-0.949,1.188-2.47,3.917-2.4,4.816c0.071,0.899,0.558,1.593,0.568,1.462
		C213.804,407.255,218.701,404.548,218.159,404.579z"/>
	<path fill="#605F5F" stroke="#010202" stroke-width="0.1" stroke-miterlimit="10" d="M214.34,384.729
		c-0.384,0.932-0.507,1.887,0.152,3.257c0.659,1.371,2.458,3.927,3.298,4.251c0.84,0.326,1.678,0.189,1.563,0.124
		C214.862,389.813,214.547,384.229,214.34,384.729z"/>
	<path fill="#5F5E5E" stroke="#010202" stroke-width="0.1" stroke-miterlimit="10" d="M194.965,383.623
		c0.753,0.67,1.615,1.098,3.126,0.925c1.51-0.173,4.515-1.032,5.098-1.72c0.583-0.688,0.729-1.523,0.629-1.438
		C199.94,384.799,194.559,383.263,194.965,383.623z"/>
</g>
</svg>
