<?xml version="1.0" encoding="utf-8"?>
<!-- Generator: Adobe Illustrator 16.0.0, SVG Export Plug-In . SVG Version: 6.00 Build 0)  -->
<!DOCTYPE svg PUBLIC "-//W3C//DTD SVG 1.1//EN" "http://www.w3.org/Graphics/SVG/1.1/DTD/svg11.dtd">
<svg version="1.1" id="Ebene_2" xmlns="http://www.w3.org/2000/svg" xmlns:xlink="http://www.w3.org/1999/xlink" x="0px" y="0px"
	 width="566.93px" height="708.66px" viewBox="0 0 566.93 708.66" enable-background="new 0 0 566.93 708.66" xml:space="preserve">
<g>
	<polyline fill="#E0E0E0" stroke="#000000" stroke-width="0.25" stroke-miterlimit="10" points="189.02,263.953 189.698,273.898 
		173.423,284.749 166.189,299.667 159.258,302.38 147.956,318.655 140.42,321.669 130.022,337.869 123.467,341.938 112.391,357.987 
		105.835,361.151 97.17,376.674 89.636,380.29 79.991,393.25 74.566,397.168 66.278,411.635 59.346,416.005 44.276,428.212 
		34.782,431.226 17,447.5 112.843,487.962 104.705,506.271 167.998,529.78 184.273,516.218 319.899,568.66 422.976,474.928 
		456.129,487.284 500.734,446.295 481.747,423.992 545.943,356.48 527.258,350.453 519.271,347.815 507.969,349.247 
		498.361,340.808 487.851,340.017 477.678,330.184 467.167,329.167 458.013,318.429 446.371,318.09 436.99,308.031 426.479,307.353 
		414.838,295.373 404.214,294.694 391.557,282.111 380.932,281.81 368.425,268.323 359.608,267.268 345.819,253.103 
		325.324,253.404 318.694,246.472 318.091,238.937 319.899,237.053 319.899,231.704 317.187,231.704 318.393,223.867 
		316.282,214.825 248.469,200.66 183.67,240.143 183.369,244.362 183.369,247.979 186.684,257.623 184.876,258.226 186.684,263.35 	
		"/>
	<path fill="#E0E0E0" stroke="#000000" stroke-width="0.25" stroke-miterlimit="10" d="M173.423,284.749"/>
	<polygon fill="#BCBCBC" stroke="#000000" stroke-width="0.25" stroke-miterlimit="10" points="173.423,284.749 269.868,308.859 
		345.819,253.103 301.213,252.801 232.495,261.842 189.698,273.898 	"/>
	<polygon fill="#C1C1C1" stroke="#000000" stroke-width="0.25" stroke-miterlimit="10" points="252.086,321.82 272.656,327.697 
		291.568,315.49 298.65,320.689 277.855,336.739 244.174,328.375 	"/>
	<polygon fill="#C1C1C1" stroke="#000000" stroke-width="0.25" stroke-miterlimit="10" points="241.688,345.103 281.472,357.309 
		307.467,334.931 314.927,339.225 284.41,366.351 235.359,351.658 	"/>
	<path fill="#C1C1C1" stroke="#000000" stroke-width="0.25" stroke-miterlimit="10" d="M232.646,367.48
		c2.035,1.131,53.799,19.214,53.799,19.214l38.201-31.872l10.624,4.068l-3.843,1.583l-42.496,35.488l-59.45-20.796L232.646,367.48z"
		/>
	<polygon fill="#C1C1C1" stroke="#000000" stroke-width="0.25" stroke-miterlimit="10" points="226.769,393.023 290.062,414.498 
		340.243,374.714 348.606,378.783 294.131,424.67 220.666,400.031 	"/>
	<polygon fill="#C1C1C1" stroke="#000000" stroke-width="0.25" stroke-miterlimit="10" points="216.597,415.628 294.809,442.527 
		355.162,393.928 363.978,398.449 362.094,399.88 297.973,452.699 212.98,423.766 	"/>
	<polygon fill="#C1C1C1" stroke="#000000" stroke-width="0.25" stroke-miterlimit="10" points="208.459,438.685 300.008,471.688 
		371.438,412.916 377.314,416.759 303.398,482.312 203.712,447.952 	"/>
	<polygon fill="#C1C1C1" stroke="#000000" stroke-width="0.25" stroke-miterlimit="10" points="203.938,461.516 303.85,499.942 
		382.514,432.808 389.973,436.876 307.542,509.285 197.157,468.297 	"/>
	<polygon fill="#C1C1C1" stroke="#000000" stroke-width="0.25" stroke-miterlimit="10" points="191.732,492.031 313.344,539.049 
		404.892,455.939 396.754,451.569 309.953,528.424 192.184,483.216 	"/>
	<polygon fill="#C1C1C1" stroke="#000000" stroke-width="0.25" stroke-miterlimit="10" points="191.054,508.08 192.41,508.834 
		317.865,558.94 412.804,469.427 422.976,474.928 319.899,568.66 184.273,516.218 185.177,508.532 	"/>
	<polygon fill="#C1C1C1" stroke="#000000" stroke-width="0.25" stroke-miterlimit="10" points="456.431,398.977 508.307,349.284 
		519.271,347.815 462.459,405.306 	"/>
	<polygon fill="#C1C1C1" stroke="#000000" stroke-width="0.25" stroke-miterlimit="10" points="445.015,388.164 498.361,340.808 
		487.851,340.017 440.606,381.947 	"/>
	<polygon fill="#C1C1C1" stroke="#000000" stroke-width="0.25" stroke-miterlimit="10" points="424.105,365.446 467.167,329.167 
		477.678,330.184 431,370.646 	"/>
	<polygon fill="#C1C1C1" stroke="#000000" stroke-width="0.25" stroke-miterlimit="10" points="446.371,318.09 409.639,347.815 
		414.386,353.579 458.013,318.429 	"/>
	<polygon fill="#C1C1C1" stroke="#000000" stroke-width="0.25" stroke-miterlimit="10" points="436.99,308.031 399.467,336.852 
		393.929,331.879 426.479,307.353 	"/>
	<polygon fill="#C1C1C1" stroke="#000000" stroke-width="0.25" stroke-miterlimit="10" points="383.343,319.56 414.838,295.373 
		404.214,294.694 378.37,313.381 	"/>
	<polygon fill="#C1C1C1" stroke="#000000" stroke-width="0.25" stroke-miterlimit="10" points="391.557,282.111 366.842,300.948 
		361.417,296.051 380.932,281.81 	"/>
	<polygon fill="#C1C1C1" stroke="#000000" stroke-width="0.25" stroke-miterlimit="10" points="368.425,268.323 350.567,282.337 
		345.669,277.44 359.608,267.268 	"/>
	<polygon fill="#C1C1C1" stroke="#000000" stroke-width="0.25" stroke-miterlimit="10" points="166.189,299.667 188.191,309.387 
		186.759,313.984 159.258,302.38 	"/>
	<polygon fill="#C1C1C1" stroke="#000000" stroke-width="0.25" stroke-miterlimit="10" points="147.956,318.655 178.924,331.389 
		175.683,338.697 140.42,321.669 	"/>
	<polygon fill="#C1C1C1" stroke="#000000" stroke-width="0.25" stroke-miterlimit="10" points="130.022,337.869 169.43,353.014 
		166.491,360.474 123.467,341.938 	"/>
	<polygon fill="#C1C1C1" stroke="#000000" stroke-width="0.25" stroke-miterlimit="10" points="105.835,361.151 158.504,380.517 
		160.688,373.81 112.391,357.987 	"/>
	<polygon fill="#C1C1C1" stroke="#000000" stroke-width="0.25" stroke-miterlimit="10" points="97.17,376.674 152.477,395.66 
		149.613,403.195 89.636,380.29 	"/>
	<polygon fill="#C1C1C1" stroke="#000000" stroke-width="0.25" stroke-miterlimit="10" points="79.991,393.25 144.037,417.663 
		140.722,424.745 74.566,397.168 	"/>
	<polygon fill="#C1C1C1" stroke="#000000" stroke-width="0.25" stroke-miterlimit="10" points="66.278,411.635 133.941,438.007 
		131.98,444.336 59.346,416.005 	"/>
	<polygon fill="#C1C1C1" stroke="#000000" stroke-width="0.25" stroke-miterlimit="10" points="127.611,459.707 44.276,428.212 
		34.782,431.226 122.939,466.94 	"/>
	<polygon fill="#C1C1C1" stroke="#000000" stroke-width="0.25" stroke-miterlimit="10" points="116.459,489.093 112.843,487.962 
		17,447.5 24.233,441.473 120.076,478.544 	"/>
	<polygon fill="#E0E0E0" stroke="#000000" stroke-width="0.25" stroke-miterlimit="10" points="186.759,263.425 184.951,258.301 
		186.759,257.698 183.443,248.054 183.443,244.438 183.746,240.217 248.544,200.735 316.357,214.9 318.468,223.942 317.262,231.779 
		319.975,231.779 319.899,237.053 318.166,239.012 318.77,246.547 325.399,253.479 266.553,299.215 188.793,280.228 
		189.773,273.974 189.02,263.953 	"/>
	<polygon fill="#C1C1C1" stroke="#000000" stroke-width="0.25" stroke-miterlimit="10" points="186.759,263.425 262.936,278.419 
		319.899,237.053 319.673,230.95 261.128,271.186 184.725,256.719 	"/>
	<polygon fill="#4F4E4E" stroke="#000000" stroke-width="0.25" stroke-miterlimit="10" points="223.152,288.667 224.283,274.351 
		231.893,276.008 230.989,290.777 	"/>
	<polygon fill="#C1C1C1" stroke="#000000" stroke-width="0.25" stroke-miterlimit="10" points="183.67,240.143 255.401,254.609 
		316.282,214.825 248.469,200.66 	"/>
	<path fill="#EAE8E8" stroke="#000000" stroke-width="0.25" stroke-miterlimit="10" d="M334.366,261.843
		c1.206,1.507,166.368,184.452,166.368,184.452l-6.329,6.028l-13.563-6.029L326.832,266.665L334.366,261.843z"/>
	<polygon fill="#EAE8E8" stroke="#000000" stroke-width="0.25" stroke-miterlimit="10" points="291.568,293.188 460.649,482.764 
		456.129,487.284 422.976,474.928 411.522,470.406 404.892,455.939 394.042,452.926 389.219,436.65 378.671,435.746 
		374.752,418.566 367.519,415.553 362.094,399.88 353.655,396.264 347.024,380.592 337.53,376.07 332.105,359.795 323.516,357.083 
		316.282,340.205 306.638,337.191 300.609,322.121 291.568,315.49 286.143,298.009 	"/>
	<polygon fill="#D3D3D3" stroke="#000000" stroke-width="0.25" stroke-miterlimit="10" points="195.123,292.584 104.705,506.271 
		167.998,529.78 242.742,305.845 243.722,301.702 196.027,290.174 	"/>
	<polygon fill="#EAE8E8" stroke="#000000" stroke-width="0.25" stroke-miterlimit="10" points="196.027,290.174 202.657,291.681 
		113.747,509.437 104.705,506.271 	"/>
	<path fill="#EAE8E8" stroke="#000000" stroke-width="0.25" stroke-miterlimit="10" d="M252.086,321.82l0.302-17.179l-12.96-4.069
		l-77.307,226.497l5.877,2.712l24.413-20.946l0.302-18.837l3.767-4.069l1.356-16.275l7.233-7.686l0.904-15.822l5.877-6.104
		l2.26-16.501l7.233-6.329l0.904-17.632l8.138-5.425l-0.904-18.988l5.877-6.781l0.904-16.275l7.233-6.781
		c0,0,2.035-17.406,0.678-16.954C242.818,328.827,252.086,321.82,252.086,321.82z"/>
</g>
</svg>
