<?xml version="1.0" encoding="utf-8"?>
<!-- Generator: Adobe Illustrator 16.0.0, SVG Export Plug-In . SVG Version: 6.00 Build 0)  -->
<!DOCTYPE svg PUBLIC "-//W3C//DTD SVG 1.1//EN" "http://www.w3.org/Graphics/SVG/1.1/DTD/svg11.dtd">
<svg version="1.1" id="Ebene_1" xmlns="http://www.w3.org/2000/svg" xmlns:xlink="http://www.w3.org/1999/xlink" x="0px" y="0px"
	 width="566.93px" height="708.66px" viewBox="0 0 566.93 708.66" enable-background="new 0 0 566.93 708.66" xml:space="preserve">
<path fill-rule="evenodd" clip-rule="evenodd" d="M284.926,114.198c12.689,5.952,25.856,7.081,43.325,10.831
	c7.714,1.657,15.427,4.907,23.367,6.842c10.594,2.579,22.525,3.265,32.493,3.991c9.807,0.711,20.287-1.214,28.5-1.141
	c5.091,0.043,10.169,1.821,15.395,1.709c8.003-0.17,16.78-4.063,26.218-2.28c1.851,0.811,2.04,3.279,3.422,4.559
	c7.335-0.305,13.527,0.535,19.949,1.141c0.407,2.445,1.59,4.113,2.281,6.272c-3.259,5.099-11.104,5.617-14.251,10.829
	c-12.889,1.367-33.025,4.103-43.892-1.138c-5.39,14.995-14.631,28.999-21.095,41.04c-2.654-0.378-3.66,0.898-5.698,1.141
	c-2.588,1.067-0.776-2.264-2.85-1.712c-19.418,1.573-37.232-2.394-53.013,1.712c-9.449,2.459-17.126,10.362-26.222,11.401
	c0.89,47.955,1.643,98.036,0.569,147.067c-0.144,3.67-3.118-0.146-3.991,1.142c0.539,39.779-0.802,68.774-0.185,109.896
	c0.565-0.349,17.75-0.5,18.25-1c-0.5,0.25-0.75,20-0.75,20.5c-0.5,0-0.061,5.206-0.25,7c-0.765,7.281,0,22.5-0.25,22.25
	c0,0,1,46,1,45.5c0,0-1,25-0.75,25.5c-0.5,0-25.477,20.54-25.613,20.595C300.5,608,281.205,607.525,270.75,608
	c-8.741,0.397-18.98,0.171-28.5-0.25c-11.333-0.498-22.638-1.5-31.25-1.5c-0.5,0-16.291-1.185-16.75-1.5
	c-2.376-7.226-1.718-16.47-2.238-23.694c1.292-1.13-2.029-0.201,0.488-0.806c-0.417-1.299,1.959,0.637,2.362-1.476
	c2.48-13.479,0.676-23.695,1.709-36.486c0.73-2.907-1.662-0.6-1.709-1.707c2.324-13.255,1.049-29.11,1.709-42.753
	c7.696-8.264,15.907-16.015,24.511-23.369c3.015-24.637,1.18-53.281,0-79.237c-0.739-16.256,2.631-33.392-3.991-41.612
	c-1.715-9.632,0.636-18.765-0.566-27.36c-0.168-1.181-1.636-3.158-1.713-4.561c-0.237-4.423,2.912-9.154,2.279-13.11
	c-0.509-3.219-4.212-4.299-5.126-6.837c-1.4-3.874,2.038-6.179-0.571-9.692c-2.208-2.253-2.822,2.927-5.13,0.57
	c0.59-27.27-0.616-55.937-1.143-83.796c-9.767-0.264-14.504-3.556-21.659-6.84c-6.519-2.989-9.048-6.688-18.24-5.7
	c-9.91,1.067-20.241,4.679-30.212,7.409c-12.355-11.393-19.691-27.81-27.362-43.89c-10.821-3.409-31.017,7.178-49.591,3.988
	c-2.329-1.658-3.349-4.63-4.561-7.408c-3.115-1.165-2.75-3.973-1.71-7.412c4.234-1.567,7.88-1.778,12.539-3.991
	c3.57-1.69,6.868-5.087,10.262-5.698c8.685-1.561,16.301,5.166,25.081,6.272c11.002,1.382,22.03-2.929,30.211-5.131
	c14.958-4.031,31.521-5.754,47.313-9.692c7.511-1.871,14.448-4.112,21.661-6.84c12.956-4.9,26.111-6.042,38.191-10.832
	c-0.238-21.385,2.26-43.592,13.681-53.582c7.884-6.897,19.424-3.474,25.08,2.851C285.098,72.711,284.468,95.067,284.926,114.198z
	 M280.365,77.718c-2.374-9.178-8.664-19.004-17.1-19.952c-13.188-1.483-20.382,15.97-21.664,27.933
	c0.386-10.659,14.669-7.973,18.241-15.392c1.183-2.457-0.265-5.089,1.712-7.98c0.547,1.904-0.215,6.847-1.141,9.119
	c2.97,0.561,1.129,2.389,2.851,3.99c5.521,2.8,10.741,3.05,13.68,7.41c5.513,8.187-1.383,18.747-0.572,30.212
	c2.456-0.364,1.85,2.334,4.561,1.709C283.397,104.424,283.229,88.793,280.365,77.718z M245.593,81.707
	c-6.965,8.554,0.487,22.237,5.131,30.213c10.314,17.716,27.349-5.793,26.222-21.661c-0.881-12.4-13.168-8.096-18.24-15.962
	C254.524,80.299,249.313,77.141,245.593,81.707z M235.901,117.621c4.359-0.098,7.044,3.604,10.833,2.281
	c1.364-10.788-5.184-17.78-6.841-27.364C238.608,102.141,243.324,114.89,235.901,117.621z M253.574,117.621
	c-2.074-2.121-3.929-6.703-5.131-7.411c0.688,1.974,1.243,4.079,1.141,6.841c0.608,2.128-1.418,1.624-1.141,3.422
	c11.057,4.902,19.807,0.527,26.221-3.993c-0.999-2.04,0.087-6.167-1.139-7.979C269.674,114.599,262.602,123.464,253.574,117.621z
	 M368.149,137c-12.394-1.517-24.832-5.673-37.053-8.551c-19.916-4.685-36.427-6.897-53.584-13.682
	c-0.03-0.346-0.084-0.672-0.567-0.569c0.027,0.789-0.271,1.253-0.572,1.712c-2.374,3.34-5.279,5.842-9.118,7.41
	c-10.375,4.23-20.756-2.57-33.063-4.563c-2.077-0.356,1.535-2.877-1.14-2.278c-10.342,4.511-21.744,5.473-33.063,9.691
	c-21.145,7.875-45.614,10.536-68.974,16.53c-7.977,2.048-16.905,5.492-26.791,5.7c4.311,6.562,7.631,14.317,11.97,21.66
	c2.344,3.974,6.583,6.778,9.12,10.832c3.968,6.335,5.33,14.166,10.83,19.38c3.294-0.697,5.797-1.34,8.728-2.398
	c-3.125-5.125-7.455-15.849-1.888-22.114c1.738,11.186,9.745,16.1,19.952,18.811c-3.314-6.697-9.176-18.927-9.69-28.502
	c4.623,1.153,6.036,6.524,7.979,9.691c8.104,13.2,20.584,21.478,37.051,26.221c-7.779-9.107-13.021-24.297-17.779-37.607
	c-1.437-4.014-5.812-9.128-2.739-13.693c7.371,5.539,9.053,14.771,13.68,22.233c6.067,9.788,16.717,16.313,21.662,26.789
	c9.465,6.036,28.198,10.101,44.564,7.63c5.068-0.762,14.625-3.437,16.424-8.199c3.597-9.508-2.659-28.272,1.712-35.345
	c2.524,63.217,4.272,126.366,1.709,189.821c2.207,2.2,2.382,5.502,5.133,6.843c-0.272-0.132,0.354,0.632,1.14,0.568
	c2.64-0.398,4.202-1.877,6.842-2.277c-3.705-24.251-2.013-48.409-3.564-73.432c-0.975-15.617-2.361-31.325-3.277-47.417
	c-1.451-25.5-5.16-52.771-3.42-76.954c2.135,20.308,5.34,52.721,6.635,78.725c0.785,15.781,2.544,31.88,3.333,47.667
	c1.168,23.507-1.381,46.82,2.334,70.333c3.249,0.586,2.055-1.861,4.8-1.776c0.397-27.188-1.732-54.89,0-81.514
	c1.44,27.824,2.2,53.325,2.2,66.457c0,6.663-2.042,14.854,1.791,18.479c4.516-0.613,5.442-4.815,10.26-5.131
	c-0.993-50.108,1.504-100.223-2.283-145.359c3.032-8.34-1.355-17.348,2.283-25.08c2.729-0.069-0.552,5.869,2.279,5.7
	c6.287-1.216,10.84-4.472,14.819-7.981c3.954-3.485,6.575-8.865,11.97-10.83c-5.015,13.032-15.161,24.868-27.93,26.221
	c0,3.232,0,6.46,0,9.692c23.599-7.645,44.147-21.444,60.423-35.913c1.896-1.685,4.893-5.659,7.983-3.99
	c-4.152,11.811-12.888,19.233-21.513,26.358c-0.249,1.072-6.392,1.081-3.57,1.572c12.091-1.206,25.062-0.155,38.07-0.447
	c2-28.25,19.625-39.375,32.042-55.416C406.442,136.855,386.314,139.225,368.149,137z M429.714,138.709
	c-3.657,3.945-6.237,8.966-7.98,14.823c12.137,4.616,35.727,3.944,46.744-1.143c-5.045-0.657-13.155,1.755-14.822-2.277
	c6.93,1.505,19.169,3.148,22.231-2.281c-6.152-0.688-15.104,1.422-19.382-1.14c7.709-1.59,20.372,3.041,22.229-1.712
	c-6.5-1.287-15.162-0.412-21.661-1.709c6.298-0.733,15.544,1.485,19.952-1.138c-9.968-6.008-25.088,1.152-35.913-0.572
	c1.392-2.867,11.515,1.405,14.251-2.85C449.335,133.017,437.07,138.397,429.714,138.709z M100.806,147.831
	c-10.47-1.397-27.404-13.148-33.063,0.57c9.813-3.452,15.948,2.546,24.512,1.14c-4.559,2.569-12.907,0.838-15.39-2.282
	c-2.411,1.583-5.209,2.773-9.691,2.282c-0.986-0.347,0.045-2.704-1.139-2.85c-2.949,3.515-11.228,1.692-13.683,5.698
	c4.552,2.255,10.272-2.253,13.683-1.138c-3.399,2.114-9.063,1.958-13.112,3.419c3.704,4.635,11.988-0.222,17.101-1.138
	c6.775,11.166,23.809,2.801,34.771,2.85C104.548,152.447,101.697,151.119,100.806,147.831z M416.602,154.67
	c2.112,0.024,3.306-0.875,4.561-1.71c-0.318-3.37,3.062-6.04,2.279-7.981C421.743,148.794,418.028,150.586,416.602,154.67z
	 M55.773,158.092c2.03,6.655,14.639,2.25,18.241,0c-2.726-0.313-3.149-2.931-5.699-3.422
	C65.054,156.729,59.944,156.943,55.773,158.092z M196.001,194.572c2.236,3.922,4.125,10.375,10.831,8.551c0-2.85,0-5.699,0-8.551
	c-10.922-11.308-20.254-24.208-27.361-39.331c-0.673-0.083-1.292-1.016-1.71,0C183.443,168.103,189.364,182.941,196.001,194.572z
	 M414.323,156.381c-6.379,11.865-16.521,19.961-17.672,37.05c5.478-2.322,8.824-9.467,11.973-15.389
	c3.292-6.204,7.703-12.978,8.55-20.522C415.42,157.947,416.075,155.955,414.323,156.381z M69.456,161.513
	c3.612,0,7.46,0.24,9.688-1.143C76.271,158.309,72.223,160.257,69.456,161.513z M112.777,168.354
	c-0.669-2.184-1.358-4.344-2.85-5.703C110.569,164.859,111.005,167.274,112.777,168.354z M344.209,195.144
	c3.917-0.782,8.166-0.543,11.4-2.282c7.182-3.858,20.558-18.957,23.371-23.939C368.941,179.212,356.818,187.426,344.209,195.144z
	 M185.17,200.273c3.417,1.245-2.003-2.047,0-0.57c-2.366-1.749-6.237-3.402-11.97-7.409c-7.811-5.459-14.954-14.718-17.671-20.523
	c2.267,8.372,5.211,16.07,9.69,22.232C176.168,192.721,179.293,198.133,185.17,200.273z M129.877,195.712
	c-3.721-6.919-6.919-17.396-13.109-19.951C121.19,181.979,123.937,192.912,129.877,195.712z M312.856,191.724
	c0,1.331,0,2.657,0,3.988c9.884-2.845,17.371-11.129,22.233-17.101C328.602,183.909,324.078,191.163,312.856,191.724z
	 M146.979,197.424c4.037,0.046,5.756-2.225,10.259-1.712c-6.593-3.475-13.469-6.669-15.391-14.82
	C141.507,188.454,144.413,192.768,146.979,197.424z M235.334,288.629c-3.464-20.54-9.832-51.744-7.982-79.807
	c-7.162-2.147-13.511-5.109-18.24-9.688c-3.533,27.925,1.079,61.344-0.571,89.495c6.168,0.104,6.42,6.117,6.27,12.54
	c3.099,3.362,10.192,2.731,14.251,5.128c1.596-8.094-0.835-20.215,1.713-27.36C233.051,281.41,233.92,285.291,235.334,288.629z
	 M199.42,205.404c2.686,0.281,1.378-1.028-0.569-0.569c-1.843-0.388-9.063-2.755-6.84-1.711
	C192.945,205.419,196.077,205.519,199.42,205.404z M246.734,313.708c-1.03-2.052-3.137-6.663-3.99-5.699
	c6.437,13.704,14.325,29,21.092,40.472c-15.419-17.063-22.502-40.813-31.353-63.841c-1.299,6.111-0.125,13.308-0.483,20.36
	c8.736,14.443,16.31,31.266,27.843,42.91c4.724,1.178,9.514,5.304,11.404,7.413C249.167,348.5,243.566,326,231.913,309.15
	c0.111,2.202,0.021,4.2-0.571,5.701c-3.182,2.136-7.024,3.614-10.26,5.7c1.418,8.842,6.116,17.444,9.693,22.23
	c-8.775-4.114-8.608-13.614-11.404-20.521c-1.14,8.555-0.68,20.44,0,29.07c7.436,3.566,8.988,14.345,19.382,10.832
	c1.381,2.073,2.178,5.019,5.699,3.421c-0.291,1.451-0.972,2.211,1.141,2.281c3.709,2.563,7.437,5.105,13.112,5.7
	c1.294,3.646,6.044,3.834,6.837,7.982c4.718,2.313,11.712,2.347,15.962,5.129c0.929-7.055,0.471-15.491,0.572-23.373
	c-3.023-1.886-3.042-2.606-6.272-2.28c-1.459-24.218,0.042-48.222,1.142-72.392c1.288-28.347-2.751-56.577-2.281-84.938
	c-6.992,7.219-26.499,9.124-42.182,6.272c3.152,26.679,12.429,47.238,25.081,64.413c0.657,0.675,1.845,0.722,1.77,2.124
	c2.295,0.937,4.293,2.267,5.641,4.148c-7.185,0.021-8.639-4.328-11.973-7.981c-7.833-8.598-15.634-17.873-21.66-27.36
	c1.002,34.233,12.091,58.333,23.942,80.942c1.673,3.19,4.831,6.313,3.99,10.262C253.817,331.176,250.25,320.698,246.734,313.708z
	 M230.775,241.884c6.7,8.5,12.483,20.956,19.949,26.792c-10.68-15.732-17.391-35.427-21.092-58.141
	C227.912,220.88,229.851,232.3,230.775,241.884z M218.802,319.41c0.929-4.77,9.629-2.12,10.26-7.409
	c0.518-4.316-4.125-5.176-9.691-5.703C219.869,310.983,216.846,315.165,218.802,319.41z M222.221,488.708
	c3.413,0.816,9.875,0.086,11.972-2.28c3.003,0.353,3.024,3.282,5.699,1.141c0.941-37.567,1.774-78.567,2.282-118.566
	c-2.82-0.035-3.749-4.349-5.701-3.42c-0.681,39.47,2.193,79.585-1.14,120.275c-0.792-40.24,0.198-80.362,0-120.275
	c-2.623-0.229-4.345-1.357-6.841-1.709c3.983,50.747,3.472,77.948,2.848,123.126c-0.945-41.235-2.174-83.498-3.417-123.126
	c-2.239-1.754-2.704-5.281-5.133-6.841C223.327,390.408,227.607,447.532,222.221,488.708z M301.458,361.591
	c-5.428-5.108-10.592,1.232-18.24,1.711c0.375,5.322-0.756,12.158,0.567,16.529c5.071-0.632,6.032-5.364,12.542-4.557
	c1.427-7.277,11.219-8.062,10.827-15.393C304.769,359.965,304.616,362.28,301.458,361.591z M300.75,372.084
	c-0.343,4.026-0.666,4.667-6.833,5c-0.756,0.953-2.867,2.008-2.5,4.084c-1.895-2.217-5.558-0.666-8.199-0.193
	c0.152,3.081,0.487,3.394,0,6.272c2.319,0.336,4.003,1.313,5.126,2.846c8.404-1.181,7.579,5.843,14.254,7.411
	c1.795,0.274,0.425-2.615,1.709-2.849c-0.194,2.476,0.429,4.129,2.282,4.558c2.312-9.218,0.509-20.868-1.256-29.795
	C302.877,370.572,304.607,372.331,300.75,372.084z M243.314,371.854c1.128,31.372,0.211,63.559-1.713,92.913
	c-0.242,3.752,0,8.608,0,13.11c0,4.031-1.292,9.482,2.282,11.4c-1.19-3.041,2.143-2.073,2.85-3.421
	c0.904-1.715-0.145-3.669-0.067-6.356c1.027-35.422,3.818-71.824,1.667-106.834c-2.197-0.647-2.566-2.131-5.019-2.521
	C243.314,370.711,243.314,371.283,243.314,371.854z M254.717,486.999c2.582,1.822,4.58,3.438,8.548,1.709
	c2.129-33.209,1.407-69.273,1.709-104.315c-2.11-2.07-3.015-5.346-6.269-6.268c-0.484,37.113-0.372,74.209-2.849,109.443
	c-2.439-37.984,1.349-73.266,0.811-111.234c-1.933-1.49-3.36-1.936-6.515-2.201c5.011,36.955-2.622,77.594-1.137,112.866
	C252.582,485.883,251.801,484.947,254.717,486.999z M267,386.167c1.226,34.558-1.167,71.666-0.885,101.972
	c5.877,1.079,4.788-4.408,5.132-7.983c2.84-29.749,1.47-64.003,1.14-93.48c-2.842-0.2-3.046-2.14-5.553-2.675
	C266.833,384.568,267,385.6,267,386.167z M273.526,388.384c0.858,28.652,0.683,60.206-0.57,87.783
	c-0.145,3.163-1.961,8.487,0,10.832c2.67,0.39,2.559-2,5.698-1.142c-0.428-32.732,1.74-65.898,0-98.043
	C277.612,387.453,273.134,384.925,273.526,388.384z M280.365,488.708c3.393,0.549,3.863-2.921,6.84-1.14
	c2.115-30.615,1.767-68.134-1.707-96.904c-2.012-1.255-3.622,0.611-5.133-1.143C284,423.5,279.167,458.166,280.365,488.708z
	 M287.779,394.084c2.388,25.249,2.888,55.582,1.708,79.804c-0.251,5.146-2.864,13.019,3.418,14.251
	c2.647-29.084,0.388-63.073,1.144-94.055C292.29,394.146,288.156,390.006,287.779,394.084z M295.186,476.74
	c-0.196,3.611-1.377,9.291,1.711,10.259c5.168-25.716,1.809-61.073,2.281-87.786c-1.914-0.747-2.367-2.949-3.992-3.991
	C295.186,421.213,296.584,451.001,295.186,476.74z M299.749,489.278c2.373-0.604,2.514-0.147,5.126,0
	c-0.131-20.328-1.137-45.968-1.137-67.264c0-7.521,1.336-15.508-1.711-21.658c-0.788,0.024-1.253-0.271-1.711-0.572
	C302,428.625,301.375,461.5,299.749,489.278z M306.589,485.29c1.321-24.741,0.66-57.256-0.574-83.225
	c-0.123-0.446-0.475-0.665-1.14-0.572C305.917,429.583,306.167,458.916,306.589,485.29z M306.015,488.139
	c1.527,0.333,2.906-2.346,1.713-2.849C307.681,486.76,305.284,485.889,306.015,488.139z M251.294,489.278
	c1.701-0.152,3.47,1.597,3.989-0.57c-0.796-1.103-2.107-1.688-3.417-2.28C251.385,487.09,251.113,487.957,251.294,489.278z
	 M287.779,489.278c0.668,0.655,2.01,0.647,3.415,0.571c0.15-1.857-0.675-2.745-2.276-2.851
	C288.62,487.846,288.071,488.436,287.779,489.278z M232.483,488.139c0.155,2.641,3.447,1.549,4.56,1.14
	c-1.391-0.315-1.215-2.205-3.42-1.71C233.496,488.015,233.147,488.229,232.483,488.139z M247.873,489.85c0.76,0,1.522,0,2.279,0
	c-0.07-1.453-0.825-2.211-2.279-2.281C247.873,488.328,247.873,489.088,247.873,489.85z M275.804,489.278
	c-0.953-0.756-1.911-1.51-3.989-1.14C271.375,490.782,275.303,489.032,275.804,489.278z M264.974,489.85
	c1.976-0.306,5.406,0.849,5.704-1.142C268.316,488.631,266.271,488.864,264.974,489.85z"/>
<path fill-rule="evenodd" clip-rule="evenodd" fill="#828282" d="M280.935,114.767c-2.711,0.625-2.105-2.073-4.561-1.709
	c-0.811-11.465,6.084-22.025,0.572-30.212c-2.939-4.36-8.159-4.61-13.68-7.41c-1.722-1.602,0.119-3.429-2.851-3.99
	c0.926-2.271,1.688-7.214,1.141-9.119c-1.977,2.891-0.529,5.523-1.712,7.98c-3.572,7.419-17.855,4.733-18.241,15.392
	c1.282-11.962,8.476-29.416,21.664-27.933c8.436,0.947,14.727,10.773,17.1,19.952C283.229,88.793,283.397,104.424,280.935,114.767z"
	/>
<path fill-rule="evenodd" clip-rule="evenodd" fill="#828282" d="M258.705,74.296c5.072,7.866,17.359,3.563,18.24,15.962
	c1.127,15.868-15.907,39.377-26.222,21.661c-4.644-7.977-12.096-21.659-5.131-30.213C249.313,77.141,254.524,80.299,258.705,74.296z
	 M262.124,93.109c2.993-0.333,4.317,1.004,7.411,0.568c0.181-2.268-3.313-0.867-3.992-2.281c1.034-1.817,4.409-1.292,6.272-2.279
	C268.498,86.774,262.93,89.436,262.124,93.109z M247.873,91.397c1.956-1.275,4.654-2.64,5.701,0.568c-2.363-0.15-2.223,0.753-3.99,0
	c1.04,3.317,7.107,1.168,7.41,0C256.382,89.235,248.16,85.918,247.873,91.397z M262.692,102.8c-0.86-0.699-4.909-1.119-5.698,0
	C258.667,103.743,261.802,105.789,262.692,102.8z M255.283,107.36c2.431,1.407,5.54-0.73,9.122,0
	C263.322,105.548,255.944,104.358,255.283,107.36z"/>
<path fill-rule="evenodd" clip-rule="evenodd" d="M271.814,89.118c-1.863,0.987-5.238,0.461-6.272,2.279
	c0.679,1.414,4.173,0.013,3.992,2.281c-3.094,0.436-4.418-0.901-7.411-0.568C262.93,89.436,268.498,86.774,271.814,89.118z"/>
<path fill-rule="evenodd" clip-rule="evenodd" d="M256.994,91.965c-0.303,1.168-6.371,3.317-7.41,0c1.768,0.753,1.627-0.15,3.99,0
	c-1.047-3.208-3.746-1.844-5.701-0.568C248.16,85.918,256.382,89.235,256.994,91.965z"/>
<path fill-rule="evenodd" clip-rule="evenodd" fill="#828282" d="M239.893,92.538c1.658,9.583,8.206,16.576,6.841,27.364
	c-3.789,1.323-6.473-2.379-10.833-2.281C243.324,114.89,238.608,102.141,239.893,92.538z"/>
<path fill-rule="evenodd" clip-rule="evenodd" d="M256.994,102.8c0.789-1.119,4.837-0.699,5.698,0
	C261.802,105.789,258.667,103.743,256.994,102.8z"/>
<path fill-rule="evenodd" clip-rule="evenodd" d="M264.405,107.36c-3.582-0.73-6.691,1.407-9.122,0
	C255.944,104.358,263.322,105.548,264.405,107.36z"/>
<path fill-rule="evenodd" clip-rule="evenodd" fill="#828282" d="M426.292,138.709c-11.917,16.666-30.792,28.166-31.667,55.416
	c-13.009,0.292-26.354-0.759-38.445,0.447c-2.821-0.491,3.071-0.75,3.32-1.822c9.875-7.5,17.61-14.297,21.763-26.108
	c-3.091-1.668-6.088,2.305-7.983,3.99c-16.275,14.469-36.824,28.268-60.423,35.913c0-3.232,0-6.46,0-9.692
	c12.894-2.103,22.915-13.188,27.93-26.221c-5.395,1.964-8.016,7.344-11.97,10.83c-3.979,3.509-8.532,6.765-14.819,7.981
	c-2.831,0.169,0.45-5.769-2.279-5.7c-3.639,7.732,0.749,16.739-2.283,25.08c3.787,45.136,1.29,95.25,2.283,145.359
	c-4.817,0.316-5.744,4.518-10.26,5.131c-4.083-3.563-2.124-11.983-2.124-18.646c0-20.863-0.836-46.37-1.867-66.29
	c-1.732,26.624,0.397,54.327,0,81.514c-2.745-0.085-1.885,2.695-5.134,2.109c-3.715-23.513-0.832-48.159-2-71.667
	c-0.789-15.787-2.881-31.219-3.666-47c-1.295-26.003-3.917-52.333-6.302-78.392c-1.865,25.433,1.969,51.454,3.42,76.954
	c0.916,16.092,2.573,32.487,3.548,48.104c1.552,25.022-0.411,48.493,3.294,72.744c-2.64,0.4-4.202,1.879-6.842,2.277
	c-0.618,0.146-1.412-0.7-1.14-0.568c-2.751-1.341-2.926-4.644-5.133-6.843c2.563-63.455,0.815-126.604-1.709-189.821
	c-4.371,7.073,1.885,25.837-1.712,35.345c-1.8,4.762-11.69,7.438-16.758,8.199c-16.366,2.47-34.766-1.595-44.23-7.63
	c-4.945-10.475-15.595-17.001-21.662-26.789c-4.627-7.462-6.309-16.694-13.68-22.233c-3.073,4.565,1.427,9.179,2.864,13.193
	c4.758,13.311,9.75,28.125,17.654,38.107c-16.467-4.743-28.947-13.021-37.051-26.221c-1.944-3.167-3.357-8.538-7.979-9.691
	c0.515,9.575,5.876,20.805,9.69,28.502c-10.207-2.711-18.214-7.625-19.952-18.811c-5.567,6.265-0.987,16.739,2.138,22.114
	c-2.931,1.058-5.684,1.701-8.978,2.398c-5.5-5.215-6.862-13.045-10.83-19.38c-2.537-4.054-6.776-6.858-9.12-10.832
	c-4.339-7.343-7.659-15.099-11.97-21.66c9.886-0.208,18.814-3.652,26.791-5.7c23.359-5.994,47.829-8.654,68.974-16.53
	c11.318-4.219,22.72-5.181,33.063-9.691c2.675-0.599-0.937,1.922,1.14,2.278c10.682,1.743,22.688,8.793,33.063,4.563
	c3.838-1.568,6.494-3.945,9.118-7.41c0.301-0.459,0.599-0.923,0.572-1.712c0.483-0.103,0.537,0.223,0.567,0.569
	c17.157,6.785,33.668,8.998,53.584,13.682c12.221,2.877,24.659,7.034,37.053,8.551C386.314,139.225,406.442,136.855,426.292,138.709
	z M207.401,155.241c3.934,9.217,12.205,22.875,18.242,27.932c7.953,6.663,30.562,14.998,37.622,1.708
	c-10.276,11.051-27.497,4.77-36.483-2.276c-10.713-8.402-17.244-28.243-24.508-39.904
	C203.709,147.418,205.185,150.048,207.401,155.241z M246.161,156.951c2.532,11.264,23.328,8.215,27.365,0.569
	c-0.066-0.694-0.172-1.346-1.139-1.139C268.349,165.074,250.456,166.231,246.161,156.951z"/>
<path fill-rule="evenodd" clip-rule="evenodd" fill="#828282" d="M455.363,138.709c-2.736,4.255-12.859-0.017-14.251,2.85
	c10.825,1.724,25.945-5.437,35.913,0.572c-4.408,2.624-13.654,0.405-19.952,1.138c6.499,1.297,15.161,0.423,21.661,1.709
	c-1.857,4.753-14.521,0.122-22.229,1.712c4.277,2.563,13.229,0.452,19.382,1.14c-3.063,5.429-15.302,3.786-22.231,2.281
	c1.667,4.032,9.777,1.62,14.822,2.277c-11.018,5.086-34.607,5.758-46.744,1.143c1.743-5.856,4.323-10.877,7.98-14.823
	C437.07,138.397,449.335,133.017,455.363,138.709z"/>
<path fill-rule="evenodd" clip-rule="evenodd" fill="#707070" d="M104.795,156.381c-10.962-0.048-27.996,8.316-34.771-2.85
	c-5.113,0.916-13.397,5.773-17.101,1.138c4.049-1.46,9.713-1.305,13.112-3.419c-3.41-1.115-9.13,3.394-13.683,1.138
	c2.455-4.006,10.734-2.183,13.683-5.698c1.185,0.146,0.153,2.503,1.139,2.85c4.481,0.491,7.28-0.699,9.691-2.282
	c2.483,3.12,10.831,4.851,15.39,2.282c-8.564,1.406-14.7-4.592-24.512-1.14c5.659-13.718,22.593-1.967,33.063-0.57
	C101.697,151.119,104.548,152.447,104.795,156.381z"/>
<path fill-rule="evenodd" clip-rule="evenodd" d="M202.273,142.701C209.538,154.362,216.287,173.598,227,182
	c8.987,7.046,25.75,12.75,36.265,2.881c-7.061,13.29-30.177,5.968-38.765-2.506c-7.143-7.048-13.165-17.917-17.099-27.134
	C205.185,150.048,203.709,147.418,202.273,142.701z"/>
<path fill-rule="evenodd" clip-rule="evenodd" fill="#707070" d="M68.315,154.67c2.55,0.491,2.974,3.109,5.699,3.422
	c-3.602,2.25-16.211,6.655-18.241,0C59.944,156.943,65.054,156.729,68.315,154.67z"/>
<path fill-rule="evenodd" clip-rule="evenodd" fill="#3D3D3D" d="M177.761,155.241c0.418-1.016,1.037-0.083,1.71,0
	c7.107,15.123,16.439,28.023,27.361,39.331c0,2.852,0,5.701,0,8.551c-6.705,1.824-8.594-4.629-10.831-8.551
	C189.364,182.941,183.443,168.103,177.761,155.241z"/>
<path fill-rule="evenodd" clip-rule="evenodd" d="M272.387,156.381c0.967-0.207,1.073,0.445,1.139,1.139
	c-4.037,7.646-24.833,10.695-27.365-0.569C252,165.375,268,163.5,272.387,156.381z"/>
<path fill-rule="evenodd" clip-rule="evenodd" fill="#3D3D3D" d="M417.174,157.52c-0.847,7.544-5.258,14.319-8.55,20.522
	c-3.148,5.922-6.495,13.067-11.973,15.389c1.151-17.089,11.293-25.185,17.672-37.05C416.075,155.955,415.42,157.947,417.174,157.52z
	"/>
<path fill-rule="evenodd" clip-rule="evenodd" fill="#707070" d="M79.144,160.37c-2.228,1.383-6.076,1.143-9.688,1.143
	C72.223,160.257,76.271,158.309,79.144,160.37z"/>
<path fill-rule="evenodd" clip-rule="evenodd" fill="#3D3D3D" d="M141.848,180.893c1.922,8.15,8.798,11.345,15.391,14.82
	c-4.503-0.513-6.223,1.758-10.259,1.712C144.413,192.768,141.507,188.454,141.848,180.893z"/>
<path fill-rule="evenodd" clip-rule="evenodd" fill="#3D3D3D" d="M219.371,306.298c5.566,0.526,10.208,1.387,9.691,5.703
	c-0.63,5.29-9.331,2.64-10.26,7.409C216.846,315.165,219.869,310.983,219.371,306.298z"/>
<path fill-rule="evenodd" clip-rule="evenodd" fill="#3D3D3D" d="M222.792,357.032c2.429,1.56,2.894,5.087,5.133,6.841
	c1.909,39.795,2.472,81.891,3.417,123.126c0.624-45.178,1.135-72.379-2.848-123.126c2.496,0.352,4.218,1.48,6.841,1.709
	c0.198,39.913-0.792,80.035,0,120.275c3.166-40.69,0.458-80.806,1.14-120.275c1.952-0.929,2.881,3.385,5.701,3.42
	c-0.341,40.332-0.841,81.166-2.282,118.566c-2.675,2.142-2.696-0.788-5.699-1.141c-2.097,2.366-8.559,3.097-11.972,2.28
	C227.607,447.532,223.327,390.408,222.792,357.032z"/>
<path fill-rule="evenodd" clip-rule="evenodd" fill="#3D3D3D" d="M307.154,359.882c0.392,7.331-7.82,7.369-10.827,15.393
	c-7.91,0.06-7.471,3.925-12.542,4.557c-1.323-4.371-0.192-11.207-0.567-16.529c7.648-0.479,12.813-6.819,18.24-1.711
	C304.616,362.28,304.769,359.965,307.154,359.882z"/>
<path fill-rule="evenodd" clip-rule="evenodd" fill="#828282" d="M306.5,366.001c1.765,8.927,2.4,23.994,0.089,33.212
	c-1.854-0.429-2.477-2.082-2.282-4.558c-1.284,0.233,0.086,3.123-1.709,2.849c-6.675-1.568-5.85-8.592-14.254-7.411
	c-1.123-1.533-2.807-2.51-5.126-2.846c0.487-2.879,0.152-3.191,0-6.272c2.642-0.473,4.199-1.891,7.282-2.141
	c1.584-1.667,1.994-1.381,2.75-2.334c5.417,0.167,5.5-2.416,7.084-5.833C305.084,368.834,304.044,367.155,306.5,366.001z"/>
<path fill-rule="evenodd" clip-rule="evenodd" fill="#3D3D3D" d="M243.314,370.146c2.453,0.391,2.822,1.708,5.019,2.355
	c3.548,35.301,0.365,71.621-1.667,107.166c-0.157,2.684,0.971,4.476,0.067,6.19c-0.707,1.348-4.041,0.38-2.85,3.421
	c-3.574-1.918-2.282-7.369-2.282-11.4c0-4.502-0.242-9.358,0-13.11c1.924-29.354,2.841-61.541,1.713-92.913
	C243.314,371.283,243.314,370.711,243.314,370.146z"/>
<path fill-rule="evenodd" clip-rule="evenodd" fill="#3D3D3D" d="M266.167,383.333c2.507,0.535,3.377,3.142,6.22,3.342
	c0.33,29.478,1.7,63.731-1.14,93.48c-0.345,3.575,0.745,9.063-5.132,7.983c-1.281-29.972,1.885-67.472,0-102.607
	C266.115,384.964,266.167,383.901,266.167,383.333z"/>
<path fill-rule="evenodd" clip-rule="evenodd" fill="#3D3D3D" d="M278.654,387.814c1.74,32.145-0.428,65.311,0,98.043
	c-3.139-0.858-3.028,1.531-5.698,1.142c-1.961-2.345-0.145-7.669,0-10.832c1.253-27.577,1.428-59.131,0.57-87.783
	C273.134,384.925,277.612,387.453,278.654,387.814z"/>
<path fill-rule="evenodd" clip-rule="evenodd" fill="#3D3D3D" d="M280.365,389.521c1.511,1.754,3.121-0.112,5.133,1.143
	c3.474,28.771,3.822,66.289,1.707,96.904c-2.977-1.781-3.447,1.688-6.84,1.14C278.5,459,283.5,423,280.365,389.521z"/>
<path fill-rule="evenodd" clip-rule="evenodd" fill="#3D3D3D" d="M294.049,394.084c-0.756,30.981,1.504,64.971-1.144,94.055
	c-6.282-1.232-3.708-9.106-3.418-14.251c1.347-23.888,0.347-54.722-1.708-79.804C288.156,390.006,292.29,394.146,294.049,394.084z"
	/>
<path fill-rule="evenodd" clip-rule="evenodd" fill="#3D3D3D" d="M295.186,395.222c1.625,1.042,2.078,3.244,3.992,3.991
	c-0.473,26.713,2.887,62.07-2.281,87.786c-3.088-0.968-1.922-6.648-1.711-10.259C296.667,451.417,295.186,421.213,295.186,395.222z"
	/>
<path fill-rule="evenodd" clip-rule="evenodd" fill="#3D3D3D" d="M300.316,399.784c0.458,0.302,0.923,0.597,1.711,0.572
	c3.047,6.15,1.711,14.138,1.711,21.658c0,21.296,1.006,46.936,1.137,67.264c-2.612-0.147-2.753-0.604-5.126,0
	C301,462.375,302,431.333,300.316,399.784z"/>
<path fill-rule="evenodd" clip-rule="evenodd" fill="#3D3D3D" d="M304.875,401.493c0.665-0.093,1.017,0.126,1.14,0.572
	c1.234,25.969,1.896,58.483,0.574,83.225C305.333,458.75,306,429.916,304.875,401.493z"/>
<path fill-rule="evenodd" clip-rule="evenodd" fill="#3D3D3D" d="M307.728,485.29c1.193,0.503-0.186,3.182-1.713,2.849
	C305.284,485.889,307.681,486.76,307.728,485.29z"/>
<path fill-rule="evenodd" clip-rule="evenodd" fill="#3D3D3D" d="M251.867,486.428c1.31,0.592,2.62,1.178,3.417,2.28
	c-0.519,2.167-2.288,0.418-3.989,0.57C251.113,487.957,251.385,487.09,251.867,486.428z"/>
<path fill-rule="evenodd" clip-rule="evenodd" fill="#3D3D3D" d="M288.918,486.999c1.602,0.105,2.427,0.993,2.276,2.851
	c-1.405,0.076-2.747,0.084-3.415-0.571C288.071,488.436,288.62,487.846,288.918,486.999z"/>
<path fill-rule="evenodd" clip-rule="evenodd" fill="#3D3D3D" d="M233.622,487.568c2.205-0.495,2.03,1.395,3.42,1.71
	c-1.112,0.409-4.405,1.501-4.56-1.14C233.147,488.229,233.496,488.015,233.622,487.568z"/>
<path fill-rule="evenodd" clip-rule="evenodd" fill="#3D3D3D" d="M247.873,487.568c1.454,0.07,2.209,0.828,2.279,2.281
	c-0.757,0-1.519,0-2.279,0C247.873,489.088,247.873,488.328,247.873,487.568z"/>
<path fill-rule="evenodd" clip-rule="evenodd" fill="#3D3D3D" d="M270.678,488.708c-0.297,1.99-3.728,0.836-5.704,1.142
	C266.271,488.864,268.316,488.631,270.678,488.708z"/>
<path fill-rule="evenodd" clip-rule="evenodd" fill="#828282" d="M273.526,108.5c1.226,1.812,0.14,5.939,1.139,7.979
	c-6.415,4.771-14.54,8.771-26.221,3.993c-0.277-1.798,1.749-1.294,1.141-3.422c0.102-2.762-0.452-4.867-1.141-6.841
	c1.202,0.708,3.057,5.04,5.131,7.411C262.602,123.464,269.674,114.599,273.526,108.5z"/>
<path fill-rule="evenodd" clip-rule="evenodd" fill="#3D3D3D" d="M423.441,144.979c0.782,1.941-2.598,4.611-2.279,7.981
	c-1.255,0.836-2.448,1.735-4.561,1.71C418.028,150.586,421.743,148.794,423.441,144.979z"/>
<path fill-rule="evenodd" clip-rule="evenodd" fill="#3D3D3D" d="M109.927,162.651c1.492,1.358,2.181,3.519,2.85,5.703
	C111.005,167.274,110.569,164.859,109.927,162.651z"/>
<path fill-rule="evenodd" clip-rule="evenodd" fill="#3D3D3D" d="M378.98,168.923c-2.813,4.983-16.189,20.082-23.371,23.939
	c-3.234,1.739-7.483,1.5-11.4,2.282C356.818,187.426,368.941,179.212,378.98,168.923z"/>
<path fill-rule="evenodd" clip-rule="evenodd" fill="#3D3D3D" d="M165.22,194.003c-4.479-6.162-7.423-13.86-9.69-22.232
	c2.717,5.806,9.86,15.064,17.671,20.523c5.733,4.007,9.604,5.661,11.97,7.409c-2.003-1.477,3.417,1.815,0,0.57
	C179.293,198.133,176.168,192.721,165.22,194.003z"/>
<path fill-rule="evenodd" clip-rule="evenodd" fill="#3D3D3D" d="M116.851,175.845c6.19,2.555,9.389,13.032,13.109,19.951
	C124.021,192.995,121.274,182.063,116.851,175.845z"/>
<path fill-rule="evenodd" clip-rule="evenodd" fill="#3D3D3D" d="M335.09,178.612c-4.862,5.972-12.35,14.256-22.233,17.101
	c0-1.331,0-2.657,0-3.988C324.078,191.163,328.602,183.909,335.09,178.612z"/>
<path fill-rule="evenodd" clip-rule="evenodd" fill="#828282" d="M230.775,278.938c-2.548,7.145-0.117,19.266-1.713,27.36
	c-4.059-2.397-11.152-1.767-14.251-5.128c0.15-6.423-0.102-12.437-6.27-12.54c1.65-28.151-2.962-61.57,0.571-89.495
	c4.729,4.58,11.078,7.542,18.24,9.688c-1.85,28.063,4.518,59.267,7.982,79.807C233.92,285.291,233.051,281.41,230.775,278.938z"/>
<path fill-rule="evenodd" clip-rule="evenodd" fill="#3D3D3D" d="M192.012,203.123c-2.223-1.043,4.997,1.324,6.84,1.711
	c1.947-0.458,3.254,0.851,0.569,0.569C196.077,205.519,192.945,205.419,192.012,203.123z"/>
<path fill-rule="evenodd" clip-rule="evenodd" fill="#828282" d="M259.273,336.511c0.841-3.948-2.317-7.071-3.99-10.262
	c-11.851-22.609-22.939-46.709-23.942-80.942c6.026,9.487,13.827,18.763,21.66,27.36c3.333,3.653,4.788,8.001,11.973,7.981
	c-1.348-1.882-3.845-2.711-6.141-3.648c0.075-1.401-0.612-1.949-1.27-2.624c-12.652-17.175-21.929-37.734-25.081-64.413
	c15.683,2.852,35.189,0.947,42.182-6.272c-0.47,28.361,3.568,56.591,2.281,84.938c-1.1,24.17-2.601,48.174-1.142,72.392
	c3.23-0.326,3.249,0.395,6.272,2.28c-0.101,7.882,0.357,16.318-0.572,23.373c-4.25-2.782-11.244-2.815-15.962-5.129
	c-0.793-4.148-5.543-4.336-6.837-7.982c-5.675-0.595-9.403-3.138-13.112-5.7c-2.113-0.07-1.432-0.83-1.141-2.281
	c-3.521,1.598-4.317-1.348-5.699-3.421c-10.395,3.514-11.946-7.265-19.382-10.832c-0.68-8.629-1.14-20.515,0-29.07
	c2.962,6.574,2.462,15.907,11.404,20.521c-3.578-4.786-8.275-13.388-9.693-22.23c3.235-2.086,7.078-3.564,10.26-5.7
	c0.592-1.5,0.682-3.499,0.571-5.701C243.566,326,248,347,271.247,355.322c-1.891-2.108-6.681-6.234-11.404-7.413
	C248.31,336.266,240.736,319.943,232,305.5c0.357-7.052-0.816-14.749,0.483-20.86c8.601,22.945,16.517,46.611,31.353,63.841
	c-6.767-11.473-14.655-26.768-21.092-40.472c0.853-0.964,2.959,3.647,3.99,5.699C250.25,320.698,253.817,331.176,259.273,336.511z"
	/>
<path fill-rule="evenodd" clip-rule="evenodd" fill="#3D3D3D" d="M229.631,210.535c3.702,22.714,10.413,42.408,21.092,58.141
	c-7.465-5.836-13.249-18.292-19.949-26.792C229.851,232.3,227.912,220.88,229.631,210.535z"/>
<path fill-rule="evenodd" clip-rule="evenodd" fill="#3D3D3D" d="M249.015,486.999c-1.485-35.272,6.148-75.911,1.137-112.866
	c3.155,0.266,4.748,0.878,6.681,2.368c0.538,37.969-3.333,73.25-0.978,111.067c2.311-34.984,2.365-72.33,2.849-109.443
	c3.254,0.922,4.159,4.197,6.269,6.268c-0.302,35.042,0.42,71.106-1.709,104.315c-3.968,1.729-5.966,0.113-8.548-1.709
	C251.801,484.947,252.582,485.883,249.015,486.999z"/>
<path fill-rule="evenodd" clip-rule="evenodd" fill="#3D3D3D" d="M271.814,488.139c2.079-0.37,3.036,0.384,3.989,1.14
	C275.303,489.032,271.375,490.782,271.814,488.139z"/>
</svg>
