<?xml version="1.0" encoding="utf-8"?>
<!-- Generator: Adobe Illustrator 16.0.0, SVG Export Plug-In . SVG Version: 6.00 Build 0)  -->
<!DOCTYPE svg PUBLIC "-//W3C//DTD SVG 1.1//EN" "http://www.w3.org/Graphics/SVG/1.1/DTD/svg11.dtd">
<svg version="1.1" id="Ebene_2" xmlns="http://www.w3.org/2000/svg" xmlns:xlink="http://www.w3.org/1999/xlink" x="0px" y="0px"
	 width="566.93px" height="708.66px" viewBox="0 0 566.93 708.66" enable-background="new 0 0 566.93 708.66" xml:space="preserve">
<path fill="#EDA20A" stroke="#000000" stroke-width="0.25" stroke-miterlimit="10" d="M302,352.66c0,0,5.5-4.667,6-4.667
	s2.168-0.5,3.334,0.833s18.333,14.167,18.333,14.167l-24.479,0.479L302,352.66z"/>
<path fill="#CE8B11" stroke="#000000" stroke-width="0.25" stroke-miterlimit="10" d="M302,352.66c0,0,5.5-4.666,6-4.666
	s-2.563,15.104-2.563,15.104L302,352.66z"/>
<polygon fill="#EDA20A" stroke="#000000" stroke-width="0.25" stroke-miterlimit="10" points="272.167,353.911 288.001,338.078 
	315.375,363.535 272.583,363.16 "/>
<polygon fill="#CE890D" stroke="#000000" stroke-width="0.25" stroke-miterlimit="10" points="287.75,338.66 272.167,353.494 
	273,362.994 275.333,362.828 "/>
<polygon fill="#EDA20A" stroke="#000000" stroke-width="0.25" stroke-miterlimit="10" points="242.875,361.036 267.208,340.202 
	295.542,361.785 296.375,363.118 242.042,362.952 "/>
<polygon fill="#CE890D" stroke="#000000" stroke-width="0.25" stroke-miterlimit="10" points="266.813,340.806 252.208,362.952 
	242.042,362.952 242.542,361.452 "/>
<path fill="#EDA20A" stroke="#000000" stroke-width="0.25" stroke-miterlimit="10" d="M223.792,362.868c0,0,4.271-2.781,4.958-2.906
	s1.375,0.323,1.875,0.156s0.167-1.083,0.75-1.333s0.833-0.334,1.5-0.417c0.469-0.094-0.063-0.146,0-0.417s0.917-0.166,0.917-0.166
	l-0.083-1.084c0,0,0.083-0.417,0.833-0.25s1.333-0.416,1.75-0.416s1.167,0.082,1.917,0.166s1.833-0.25,2.75,0.417
	c0.385,0.25,0.01,0.334,0.167,0.667s0.563-0.146,0.75,0s0.333,1.75,0.333,1.75l1.5,0.166c0,0,1.167,0.334,1.167,0.667
	s0.333,2.25,0.333,2.25s1.583-0.501,1.917,0.083s0.5,1.251,0.5,1.584s-6,1.416-9.917,1.083s-3.917-0.333-3.917-0.333
	S222.792,364.285,223.792,362.868z"/>
<path fill="#BC7D0C" stroke="#000000" stroke-width="0.25" stroke-miterlimit="10" d="M223.917,362.993c0,0,4.271-2.781,4.958-2.906
	s1.375,0.323,1.875,0.156s0.167-1.083,0.75-1.333s0.833-0.334,1.5-0.417c0.469-0.094-0.063-0.146,0-0.417s0.917-0.166,0.917-0.166
	l-0.083-1.084c0,0,0.083-0.417,0.833-0.25s1.333-0.416,1.75-0.416s-6.917,8.208-6.917,8.208S224,364.368,223.917,362.993z"/>
<path fill="#EDA20A" stroke="#000000" stroke-width="0.25" stroke-miterlimit="10" d="M250.813,363.243c0,0,2.938-2.313,3.188-1.938
	s0.813-1.625,2-2.375s2.688-2,3.75-2.313s0.938-1.125,1.75-0.75s8.063,4.375,8.5,5.625s1.813,1.125,2.375,2s0.375,1.375,0,1.375
	s-12.938,0.313-14.75,0.063s-3.063-0.875-5.25-0.688s-3.313-0.5-3.313-0.5S250.25,363.056,250.813,363.243z"/>
<path fill="#BC7D12" stroke="#000000" stroke-width="0.1" stroke-miterlimit="10" d="M250.813,363.368c0,0,2.938-2.313,3.188-1.938
	s0.813-1.625,2-2.375s2.771-1.919,3.75-2.438c1.063-0.563-3.063,5-4.938,7.563c-0.333,0.456-1.938-0.25-2.438,0.063
	c-0.802,0.501-3.313-0.375-3.313-0.375S250.25,363.181,250.813,363.368z"/>
<path fill="#EDA20A" stroke="#000000" stroke-width="0.25" stroke-miterlimit="10" d="M275.25,364.368c0,0,1.875-2.625,4.125-3.625
	c1.176-0.522,1.375-3.875,7.5-6.125c0,0,13,9.75,13.625,10.75C300.5,365.368,275.875,365.368,275.25,364.368z"/>
<path fill="#CE890D" stroke="#000000" stroke-width="0.25" stroke-miterlimit="10" d="M275.25,364.493c0,0,1.875-2.625,4.125-3.625
	c1.176-0.522,1.375-3.875,7.5-6.125l-6.501,10.378C280.374,365.121,275.425,364.773,275.25,364.493z"/>
</svg>
