<?xml version="1.0" encoding="utf-8"?>
<!-- Generator: Adobe Illustrator 16.0.0, SVG Export Plug-In . SVG Version: 6.00 Build 0)  -->
<!DOCTYPE svg PUBLIC "-//W3C//DTD SVG 1.1//EN" "http://www.w3.org/Graphics/SVG/1.1/DTD/svg11.dtd">
<svg version="1.1" id="Ebene_1" xmlns="http://www.w3.org/2000/svg" xmlns:xlink="http://www.w3.org/1999/xlink" x="0px" y="0px"
	 width="566.93px" height="708.66px" viewBox="0 0 566.93 708.66" enable-background="new 0 0 566.93 708.66" xml:space="preserve">
<path fill-rule="evenodd" clip-rule="evenodd" fill="#FFFFFF" d="M379.549,240.924c-5.17-0.678-11.101-5.822-16.927-7.859
	c-0.693-2.504,1.272-2.355,1.209-4.229c-2.912-0.498-1.18,3.652-3.624,3.624c-34.044-16.187-102.471-14.228-137.816-2.417
	c4.242-14.514,26.546-14.117,45.936-15.111c14.742-0.758,32.757-5.013,48.963-3.021c9.122,1.118,18.411,5.492,25.993,6.645
	c1.95-0.539,0.849,1.973,1.81,2.421c6.539-2.153,12.535,6.29,20.555,6.648c1.655,3.257,6.296,3.762,10.277,6.046
	C377.007,236.212,377.851,238.992,379.549,240.924z"/>
<path fill-rule="evenodd" clip-rule="evenodd" fill="#FFFFFF" d="M312.454,227.625c0.433,2.989,0.829,6.02,0.604,9.672
	c0.067,1.544,2.025,1.198,3.628,1.208c-2.13,10.566-4.377,21.013-5.443,32.643c-4.432,0-8.862,0-13.295,0
	c2.25-10.443,2.912-22.472,4.833-33.248c1.406-1.604,1.618,1.606,3.021,0C304.328,232.096,305.541,224.678,312.454,227.625z"/>
<path fill-rule="evenodd" clip-rule="evenodd" fill="#FFFFFF" d="M279.813,228.232c1.538,1.482,2.159,3.882,1.813,7.251
	c-0.283,2.097,3.281,0.349,3.628,1.814c-1.95,10.744-3.675,21.715-5.441,32.639c-4.117-0.287-7.363,0.295-10.88,0.604
	c0.226-14.484,6.42-27.378,4.229-40.497C274.747,228.807,276.7,227.936,279.813,228.232z"/>
<path fill-rule="evenodd" clip-rule="evenodd" fill="#FFFFFF" d="M295.529,230.648c1.554,2.275,0.352,7.304,4.23,7.252
	c-1.258,11.034-2.366,22.215-4.23,32.641c-3.167-0.055-5.444-1.005-9.068-0.604c0.903-10.781,2.715-20.66,2.419-32.639
	c0.794-0.618,2.228-0.594,3.023-1.21C285.484,234.799,290.754,225.708,295.529,230.648z"/>
<path fill-rule="evenodd" clip-rule="evenodd" fill="#FFFFFF" d="M264.097,231.253c1.042,2.185,2.1,4.345,2.417,7.252
	c0.55,1.464,1.784-1.369,3.628-0.605c-1.505,11.998-3.248,23.754-7.255,33.248c-1.611,0-3.223,0-4.835,0
	c-0.625-11.961,1.193-27.693,1.21-39.29C260.139,230.919,262.356,231.326,264.097,231.253z"/>
<path fill-rule="evenodd" clip-rule="evenodd" fill="#FFFFFF" d="M286.461,236.695c0.605,0,1.21,0,1.813,0
	c-1.125,10.958-1.188,22.99-3.02,33.241c-1.41,0-2.821,0-4.232,0C282.729,258.751,284.432,247.56,286.461,236.695z"/>
<path fill-rule="evenodd" clip-rule="evenodd" fill="#FFFFFF" d="M271.956,237.298c-0.394,10.086-2.45,23.741-5.442,33.243
	C265.413,261.692,270.452,248.934,271.956,237.298z"/>
<path fill-rule="evenodd" clip-rule="evenodd" fill="#FFFFFF" d="M300.969,237.298c1.852,1.5-0.724,3.669,0,6.043
	C299.782,242.503,300.231,238.209,300.969,237.298z"/>
<path fill-rule="evenodd" clip-rule="evenodd" fill="#FFFFFF" d="M256.239,242.131c0.704-0.097,1.074,0.135,1.21,0.607
	c-0.999,9.478,1.742,22.698-3.024,28.41C251.378,262.625,255.194,250.583,256.239,242.131z"/>
<path fill-rule="evenodd" clip-rule="evenodd" fill="#FFFFFF" d="M333.007,242.738c2.942,3.543-0.757,9.296-0.606,13.903
	C330.754,252.561,333.162,247.335,333.007,242.738z"/>
<path fill-rule="evenodd" clip-rule="evenodd" fill="#FFFFFF" d="M369.272,316.48c0.485,0.319,0.98,0.632,1.815,0.606
	c-0.985,10.699-2.89,20.488-3.024,32.036c-7.213-5.429,2.058-18.391,0-30.222C369.182,318.807,368.437,316.853,369.272,316.48z"/>
<path fill-rule="evenodd" clip-rule="evenodd" fill="#FFFFFF" d="M371.088,355.167c0.821-0.77,0.931-2.96-0.604-3.024
	c2.514-1.482,2.829,4.408,3.022,7.256c-33.814-13.926-88.856-22.021-137.819-18.74c-8.557,0.577-16.816,2.897-24.178,5.442
	c-0.253-1.99-5.712-1.91-4.231-3.627c7.134-4.447,18.852-8.702,31.433-9.674c15.025-1.154,35.734-2.287,47.146,1.211
	c13.383-0.768,30.591,0.357,44.732,3.021c9.97,1.876,20.937,4.527,25.99,10.881C363.152,346.246,366.247,353.103,371.088,355.167z"
	/>
<path fill-rule="evenodd" clip-rule="evenodd" fill="#FFFFFF" d="M371.689,361.816c-1.171,2.25-2.603,4.245-3.022,7.254
	c-2.487-0.477-3.103,0.929-5.438,0.606c0.913-2.185-0.126-5.322-1.209-7.256c-4.358-0.935-5.319,1.533-6.649,3.627
	c-1.64,0.371-4.797-0.769-5.44,0.605c0.408-7.388-8.56-10.991-9.671-2.421c-5.217-0.427-8.155-3.13-7.252-9.67
	c-3.534-5.868-8.02,0.51-9.675,3.628c-4.969-1.498-2.467-7.73-7.252-8.464c-4.738-0.726-5.653,4.076-8.462,7.857
	c-1.209,0-2.418,0-3.627,0c1.922-11.361-13.568-11.47-12.088-0.604c-0.604,0-1.212,0-1.814,0c-2.697-1.732-1.538-7.329-5.439-7.857
	c-3.889-0.26-3.346,3.908-4.23,6.648c-4.987-0.285-6.3-4.47-9.673-1.208c-0.384-2.639-0.318-5.727-1.813-7.252
	c-2.76-0.545-3.428,1.005-5.44,1.208c-0.921,1.499-0.147,4.685-1.209,6.045c-2.69,0.472-3.627-0.807-6.045-0.604
	c-0.107-2.714-1.257-4.384-2.418-6.046c-2.015,0-4.028,0-6.044,0c-2.141,2.186-0.438,5.002-0.604,8.462
	c-1.764,2.001-7.031-1.094-7.253,1.209c-1.769-2.664-3.052-5.811-5.441-7.857c-4.845-0.276-6.948,3.565-5.439,7.857
	c-1.42,0.191-2.271,0.954-4.23,0.606c0.172-3.6,0.137-6.993-2.417-7.857c-7.396-0.554-6.925,9.083-3.629,12.692
	c-3.529-0.165-3.826,1.747-7.253,0.604c0-4.837,0-9.671,0-14.508c23.656-8.261,64.315-8.269,94.294-4.229
	c14.104,1.896,28.768,6.019,41.709,9.066C356.589,356.092,365.119,357.722,371.689,361.816z"/>
<path fill-rule="evenodd" clip-rule="evenodd" fill="#FFFFFF" d="M253.216,392.643c-3.828,0-7.657,0-11.485,0
	c-0.335-12.421,2.672-21.506,1.813-34.452c0.78-0.835,2.627-0.602,4.231-0.606c-2.583-12.93,8.147-8.885,9.067-1.813
	C256.504,368.932,253.767,379.693,253.216,392.643z"/>
<path fill-rule="evenodd" clip-rule="evenodd" fill="#FFFFFF" d="M267.121,348.518c3.866,0.565,0.606,8.259,5.439,7.857
	c0.054,13.153-1.451,24.744-2.418,36.874c-3.829,0-7.658,0-11.486,0c1.921-11.38,3.204-23.393,3.023-36.874
	c-1.292-3.138,1.611,0.351,2.417-1.208C265.16,353.103,262.532,347.958,267.121,348.518z"/>
<path fill-rule="evenodd" clip-rule="evenodd" fill="#FFFFFF" d="M305.2,359.399c-1.413,11.683,0.415,26.608-2.419,36.869
	c-4.467-0.364-8.315-1.352-13.297-1.207c-0.439-10.276,4.012-23.579,1.814-35.662c0.947-0.26,0.515-1.903,2.417-1.209
	c-2.178-7.762,5.011-10.794,8.463-6.047C303.205,354.546,301.913,359.263,305.2,359.399z"/>
<path fill-rule="evenodd" clip-rule="evenodd" fill="#FFFFFF" d="M285.254,350.333c6.919,10.597,2.234,30.628,1.207,44.124
	c-3.478,0.052-6.98,0.129-9.672-0.604c-0.842-13.74,1.864-26.472,1.813-37.479c1.506,0.064,1.873,1.134,3.023,0
	C282.104,354.81,281.077,349.813,285.254,350.333z"/>
<path fill-rule="evenodd" clip-rule="evenodd" fill="#FFFFFF" d="M236.897,392.038c2.129-6.682,2.813-17.605,3.624-25.99
	c0.259-2.665-1.478-7.186,2.418-7.857c0.156,12.444-2.297,22.282-2.418,34.452c-5.239,0-10.474,0-15.712,0
	c1.255-13.464,4.138-27.795,4.835-39.895c2.734-3.316,6.179-1.456,8.46,3.023c0.4,0.789-0.438,2.261,0,3.022
	c0.098,0.171,1.82,0.637,1.814,0.606C241.676,368.05,235.58,385.19,236.897,392.038z"/>
<path fill-rule="evenodd" clip-rule="evenodd" fill="#FFFFFF" d="M319.101,397.479c-2.598,0.976-5.975-1.931-10.272-1.211
	c1.417-8.883-1.217-26.046,0-36.266c0.165-1.403,2.324-8.985,6.043-9.067c3.496-0.079,5.79,6.726,6.042,9.067
	C321.939,369.384,319.445,388.42,319.101,397.479z"/>
<path fill-rule="evenodd" clip-rule="evenodd" fill="#FFFFFF" d="M222.391,351.539c4.904,10.856,0.594,27.106,0,41.104
	c-2.274,1.155-5.483,1.371-9.07,1.211c0.494-4.943,1.964-10.089,3.022-15.718c0.916-4.857,3.199-11.645,3.024-15.715
	C219.215,358.93,214.442,351.723,222.391,351.539z"/>
<path fill-rule="evenodd" clip-rule="evenodd" fill="#FFFFFF" d="M330.589,353.354c5.257,14.06,2.409,29,0,46.543
	c-3.174-0.255-5.776-1.077-8.464-1.815c2.109-12.313,1.256-32.501,5.441-44.728C328.572,353.354,329.581,353.354,330.589,353.354z"
	/>
<path fill-rule="evenodd" clip-rule="evenodd" fill="#FFFFFF" d="M258.051,355.167c0.403,0,0.806,0,1.21,0
	c3.1,9.359,0.467,30.794-3.022,37.476c-3.808-0.927-1.414-5.572-1.208-7.857c0.746-8.262,2.297-18.741,3.021-27.806
	C258.051,356.375,258.051,355.771,258.051,355.167z"/>
<path fill-rule="evenodd" clip-rule="evenodd" fill="#FFFFFF" d="M273.768,355.167c0.606,0,1.21,0,1.813,0
	c1.956,12.525,0.798,26.858-1.207,38.687c-5.772-0.703-2.135-7.872-1.814-11.485c0.703-7.908,0.698-17.946,1.208-25.389
	C273.768,356.375,273.768,355.771,273.768,355.167z"/>
<path fill-rule="evenodd" clip-rule="evenodd" fill="#FFFFFF" d="M227.225,358.793c0.598,6.043-1.293,14.82-1.815,21.76
	C224.126,373.823,225.679,364.704,227.225,358.793z"/>
<path fill-rule="evenodd" clip-rule="evenodd" fill="#FFFFFF" d="M306.409,358.793c4.089,4.847,1.692,14.068,1.209,21.157
	c-0.4,5.865,1.768,12.921-1.815,16.318C303.455,386.04,307.136,371.426,306.409,358.793z"/>
<path fill-rule="evenodd" clip-rule="evenodd" fill="#FFFFFF" d="M346.302,360.003c3.64,3.024,0.614,6.358-0.601,11.483
	c-2.038,8.578-1.036,23.011-2.418,30.829c-2.118,1.03-5.177-1.472-8.465-1.209c2.467-10.634,3.801-22.394,3.625-35.665
	C343.752,367.964,339.98,358.25,346.302,360.003z"/>
<path fill-rule="evenodd" clip-rule="evenodd" fill="#FFFFFF" d="M359.602,363.63c4.143,2.29,2.716,10.072,2.418,14.506
	c-0.531,7.927-3.041,17.006-3.625,23.576C358.28,389.685,358.452,373.725,359.602,363.63z"/>
<path fill-rule="evenodd" clip-rule="evenodd" fill="#FFFFFF" d="M210.904,364.836c1.21,0,2.417,0,3.628,0
	c-1.274,10.616-3.081,20.698-6.046,29.621C207.176,387.271,211.167,374.997,210.904,364.836z"/>
<path fill-rule="evenodd" clip-rule="evenodd" fill="#FFFFFF" d="M215.739,364.836c1.958,8.438-2.348,21.004-4.23,29.621
	C210.25,384.33,215.505,375.486,215.739,364.836z"/>
<path fill-rule="evenodd" clip-rule="evenodd" fill="#FFFFFF" d="M335.426,364.836c0.4,0,0.801,0,1.205,0
	c2.753,2.009,0.816,5.519,0.607,8.463c-0.675,9.396-0.305,21.689-4.838,27.203C331.91,389.512,335.81,377.734,335.426,364.836z"/>
<path fill-rule="evenodd" clip-rule="evenodd" fill="#FFFFFF" d="M356.579,366.048c2.449,10.451,0.686,26.703-0.603,38.687
	c-3.287-0.341-6.307-0.949-9.069-1.814c1.52-12.182,2.184-25.22,4.837-36.267C354.059,366.219,356.433,369.485,356.579,366.048z"/>
<path fill-rule="evenodd" clip-rule="evenodd" fill="#FFFFFF" d="M349.325,367.858c-0.786,10.095-1.204,25.794-4.836,35.062
	C345.56,390.228,344.711,375.405,349.325,367.858z"/>
<path fill-rule="evenodd" clip-rule="evenodd" fill="#FFFFFF" d="M290.089,369.07c1.708,1.945-0.133,5.483,0,7.856
	C288.263,374.864,290.52,371.74,290.089,369.07z"/>
<path fill-rule="evenodd" clip-rule="evenodd" fill="#FFFFFF" d="M368.667,370.276c-1.421,12.479-3.525,24.282-5.438,36.271
	c-1.92-0.091-2.662-1.372-4.834-1.211c2.639-10.252,4.186-21.604,4.834-33.85C365.243,371.282,365.909,369.735,368.667,370.276z"/>
<path fill-rule="evenodd" clip-rule="evenodd" fill="#FFFFFF" d="M298.551,262.08c-0.588-2.413,0.088-8.765,1.209-11.485
	c0.293,3.72-1.074,5.777-0.604,9.673C298.446,260.363,298.646,261.368,298.551,262.08z"/>
<path fill-rule="evenodd" clip-rule="evenodd" fill="#FFFFFF" d="M323.332,358.793c1.867,10.509-1.603,26.881-2.419,38.687
	c-0.767-0.135-0.789-1.805,0-1.813c-0.534-3.12,0.446-6.215,0.607-9.673C321.972,376.295,319.73,365.271,323.332,358.793z"/>
<g>
	<path fill-rule="evenodd" clip-rule="evenodd" d="M376.689,164.896c11.634,4.911,23.012,18.215,15.574,33.936
		c-0.691,13.205-3.551,23.879-5.75,35.323c2.763,4.827,3.31,9.077,4.217,16.089c-11.439,5.696-6.963,29.97-12.378,42.698
		c4.656,3.537,4.851,17.476-0.976,20.537c-0.511,14.294-3.978,25.134-5.936,37.738c2.943,3.569,5.281,7.248,3.85,13.027
		c-0.654,2.617-3.522,3.586-4.734,6.306c-0.631,1.418-1.206,6.859-1.943,9.547c-2.641,9.614-3.874,20.16-7.096,29.162
		c3.412,2.983,5.433,9.212,4.356,14.279c-2.641,1.955-4.519,4.798-6.632,7.37c-0.728,14.694-4.26,26.115-7.188,38.246
		c-0.063,2.305,3.251,1.716,3.336,3.895c-3.855,1.993,3.114,5.099,2.319,9.271c-0.548,2.892-2.26,3.264-5.795,4.405
		c1.471,1.383-1.071,9.15,0.556,8.529c-2.432,9.864-3.615,26.868-7.141,37.645c0.117,2.528,3.241,2.474,3.243,5.101
		c-3.743,27.067-11.782,69.486-18.779,94.341c-2.097,7.446-1.96,11.083-9.317,10.803c-44.533-9.493-98.444-9.78-146.727-15.143
		c-0.25-0.25-2.5-0.25-2.5-0.25c-2.92-0.146-0.807,0.842-2.25,0.25c-5.184-1.012-9-1-10.75-0.75c0.347,1.086-2.75,0.25-1.25,0
		c-2-0.5,0.621-10.594,1.402-12.952c4.45-11.925,5.362-26.797,7.465-41.865c2.424-17.336,8.503-35.088,8.674-49.648
		c0.072-6.212-0.926-11.327,4.774-14.789c2.461-17.055,6.548-32.209,9.231-49.002c-1.965-2.26-4.486-4.038-2.921-9.32
		c0.298-2.933,4.384-1.453,5.145-3.847c2.237-16.436,5.785-31.344,8.486-47.24c-6.198-4.101-1.573-13.026,3.571-14.883
		c-0.428-10.521,9.415-29.993,6.911-42.511c-0.56-2.797-3.834-4.038-4.311-7.001c-0.095-4.203,5.731-3.675,6.674-7.973
		c2.502-11.398,3.711-29.67,7.283-39.453c-5.058-4.48-1.164-13.945,3.755-17.293c0.405-12.522,7.737-25.771,7.235-38.849
		c-0.09-2.349-1.457-4.511-1.297-6.767c0.292-4.185,3.716-6.554,5.051-10.525c1.322-3.918,2.189-10.751,3.061-16.131
		c0.887-5.459,1.906-12.209,1.856-16.227c-0.035-3.028-1.925-6.397-0.924-11.59c1.604-8.344,8.506-12.473,14.649-17.058
		c3.021-2.255,5.199-3.918,9.458-4.728c2.461-12.745,10.578-33.631,3.48-45.203c-0.412-2.448,1.94-1.674,1.53-4.125
		c0.952-2.69-1.965-2.068-2.133-3.803c9.599-17.442,42.353-18.225,70.147-13.394c17.007,2.959,37.247,7.066,45.383,16.831
		c2.434,2.921,6.025,10.721,5.469,15.58c-0.381,3.32-3.64,5.975-4.358,9.363C379.017,135.777,382.525,152.653,376.689,164.896z
		 M379.69,99.567c-11.689-9.807-35.705-16.667-59.248-17.895c-11.168-0.586-27.781-1.546-37.133,1.99
		c-6.072,2.296-14.181,7.162-12.703,15.39c15.956-8.858,45.473-12.074,72.182-8.387c11.169,1.541,21.097,11.208,29.949,12.611
		c0.965,1.609,2.781,2.494,4.588,3.384c1.064,2.932,4.08,9.894,6.025,8.346C386.501,108.362,380.788,104.445,379.69,99.567z
		 M319.607,92.517c-0.397,2.823,0,7.245-2.381,7.75c0.578-2.172,1.195-4.974,1.176-7.843c-1.206-0.093-2.409-0.186-3.614-0.278
		c-0.248,2.779-0.189,5.914-1.207,7.789c3.145,0.605,5.214-0.049,7.88,0.001c0.289-2.756,3.072-5.274,1.811-7.741
		C321.461,91.615,321.418,93.099,319.607,92.517z M322.715,99.426c2.008,0.155,4.016,0.309,6.023,0.464
		c0.856-1.633,0.986-4.106,1.116-6.583C325.026,90.044,323.898,96.297,322.715,99.426z M329.947,99.983
		c1.404,0.108,2.813,0.216,4.217,0.324c-0.036-2.409,1.001-5.733-0.046-7.277c-0.802-0.062-1.608-0.124-2.408-0.186
		C330.364,94.342,331.19,98.371,329.947,99.983z M335.369,100.4c1.494,0.036,2.91,0.133,3.567,0.881
		c1.466-1.578,2.27-3.923,2.368-7.094c-0.919-1.086-3.499-0.75-5.379-1.019C335.74,95.58,335.555,97.989,335.369,100.4z
		 M341.904,94.233c-0.186,2.624-0.215,5.44-1.156,7.188c1.861,1.215,4.077,2.131,6.443,2.92c1.222-2.517,2.318-5.177,3.617-7.601
		c-1.234-0.445-1.608-1.628-3.527-1.486c-0.725,2.875-2.074,5.019-3.569,7.001c-0.367-3.933,2.547-4.039,2.415-7.696
		C343.885,94.924,342.999,93.247,341.904,94.233z M309.268,92.934c1.303,1.138-0.13,4.617,0.096,6.676
		c0.982,1.208,1.567-0.37,3.616,0.278c0.185-2.409,0.371-4.821,0.557-7.233C312.659,91.627,310.32,92.24,309.268,92.934z
		 M305.003,93.214c0.591,2.117-0.213,5.435,0.651,7.322c4.318,0.563,3.085-4.656,3.014-7.648
		C307.188,92.694,305.771,92.575,305.003,93.214z M295.873,93.723c-0.186,2.412-0.371,4.82-0.557,7.232
		c1.93,0.5,2.835-0.195,4.264-0.279C299.386,96.993,300.577,90.422,295.873,93.723z M301.388,100.815
		c0.182-0.884,1.498-0.441,2.458-0.418c0.456-2.829,0.191-5.044-0.044-7.276c-1.208-0.093-2.411-0.186-3.619-0.278
		C301.118,95.042,299.651,99.302,301.388,100.815z M347.749,104.991c1.639,0.846,3.359,1.623,5.286,2.226
		c0.384-3.491,1.981-5.567,3.061-8.254c-2.495,0.262-1.931-2.103-4.729-1.576C350.697,100.552,349.055,102.574,347.749,104.991z
		 M292.163,102.531c0.154-0.694,1.001-0.582,1.854-0.466c1.35-2.334-0.196-4.902,0.649-8.436
		C287.881,91.718,290.714,100.319,292.163,102.531z M285.441,95.346c0.118,2.711,0.173,5.479,0.6,7.926
		c1.865,0.202,2.938-0.514,4.313-0.88C289.498,98.858,290.263,92.337,285.441,95.346z M353.588,107.866
		c1.911,0.239,2.551,1.571,4.728,1.575c0.182-3.512,1.998-5.113,2.46-8.296c-1.266-0.607-1.936-1.722-4.127-1.532
		C356.092,102.905,354.375,104.842,353.588,107.866z M358.875,110.088c2.74,1.219,5.213,2.666,8.203,3.666
		c1.075-2.692,2.822-4.593,3.62-7.604c-1.235-0.444-1.606-1.627-3.525-1.486c-0.882,2.039-1.821,6.313-3.393,7.544
		c-0.021-3.088,1.805-6.33,2.835-8.191c-1.64-0.657-2.864-1.672-4.681-2.18C360.853,104.518,359.868,107.309,358.875,110.088z
		 M279.785,97.938c-0.345,2.548,1.327,3.369,0.741,6.12c2.054,0.646,2.386-0.718,4.266-0.276c0.551-2.723-0.78-3.835-0.094-6.675
		C283.28,95.644,281.906,98.216,279.785,97.938z M275.982,100.072c-0.5,2.307,0.85,3.022,0.186,5.467
		c1.834,0.173,3.111-0.307,3.757-1.529c-1.147-1.268,0.081-4.573-2.04-5.005C277.663,99.84,276.509,99.594,275.982,100.072z
		 M331.521,103.135c-23.662-1.994-43.453,0.529-59.385,7.554c0.451,14.368-4.876,25.335-5.241,36.579
		c5.243-2.42,5.783-11.564,7.463-18.22c1.388-5.5,1.608-11.018,4.174-14.835c3.333-1.094,6.975-0.879,11.034-1.574
		c1.701-0.293,9.517-0.893,11.033-1.578c2.396-1.079,2.521-4.584,5.238-5.055c1.813-0.307,4.429,1.284,6.538,1.72
		c18.673,3.833,34.603,5.972,50.669,11.174c1.692,4.291,6.369,4.995,9.736,7.419c3.016,2.17,3.804,6.033,7.324,7.231
		c0.139-1.807,0.278-3.616,0.417-5.424c-6.206-8.977-15.94-12.759-27.12-17.85c-5.846-2.663-12.101-6.553-18.865-6.909
		C332.88,102.967,333.752,102.729,331.521,103.135z M368.237,114.45c1.82,0.508,3.043,1.52,4.683,2.177
		c1.521-3.642,1.31-6.295,1.3-8.993c-1.149,0.046-1.278-0.78-2.364-0.788C370.782,109.537,369.033,111.438,368.237,114.45z
		 M270.836,103.919c0.896,1.298,1.83,2.561,4.035,2.736c1.173-1.417,0.61-5.109-1.392-5.563
		C272.78,102.248,270.743,101.837,270.836,103.919z M373.478,117.277c2.24,1.455,2.845,4.318,6.304,4.729
		c0.634-1.544,0.662-4.756-0.741-6.12c-1.244,0.736-0.661,3.604-2.689,3.433c0.311-2.048,1.748-2.781,1.625-5.331
		c-0.62-1.161-1.419-2.163-2.179-3.202C375.309,113.287,374.292,115.165,373.478,117.277z M296.848,145.67
		c3.418,0.263,8.24,0.3,11.658,0.563c0.935-7.975,2.086-30.478,1.873-36.237C299.623,103.091,298.561,137.436,296.848,145.67z
		 M313.626,115.095c6.92,2.403,15.461,1.641,24.012,3.061c3.182,0.529,6.636,2.913,10.016,3.802
		c3.331,0.876,8.674,2.775,10.939-0.371c-10.545-4.886-30.171-9.346-45.197-11.359C312.972,112.277,313.371,113.626,313.626,115.095
		z M281.267,118.061c5.066-0.222,16.727,1.565,18.545-4.633C293.233,114.509,285.518,114.261,281.267,118.061z M313.116,129.607
		c3.386-4.152,7.921-6.961,12.841-9.319c-3.962-0.917-7.709-2.026-11.912-2.736C312.851,120.255,312.351,126.752,313.116,129.607z
		 M351.71,156.079c2.427-0.018,5.88,1.79,8.961,3.03c0.442-5.255,2.02-32.304,2.976-32.282c0.219-2.247-0.702-3.526-2.082-4.402
		C357.708,119.431,353.117,148.665,351.71,156.079z M328.324,121.075c-0.127,1.42,0.899,1.856,0.325,3.664
		c1.745-0.587,3.917-0.682,3.891-3.339C331.804,120.479,329.192,120.277,328.324,121.075z M333.745,121.492
		c-0.201,2.615,2.066,3.111,3.939,3.942c0.024-1.504,1.093-1.794,1.439-2.92C337.618,121.92,334.994,120.589,333.745,121.492z
		 M280.803,124.087c1.477,0.12-4.812,21.076-4.907,22.311c-0.025,0.333,16.74-0.679,18.625-0.907
		c1.687-0.204,2.48-17.026,2.924-17.09c0.343-3.105,0.151-6.832,1.3-8.995C292.882,121.101,283.504,118.7,280.803,124.087z
		 M322.62,124.274c1.023,1.748,2.323,3.263,3.892,4.543C330.396,124.62,325.525,118.37,322.62,124.274z M340.468,128.681
		c0.813-2.337,3.22-2.813,3.479-5.795c-1.408-0.108-2.813-0.216-4.223-0.325C339.107,124.772,337.917,127.895,340.468,128.681z
		 M341.3,133.594c1.569-2.553,4.83-3.125,5.936-6.212c-0.977-0.853-0.524-2.926-2.181-3.198
		C343.74,127.464,338.643,129.509,341.3,133.594z M349.413,138.464c1.744,0.06,3.922,0.63,4.868-0.234
		c-0.094-5.146,1.294-8.564,2.18-12.564c-3.644,0.125-5.842-0.996-8.993-1.296C350.009,127.485,347.011,134.244,349.413,138.464z
		 M365.919,128.82c2.59,0.98,6.436,3.851,8.855,3.106c-2.406-2.252-4.691-4.606-8.67-5.518
		C366.042,127.213,365.98,128.018,365.919,128.82z M322.525,133.364c-2.146-1.361-4.159-9.61-6.348-4.129
		c4.858,2.966,2.465,11.567,1.758,16.506c3.75-3.729,4.213-11.29,7.279-15.81c-1.398-1.8-2.416-3.934-4.448-5.19
		c-0.874,0.079-1.097,0.913-1.9,1.067C319.072,128.832,324.023,130.75,322.525,133.364z M332.774,126.269
		c-5.649-0.159-9.849,16.459-10.665,20.397c2.385-0.06,13.618,4.973,15.566,4.989C338.911,144.478,340.949,126.499,332.774,126.269z
		 M273.616,146.571c2.446-6.606,4.845-16.273,4.174-22.716C277.094,131.802,272.54,138.744,273.616,146.571z M341.534,138.464
		c2.163-1.869,7.133-3.925,4.916-8.718C345.266,132.762,339.681,134.095,341.534,138.464z M364.944,141.477
		c3.173,1.413,7.765,1.603,9.365,4.358c-0.026,5.959-1.668,13.27-1.346,17.478c1.086-0.265,3.486,1.001,3.663-0.324
		c0.088-7.004,3.286-16.557,2.041-26.517c-0.171,0.896,0.041,2.241-0.787,2.364c-3.923-2.456-6.782-5.821-12.194-7.001
		C365.439,135.048,365.191,138.265,364.944,141.477z M311.169,139.154c1.089,1.2,3.388,0.094,4.866-0.231
		c-0.024-2.229,0.927-5.294-0.09-6.674c-1.007-0.078-2.014-0.155-3.015-0.232C311.788,133.752,312.079,137.154,311.169,139.154z
		 M341.163,143.283c1.993-2.281,7.91-3.456,6.073-8.017C345.902,138.314,339.174,138.542,341.163,143.283z M349.369,154.831
		c2.5-2.999,2.513-8.894,3.479-13.676c-1.208-0.093-2.411-0.186-3.62-0.279C350.232,146.064,343.918,152.71,349.369,154.831z
		 M346.726,141.892c-1.579-1.371-3.795,2.119-5.655,2.598c-0.186,2.411-0.371,4.821-0.557,7.232
		c1.398,0.301,2.189,1.125,4.174,0.926c-0.268-1.087,0.999-3.484-0.325-3.662c-0.633,1.016-1.281,2.008-3.156,1.577
		C343.32,147.987,346.715,146.917,346.726,141.892z M362.951,159.509c2.843,0.191,4.484,1.412,7.139,1.765
		c1.184-4.098,1.302-9.426,1.716-14.419c-2.467-0.703-3.809-2.364-7.094-2.364C364.063,149.424,364.481,155.604,362.951,159.509z
		 M310.705,145.184c1.606,0.124,3.213,0.247,4.819,0.371C317.694,140.555,309.945,140.955,310.705,145.184z M250.018,161.729
		c7.704-2.898,14.796-5.019,24.06-5.421c15.847-0.694,35.655-0.633,52.576,2.224c5.663,0.959,10.758,3.922,15.991,4.87
		c21.498,3.888,40.749,11.816,50.298,23.88c0.82-5.616-5.364-12.897-11.359-17.538c-9.201-3.968-18.552-8.583-27.628-11.535
		c-3.14-1.019-9.639-3.746-11.864-3.337c-7.496-0.112-16.712-6.338-28.559-7.049c-31.903-1.753-62.148-1.581-72.045,22.343
		C243.812,169.367,245.354,166.404,250.018,161.729z M386.035,182.505c-12.531-9.928-41.239-15.926-57.807-20.817
		c-1.842-0.836-18.344-2.979-23.357-2.989c-21.686-1.669-43.527-1.729-56.257,7.705c-1.659,3.633-6.096,5.2-6.988,9.835
		c-0.221,1.144,0.83,3.23,0.88,4.311c0.487,10.3-4.833,22.917-4.313,32.407c3.807-8.798,5.739-22.938,5.659-34.123
		c1.367-0.44,2.58,0.285,4.866-0.23c1.236-2.045-1.104-7.665,3.015-7.648c2.112,0.813,3.431,2.311,2.596,5.656
		c2.776,0.056,2.961-0.417,5.422,0.417c0.545-3.096-1.405-4.051-0.647-7.329c1.73-2.137,4.021-3.626,7.556-3.66
		c1.944,1.899,2.616,4.887,2.364,8.67c2.21,0.17,4.419,0.34,6.629,0.51c0.186-2.411,0.371-4.822,0.557-7.233
		c2.226-1.565,4.515-3.05,8.668-2.362c0.82,3.24,3.051,5.268,2.273,9.874c2.445,0.663,3.164-0.688,5.47-0.188
		c0.874-5.327,1.543-10.897,8.576-9.038c1.601,2.572,2.803,5.481,2.272,9.873c2.32,0.298,4.438,0.366,6.073-0.137
		c-0.269-13.485,15.804-7.342,12.471,3.383c0.648-1.726,1.914,0.51,3.015,0.232c-1.301-11.809,9.498-13.052,11.403-6.398
		c0.827,2.896-1.65,7.67,1.715,9.228c-1.749-9.949,13.176-11.376,10.198,1.393c1.789,2.218,5.575,0.204,6.494,2.317
		c-0.779-3.847-0.194-6.973,2.41-7.697c7.994-2.213,2.679,8.665,8.295,10.341c1.459-1.364,0.543-5.498,2.875-5.844
		c2.542-0.114,4.058,0.652,5.331,1.625c0.89,2.237-0.594,6.513,0.556,8.529c1.23-1.732,1.714,1.856,4.172,0.928
		c0.017-2.608,0.333-4.866,2.782-4.638c5.907-0.934,1.853,6.669,3.521,9.365c1.585-1.322,1.918,3.211,5.286,2.23
		C394.317,193.93,390.926,186.383,386.035,182.505z M297.537,166.601c-8.266,4.563-4.213,30.081-6.262,41.955
		c2.771-0.05,6.59,1.119,8.484,0.046c1.338-10.48,3.031-20.545,4.777-30.551C300.763,177.108,303.157,163.499,297.537,166.601z
		 M284.186,166.784c-2.588-1.651-5.377,1.413-7.464,2.458c0.739,11.925-2.347,28.238-2.413,39.222
		c3.916,0.626,6.888,0.155,10.292,0.186C286.562,194.702,289.159,176.534,284.186,166.784z M306.436,208.509
		c3.215,0.248,6.426,0.495,9.644,0.743c3.926-6.8,2.893-19.39,5.75-27.442c-2.329-2.321-0.824-7.925-2.18-11.084
		C305.752,162.017,308.864,197.774,306.436,208.509z M327.486,171.329c-2.012,12.545-4.69,24.306-5.937,37.74
		c5.077,0.336,10.324,0.53,13.766,2.27c1.103-9.441,3.187-17.739,3.944-27.583c-5.279,5.225-2.142,20.271-6.862,26.148
		c2.092-12.978,5.782-28.758,1.204-39.315C330.707,169.839,329.544,171.105,327.486,171.329z M261.561,177.169
		c0.174,9.362-3.315,23.231-3.618,31.244c3.771,0.461,7.087,0.388,9.734-0.459c0.875-11.681,4.037-20.69,5.473-31.713
		c-1.411-0.475-4.432,0.423-4.775-0.974c-0.147-3.063-0.764-5.726-1.808-8.02C258.589,166.648,261.47,172.361,261.561,177.169z
		 M344.174,175.041c-6.771,0.119-3.254,6.344-3.152,9.455c0.254,7.939-5.255,18.887-4.548,27.539
		c2.432,1.294,5.649,1.915,8.902,2.505C346.386,201.072,352.32,182.891,344.174,175.041z M355.347,187.417
		c-1.077,0.057-2.97-0.836-2.504,1.021c-1.297,9.215-3.406,17.478-4.5,26.934c2.688,1.078,4.76,2.678,8.252,3.063
		c1.979-11.658,7.475-26.884,4.175-38.479C355.299,178.169,355.508,183.01,355.347,187.417z M251.177,178.188
		c-8.462,4.578-6.182,21.688-9.182,32.639c3.652,0.099,6.085-1.219,9.226-1.716c2.057-10.082,3.233-21.188,5.428-31.11
		c-5.093,2.152-1.43-5.662-5.611-5.888C249.25,173.926,250.979,176.331,251.177,178.188z M302.171,208.787
		c4.438,0.509,3.26-4.737,3.616-7.603c1.014-8.167,1.719-16.787,2.412-23.456c-0.604-0.046-1.205-0.093-1.807-0.139
		C304.289,186.332,300.537,200.061,302.171,208.787z M274.219,178.144c-1.64,4.596-1.996,10.777-3.11,16.731
		c-0.873,4.672-4.109,11.156-1.067,13.865c4.84-1.265,3.704-8.722,4.127-14.231c0.462-6,0.963-12.513,1.346-17.478
		c-0.097-0.48-0.453-0.739-1.157-0.697C274.312,176.938,274.265,177.539,274.219,178.144z M361.277,220.613
		c2.828,1.332,4.264,3.854,8.161,4.268c1.517-13.82,8.227-31.465,0.744-41.17C362.503,190.517,365.61,209.903,361.277,220.613z
		 M319.741,208.929c1.265-8.408,5.418-20.348,3.386-28.233C322.093,189.37,317.731,201.069,319.741,208.929z M287.754,199.191
		c-0.437,3.556-3.526,9.494,1.063,9.784c3.387-8.001,2.501-22.01,1.719-30.183C288.37,184.164,288.614,192.183,287.754,199.191z
		 M252.424,209.203c1.431-0.085,2.338-0.781,4.268-0.277c2.085-8.956,1.805-20.662,2.967-30.693
		c-0.601-0.046-1.204-0.093-1.807-0.139C255.714,188.08,254.051,198.619,252.424,209.203z M347.142,215.28
		c0.68-9.568,5.663-20.876,3.475-29.438C349.15,194.858,346.647,206.166,347.142,215.28z M378.386,195.255
		c-1.74,0.366-1.495-0.969-2.966-0.836c-0.571,10.78-5.354,23.446-4.267,31.802c2.146-9.974,2.868-21.611,5.98-30.457
		c-1.096,11.202-3.169,21.262-5.425,31.11c1.6,1.255,4.029,1.797,5.841,2.872c2.524-13.199,7.888-25.326,5.427-38.988
		C379.004,189.41,379.652,193.45,378.386,195.255z M358.866,220.427c2.893-0.947,2.521-5.538,3.061-8.251
		c1.336-6.686,2.722-14.031,2.878-21.604c-0.602-0.046-1.207-0.093-1.81-0.139C362.436,200.601,357.298,212.123,358.866,220.427z
		 M380.424,231.787c1.627-9.71,5.392-20.421,4.776-30.55C384.305,211.242,377.154,224.715,380.424,231.787z M386.824,203.783
		c-0.083,4.487-1.287,6.438-1.994,10.156c-1.432,7.528-5.748,19.629,0.229,20.63c1.247-10.832,5.448-21.639,4.916-32.361
		c-1.003-0.077-2.008-0.155-3.013-0.232C386.917,202.581,386.87,203.185,386.824,203.783z M385.99,238.279
		c-3.795-2.583-8.383-3.442-9.782-6.817c-7.969-0.972-13.299-9.85-19.984-8.206c-0.924-0.521,0.367-2.94-1.619-2.553
		c-7.472-1.731-16.397-6.806-25.405-8.621c-16.007-3.23-34.294-0.37-49.051-0.746c-19.409-0.497-41.617-2.604-46.96,11.541
		c36.147-9.063,104.523-5.765,137.224,12.987c2.436,0.215,1.027-4.055,3.893-3.335c-0.082,1.873-2.029,1.573-1.53,4.123
		c5.652,2.479,11.17,8.063,16.272,9.135C387.502,243.732,386.874,240.896,385.99,238.279z M321.688,223.023
		c-30.29-4.335-64.176-3.658-88.733,2.867c2.45,14.873-4.923,29.151-6.401,43.763c2.299,0.056,4.327-0.204,6.117-0.742
		c1.968-9.092,5.458-19.903,5.289-29.298c-3.904,8.8-4.952,20.933-10.063,28.325c2.75-9.052,5.788-17.767,8.162-27.257
		c0.409-1.495-2.875,1.237-2.969-0.836c1.613-0.526,3.069-1.237,5.519-0.791c0.422-3.176-1.216-4.583-0.604-7.926
		c3.144-5.171,13.047-2.152,11.127,5.099c4.346,0.694,4.833-3.12,4.822-7.508c5.182-4.352,10.859,1.226,9.086,7.975
		c2.192,0.808,1.338-1.941,2.596-2.224c1.146,0.332-0.158,2.761,2.271,1.992c-0.199-3.851-1.205-13.316,7.466-10.337
		c0.259,2.778,2.608,3.768,1.854,7.418c1.963-0.12,3.351-0.905,5.516-0.789c0.55-2.727-0.78-3.835-0.092-6.678
		c4.722-3.81,12.924-1.575,10.386,6.864c1.808,0.139,3.612,0.278,5.42,0.417c-3.53-10.558,12.727-7.706,9.601,1.346
		c1.891,0.678,1.368-1.467,2.55-1.623c0.354,2.588,1.867,1.264,4.03,2.738c-2.601-14.92,14.647-12.123,9.6,1.343
		c2.196,0.366,5.373-0.106,6.578,1.111c-0.935-12.37,14.198-8.571,9.462,3.156c1.876,0.824,2.111,0.308,4.123,1.528
		c1.192-4.957,3.552-8.559,9.689-7.742c1.803,2.559,0.606,8.841-0.324,12.101c4.012-1.102,2.712,1.128,5.284,2.226
		c1.142-1.394-0.508-5.163,1.162-7.187c1.632-0.458,5.252-0.767,6.627,0.51c0.001,3.503-0.729,6.159-1.298,8.993
		c2.978-0.299,3.933,1.132,5.933,1.671c0.501-2.306-0.849-3.026-0.185-5.47c6.244-4.488,7.99,4.426,5.331,9.503
		c2.228,0.26,4.304,2.655,5.935,1.669c-0.548-5.891,3.926-5.929,5.007-9.92C372.841,237.434,349.268,226.97,321.688,223.023z
		 M315.75,237.113c-1.521,1.494-1.487-1.724-3.013-0.232c-2.741,10.596-4.325,22.54-7.37,32.779c4.419,0.34,8.838,0.68,13.256,1.021
		c1.956-11.513,4.997-21.757,7.933-32.128c-1.598-0.132-3.575,0.062-3.525-1.483c0.505-3.624,0.342-6.676,0.141-9.69
		C316.504,223.91,314.725,231.213,315.75,237.113z M283.809,226.775c1.179,13.248-5.987,25.629-7.325,40.053
		c3.531-0.039,6.812-0.37,10.894,0.232c2.6-10.756,5.162-21.563,7.93-32.125c-0.232-1.488-3.92-0.019-3.478-2.087
		c0.604-3.333,0.168-5.773-1.251-7.37C287.498,224.945,285.484,225.663,283.809,226.775z M302.031,234.24
		c-0.842,0.553-2.27,0.418-3.107,0.974c-0.625,11.966-3.188,21.677-4.918,32.356c3.646-0.121,5.843,1.001,8.995,1.299
		c2.66-10.251,4.623-21.315,6.724-32.22c-3.871-0.246-2.286-5.167-3.661-7.555C301.681,223.802,295.729,232.461,302.031,234.24z
		 M341.248,244.533c-0.023-0.874-1.354-1.941-1.574-3.15c-0.824-4.504,0.942-9.28-2.877-9.923c-2.346-0.396-2.65,1.469-4.402,2.085
		c-1.808,11.472-5.307,25.457-7.231,38.849c2.618,1.133,5.397,2.126,8.898,2.506C334.854,269.389,341.574,255.047,341.248,244.533z
		 M269.81,227.517c-0.907,11.561-3.927,27.107-4.222,39.081c1.607,0.124,3.214,0.248,4.821,0.371
		c4.724-9.158,7.364-20.746,9.786-32.592c-1.781-0.903-3.228,1.827-3.664,0.325c-0.093-2.923-0.982-5.159-1.854-7.417
		C272.937,227.224,270.757,226.648,269.81,227.517z M256.412,228.304c-5.155,9.09-3.298,26.362-6.537,37.69
		c3.122-0.295,6.986,0.271,9.734-0.466c0.501-10.142,3.262-17.648,4.498-26.935c-3.979-1.091-0.916-8.219-4.08-10.012
		C258.82,228.489,257.617,228.397,256.412,228.304z M345.699,241.847c-3.786,8.806-5.504,23.097-8.112,34.536
		c4.551-0.149,6.641,1.813,10.754,2.041c2.591-9.455,5.069-19.044,7.094-29.16c0.401-1.657-3.317,0.217-2.918-1.44
		c0.61-3.175,2.029-8.347,0.882-11.449C349.245,235.274,346.899,239.057,345.699,241.847z M245.98,229.925
		c-8.479-5.446-5.501,7.181-5.611,9.874c-0.355,8.929-5.453,19.297-6.443,28.604c3.248-0.589,6.002-1.752,9.271-2.318
		C243.725,257.526,252.772,234.288,245.98,229.925z M288.583,267.153c1.407,0.108,2.814,0.217,4.22,0.325
		c2.613-10.081,3.6-22.072,5.562-32.912c-0.6-0.046-1.203-0.093-1.807-0.139C293.7,245.104,291.144,256.131,288.583,267.153z
		 M274.072,266.642c3.713-9.245,6.811-22.701,7.978-32.727C279.657,245.401,273.654,257.735,274.072,266.642z M310.513,242.167
		c-0.538-2.423,2.194-4.388,0.464-6.025C310.172,236.994,309.395,241.241,310.513,242.167z M319.784,271.376
		c1.982-0.199,2.771,0.624,4.174,0.925c1.271-10.658,6.239-26.419,5.005-33.564c-0.401-0.031-0.805-0.062-1.201-0.092
		C324.656,249.036,321.474,259.333,319.784,271.376z M360.722,243.608c-1.498,13.358-4.214,25.296-7.653,36.393
		c2.129,1.551,5.244,2.26,7.604,3.613c2.176-10.375,4.447-20.645,7.188-30.362c-1.033-0.43-3.599,0.455-3.57-0.881
		c0.567-2.84,1.297-5.492,1.3-8.994C363.848,243.312,361.67,242.744,360.722,243.608z M261.973,266.319
		c5.19-5.33,3.472-18.721,5.195-28.094c-0.1-0.48-0.451-0.74-1.16-0.698C264.317,245.875,259.588,257.588,261.973,266.319z
		 M244.403,266.177c7.377,0.55,6.065-12.512,7.002-20.073c0.449-3.64,2.727-7.02,0.091-9.085
		C245.765,242.811,248.008,257.906,244.403,266.177z M340.83,257.84c0.204-4.605,4.334-10.057,1.673-13.816
		C342.305,248.621,339.502,253.646,340.83,257.84z M373.098,248.2c-2.978,12.284-6.225,24.263-8.901,36.9
		c1.656,0.644,2.321,2.137,4.68,2.18c2.845-14.304,7.794-26.119,7.838-38.802C375.318,248.184,374.315,247.104,373.098,248.2z
		 M350.657,279.815c3.049,0.249,2.354-4.103,2.875-5.841c2.041-6.814,4.092-15.138,4.824-23.273
		c-0.769-0.093-0.774-0.837-1.764-0.74C355.273,259.829,349.42,271.329,350.657,279.815z M307.406,258.904
		c-0.17-3.92,1.351-5.866,1.344-9.598c-1.326,2.626-2.487,8.907-2.087,11.358C306.813,259.962,306.692,258.945,307.406,258.904z
		 M361.831,284.312c4.706-7.645,5.453-19.911,8.344-29.672c-0.766-0.09-0.772-0.833-1.759-0.741
		C366.62,264.503,363.345,273.381,361.831,284.312z M369.989,288.579c5.071-6.998,5.737-19.141,8.859-28.42
		c-0.769-0.093-0.777-0.837-1.765-0.74C375.41,269.945,370.928,277.192,369.989,288.579z M372.399,288.764
		c1.587,0.965,3.455,3.807,5.238,2.828c1.408-10.403,3.842-19.603,4.224-31.201c-0.604-0.046-1.207-0.093-1.812-0.14
		C377.323,269.545,375.223,279.579,372.399,288.764z M290.809,269.75c-9.765-2.17-18.986,0.985-27.306,0.326
		c-3.234-0.258-5.872-1.939-8.947-1.903c-10.423,0.115-18.891,3.007-29.44,4.403c-2.672,2.21-6.636,6.289-3.2,10.062
		c46.792-10.882,122.979,4.116,158.272,23.094c0.654-6.306-1.868-10.18-6.861-13.259c-2.381-1.467-8.008-4.657-11.078-5.702
		c-0.878-0.299-2.219,0.531-2.459,0.414c-3.882-1.909-6.946-5.827-11.125-5.099c-1.431,0.083-1.554-0.558-2.32-1.393
		c-6.298-1.701-12.369-2.152-16.087-3.662c-9.791-3.98-24.59-4.962-35.834-7.003C292.543,269.584,292.668,269.285,290.809,269.75z
		 M242.64,281.199c-1.143-0.021-0.573,1.959-1.947,1.667c-6.411-3.01-10.092,2.327-16.505,1.763c0.25,3.796-2.024,4.638-2.411,7.693
		c2.246,1.582,2.028,3.795,5.844,2.875c1.495-3.506,0.465-9.963,5.562-9.27c2.008,2.594,4.518,4.755,4.125,9.41
		c2.314-1.132,2.788-0.559,5.563-1.392c0.055-4.313,1.326-7.208,4.267-8.158c4.571,0.771,4.587,5.45,5.979,8.947
		c1.856-0.19,4.157-2.042,5.516-0.784c0.02-4.359,0.334-8.372,4.266-8.159c1.896,1.749,4.008,3.318,3.06,7.508
		c1.809,0.139,3.616,0.278,5.423,0.417c1.262-1.491-1.111-3.632-0.089-6.676c1.106-0.458,1.868-1.318,3.15-1.576
		c3.684,1.345,5.554,4.249,4.729,9.458c2.007,0.154,4.019,0.309,6.027,0.464c0.13-2.475,0.262-4.947,1.115-6.583
		c6.636-3.72,9.487,3.786,8.945,9.783c1.097-1.615,2.647,1.055,4.822,0.371c0.038-6.524,0.532-12.512,8.067-10.292
		c0.935,2.386,2.799,3.98,1.806,8.021c1.501,1.339,5.527,0.518,7.14,1.765c-0.024-3.751,0.653-6.683,3.569-7.003
		c3.584,1.433,4.364,5.271,4.729,9.458c2.038,0.425,5.07,2.001,6.582,1.113c-0.103-2.078-1.042-5.08,1.068-5.981
		c1.129,0.224,1.382-0.578,2.457-0.417c2.354,1.737,3.401,4.59,2.965,8.716c2.535-0.108,2.522,1.969,5.332,1.626
		c0.692-3.524,4.442-5.663,8.159-3.62c0.767,2.159,0.109,5.536-0.048,8.485c2.718-0.263,3.557,1.081,5.981,1.067
		c0.17-3.084,0.004-6.565,3.479-5.795c4.021,0.975,1.436,6.031-0.002,7.88c1.772,1.456,3.943,1.7,5.284,2.226
		c0.826-2.76,1.273-5.958,5.239-5.052c2.662,2.724-2.044,8.389,2.969,8.716c1.111-3.956,1.324-8.963,3.339-11.869
		C344.452,289.674,293.893,280.903,242.64,281.199z M273.749,286.626c-2.348,11.198-4.164,26.545-7.235,38.847
		c2.781,0.182,5.871,0.724,7.88,0C275.659,313.355,284.035,293.233,273.749,286.626z M303.231,289.5
		c-2.61,13.159-5.893,25.524-7.882,39.408c5.316-0.054,8.829,1.435,13.814,1.667c0.607-10.48,6.435-21.795,3.664-31.848
		c-2.88,9.555-3.896,21.286-6.634,31.016c0.304-15.449,8.025-28.827,1.255-39.918C306.045,289.717,304.639,289.608,303.231,289.5z
		 M261.6,286.901c-4.741,10.668-6.731,24.551-9.551,37.458c3.214,0.248,6.427,0.495,9.642,0.742
		c1.865-9.646,4.052-18.918,5.288-29.3c-3.114-1.271-1.286-6.779-3.569-8.761C262.806,286.994,262.203,286.948,261.6,286.901z
		 M286.31,296.687c-0.909,0.033-2.208-0.389-2.458,0.415c-0.145,9.449-2.641,21.569-5.24,28.697
		c4.772-0.335,6.747,1.724,10.755,2.041c1.647-13.899,9.169-27.299,2.367-38.618C286.261,287.432,286.472,292.277,286.31,296.687z
		 M246.439,286.948c-4.707,9.615-5.966,23.25-7.093,37.04c2.621,0.21,5.406,0.617,7.278-0.046
		c0.394-14.448,10.843-27.677,1.627-36.854C247.646,287.042,247.045,286.995,246.439,286.948z M318.206,299.746
		c-1.595,0.537-2.733-2.052-3.614-0.278c0.827,10.824-2.982,21.917-4.872,31.758c3.313,0.163,6.499,0.436,8.993,1.296
		c1.829-11.702,11.277-32.06,1.257-39.913C318.188,293.598,318.478,296.998,318.206,299.746z M231.883,287.038
		c-5.089,10.695-6.695,27.072-11.545,39.732c4.42-0.318,8.01-1.6,12.288-2.086C234.297,311.619,242.312,294.382,231.883,287.038z
		 M339.391,308.048c-3.185-1.961-1.332-8.243-3.381-11.173c-0.604-0.046-1.207-0.093-1.811-0.14
		c-2.111,0.599-1.289,4.625-1.761,7.139c-1.925,0.149-2.047-1.248-4.175-0.929c-0.982,11.332-4.165,20.1-5.979,30.46
		c3.488,1.138,7.493,1.835,11.958,2.133C336.299,326.767,338.44,318.102,339.391,308.048z M264.102,325.288
		c4.025-7.585,5.963-21.037,6.586-30.409c-0.903,0.26-3.062-0.948-3.061,0.369C268.769,304.491,262.093,317.216,264.102,325.288z
		 M275.6,325.566c5.805-5.289,6.625-19.823,7.096-29.158c-0.606-0.047-1.207-0.093-1.811-0.14
		C278.754,305.599,277.648,316.136,275.6,325.566z M254.183,296.637c-1.371,4.381-3.626,10.742-4.917,16.599
		c-0.824,3.741-2.484,9.558-0.277,11.495c5.386-6.412,5.09-19.454,7.696-29.113c-0.096-0.482-0.45-0.738-1.157-0.697
		C255.399,295.867,253.955,295.275,254.183,296.637z M345.793,303.689c-3.506,10.143-4.833,22.829-8.023,33.333
		c2.237,1.832,6.594,1.852,9.454,3.155c2.113-9.141,4.258-18.239,6.354-27.4c-3.999-0.698-1.439-7.024-2.872-9.921
		C348.372,302.322,347.166,303.104,345.793,303.689z M291.779,328.025c1.147-0.045,1.276,0.782,2.364,0.791
		c0.594-10.717,5.38-19.958,5.286-29.301c-0.807-0.062-1.604-0.124-2.409-0.186C296.053,308.958,289.28,318.728,291.779,328.025z
		 M214.776,328.162c4.338-0.594,4.283-8.345,5.33-14.143c1.409-7.787,4.505-17.081,1.531-19.888
		C218.978,305.041,216.317,315.947,214.776,328.162z M233.827,324.776c1.431-0.083,2.337-0.777,4.268-0.275
		c0.159-8.809,4.137-20.569,2.227-28.931C237.083,304.052,235.684,314.681,233.827,324.776z M321.122,332.707
		c2.396-9.463,4.446-19.334,6.495-29.205c-0.604-0.046-1.206-0.093-1.812-0.14C325.539,313.803,319.872,324.864,321.122,332.707z
		 M219.875,324.913c1.43-9.301,7.988-19.541,5.843-28.649C222.274,303.632,220.059,315.93,219.875,324.913z M350.747,341.659
		c3.61,0.473,4.72,3.086,7.558,4.218c0.139-10.787,2.614-18.841,3.433-28.835c-0.97-0.099-1.092-1.342-2.226-2.595
		c0.672-2.498,3.387-2.615,2.921-6.444c-0.852-0.213-0.94-1.07-1.714-1.346C355.044,315.58,354.46,330.445,350.747,341.659z
		 M336.608,336.326c2.014-8.623,6.77-20.966,5.288-29.3c-0.099-0.479-0.455-0.737-1.161-0.693
		C340.95,317.335,335.016,328.083,336.608,336.326z M367.716,318.108c-0.767-0.091-0.774-0.835-1.761-0.742
		c-0.64,11.29-3.604,19.882-4.777,30.553c1.434,0.647,2.506,1.603,4.728,1.575c1.256-13.7,7.063-25.532,5.289-37.182
		C367.718,311.542,367.889,315.023,367.716,318.108z M348.383,340.871c5.423-5.715,4.719-18.576,7.56-27.308
		c-0.099-0.479-0.453-0.737-1.157-0.694C352.597,322.138,350.157,331.118,348.383,340.871z M360.623,347.268
		c0.045-11.355,4.551-20.929,4.173-30.599c-0.602-0.046-1.205-0.093-1.807-0.139C362.677,326.487,357.878,338.114,360.623,347.268z
		 M371.611,322.653c1.142,11.954-9.095,24.166-2.32,30.132c1.021-11.504,3.671-21.117,5.474-31.709
		c-0.834-0.038-1.304-0.388-1.763-0.743C372.14,320.64,372.731,322.646,371.611,322.653z M332.855,337.855
		c-13.896-3.741-30.967-6.184-44.369-6.446c-11.11-4.364-31.845-4.824-46.914-4.826c-12.619,0.003-24.629,3.347-32.083,7.233
		c-1.608,1.599,3.84,1.938,3.94,3.941c7.536-1.973,15.948-3.652,24.524-3.57c49.071,0.487,103.329,12.783,135.974,29.263
		c0.025-2.854,0.164-8.752-2.456-7.467C372.998,356.165,342.65,340.491,332.855,337.855z M348.428,356.031
		c-12.669-4.032-26.972-9.268-40.89-12.241c-29.58-6.329-70.12-9.442-94.34-3.021c-0.371,4.823-0.742,9.643-1.113,14.465
		c3.329,1.402,3.771-0.481,7.278-0.046c-3.009-3.852-2.739-13.496,4.593-12.375c1.873,0.154,2.953,5.67,1.807,8.019
		c1.927,0.497,2.834-0.198,4.264-0.28c-1.174-4.396,1.217-8.064,6.026-7.417c4.219,2.198,3.263,5.46,4.822,8.252
		c0.398-2.279,5.413,1.211,7.325-0.649c0.431-3.437-1.051-6.375,1.251-8.39c1.284-0.472,4.569-0.804,6.027,0.464
		c1.03,1.746,2.25,2.695,2.556,6.313c2.426-0.018,2.652,1.23,5.371,0.967c1.163-1.274,0.636-4.51,1.669-5.935
		c1.524-0.976,2.807-1.542,5.517-0.786c1.373,1.636,1.07,4.71,1.25,7.37c3.614-2.994,4.602,1.28,9.552,1.947
		c1.092-2.664,0.871-6.861,4.729-6.304c3.849,0.826,2.264,6.317,4.82,8.252c0.6,0.046,1.206,0.093,1.81,0.139
		c-0.643-10.947,14.794-9.65,12.006,1.53c1.205,0.093,2.41,0.186,3.616,0.278c3.09-3.555,4.37-8.272,9.039-7.185
		c4.715,1.099,1.741,7.121,6.581,8.996c1.891-2.982,7.648-8.953,9.926-2.875c-0.387,7.357,1.319,9.372,6.488,10.198
		c2.323-9.405,11.321-4.7,9.455,3.155c0.748-1.32,3.808,0.059,5.472-0.186c1.487-1.985,2.635-4.372,6.907-3.106
		c1.369,1.783,2.526,3.043,0.648,7.327c2.305,0.501,3.026-0.853,5.471-0.187c0.649-2.968,2.229-4.848,3.569-7.001
		C365.694,361.134,357.315,358.854,348.428,356.031z M257.888,350.878c-0.374-7.121-10.763-11.978-9.179,1.112
		c-1.6-0.118-3.423-0.493-4.266,0.28c-0.137,12.974-3.833,21.801-4.452,34.211c3.816,0.294,7.634,0.588,11.451,0.882
		C252.984,374.494,256.541,363.975,257.888,350.878z M265.167,350.833c-0.923,1.492-3.55-2.209-2.502,1.019
		c-0.854,13.456-3.056,25.334-5.845,36.533c3.817,0.294,7.635,0.588,11.452,0.882c1.895-12.02,4.285-23.461,5.241-36.58
		c-4.85,0.029-1.009-7.391-4.82-8.251C264.16,343.525,266.385,348.856,265.167,350.833z M303.369,350.741
		c-3.079-4.998-10.478-2.526-8.902,5.38c-1.844-0.839-1.539,0.833-2.504,1.02c1.264,12.216-4.195,25.138-4.546,35.418
		c4.979,0.238,8.739,1.518,13.165,2.224c3.613-10.013,2.936-25.035,5.242-36.574C302.558,357.819,304.207,353.215,303.369,350.741z
		 M282.552,353.383c-1.234,1.042-1.518-0.052-3.015-0.232c-0.794,10.978-4.47,23.464-4.685,37.229
		c2.627,0.937,6.125,1.129,9.597,1.344c2.06-13.376,8.269-32.989,2.183-44.086C282.508,346.798,283.148,351.859,282.552,353.383z
		 M240.735,353.197c0,0.03-1.678-0.566-1.763-0.744c-0.378-0.793,0.423-2.149,0.232-3.013c-1.24-5.622-6.807-7.137-8.539-2.005
		c-1.624,12.011-5.263,24.419-7.548,37.748c5.223,0.402,10.443,0.804,15.666,1.206c1.055-12.125,4.256-21.745,5.056-34.165
		c-3.936,0.371-2.551,5.012-3.015,7.648c-1.453,8.298-3.071,19.854-5.707,26.353C234.331,379.297,240.776,361.587,240.735,353.197z
		 M321.444,360.016c-0.071-2.354-1.837-9.314-5.329-9.504c-3.714-0.203-6.447,7.19-6.721,8.577
		c-1.998,10.097-0.688,27.411-2.783,36.159c4.341-0.388,7.485,2.769,10.149,1.995C317.799,388.236,321.747,369.447,321.444,360.016z
		 M220.013,354.632c-0.138,4.072-2.936,10.664-4.222,15.437c-1.487,5.53-3.348,10.548-4.22,15.438
		c3.564,0.436,6.781,0.467,9.137-0.511c1.667-13.911,7.211-29.782,3.155-40.983C215.923,343.588,220.128,351.14,220.013,354.632z
		 M326.812,357.929c-4.033,12.227-4.034,28.031-7.082,40.146c2.623,0.942,5.155,1.962,8.301,2.46
		c3.747-17.307,6.905-44.989,3.572-46.406C330.598,354.052,327.322,355.628,326.812,357.929z M259,352.176
		c-1.417,8.982-3.768,19.312-5.146,27.492c-0.381,2.263-3.124,6.711,0.602,7.927c3.992-6.394,8.262-27.563,5.89-37.133
		c-0.403-0.031-0.805-0.062-1.207-0.093C259.093,350.971,259.046,351.574,259,352.176z M274.67,353.382
		c-1.08,7.381-1.846,17.39-3.153,25.221c-0.598,3.578-4.774,10.446,0.927,11.591c2.907-11.64,5.161-25.841,4.172-38.48
		c-0.6-0.046-1.203-0.092-1.807-0.139C274.763,352.177,274.717,352.78,274.67,353.382z M224.646,373.175
		c1.053-6.879,3.613-15.485,3.48-21.557C226.13,357.394,223.882,366.366,224.646,373.175z M303.595,395.015
		c3.834-3.112,2.214-10.313,3.063-16.131c1.025-7.031,2.365-15.721,0.418-21.188C306.831,370.348,302.039,384.636,303.595,395.015z
		 M319.396,385.859c-0.427,3.436-1.694,6.352-1.4,9.504c-0.045,0.581-0.182,1.825,0.573,2.019c1.72-11.708,6.436-27.766,5.38-38.387
		C321.364,365.701,320.59,376.225,319.396,385.859z M338.505,366.783c-0.844,13.246-3.076,24.869-6.352,35.282
		c3.3-0.01,6.157,2.72,8.347,1.854c1.979-7.688,2.088-22.156,4.777-30.553c1.604-5.017,4.877-8.108,1.481-11.403
		C340.59,359.731,343.604,369.706,338.505,366.783z M355.613,404.479c1.087-6.506,4.286-15.366,5.424-23.229
		c0.639-4.397,2.735-15.962-2.666-13.118C357.93,378.21,356.424,392.478,355.613,404.479z M206.705,385.739
		c3.641-8.669,6.216-18.583,8.302-29.07c-1.208-0.093-2.411-0.186-3.617-0.278C210.871,366.542,205.95,378.473,206.705,385.739z
		 M209.718,385.971c2.538-8.447,7.795-20.646,6.492-29.209C215.159,367.363,209.24,375.777,209.718,385.971z M329.789,401.276
		c4.942-5.149,5.519-17.436,6.911-26.751c0.435-2.92,2.636-6.271,0.044-8.484c-0.403-0.031-1.782-0.213-2.181-0.244
		C333.957,378.688,330.144,390.281,329.789,401.276z M351.674,369.013c-3.493,10.811-5.155,23.76-7.605,35.788
		c2.688,1.075,5.651,1.913,8.902,2.506c2.205-11.85,5.211-27.918,3.571-38.526C356.132,372.196,354.015,368.757,351.674,369.013z
		 M341.657,404.615c4.332-8.961,5.953-24.582,7.513-34.587C343.989,377.199,343.699,392.043,341.657,404.615z M362.753,374.713
		c-1.586,12.16-4,23.359-7.418,33.379c2.178,0.006,2.819,1.34,4.728,1.578c2.828-11.806,5.831-23.412,8.207-35.746
		C365.562,373.173,364.778,374.664,362.753,374.713z M314.724,400.117c-12.453-3.447-31.457-5.132-44.83-8.302
		c-2.2-0.814-3.835-0.468-5.426-0.417c-18.278-1.108-51.69-7.618-64.902,0.46c0.681,6.201,9.394,3.949,14.88,3.568
		c6.275-0.435,13.663-0.486,19.471-0.924c36.032-2.702,69.467,11.349,100,16.185c11.925,1.89,20.764,8.295,30.733,10.247
		c1.142-7.294-5.318-4.706-6.538-9.598c-6.396-0.789-25.807-5.836-28.509-7.649C327.533,402.583,319.393,401.407,314.724,400.117z
		 M314.679,408.6c-25.255-5.795-53.5-12.911-80.343-11.642c-9.129,0.434-18.977-0.938-27.492,2.734
		c-0.381-2.23-1.752-0.503-3.571-0.88c-1.18,5.405-2.441,10.724-3.663,16.089c2.208,0.17,4.419,0.341,6.628,0.511
		c-3.559-14.993,12.474-17.996,9.229-1.717c2.145,1.271,2.41,0.186,3.614,0.278c2.249-2.852-0.523-11.559,3.384-12.473
		c6.964,0.036,7.8,5.327,7.604,11.499c2.233-0.239,4.447-0.504,7.281-0.048c-1.029-4.938,0.201-9.941,5.563-9.27
		c2.339,2.497,2.451,6.904,3.431,10.57c2.049,0.422,3.396,0.021,4.867-0.233c-2.388-4.717,0.295-10.109,3.246-10.662
		c7.387-1.374,7.187,7.557,8.668,13.403c0.924-0.854,4.416-2.228,3.614,0.278c2.354-1.155-0.909-11.726,5.056-10.526
		c3.2,2.51,5.845,5.495,5.839,10.756c1.614,0.208,5.851-0.088,8.438,0.649c1.397-2.202-1.396-3.389,0.557-7.232
		c6.917-2.492,8.728,3.6,8.39,9.134c2.008,0.154,4.016,0.309,6.027,0.464c0.45-4.297,0.979-8.491,4.358-9.366
		c4.481,1.412,3.222,7.747,3.244,12.98c2.819-1.706,2.67,0.105,5.375,1.022c0.476-4.046,0.986-8.051,5.425-7.465
		c2.807,1.352,0.971,6.676,1.022,10.385c2.631-0.429,2.354-0.163,4.172,0.928c-1.827-12.935,12.315-10.49,8.389,1.253
		c1.7,0.231,2.43,1.297,4.128,1.528c1.36-3.885,1.073-9.693,6.165-9.224c3.567,1.072-0.109,8.35,1.576,11.034
		c1.923,0.977,4.758,1.174,7.14,1.762c3.237-3.888,7.958-6.04,9.968-11.357C348.972,416.706,330,412.118,314.679,408.6z
		 M231.365,414.353c-0.107-1.03-2.057,0.482-1.943-0.817c0.685-7.805-4.172-14.196-7.912-9.051
		c0.465,15.173-4.524,27.842-6.742,41.895c4.602,0.772,7.496-0.449,12.099,0.324C227.985,435.743,231.004,426.191,231.365,414.353z
		 M247.407,416.154c-1.458,10.776-2.819,21.668-4.313,32.404c3.449-2.142,1.87-6.324,2.597-10.107
		c1.425-7.401,5.375-15.275,4.73-22.065c2.218,10.511-4.716,21.017-4.961,32.961c3.539,0.722,6.708,1.76,10.753,2.041
		c3.86-9.289,4.999-21.755,7.376-32.776c-4.52-0.089-0.817-11.532-5.007-13.723c-2.494-1.17-3.695-0.761-4.822-0.371
		c-3.225,2.12-1.906,7.226-1.438,10.802C249.9,414.681,250.096,417.102,247.407,416.154z M240.407,404.7
		c-3.251,2.827-1.918,6.327-2.83,9.296c-0.193,0.629-2.113-0.334-2.115,0.338c-0.039,13.537-3.28,23.3-4.978,32.648
		c3.451,0.793,7.302,1.247,10.755,2.039c2.71-13.549,7.888-39.569,0.374-44.229C241.212,404.762,240.809,404.73,240.407,404.7z
		 M211.303,403.531c-5.022,1.538-3.188,6.836-4.507,12.525c-0.222,0.959-1.193,0.348-1.488,1.305
		c-2.751,8.857-2.741,21.434-5.747,29.665c3.933,0.208,7.354-0.178,10.384-1.02c2.629-9.853,4.882-20.142,7.189-30.365
		C212,415.119,215.938,404.139,211.303,403.531z M270.495,407.623c-2.064,1.372-1.918,7.132-1.348,9.602
		c-0.235,1.687-2.92,0.528-2.641,2.826c-0.92,11.843-5.023,19.971-4.963,32.959c4.312-0.129,6.83,1.281,10.803,1.438
		C275.413,439.28,283.411,415.769,270.495,407.623z M300.257,422.649c0.749,11.52-2.016,23.659-2.737,35.554
		c2.912-0.245,3.807,1.245,6.583,1.113c2.298-16.4,6.586-33.416,2.417-47.1C300.978,411.661,304.023,421.126,300.257,422.649z
		 M287.277,418.011c-0.948,0.864-3.127,0.291-4.87,0.234c0.929,12.749-4.937,23.082-5.241,36.573
		c4.39,0.746,8.733,1.521,13.819,1.669c2.645-9.722,2.943-26.027,3.897-35.573c1.268,5.751,0.466,17.52-0.698,25.518
		c-0.562,3.834-4.642,11.29,1.572,11.031c2.697-11.119,3.874-24.629,3.386-36.115c-1.876-0.268-4.454,0.067-5.373-1.02
		c0.181-3.35-0.216-5.564-1.066-8.023c-2.294-1.681-4.174-1.157-5.074-0.307C287.459,414.206,287.447,415.801,287.277,418.011z
		 M315.641,421.594c-0.782,1.33-0.657,3.068-1.265,4.499c-0.264,0.619-1.398-0.619-1.509,0.052
		c-1.72,10.398-3.451,22.01-5.242,34.657c3.48-0.165,5.334,1.057,8.391,1.248c-0.254-13.648,5.921-39.721,3.34-43.39
		C318.756,418.614,316.389,418.392,315.641,421.594z M232.433,413.789c-0.079,11.073-3.963,21.204-3.57,30.641
		c2.482-8.766,6.196-22.893,5.424-31.104C234.131,414.021,233.286,413.905,232.433,413.789z M332.8,433.03
		c-2.478-2.086,0.545-4.725-0.463-9.733c-3.397-5.795-7.49,0.039-6.58,6.769c-1.082,0.055-2.972-0.839-2.504,1.021
		c-1.393,10.2-2.348,20.907-3.063,31.895c1.706,1.351,5.658,0.778,8.39,1.253C328.818,452.468,331.541,443.604,332.8,433.03z
		 M258.58,452.175c3.602-1.416,2.174-7.22,2.597-10.107c1.128-7.739,4.236-15.659,4.822-23.271c-0.075-0.684-0.597-0.99-1.113-1.298
		C263.339,429.498,258.87,443.708,258.58,452.175z M275.361,454.68c1.266-11.676,7.354-24.674,5.195-35.974
		C279.417,430.53,273.787,444.063,275.361,454.68z M348.919,468.118c1.206-9.253,5.158-21.438,4.189-31.097
		c-1.559-0.571-4.817-2.589-6.585-1.112c3.552,8.735-3.616,35.834-2.464,31.271c-0.225-10.511,4.972-23.767,1.308-31.966
		c-1.211,10.412-0.953,23.882-4.476,31.597c2.28-13.793,3.952-43.471,2.34-43.28c-5.979-0.631-2.485,9.796-7.46,10.339
		c-0.333,9.033-1.475,23.146-4.275,31.486c1.028-11.281,2.899-21.924,3.81-33.342c-3.914,8.572-4.275,21.285-6.124,32.266
		c5.578,2.912,15.527,2.08,21.468,4.685c1.547-4.468,2.414-10.801,3.708-16.691c1.099-5.005,5.245-12.431-0.092-14.556
		C354.38,446.709,352.413,461.234,348.919,468.118z M212.357,446.193c3.473-7.949,6.926-22.33,6.031-31.062
		C217.046,425.313,211.379,438.063,212.357,446.193z M194.647,447.86c7.7-2.335,5.632-24.912,6.077-31.662
		c-0.403-0.031-0.804-0.063-1.207-0.093C197.859,426.212,194.575,437.923,194.647,447.86z M202.252,427.834
		c0.071-3.15,2.989-9.425,0.835-10.848C202.384,419.687,201.099,425.151,202.252,427.834z M305.263,460.014
		c3.732-9.878,4.696-22.981,6.911-34.63c-0.605-0.047-1.205-0.093-1.812-0.14C307.968,436.021,307.276,448.794,305.263,460.014z
		 M318.384,462.842c1.646-9.523,3.146-26.02,2.598-33.749C319.997,439.442,315.68,454.528,318.384,462.842z M354.962,436.559
		c0.802,0.063,1.608,0.124,2.409,0.186c0.441-1.879-0.921-2.215-0.277-4.266C354.855,432.064,353.776,434.979,354.962,436.559z
		 M294.366,459.781c-2.478-0.921-4.068-1.201-5.377-1.021c-34.551-2.419-55.237-12.582-88.408-9.232
		c-1.644-0.384-10.775,0.789-11.776,3.339c19.1,1.702,37.554,3.155,57.765,5.661c6.815,0.842,14.099,0.969,20.447,2.178
		c5.238,0.999,10.229,3.743,15.39,4.824c19.653,4.116,37.704,10.499,55.212,15.16c5.904,1.572,12.766,4.589,18.637,2.041
		c-0.171-4.168-2.909-6.139-6.721-7.184c-1.502-1.478,1.084-2.957-0.278-4.267c-16.736-3.854-35.431-6.036-51.319-10.623
		C296.333,460.106,296.948,459.26,294.366,459.781z M321.441,478.232c-9.775-3.327-19.894-6.854-30.227-8.994
		c-10.131-2.1-18.104-4.797-26.192-6.263c-6.69-1.208-13.754-1.355-20.445-2.177c-17.049-2.098-34.274-4.581-52.434-4.036
		c0.023,4.84-1.174,8.262-1.578,12.607c2.686,0.505,4.538,0.045,6.676-0.09c-0.07-5.12,0.985-8.921,6.631-7.374
		c1.467,3.25,1.873,7.401,3.429,10.574c0.625-3.034,1.547,1.562,4.221,0.324c1.588-2.085,0.42-7.396,1.947-9.551
		c1.542-0.393,3.289-0.541,5.471-0.188c1.032,2.87,0.753,6.861,2.319,9.272c3.524-0.229,3.973-3.001,6.071-0.139
		c0.201-2.608,0.402-5.222,0.603-7.833c7.091-1.584,12.015,3.08,11.358,9.969c4.316,1.106,5.502-1.56,7.834,0.604
		c0.141-4.875,0.167-9.883,5.518-8.671c2.707,2.183,3.703,5.832,4.081,10.016c0.99-3.154,1.516,2.458,4.774,0.971
		c-0.521-5.858,2.955-7.06,6.675-7.971c3.107,1.841,3.612,5.909,2.781,11.125c2.211,0.171,4.417,0.341,6.628,0.511
		c0.656-2.519-0.559-7.222,1.811-7.743c0.802,0.062,1.608,0.124,2.411,0.186c1.852,1.791,2.303,4.782,1.761,8.623
		c2.964,1.445,5.631,1.237,8.343,1.858c0.554-4.393-0.394-10.532,4.405-9.968c3.139,2.561,0.958,9.687,5.194,11.309
		c0.177-0.881,1.494-0.437,2.455-0.413c0.211-4.354,1.553-7.383,5.978-6.815c2.772,2.314,2.467,7.269,4.033,10.614
		c2.924-1.871,1.172-0.848,4.222,0.325c0.764-2.541-1.563-4.125-0.187-5.467c0.881-1.388,2.156-2.308,4.404-2.087
		c1.802,1.459,0.604,5.483,0.556,8.528c2.292,1.121,3.783-0.004,5.377,1.02c0.221-2.766,0.667-8.71,5.476-8.067
		c2.65,3.358,0.893,10.496,6.394,11.405c-0.035-6.137,7.148-5.982,10.2-6.489C341.745,483.176,331.351,481.607,321.441,478.232z
		 M201.416,462.325c-3.111,1.396-3.225,3.382-3.013,7.648c-1.103,0.25-2.528,0.115-3.108,0.976
		c-0.812,12.846-6.277,25.951-9.598,38.062c4.843,0.177,8.631-0.877,13.954-0.141c3.273-10.411,5.275-22.303,7.465-33.979
		C203.563,472.117,206.105,464.122,201.416,462.325z M214.63,463.95c-3.459,14.795-6.892,29.616-9.556,45.338
		c4.493-0.099,7.311,1.243,11.404,1.486c0.651-12.598,3.182-24.034,5.242-36.582c-3.231,0.337-2.271-6.794-3.478-9.964
		C217.041,464.136,215.832,464.043,214.63,463.95z M220.653,511.701c3.009,0.984,7.345,0.831,10.154,1.992
		c4.165-11.336,7.369-23.801,9.55-37.458c-3.741-3.736-2.01-12.163-11.264-11.172C226.21,480.525,223.356,496.027,220.653,511.701z
		 M251.391,466.78c-2.874,0.586-2.924,4.47-3.06,8.252c-0.204,1.95-3.627,0.146-3.246,2.782
		c-2.514,12.607-4.699,25.601-8.302,36.947c4.132,0.589,7.206,2.08,11.962,2.131C250.115,500.71,261.438,478.54,251.391,466.78z
		 M263.026,473.131c-3.998,13.942-6.123,30.071-8.951,45.386c5.432-0.15,8.597,1.638,13.167,2.228
		c1.337-13.549,5.149-24.205,5.983-38.339c-0.233-1.493-3.922-0.021-3.479-2.089C271.969,472.623,267.155,467.811,263.026,473.131z
		 M270.862,521.023c2.808,0.216,5.622,0.433,8.436,0.649c1.444-12.986,5.07-23.425,5.889-37.139
		c-4.475-1.229-0.366-9.816-5.24-10.707C276.195,488.712,273.245,504.538,270.862,521.023z M293.069,484.535
		c-2.761-0.37-2.965,2.233-4.496,3.293c-0.273,13.04-3.362,22.789-4.502,34.815c3.121-0.233,4.313,1.182,7.184,1.159
		c3.122-14.649,11.527-36.956,3.758-48.815C292.839,476.388,293.608,481.229,293.069,484.535z M303.082,488.339
		c-0.522,13.184-2.517,24.652-4.037,36.673c2.666-0.259,5.525,1.177,6.633,0.511c1.883-15.277,10.792-33.984,3.572-46.41
		C303.325,479.101,306.978,486.703,303.082,488.339z M190.473,470.578c-2.92,11.914-6.63,26.413-7.232,38.847
		c5.788-10.544,8.575-24.584,11.451-38.521C193.287,470.795,191.879,470.687,190.473,470.578z M217.639,511.47
		c3.134-2.503,3.009-7.715,3.941-11.822c1.808-7.977,3.619-17.052,3.849-26.378c-0.604-0.047-1.207-0.093-1.807-0.14
		C220.531,484.628,218.27,497.096,217.639,511.47z M241.471,477.536c-1.472,12.356-7.964,26.343-7.654,36.39
		c3.911-2.052,4.879-8.385,5.845-12.887c1.714-8.005,3.152-16.989,4.359-25.13c-0.603-0.047-1.207-0.093-1.81-0.14
		C242.121,476.541,241.375,476.547,241.471,477.536z M208.415,473.776c-1.074,11.17-6.885,25.561-5.75,35.326
		c2.903-8.929,8.075-25.235,6.955-35.233C209.217,473.838,208.818,473.808,208.415,473.776z M257.091,479.343
		c-2.099,9.449-3.77,21.834-5.426,31.108c-0.36,2.02-3.814,6.113,0.048,7.276c4.839-10.114,5.265-25.384,7.79-38.199
		c-2.358,0.71,0.09-2.701-2.272-1.994C257.184,478.137,257.138,478.742,257.091,479.343z M319.399,488.988
		c-0.204,1.731-3.329,0.056-3.196,2.182c-1.137,12.465-4.422,22.425-4.593,36.02c2.96-0.213,4.907,2.562,7.184,1.159
		c1.951-15.086,5.07-33.471,3.479-45.201c-0.767-0.091-0.771-0.838-1.761-0.742C317.126,483.531,319.762,485.885,319.399,488.988z
		 M329.507,491.586c-1.003-0.077-2.01-0.154-3.015-0.232c-0.703,11.07-1.909,27.063-4.175,38.479
		c1.432,0.649,2.51,1.606,4.728,1.576c2.473-15.863,10.516-31.922,6.684-47.379C329.757,483.557,329.729,487.683,329.507,491.586z
		 M269.654,520.931c0.591-13.123,7.114-26.27,5.333-37.788C273.264,494.946,268.158,509.741,269.654,520.931z M281.662,522.458
		c3.868-6.737,4.147-22.649,5.518-32.313c0.345-2.413,2.233-4.14,0.465-6.027c-0.403-0.031-0.807-0.062-1.206-0.093
		C286.412,497.804,279.69,510.723,281.662,522.458z M338.314,495.295c0.796,12.972-5.472,23.392-5.332,37.785
		c2.665,1.464,6.553,1.887,10.755,2.037c2.275-14.602,7.375-30.789,5.937-45.618C343.098,485.713,342.552,496.287,338.314,495.295z
		 M300.812,494.227c-0.285-2.76,1.743-7.501-0.556-8.532C299.302,487.114,300.586,493.868,300.812,494.227z M313.142,491.538
		c-0.164,6.025-1.88,12.392-3.249,18.546c-1.124,5.081-4.823,14.026-0.646,16.317c2.796-11.843,4.38-23.896,5.794-35.929
		c-0.093-0.481-0.448-0.74-1.159-0.697C313.736,490.48,313.854,491.495,313.142,491.538z M330.015,524.362
		c-0.47,2.154-3.713,7.48,0.604,7.927c2.935-11.424,5.695-23.877,7.093-37.04c-0.074-0.685-0.596-0.993-1.112-1.3
		C334.461,503.947,332.093,514.82,330.015,524.362z M298.445,501.316c-0.114-2.177,1.296-8.584-0.002-7.879
		C298.558,495.616,297.149,502.024,298.445,501.316z M321.159,529.137c0.555-9.25,4.833-26.303,2.552-33.147
		C323.752,507.229,318.998,519.793,321.159,529.137z M297.239,524.873c1.688-7.964,5.126-20.622,2.831-28.885
		C299.761,505.512,294.737,516.437,297.239,524.873z M294.226,524.641c1.149-6.151,3.878-17.305,2.875-21.605
		C297.377,510.626,290.674,520.519,294.226,524.641z M335.113,536.881c-7.475-1.764-14.833-6.001-23.043-7.838
		c-14.903-3.334-31.539-3.442-48.026-6.121c-20.559-3.34-43.132-11.255-64.532-12.244c-5.558-0.257-20.422-0.668-21.651,5.609
		c30.208,3.486,61.035,14.27,94.296,19.384c16.369,2.518,33.288,1.692,49.978,4.454c7.3,1.208,18.323,7.965,24.708,1.902
		C345.702,535.983,339.283,537.862,335.113,536.881z M178.835,519.394c-1.063,0.768-1.443,5.707-0.51,6.629
		c1.827-2.466,6.01-2.179,10.431-1.621c0.701,2.402,0.533,5.546,2.504,6.857c2.351-4.261,6.789-6.087,11.496-7.6
		C195.423,522.031,187.35,518.144,178.835,519.394z M191.12,533.071c-2.589-1.534-2.485-5.375-3.617-8.159
		c-4.961-0.974-7.25,1.174-9.922,2.87c-0.729,5.067-3.349,11.411-2.456,16.184c2.356-5.07,2.956-12.947,8.253-12.704
		c7.148,0.33,5.224,12.093,4.402,21.558c7.881,1.351,4.479-7.641,5.749-11.683c1.096-3.496,6.125-9.628,9.272-10.197
		c8.351-1.516,12.98,5.446,13.723,10.753c0.66,4.715-3.376,12.828,3.059,15.393c2.42-11.849,8.72-19.158,22.023-18.31
		c7.564,3.274,6.741,13.738,7.973,22.438c1.207,1.218,4.382,0.749,6.581,1.114c3.524-9.944,11.667-19.134,24.202-15.112
		c6.578,2.11,9.451,12.425,10.57,20.214c1.464,0.621,3.168,1.038,5.377,1.021c1.984-7.973,5.058-14.68,14.419-14.045
		c3.967,4.478,5.746,10.835,5.839,18.636c1.606,0.124,3.217,0.248,4.823,0.371c1.599-6.922,6.628-15.45,13.675-12.286
		c5.069,2.277,1.815,11.104,4.173,16.691c3.387-7.655,4.037-18.5,6.353-27.398c-3.01-1.55-8.548-0.93-12.609-1.576
		c-3.843,0.55-3.412,6.091-7.186,6.723c-2.935-8.761-9.82-14.478-22.622-13.262c-3.186,1.762-3.782,6.534-7.278,7.928
		c-2.916-7.23-21.527-16.452-31.942-10.339c-2.71,1.587-1.89,4.912-5.287,5.652c-0.607-8.97-19.177-18.296-29.949-12.61
		c-3.224,1.702-2.987,5.642-6.584,6.766C223.69,522.642,196.514,520.81,191.12,533.071z M224.174,536.829
		c0.949-5.461,7.455-4.44,10.849-7.049c-5.693-0.937-11.041-2.17-16.737-3.105C219.655,530.566,222.354,533.322,224.174,536.829z
		 M260.01,543.83c0.862-4.47,5.114-4.98,8.392-6.633c-5.791-0.477-11.686-3.858-17.385-2.547
		C256.743,535.37,256.812,540.939,260.01,543.83z M296.59,549.07c1.413-3.164,3.737-5.272,5.471-8.066
		c-6.143,0.379-12.033-2.44-16.878-1.299C290.41,541.605,293.399,545.425,296.59,549.07z M210.357,535.157
		c-7.782-5.572-15.557,3.735-15.112,15.204c3.508-0.729-1.534,3.904-2.782,4.637C190.542,561.952,180,617,176.75,625
		c1.104,0.391,17.724,1.332,17.75,1c3.293-15.476,15.954-53.88,16.134-70.816c0.505-1.16,3.561,0.651,3.154-1.574
		C213.461,545.868,214.881,538.396,210.357,535.157z M325.888,554.355c2.318-6.094,10.881-8.265,19.193-5.191
		c-8.043-3.614-18.53-5.133-28.558-7.047C318.782,546.935,326.461,547.109,325.888,554.355z M178.46,595.146
		c3.09-13.236,3.917-27.79,5.564-40.799c0.812-6.39,4.676-14.295,0.325-19.979c-0.767-0.093-0.774-0.837-1.761-0.74
		c-2.221,3.981-6.073,9.544-5.379,14.742c1.689-1.314,0.468-6.027,4.036-5.149c2.819,1.9,0.329,8.35,1.527,11.638
		c-4.018,0.563-4.785,4.926-7.789,6.678c-1.952,21.582-9.232,42.434-12.733,62.214c3.016,0.232,5.737,0.519,8.75,0.75
		C171.826,616.188,176.424,603.862,178.46,595.146z M239.612,541.045c-7.691-1.913-15.313,6.741-17.478,14.419
		c-0.528,1.875,0.606,3.508,0.185,5.469c-0.16,0.749-1.837,2.226-2.041,2.875c-2.432,7.846-1.928,17.281-4.313,24.524
		c9.345,1.752,16.663,5.235,26.796,6.307c3.484-7.102,3.558-18.181,5.148-27.489c-0.165-1.39-2.77,2.105-2.967-0.837
		C247.799,557.822,247.354,542.977,239.612,541.045z M269.883,549.441c-7.354,1.622-10.803,12.016-11.078,17.938
		c-0.498,10.683-3.833,19.028-3.989,28.187c11.57,0.402,19.867,3.612,29.254,5.89C288.31,581.355,294.426,544.017,269.883,549.441z
		 M294.314,602.244c6.045,0.073,10.683,1.354,16.224,1.856c1.417-10.211,4.656-23.104,2.784-28.279
		c-2.792,2.22-0.927-6.901,0.928-4.173c-0.727-5.572-2.401-10.325-4.313-14.883C293.924,558.886,297.814,587.711,294.314,602.244z
		 M178.602,553.931c1.151-0.032,2.302-3.356,0.927-4.174C178.821,550.311,177.012,552.868,178.602,553.931z M325.009,573.689
		c1.034-2.071,1.689-4.593,3.472-5.795c2.695,2.757,2.443,8.041,3.94,11.821c-9.652,1.875-9.588,15.082-11.683,25.777
		c2.613,0.201,5.223,0.402,7.834,0.603c4.341-6.025,2.043-16.055,4.268-23.924c0.505-1.778,2.437-3.486,2.828-5.236
		c1.192-5.34,0.165-9.985-1.994-13.495C328.264,563.484,323.947,568.287,325.009,573.689z M182.678,587.589
		c3.994-8.478,4.178-21.4,6.679-31.618c-0.767-0.092-0.778-0.836-1.762-0.741C186.922,566.708,181.91,576.619,182.678,587.589z
		 M197.5,626c3.2-0.117,5.106,1.389,7.75,1.75c3.287-5.016,2.909-15.34,3.852-21.154c2.628-16.166,9.518-32.316,7.932-47.888
		c-1.472,0.135-1.224-1.201-2.967-0.835C210.01,578.405,202.239,604.1,197.5,626z M167.89,590.694
		c1.178-10.669,4.428-22.417,4.311-32.405C170.116,567.894,168.056,581.034,167.89,590.694z M250.503,564.923
		c-2.207,22.384-7.485,43.426-10.753,64.577c1.809,0.14,4.194,0.607,6,0.75c4.851-20.539,7.269-39.411,10.736-64.261
		C255.065,565.18,251.371,564.463,250.503,564.923z M290.699,570.443c-1.541,21.806-7.429,45.327-8.489,62.999
		c7.323,1.641,5.188-12.411,6.308-18.912c2.209-12.83,7.327-30.694,6.401-43.762C293.51,570.66,292.107,570.552,290.699,570.443z
		 M327.046,578.698c1.233-0.671,1.816-3.624-0.276-4.27C327.11,576.615,324.742,577.908,327.046,578.698z M313.782,624.961
		c1.521-7.459,5.583-15.523,2.689-19.189c2.501-1.542,3.273-7.348,3.941-11.824c1.095-7.338,1.059-14.547-0.416-18.218
		c-0.6-0.046-1.205-0.093-1.807-0.14c-0.213,0.85-1.072,0.941-1.343,1.715c-0.008,0.2-0.043,0.4-0.047,0.604
		c-0.625,20.102-7.896,43.61-8.258,59.987C313.639,638.053,312.733,630.11,313.782,624.961z M337.8,580.736
		c-0.667,0.754-0.741,2.199-1.992,2.269c-1.604,16.157-6.142,31.482-9.463,44.139c-0.989,3.769-4.549,10.467-0.974,12.654
		c8.052-15.783,9.843-38.873,14.238-58.922C339.006,580.829,338.402,580.783,337.8,580.736z M215.871,589.541
		c-1.574,5.387-2.707,11.285-3.756,17.287c9.233,2.037,17.862,4.584,28.049,5.799c1.435-4.533,2.979-12.185,1.95-17.434
		C231.085,595.264,225.635,590.555,215.871,589.541z M180.962,594.126c2.021,0.77,1.784-4.416,0.975-4.773
		C182.192,591.619,180.708,591.857,180.962,594.126z M251.708,612.301c9.288,2.145,19.586,5.247,29.948,4.733
		c1.129-4.598,1.371-10.222,2.367-14.975c-10.171-1.419-17.49-5.275-29.3-5.287C253.98,602.254,252.587,606.979,251.708,612.301z
		 M294.268,602.848c-1.367,5.194-2.805,10.305-3.662,16.088c7.042-0.036,11.771,1.92,17.987,2.596
		c0.134-5.97,1.198-10.86,1.853-16.225C304.486,604.971,300.861,602.638,294.268,602.848z M317.679,621.626
		c2.37,0.406,5.816-0.11,7.185,1.157c0.894-5.304,3.711-8.365,3.57-14.881c-1.535-1.309-5.24-0.763-7.788-1.204
		C319.488,611.477,318.579,616.546,317.679,621.626z M175.307,620.364c3.443-5.364,4.111-15.346,6.583-22.532
		c-0.768-0.088-0.775-0.834-1.762-0.739C178.166,604.435,176.028,611.576,175.307,620.364z M208.25,627.75
		c9.416,0.75,19.011,0.953,27.5,2.5c2.114-3.666,3.648-11.731,4.368-17.021c-10.496-0.95-19.163-3.467-28.697-5.239
		C211.108,613.757,209.234,622.769,208.25,627.75z M251.568,614.11c-1.511,4.147-2.762,11.463-3.818,16.14
		c8.5,1.75,19.927,2.801,30.5,3.5c1.734-4.107,2.351-10.504,3.313-15.511C272.074,618.518,261.714,615.104,251.568,614.11z
		 M288.796,634.557c5.83,0.258,10.674,1.357,15.576,2.413c1.804-4.024,2.892-8.887,3.524-14.279
		c-5.474-1.124-10.698-2.465-17.383-2.551C290.724,625.53,288.662,631.414,288.796,634.557z M313.967,638.314
		c2.914-0.245,3.807,1.241,6.584,1.112c1.317-5.25,2.644-10.49,3.662-16.087c-2.622-0.192-5.438-0.216-7.187-1.159
		C316.324,627.928,315.029,632.985,313.967,638.314z"/>
</g>
</svg>
