<?xml version="1.0" encoding="utf-8"?>
<!-- Generator: Adobe Illustrator 16.0.0, SVG Export Plug-In . SVG Version: 6.00 Build 0)  -->
<!DOCTYPE svg PUBLIC "-//W3C//DTD SVG 1.1//EN" "http://www.w3.org/Graphics/SVG/1.1/DTD/svg11.dtd">
<svg version="1.1" id="Ebene_2" xmlns="http://www.w3.org/2000/svg" xmlns:xlink="http://www.w3.org/1999/xlink" x="0px" y="0px"
	 width="566.93px" height="708.66px" viewBox="0 0 566.93 708.66" enable-background="new 0 0 566.93 708.66" xml:space="preserve">
<g>
	<path fill-rule="evenodd" clip-rule="evenodd" fill="#E8E6AC" d="M372.333,397.161l-1.667,1.5l-1.167,2.334l0.417,1.833
		c0,0,0.249,9.917,0.333,10.25s1.667,1.417,1.667,1.417l1-1.834l0.833-9.833L372.333,397.161z"/>
	<polygon fill-rule="evenodd" clip-rule="evenodd" fill="#E8E6AC" points="353.499,407.911 351.499,405.578 352.249,402.828 
		354.749,404.495 353.583,408.328 	"/>
	<polygon fill-rule="evenodd" clip-rule="evenodd" fill="#E8E6AC" points="155.5,401.912 156.917,404.662 158.25,404.745 
		159.417,403.078 157.417,399.995 	"/>
	<path fill="#E8E6AC" d="M35.833,514.994c0,0,2.25-40.75,1.25-40.75s-5.25-5.75-5.25-5.75l3.5-2.25l2.75-43l-4-5.75l3.5-1.25
		l2-47.75l-3.75-3.75l4.75-4.25v-10.5l-2.75-3.25l2.75-2.5l1.5-7.5c0,0,7.5-6.25,12.25-1.25s3.5,8.5,3.5,8.5l3.5,4l-2.75,3
		l-1.75,9.25l4.5,4.75l-3.557,6.588l1.807,44.162l3,2.5l-3.5,5.75l3.5,41l2.25,2.75l-3.75,5l2.75,45.375l88-0.375
		c0,0-1.724-88.077-1.25-89.5c0.125-0.375-0.406-12.992-0.406-12.992l1.656-1.133l1.25,1.5l-1.25,13.125l5.149-1.077l-0.149-6.298
		l1.75-4.75l6-0.25l0.625,4l3.625,1.125l2.5-0.5l2,4.625l1.5-14.25l1.375-0.125l1.375,2.5l-0.375,11l7.875-0.25l0.25-12.875l-5-3.5
		l3.875-1.625c0,0,2.375-14.75,17-21.75c10.75,3.875,16,12.5,16,12.5s0.363-14.49-4.25-13.125
		c-2.012-38.615,29.375-54.625,29.375-54.625s-0.087-1.675,1.875-2.875c17.375-10.625,18.688-16.053,17.791-15.649
		c-0.463,0.208,3.278-2.537,1.334-4.851c-2.625-3.125-0.456-10.589,0.75-7.875c0.321,0.723,3,3.875,0.125,7.625
		c-2.791,3.64,2.499,5.995,6,10.625c5.84,7.723,13.383,6.77,15.816,11.447s31.309,13.178,27.434,55.428c1.25,2.5,0,1.125,0.625,6.5
		c0.453,3.895,6.875-9.25,16.5-8.125c4.004,0.468,17.375,11,13.375,24c-0.238,0.776,4.666,1.668,4.5,2.375
		c-0.436,1.857-3.974,3.457-4,4.875c-0.13,7.082,2.25,8.875,2.25,8.875l12-1.375l8.75-5.625l5.875-0.875l-0.5,10.5l3.25,0.25
		l1.75,2.375l0.625,85l-0.25,2l-14.5,2.125l-14.5,1.5l-50.75-0.125h-66.75c0,0-76.25-0.25-77.375,0.125
		c-4.25,1.75-119,0.75-119,0.75L35.833,514.994z"/>
	<path fill-rule="evenodd" clip-rule="evenodd" d="M242.331,377.969c0.539,0,1.081,0,1.618,0c0.17,0.846-0.277,1.07-0.406,1.616
		C242.481,379.709,242.217,379.025,242.331,377.969z"/>
	<path fill-rule="evenodd" clip-rule="evenodd" d="M235.46,378.775c0.271,0,0.543,0,0.808,0c-0.072,0.344,0.158,0.383,0.406,0.406
		c0,0.269,0,0.537,0,0.806c-0.347-0.073-0.38,0.158-0.406,0.406c-0.265,0-0.537,0-0.808,0c0.076-0.345-0.158-0.382-0.403-0.406
		c0-0.269,0-0.537,0-0.806C235.402,379.254,235.434,379.022,235.46,378.775z"/>
	<path fill-rule="evenodd" clip-rule="evenodd" fill="#FFFFFF" d="M222.532,383.625c1.505,0.163,2.369-0.324,2.422-1.615
		c-0.805,0-1.613,0-2.422,0C222.532,382.551,222.532,383.087,222.532,383.625z"/>
	<path fill-rule="evenodd" clip-rule="evenodd" d="M222.532,382.01c0.809,0,1.617,0,2.422,0c-0.053,1.291-0.917,1.778-2.422,1.615
		C222.532,383.087,222.532,382.551,222.532,382.01z"/>
	<path fill-rule="evenodd" clip-rule="evenodd" fill="#FFFFFF" d="M373.254,398.172c0.903,0.171,0.316,2.144,0,2.426
		C372.358,400.428,372.936,398.453,373.254,398.172z"/>
	<path fill-rule="evenodd" clip-rule="evenodd" fill="#FFFFFF" d="M263.75,433.33c1.509-0.332,0.744,2.487,0.401,2.826
		C263.248,435.982,263.988,434.162,263.75,433.33z"/>
	<path fill-rule="evenodd" clip-rule="evenodd" fill="#FFFFFF" d="M240.312,433.73c5.276-0.021,8.828,1.679,7.675,8.084
		c-2.127,0.246-3.197-0.568-3.637-2.02c-0.423-1.051,2.716-1.17,0.404-1.621c-0.001-1.346,1.624-1.066,2.021-2.018
		c-2.206-0.585-3.841,2.89-6.87,2.825C240.491,437.684,240.287,435.596,240.312,433.73z"/>
	<path fill-rule="evenodd" clip-rule="evenodd" fill="#FFFFFF" d="M268.193,433.73c0.943,0,1.882,0,2.83,0
		c0.548,0.671-0.331,2.357,0,4.041c-1.085-0.529-2.149-1.082-3.233-1.615C267.494,434.92,268.488,434.968,268.193,433.73z"/>
	<path fill-rule="evenodd" clip-rule="evenodd" fill="#FFFFFF" d="M281.527,437.771c1.095,0.524,1.434,1.795,3.229,1.619
		c-0.415,1.332-1.118,2.382-2.824,2.424C280.602,440.829,281.8,439.816,281.527,437.771z"/>
	<path fill-rule="evenodd" clip-rule="evenodd" fill="#FFFFFF" d="M290.418,441.006c-0.82,2.552-2.231,4.508-6.061,4.039
		C283.694,439.906,287.015,439.163,290.418,441.006z"/>
	<path fill-rule="evenodd" clip-rule="evenodd" d="M171.209,478.184c-5.156-0.231-11.258,0.482-15.759-0.406
		c0.785-9.646,0.421-30.84,8.892-33.135c3.978-1.08,6.068,14.721,6.465,18.184C171.403,468.004,171.088,472.676,171.209,478.184z
		 M157.068,476.564c4.174,0,8.352,0,12.528,0c-0.302-11.416-0.523-22.917-5.253-29.9
		C157.905,452.613,157.911,465.018,157.068,476.564z"/>
	<path fill-rule="evenodd" clip-rule="evenodd" fill="#FFFFFF" d="M238.695,455.148c1.231-0.02,1.57,0.854,2.422,1.213
		c-0.998,2.731-1.556,4.949-2.422,8.482C237.788,462.316,238.359,457.785,238.695,455.148z"/>
	<path fill-rule="evenodd" clip-rule="evenodd" fill="#FFFFFF" d="M237.885,468.48c1.762,14.402,0.359,31.975,0.81,47.682
		C236.829,501.963,238.409,484.25,237.885,468.48z"/>
	<path fill-rule="evenodd" clip-rule="evenodd" fill="#FFFFFF" d="M40.286,470.506c1.136,0.463,2.103,0.463,3.236,0
		C43.964,471.791,39.843,471.791,40.286,470.506z"/>
	<path fill-rule="evenodd" clip-rule="evenodd" fill="#FFFFFF" d="M136.866,516.568c-5.238-0.381-9.016,0.684-13.74,0.811"/>
	<path fill-rule="evenodd" clip-rule="evenodd" fill="#FFFFFF" d="M360.323,501.213c1.198,3.814,1.081,11.004,0.809,14.949
		C358.346,513.154,360.687,505.734,360.323,501.213z"/>
	<path fill-rule="evenodd" clip-rule="evenodd" d="M139.71,516.811c0.961,0.484,7.848-0.164,9.61-0.324
		c-0.028-15.75,1.46-32.469,0.158-48.732c-1.426-17.738,2.163-36.832-0.805-52.529c1.828-1.187,1.591-4.507,1.604-6.467
		c1.294,0.447,0.676,2.816,1.2,4.043c0.843,0.635,2.578,0.36,2.805,1.613c-1.036,3.945-2.179,7.771-1.604,13.338
		c0.845,0.729,2.058-0.616,3.205-0.809c-0.55-8.688,2.616-20.334-1.601-25.459c1.843-2.26,2.369-3.566,2.403-7.274
		c0.916,2.98,1.657,6.142,3.603,8.083c-1.36,3.479-2.584,7.09-2.001,12.528c3.429,1.12,4.108,0.31,7.605,0.808
		c-0.206,2.5,0.094,4.485,2.004,4.85c-0.209-3.715,2.424-4.56,2.002-8.486c2.688,2.537,1.566,8.928,3.202,12.525
		c1.245-3.824,0.956-10.561,0.402-14.949c1.212-1.338,2.338-2.761,2.401-5.256c2.754,4.102,2.93,12.48,2.002,18.994
		c1.315,0.825,4.057,0.219,6.01,0.404c-0.243-3.666,0.351-8.455,0-10.91c-0.959-2.134-4.839-1.318-4.009-5.254
		c-0.261-1.746,2.808-0.133,3.202-1.212c2.268-10.511,8.758-16.761,16.424-21.819c0.958-4.674,0.461-8.293,1.2-12.527
		c0.534,1.98,2.518,5.311,0.399,7.676c0.009,1.875,1.935,1.82,1.2,4.445c3.792,3.719,10.37,4.626,13.617,8.889
		c-0.499-3.67-0.991-7.348-3.604-8.889c-1.313-29.475,11.718-44.473,29.231-54.955c0.967-0.805-0.666-1.924,0.399-2.829
		c7.073-4.72,15.812-7.751,20.024-15.355c-1.53-1.21-0.327-3.941,0.801-4.851c-0.297-1.18-2.165-0.78-2.003-2.422
		c1.263-4.535-0.552-9.7,2.404-12.526c3.999-0.159-0.007,4.801,0,4.847c0.251,1.893,3.477,3.455,3.604,6.062
		c0.081,1.669-1.453,1.989-1.606,3.235c-0.216,1.804,2.333,3.416,0.805,5.252c3.846,7.296,11.925,10.324,18.818,14.549
		c0.332,1.01,1.1,1.585,1.201,2.826c14.284,7.568,26.287,20.51,28.429,40.814c0.543,5.107-1.205,13.283,0.801,17.778
		c0.172,1.655-0.371,2.589-0.801,3.637c4.085-3.829,6.92-8.911,14.417-9.294c-1.596-5.62-1.034-10.505-0.801-16.57
		c2.379,1.035-0.489,5.536,2.008,6.871c-2.744,2.195,0.228,4.456-0.403,8.893c7.931,5.47,17.846,11.076,15.215,25.862
		c1.185,1.229,4.513,0.296,5.605,1.614c-0.673,2.419-3.34,2.824-5.605,3.637c0.056,4.123,1.265,7.072,2.403,10.102
		c1.202,0,2.401,0,3.606,0c-1.492-5.377,3.254-12.592-0.806-15.76c0.393-2.166,2.365-2.731,1.604-6.061
		c0.556,2.539,2.817,3.355,4.004,5.252c-1.196,4.315-1.454,9.58-1.2,15.357c1.07,0,2.133,0,3.206,0
		c-0.764-4.378-0.302-8.224,1.999-10.506c-0.525,2.965,2.733,5.729,0,8.887c2.215-0.91,4.536-5.082,9.608-4.446
		c0.613-3.897,1.019-10.959-0.798-13.735c2.39-0.281,0.815-4.562,4.002-4.039c0-1.889,0-3.773,0-5.661
		c3.834,9.436-0.39,22.743,0.801,33.944c0.804,0,1.602,0,2.403,0c1.584-3.051,1.016-10.277-0.401-12.93
		c0.202-2.641,1.886-3.527,0.801-6.465c0.81,2.012,1.994,3.643,3.604,4.848c-0.802,3.535-0.987,11.1-0.802,16.973
		c0.126,0.549-0.673,0.865-0.073,0.932c-0.042,1.037,0.186,0.121-0.325,0.686c-0.137,1.754-0.267,0.234-0.035,1.617
		c-0.154-0.201,0.36,82.31,0.48,82.188c2.016,1.667,9.214,1.189,11.968,1.048c4.561,0.002,6.963,0.324,15.771-0.162l63.518,1.299
		v0.889c-16.257,0.566-63.131-0.279-64.073-0.406c-10.305-0.174-22.11,0.645-30.033,0.406c-1.521-0.6-3.85-0.16-5.205,0
		c-5.492,1.414-16.662,2.018-17.383,2.26c-1.285,0.355-1.349,0.291-2.4,0.402c-0.161-0.322-103.141,0.631-103.547,0.57
		c-0.563-0.086-23.787-0.406-24.428-0.404c-12.193,0.035-61.825-0.65-61.665-0.488c-1.132-0.064-12.173,0.646-12.013,0.486
		c0.161-0.164-23.539,0.467-30.838,0.809c-22.38,1.037-48.988-1.029-70.878,0c-4.997,0.232-9.833,0.09-13.614,0.402
		c2.583-15.289,1.403-30.293,2.001-44.851c-2.195-0.565-8.94-8.112-1.201-9.296c0.255-10.662,1.085-24.26,1.604-35.155
		c0.286-6.06-0.408-9.481-4.007-12.932c0.865-1.147,2.777-1.239,4.007-2.019c0.915-9.184,0.662-20.76,1.2-30.309
		c0.531-9.383,3.132-16.973-3.202-20.203c0.577-2.65,2.705-3.734,5.205-4.447c0.097-3.33-0.706-5.751-0.402-9.291
		c-0.997-1.957-3.317-2.58-3.603-5.252c1.339-0.67,2.664-1.351,4.005-2.023c-0.17-6.363,2.482-9.887,8.007-10.504
		c1.338-4.564-0.841-9.058,1.202-11.719c1.544,3.867,0.69,6.858-0.401,10.908c6.515,0.568,9.533,4.661,9.611,11.721
		c1.137,1.547,3.479,1.877,4.003,4.041c-3.354,2.002-4.554,6.182-4.404,11.717c4.125,2.586,5.691,8.535,0,11.719
		c1.2,14.547,2.308,29.188,2.804,44.451c0.006,2.012,2.924,1.088,2.802,3.234c-5.59,3.773-1.929,13.892-1.202,23.435
		c0.584,7.65,0.123,15.247,0.801,21.817c0.148,1.563,1.785,1.938,2.603,3.725c-4.871,3.839-2.674,9.09-2.202,19.313
		c0.483,10.48-0.195,19.127,0.802,28.688c4.501,3.004,15.978,1.232,24.425,1.619c11.769,0.537,23.658,0.121,33.638-0.809
		 M262.8,304.1c0.533,0,1.068,0,1.604,0c0.844-1.577,0.261-4.709-1.202-5.252C262.697,300.125,261.779,302.573,262.8,304.1z
		 M259.598,317.435c2.842,0.233,7.308,0.97,10.011,0c-2.371-1.245-3.384-3.86-5.205-5.655
		C263.149,314.02,260.403,314.75,259.598,317.435z M270.81,318.648c-4.555,0.28-8.137-0.41-12.413-0.403
		c-3.94,2.894-8.706,4.953-12.417,8.08c1.979-1.147,2.999,0.614,4.006,1.616c0.958-1.523,4.856-1.841,5.203,0.408
		c2.146-3.297,5.357-0.705,8.811-2.427c1.421-0.221,0.984,1.429,2.403,1.211c5.051-2.796,9.64,0.772,14.817-0.809
		C280.53,322.545,273.141,322.109,270.81,318.648z M243.98,329.561c2.002,0.271,3.101-0.377,4.802-0.406
		C249.327,325.15,243.824,327.033,243.98,329.561z M261.595,327.134c0,0.403,0,0.808,0,1.216c1.22-0.256,3.454,0.514,4.009-0.408
		C265.167,326.82,262.8,326.215,261.595,327.134z M266.402,328.35c3.075-0.271,7.204,0.529,9.61-0.408
		c-1.378-1.627-2.893-1.045-4.403,0C271.104,325.908,266.575,326.461,266.402,328.35z M276.816,328.35
		c2.417-0.154,4.424,0.109,6.403,0.402c0.162-0.977-0.729-0.879-0.397-2.024C280.688,327.967,278.029,326.182,276.816,328.35z
		 M256.391,328.35c1.204,0,2.401,0,3.606,0C259.99,326.525,256.46,326.848,256.391,328.35z M250.386,328.752
		c1.648,0.314,2.056-0.623,3.604-0.402C253.805,326.594,250.429,327.754,250.386,328.752z M295.23,336.023
		c-3.417-3.187-6.926-6.201-12.011-6.869c-8.349-1.098-21.901-0.713-30.833,0c-5.37,0.429-9.76,1.764-13.214,4.041
		c-3.705,2.441-5.389,3.965-8.406,6.465c-10.683,8.836-17.229,22.701-16.421,39.197c13.039-6.473,30.86-8.084,49.654-8.084
		c19.128,0,35.48,4.373,48.855,9.297C314.26,358.604,305.769,345.844,295.23,336.023z M42.157,340.469
		c3.779-1.268,9.625-1.621,13.619-0.406C55.714,331.793,41.15,333.847,42.157,340.469z M41.36,342.894
		c4.749-0.835,11.374-0.571,15.216,0.806C56.398,338.104,42.887,339.201,41.36,342.894z M38.554,347.338
		c1.18,1.825,3.528-0.362,5.207-0.809c6.758-1.793,10.885,1.063,16.418,2.021C57.496,343.084,41,342.369,38.554,347.338z
		 M41.36,349.763c-0.461,3.056-0.926,8.074,1.2,9.696c1.229-3.068-0.912-9.537,2.803-10.102c3.02,1.266,0.908,7.705,2.803,10.102
		c2.274-1.877-1.252-9.613,2.802-9.696c2.618,0.591,1.86,4.591,2.803,6.866c-0.387-3.352,2.077-3.827,3.205-5.654
		C55.137,346.529,44.744,346.995,41.36,349.763z M45.363,359.459c0.814-1.902,0.001-5.289-0.402-7.27
		C44.459,354.486,44.524,358.414,45.363,359.459z M51.369,359.459c1.045-0.81,0.678-6.4-0.799-7.27
		C51.04,354.402,49.581,358.568,51.369,359.459z M55.775,359.863c0.138-1.623,1.514-4.107,0.398-5.655
		C55.507,355.297,54.8,358.459,55.775,359.863z M36.955,363.5c-0.061,1.004-0.077,1.963,0.799,2.021
		c0.203-1.268-0.942-1.65,0.4-2.021c0.944,0.596,0.744,0.854,2.004,0.404c0.553,0.652,0.337,2.085,1.202,2.426
		c0.196-1.813-0.207-3.027-0.402-4.444c0.534,0,1.065,0,1.602,0c0.201,1.544,0.36,3.134,2.002,3.231
		c0.437-1.627-1.306-3.115,0.399-3.636c0.704,1.042,0.164,3.339,1.604,3.636c0-1.349,0-2.691,0-4.041
		C42.163,360.676,39.347,361.877,36.955,363.5z M48.565,365.927c1.102-0.776-0.465-4.245,1.602-4.041
		c0.386,1.228-0.856,4.097,0.801,4.041c1.438-0.3,0.407-3.093,1.604-3.637c0.707,0.761,0.29,2.667,0.398,4.04
		c2.505,0.645,0.986-2.779,2.805-2.83c0.035,1.848-0.404,4.177,1.201,4.447c1.025-0.854,0.419-3.348,1.599-4.043
		c0.963,0.513-0.219,3.186,0.801,3.637c2.633-5.451-6.806-7.232-12.011-6.06C48.704,362.013,46.6,366.024,48.565,365.927z
		 M42.157,366.33c1.298-0.174,3.466,0.53,3.605-0.809c-1.964,0.367-2.891-0.313-3.605-1.215
		C42.157,364.982,42.157,365.656,42.157,366.33z M40.559,371.988c5.129-0.984,11.259-0.256,15.615,0.807
		C57.856,365.477,38.75,366.061,40.559,371.988z M306.444,378.857c-2.368-0.801-4.871-2.118-7.206-2.828
		c-25.622-7.799-64.231-6.605-84.893,4.441c11.746-2.41,24.996-7.072,38.44-7.676c8.723-0.393,18.296,0.922,27.231,1.615
		c5.692,0.444,11.842,1.553,16.817,2.829c5.976,1.531,10.224,5.813,15.618,5.657C312.503,379.776,308.619,379.59,306.444,378.857z
		 M40.958,372.795c-2.671,12.256-1.062,28.832-2.803,42.026c6.117-1.34,15.683-1.298,20.821,0.808
		c-0.689-14.12-1.309-28.313-2.802-41.621C52.742,372.15,45.779,371.932,40.958,372.795z M214.749,382.09
		c15.44-4.757,36.376-7.475,58.063-7.276C251.478,371.932,230.462,375.748,214.749,382.09z M302.84,381.28
		c1.704,0.759,6.359,4.995,6.811,3.235c-0.794-1.479-3.108-2.672-5.205-3.639c-6.784-3.131-16.927-4.969-25.229-5.254
		C286.326,377.934,296.26,378.34,302.84,381.28z M251.187,378.857c1.455-0.016,1.759-1.189,1.599-2.828
		C250.85,375.52,250.235,377.691,251.187,378.857z M255.991,377.646c0-0.542,0-1.079,0-1.616c-0.667,0-1.335,0-2.001,0
		C254.127,377.102,255.04,377.39,255.991,377.646z M257.595,378.049c1.121-0.076,1.706-0.705,1.599-2.02
		c-0.58,0.219-2.068-0.473-1.997,0.402C257.787,376.507,257.56,377.408,257.595,378.049z M266.402,376.029
		c-2.695,1.018-2.625-0.125-6.008,0C260.418,377.827,266.673,378.934,266.402,376.029z M271.609,378.049
		c0.171-0.77,1.143-0.729,0.8-2.02c-1.744-0.553-0.851,1.564-2.402,1.21c0.015-0.558-0.187-0.886-0.398-1.21
		c-0.586,0.219-2.07-0.473-2.003,0.402C268.743,377.164,269.381,378.41,271.609,378.049z M278.816,378.049c0-0.676,0-1.349,0-2.02
		c-0.399,0-0.801,0-1.198,0c-0.498,0.225,0.296,1.561-1.605,1.21c-0.015-0.558,0.191-0.886,0.4-1.21c-0.934,0-1.87,0-2.803,0
		C273.998,378.071,276.745,378.938,278.816,378.049z M247.182,376.834c0.21,1.541,1.428,2.062,3.204,2.023
		c0.071-1.149-1.353-0.791-0.802-2.426C248.364,376.14,248.125,376.844,247.182,376.834z M281.22,378.857
		c-0.064-1.008,0.628-1.254,0.797-2.023c-1.128,0.337-1.036-0.569-2-0.402C279.997,377.664,280.383,378.49,281.22,378.857z
		 M239.974,378.049c0.765,1.52,2.731,1.826,5.204,1.615c0.336-0.873,1.039-1.377,0.801-2.83
		C243.917,377.178,240.271,375.923,239.974,378.049z M257.595,379.664c0.645,1.502,0.333,3.977,0.401,6.062
		c2.435,0.305,3.627-0.646,6.003-0.403c0.312-2.74-0.546-4.3-0.398-6.87C260.435,377.746,259.24,376.917,257.595,379.664z
		 M264.404,378.452c-0.126,2.552,0.141,5.03,0.477,7.116c1.205-0.543,2.982-0.17,4.726-0.162c0-2.02,0.002-4.529,0.002-6.549
		c-1.284-0.188-1.412-1.537-2.802-1.618C266.842,378.49,265.595,378.445,264.404,378.452z M270.408,378.857
		c0,2.02-0.002,4.691-0.002,6.711c1.466,0,2.854,0.08,4.324,0.08c0.517-1.635,0.939-4.178,0.88-6.387
		c-0.949-0.657-1.625-1.594-2.798-2.022C272.796,378.573,271.669,378.783,270.408,378.857z M282.419,379.262
		c1.368,0.168,2.282-0.123,2.001-1.616c-0.551,0.017-0.877-0.193-1.2-0.406C283.282,378.246,282.595,378.492,282.419,379.262z
		 M230.767,379.262c0.69,0.363,1.102,1.488,0,1.615c-1.056,0.121-1.318-0.559-1.205-1.615c-0.94,0.126-1.499,0.638-2.802,0.402
		c0.829,2.283,3.46,1.955,5.205,2.426c0.934-0.404,0.487-2.203,1.201-2.828c1.005,0.467,1.343,1.607,2.805,1.615
		c1.556-0.447,2.975-1.038,3.202-2.828C236.93,377.49,232.463,377.941,230.767,379.262z M251.586,386.131
		c1.829-0.174,3.396-0.613,5.611-0.405c-0.107-2.321,0.299-5.151-0.403-6.868C252.728,375.728,250.728,380.783,251.586,386.131z
		 M289.227,380.07c-0.092-0.717,0.403-2.026-0.798-1.618c0.171,1.995-1.95,0.862-2.806-0.403
		C285.004,380.458,287.858,380.953,289.227,380.07z M245.18,386.941c-0.414-2.006-1.324-3.92-1.2-6.471
		c-2.182,0.316-2.917-0.832-4.408-1.209c-2.66,1.271-2.374,6.896-0.399,8.891c3.771-0.775,7.495-1.602,11.612-2.021
		c0.744-1.676-0.383-3.557,0-6.061c-1.617-0.388-2.851-1.162-4.403-1.618C244.007,380.648,245.55,384.107,245.18,386.941z
		 M276.413,379.262c0.221,2.242-1.078,5.135-0.481,6.468c2.084-0.081,3.405,0.659,5.366,0.565c0.806-1.206,0.148-4.381,0.323-6.225
		C279.836,378.309,279.198,378.791,276.413,379.262z M293.634,382.09c0.317-0.755,0.668-1.48,0.8-2.426
		c-1.492-0.428-1.291,0.852-2.001,1.213c-2.089-0.133,0.095-2.066-2.003-2.02C289.784,382.37,292.598,381.016,293.634,382.09z
		 M282.419,380.07c-0.164,1.719,0.631,5.131-0.16,6.225c0.948,0.795,2.361,0.392,3.686,0.809c0.516-1.5,0.735-3.952,0.88-5.823
		C285.137,380.467,284.868,379.283,282.419,380.07z M217.551,382.896c1.335-0.406,1.313,0.563,1.199,1.619c-0.665,0-1.332,0-2,0
		c-1.114-0.602,0.843-1.807-0.801-1.619c-1.632,0.469-0.266,2.652,0.399,3.234c0.227-1.904,2.904-0.718,3.604-1.215
		c1.191-0.697-0.575-2.498,0.403-2.826c1.534,0.738,1.738,2.821,4.403,2.426c0.962-0.585,2.641-3.689,0.801-4.445
		C223.447,381.58,219.191,380.914,217.551,382.896z M295.632,383.301c1.379-0.175,2.249,0.161,3.203,0.406
		c0.555-0.522,0.401-1.758,0.403-2.83c-0.698,0.029-1.245-0.09-1.599-0.406c0.455,1.188,0.229,1.502-0.806,2.023
		c-0.781-0.756-0.122-1.48,0-2.424c-0.531,0-1.066,0-1.604,0C295.282,381.234,295.015,382.717,295.632,383.301z M231.565,383.301
		c0.64,1.917,0.732,4.379,1.601,6.062c1.606-0.534,3.877-0.396,4.806-1.618c-0.978-1.432-1.074-3.764-1.2-6.059
		c-0.839-0.638-2.657-0.28-3.605-0.809C233.866,382.928,231.426,381.816,231.565,383.301z M287.224,381.28
		c0.157,1.912-0.366,4.345-0.64,5.823c1.218,0.658,2.481,0.863,4.325,0.889c0.213-1.67,0.907-3.831,1.12-5.498
		C290.034,381.914,289.762,380.43,287.224,381.28z M227.162,391.381c2.074-0.46,3.919-1.156,5.603-2.019
		c-1.514-1.298-1.241-4.401-1.999-6.466c-1.208-0.395-2.389-0.824-3.604-1.211C225.616,384.83,226.22,387.867,227.162,391.381z
		 M300.039,384.109c0.891,0.584,1.93,1.016,3.603,0.807c-0.161-0.971,0.732-0.877,0.403-2.02c-0.311-0.09-0.792-0.01-0.802-0.402
		c-1.356-0.157-0.632,1.79-2.401,1.213c-0.563-1.158,1.24-2.207-0.401-2.021C299.558,381.734,300.267,383.396,300.039,384.109z
		 M291.71,388.396c1.594-0.264,1.93,0.824,3.521,0.563c0.419-1.601,1.174-2.86,1.206-4.85c-1.825-0.363-2.071-1.945-3.604-1.615
		C292.321,384.135,291.773,386.299,291.71,388.396z M320.466,386.936c4.264-1.21,11.697-0.74,15.213-0.401
		C332.943,381.355,323.099,381.72,320.466,386.936z M306.046,386.534c-0.291-1.104,0.794-0.813,0.8-1.618
		c-0.706-0.361-1.169-0.975-2.001-1.209C304.987,384.909,305.075,386.167,306.046,386.534z M222.116,393.649
		c-1.387-0.35-1.038-3.267-2.164-3.883c-0.542,0.946-0.747,4.341,0,5.251c1.957-1.393,4.72-1.973,6.808-3.229
		c-0.847-2.109-0.943-4.976-2.002-6.873c-1.672,0.209-2.711-0.223-3.604-0.807C218.32,386.518,222.283,391.686,222.116,393.649z
		 M296.036,389.362c1.128,0.344,1.68,0.813,3.202,1.211c0.562-1.724,1.146-3.419,1.604-5.251c-1.37-0.233-1.864-1.353-3.604-1.213
		C297.025,386.053,296.383,387.557,296.036,389.362z M301.641,385.726c-0.701,1.579-1.167,3.401-1.602,5.253
		c0.95,0.656,2.315,0.896,3.603,1.213c1.256-2.221,2.893-5.024,0.403-6.869C303.994,386.213,302.345,385.492,301.641,385.726z
		 M306.846,386.936c1.194-0.006,2.444,0.039,2.404-1.21c-0.552,0.017-0.878-0.191-1.2-0.403
		C308.169,386.385,306.497,385.639,306.846,386.936z M312.452,389.362c0.16-1.052,1.197-1.218,1.201-2.427
		c-0.471-0.596-0.346-1.803-1.604-1.613C313.055,386.943,310.437,388.23,312.452,389.362z M194.324,390.573
		c3.619-1.019,9.028-1.546,12.014-1.614C202.38,384.274,197.597,386.68,194.324,390.573z M226.361,392.598
		c-3.35,1.285-8.698,2.896-7.21,7.676c30.213,0.491,61.381,2.17,91.3,1.614c0-1.614,0-3.232,0-4.849
		C292.51,383.951,249.745,383.629,226.361,392.598z M306.444,387.744c-0.456,1.965-1.805,3.031-1.999,5.254
		c1.104,0.502,2.036,1.181,3.604,1.212C309.5,392.061,312.283,385.025,306.444,387.744z M321.664,388.152
		c1.936-0.754,2.221,0.129,4,0.402c0.067-0.476-0.067-1.146,0.401-1.213c1.054-0.121,0.315,1.568,1.606,1.213
		c0.703-0.098,0.909-0.695,0.801-1.619C325.963,387.103,322.712,386.514,321.664,388.152z M332.072,386.936
		c-0.704,0.233-2.351-0.485-2.398,0.406C330.193,388.049,332.213,388.817,332.072,386.936z M334.88,387.342
		c-0.583,0.223-2.072-0.471-2.006,0.402C333.469,388.387,334.944,389.146,334.88,387.342z M319.26,389.362
		c1.055,0.121,1.314-0.56,1.206-1.618C319.384,387.771,318.538,388.669,319.26,389.362z M340.483,390.979
		c-0.549-0.467-1.311,0.45-2.405,0c-1.083-0.447-1.479-1.868-1.998-2.02c-1.972-0.572-4.588,0.654-6.406-0.404
		c-0.12-0.959-1.083,0.447-1.201,0.808c-4.228-0.829-7.098,0.183-10.813,0c-4.685,2.923-2.363,9.896-2.405,16.57
		c8.688-2.078,19.045-2.597,28.033-0.407C343.8,399.784,343.79,393.805,340.483,390.979z M211.943,392.191
		c-7.002-1.447-12.938-0.822-19.222,0c-3.024,4.084-6.911,7.301-7.607,13.741c8.781-1.812,21.424-1.327,30.835-1.216
		C216.434,398.707,215.874,393.749,211.943,392.191z M218.75,395.018c0-1.346,0-2.691,0-4.039c-0.396,0-0.8,0-1.199,0
		C217.682,392.594,217.035,394.999,218.75,395.018z M311.652,406.738c0.045-1.889,0.734,0.288,1.202,0.402
		c1.996-4.379-0.651-10.504,0-16.162c-0.667,0-1.337,0-2.004,0C311.311,396.035,309.884,403,311.652,406.738z M308.451,394.616
		c0.764,0.171,0.724,1.151,2,0.808c-0.328-1.014,0.781-3.48-0.801-3.232C309.668,393.422,308.804,393.762,308.451,394.616z
		 M218.353,400.676c-0.256-1.492,0.518-4.025-0.403-4.848C217.579,396.598,216.794,400.575,218.353,400.676z M372.118,400.273
		c0.313-0.281,0.895-2.254,0-2.426C371.803,398.129,368.88,400.963,372.118,400.273z M158.287,403.506
		c0.645-0.857-0.34-2.65-2.005-2.425C156.053,402.796,157.365,402.955,158.287,403.506z M218.353,405.123
		c-0.362-1.119,0.823-3.795-0.802-3.639C217.909,402.604,216.729,405.279,218.353,405.123z M219.151,402.696
		c0,0.675,0,1.347,0,2.021c-0.318-0.238,74.543,1.063,74.641,1.216c0.157,0.245,16.51,0.331,16.659,0
		c1.92-4.202-5.947-3.236-8.41-3.236c-29.149,0-54.734-1.333-82.488-1.212C219.085,401.555,219.114,402.123,219.151,402.696z
		 M371.718,414.009c0.604-4.466,3.394-13.223,0-12.121C369.601,399.63,369.961,413.691,371.718,414.009z M354.101,406.738
		c-0.204-1.008,0.01-2.438-1.203-2.426C351.768,405.502,353.293,406.289,354.101,406.738z M220.354,406.335
		c-2.479,20.057-1.317,42.249-2.405,64.251c-0.767,15.512,0.541,31.366,0,46.066c6.232-0.316,12.675-0.412,18.822-0.814
		c0-0.32,1.281-84.69,1.521-84.126c0.24,0.081,53.336,0.081,53.417,0.162c-0.161,0,1.922,84.854,1.924,84.778
		c5.738,0,11.479,0,17.217,0c0.078-0.004,0.799-109.102,0.959-108.861C311.249,407.549,220.274,406.418,220.354,406.335z
		 M323.262,406.738c5.999-0.393,12.751,0.601,17.625,0C335.243,406.458,328.165,404.118,323.262,406.738z M181.511,408.758
		c3.965,2.843,9.376-0.721,14.817-1.211c6.67-0.598,13.6,0.58,19.219-0.406C206.272,405.279,190.017,405.905,181.511,408.758z
		 M217.551,407.141c-0.444,2.886-0.245,6.67-0.402,10.103c-0.127,2.724-1.642,6.289,0.801,7.681
		c0.264-5.598,1.247-14.539,0.403-18.589c-0.092-0.316-0.339-0.471-0.802-0.402C217.551,406.335,217.551,406.738,217.551,407.141z
		 M346.09,407.951c-2.059,0.578-3.413-1.654-4.806-0.404C343.032,407.593,345.232,410.617,346.09,407.951z M315.254,409.568
		c0.282,3.518-0.412,8.195,0,10.506c0.526-3.783,0.583-8.033,3.604-9.297c4.334,1.02,1.066,7.877,2.402,11.314
		c0.938,0,1.872,0,2.808,0c1.437-4.262,0.809-11.229,4.802-11.717c5.442-0.668,3.281,7.587,6.01,11.313
		c0.863-4.649-0.46-11.506,6.007-10.505c1.826,3.002-1.303,11.005,4.002,10.505c0.518-3.271-2.326-6.501-1.602-11.313
		C336.924,407.137,322.768,407.953,315.254,409.568z M185.917,411.588c0.366,3.805-1.932,10.242,0.798,12.527
		c1.243-2.943-0.952-12.071,4.008-12.527c4.905,0.707-0.338,11.656,4.402,12.527c1.027-5.567-0.823-14.031,6.808-12.932
		c1.568,1.987,2.216,6.047,2.803,9.295c0.2,1.098-0.979,3.742,1.202,3.637c2.401-2.967-0.727-11.513,4.807-11.314
		c1.947,3.016,3.075,6.861,3.202,11.717c2.373-2.992,1.119-9.645,1.601-14.547C205.81,408.232,195.66,408.814,185.917,411.588z
		 M312.854,420.479c1.171-2.592,0.715-6.818,0.799-10.508c-0.399,0-0.799,0-1.201,0
		C312.719,413.342,311.921,417.779,312.854,420.479z M175.502,414.414c0.753,6.535-1.259,11.555-1.6,16.568
		c-0.941,13.894-0.399,29.16-0.399,44.049c0,10.955-0.373,21.703,0.399,31.92c0.238,3.133-0.39,7.127,1.6,9.701
		c0.155-30.842,3.242-62.786,0.402-92.941c1.094-2.672,0.75-6.786,0.801-10.508c-0.399,0-0.801,0-1.204,0
		C175.502,413.606,175.502,414.009,175.502,414.414z M198.33,420.88c0.525-2.435,2.693-5.351,2.002-7.677 M209.141,418.859
		c0.352-0.881,1.485-3.045,0.4-4.038C209.579,416.092,208.055,417.867,209.141,418.859z M150.277,415.629
		c-0.509,1.588,0.943,1.199,2.001,1.211c-0.092-0.715,0.405-2.025-0.801-1.615C151.549,416.774,151.151,415.369,150.277,415.629z
		 M363.709,417.647c2.402,0,4.807,0,7.207,0c0.231-0.846,0.99-1.153,0.802-2.423C368.927,415.908,365.178,415.629,363.709,417.647z
		 M35.35,418.052c1.347,1.61,2.23,3.675,4.407,4.447c0.304-1.413-1.212-3.054,0-4.044c1.677,0.192-0.091,3.862,2.002,3.637
		c1.65,0.049,0.071-3.157,1.202-3.637c1.049,0.963,0.418,3.619,2.801,3.233c0.71-1.356-0.879-3.235,0.803-4.041
		c0.695,1.452,0.295,4.012,2.401,4.041c0.957-0.649-0.326-3.558,1.201-3.637c0.08,1.403-0.141,3.107,1.202,3.233
		c1.452-0.15,0.274-2.959,1.602-3.233c1.146,0.862-0.693,4.743,1.602,4.447c0.956-0.654-0.323-3.562,1.203-3.64
		c1.106,1.242-1.173,3.529,1.201,3.64c0.971-0.235-0.188-2.614,1.2-2.425c0.056,0.75,0.261,1.348,0.8,1.614
		c0.65-0.962,1.438-1.782,2.002-2.829C55.563,414.771,41.627,414.35,35.35,418.052z M190.319,420.479
		c-0.695-0.031-1.246,0.088-1.602,0.401c0.534,1.575-0.206,2.097,0.401,3.235c0.67,0,1.338,0,2.002,0
		c0.456-1.793,1.089-6.938-0.397-8.082C190.399,417.268,189.25,419.1,190.319,420.479z M316.814,422.006
		c0.692,0.049,1.388,0.096,2.077,0.145c0.653-0.691,0.736-2.15,0.773-3.687c-2.779,0.198,0.069-5.455-2.216-5.768
		C317.853,416.447,315.656,419.387,316.814,422.006z M326.069,421.62c2.363-0.687,7.017,1.854,6.842-2.412
		c-2.282-0.908-0.734-4.243-2.85-6.447c-1.274,4.122-0.397-2.083-2.851-0.802C326.822,415.169,325.964,417.723,326.069,421.62z
		 M159.087,420.479c1.734,0,3.47,0,5.203,0c0-1.076,0-2.158,0-3.235C160.935,416.504,157.84,417.887,159.087,420.479z
		 M199.533,424.115c1.2,0,2.399,0,3.604,0c-0.124-2.707,0.176-5.84-1.604-6.872C200.565,419.232,199.598,421.221,199.533,424.115z
		 M376.121,426.537c-0.782-1.093-3.981,0.246-4.805-0.806c0-2.558,0-5.122,0-7.68c-5.993-0.121-10.518,1.243-12.813,4.851
		C364.263,423.713,371.286,427.492,376.121,426.537z M209.141,424.518c1.153-0.051,2.621,0.219,3.204-0.402
		c-0.072-2.08-0.146-4.166-1.2-5.256C210.617,420.891,209.479,422.301,209.141,424.518z M336.879,419.268
		c-0.019,1.224-0.232,2.658,1.199,2.421c0-0.722,1.081-2.351,0-2.829C338.015,419.33,337.448,419.299,336.879,419.268z
		 M157.486,427.752c0.931-0.205,1.939-0.333,2.966-0.441c3.082-0.325,6.34-0.473,8.242-1.985c-0.944-0.524-0.772-2.183-1.2-3.233
		c-2.29-1.322-6.561-0.649-10.008-0.807C157.486,423.438,157.486,425.596,157.486,427.752z M197.13,423.711
		c0.538,0.127,0.764,0.574,1.596,0.404c-0.328-1.057,1.214-2.219,0-2.83C198.748,422.652,197.796,423.037,197.13,423.711z
		 M353.697,426.136c-0.34-1.677,0.919-4.97-1.201-4.851C352.84,422.961,351.577,426.256,353.697,426.136z M170.7,424.924
		c0-0.945,0-1.887,0-2.832c-0.401,0-0.801,0-1.203,0C169.41,423.531,169.77,424.514,170.7,424.924z M354.897,426.537
		c5.392,0.119,10.561,2.182,15.619,3.233c1.541,0.321,5.441,2.108,5.604-0.808c-6.103-3.404-15.138-3.85-21.621-6.871
		C354.63,423.578,354.154,425.672,354.897,426.537z M312.854,424.115c0.235,0-0.77,81.955-0.806,82.027
		c-0.079,0.16-0.641,11.717,1.843,10.586c0.077-0.004,1.6-93.178,1.602-93.26c-1.276,0.348-1.877-0.396-2.639-0.566
		C312.854,423.307,312.854,423.711,312.854,424.115z M316.458,423.711c0,1.213,0,2.425,0,3.635c11.877,0,23.756,0,35.638,0
		c0.041-1.653,0.077-3.312-0.399-4.443C340.056,423.059,325.976,423.976,316.458,423.711z M38.554,428.154
		c7.22-0.836,15.414-0.563,20.422,2.021c0.289-2.308-0.428-3.608-0.4-5.657C52.075,424.819,39.363,419.674,38.554,428.154z
		 M177.105,428.154c12.561,2.258,28.438-1.033,40.844,1.616c-12.372-0.683-27.62,0.427-40.844-0.402
		c1.76,20.028-0.4,43.925-0.4,65.864c0,3.625-1.288,20.537,1.201,21.42c0.915,0.322,1.2-0.229,2.804,0
		c2.142-25.633,0.136-55.324,2.802-80.012c8.724-0.32,19.728-0.654,27.633,0.404c1.982,25.168-0.681,53.433,0.798,79.607
		c1.604,0,3.205,0,4.807,0c0.623-33.021,0.896-55.756,1.603-90.115c-4.592,0.59-11.202-1.918-14.415,0.406
		c-0.67-1.126-1.58-1.014-2.806-1.212c-6.833-1.098-16.492,0.753-23.625-0.406C176.611,425.5,177.347,427.318,177.105,428.154z
		 M152.278,430.175c0,1.077,0,2.157,0,3.232c6.817-1.743,14.487-2.62,21.225-4.444c0-0.944,0-1.885,0-2.827
		C166.953,427.006,158.708,428.019,152.278,430.175z M352.692,426.904 M354.5,426.943c-0.006-0.16-1.189,89.102-1.207,89.059
		c1.471,0,3.34-0.164,4.811-0.164c0.661-25.29,1.099-54.016,0.4-78.793c3.665,2.988,9.826,5.315,14.814,5.657
		c1.712,8.646,0.376,20.362,2.403,28.688c1.127-12.971-0.149-26.699,0-40.004C367.971,430.585,362.185,427.809,354.5,426.943z
		 M316.458,429.368c0.158,0.161-1.684,87.522-1.684,87.442c2.134,0,2.749-0.08,4.886-0.08c0.078,0,0.729-40.145,0.8-40.004
		c0.239,0.484-0.241-40.568-0.319-40.488c0.237,0.243,27.944,0.164,27.788,0.081c0.145,4.679-0.031,9.839,0.164,14.466
		c0.923,22.148,0.035,65.459,0,65.459c1.377,0.18,2.242-0.158,3.202-0.406c-0.044-0.199,1.413-59.182,0.801-87.277
		c-10.952-0.939-23.621-0.141-35.238-0.406C316.395,428.225,316.422,428.792,316.458,429.368z M38.554,428.963
		c-0.798,11.99-1.742,23.833-2,36.367c7.663-0.887,17.038-0.043,24.826-0.811c-0.736-11.24-0.598-23.369-2.404-33.537
		C54.066,428.371,45.73,428.07,38.554,428.963z M152.278,434.213c-0.489,27.752-0.408,55.39,0,81.227
		c0.084-0.084,0.725-0.084,0.805-0.164c0.056-0.057-0.16-22.951-0.16-22.951c0.081-0.243,0.16-47.357,0.16-47.6
		c0,0,18.9-7.84,18.82-7.92c0.32,3.637,0.801,13.254,1.202,19.152c-0.037-6.52,0.052-20.99-0.003-26.187c-0.266,0-0.534,0-0.803,0
		C166.296,431.928,158.503,432.285,152.278,434.213z M321.181,437.289c0-0.078,0.08,5.173,0.08,5.413
		c0.31,25.094-0.24,73.624-0.397,73.95c1.407-6.292-0.485-32.289,12.414-31.926c12.135,0.344,12.328,22.91,12.412,23.031
		c-0.445,19.033,1.834,3.033,1.057,0c-0.004,0.002,0.286-27.311,0.722-36.973c-0.481,0.183-0.722,2.668-0.722,2.668
		c0,0.061-24.943-0.733-25.082-0.444c1.618-6.853-1.604-31.194,14.416-34.351c12.009,3.965,10.317,18.328,11.147,32.31
		c0-11.179-0.1-22.657-0.1-33.84C347.043,437.051,320.939,437.047,321.181,437.289z M184.314,437.045
		c-0.566,0.052-0.307,0.66-0.397,1.214c-1.852,10.915-1.134,24.97-1.605,38.788c-0.474,13.791-0.282,27.982,0.798,39.605
		c0.939,0,1.873,0,2.808,0c0,0.078-1.921-21.097,0.798-25.057c1.825-2.656,7.492-7.854,10.415-7.678
		c1.967,0.118,3.252,1.602,5.205,3.395c4.424,4.05,8.245,8.239,8.168,16.021c0.112,0.398-0.47,14.197,0.02,13.252
		c0.681-1.313,0.223-14.734,0.221-14.888c-0.174-6.782,0.126-19.007,0-26.667c-8.597-0.176-18.175,0.768-25.631,0.4
		c0.449-7.424-0.572-15.303,0.804-22.222c1-5.042,7.466-11.727,11.213-11.72c3.984,0.008,8.609,5.666,10.412,9.295
		c2.59,5.217,1.942,11.961,3.603,17.371c-0.496-10.005,1.015-22.032-0.802-30.709C202.104,437.034,193.398,437.411,184.314,437.045z
		 M265.961,436.965c-1.84-1.068-20.061,7.031-23.185,19.881c-1.312,5.396-2.662,11.563-2.522,18.426
		c0.24,0.242,17.496-0.564,17.418-0.364c1.119-6.813,0.983-13.894,7.128-15.638c4.239,3.265,6.391,8.635,6.808,15.762
		c5.871,0,11.746,0,17.617,0C289.499,456.316,283.62,442.178,265.961,436.965z M154.282,445.529
		c-0.674,22.383-0.566,48.248,0.083,70.635c1.468,0,1.736,0.404,3.203,0.404c-0.127-11.852-2.082-28.852,6.324-31.036
		c6.25,0.973,6.971,6.549,8.006,9.298c0.542-15.672-0.313-57.053-0.475-56.976C172.066,438.1,153.965,445.531,154.282,445.529z
		 M360.105,451.996c1.127-3.846,2.432-7.514,6.807-8.08c3.358,3.744,4.98,9.248,6.807,14.546c0.438-5.558-0.942-9.288-0.8-14.546
		c-4.891-1.264-9.27-3.039-13.615-4.85C359.622,443.322,359.431,448.096,360.105,451.996z M335.755,440.684
		c-11.531,2.102-11.687,23.572-11.687,31.111c3.067,0,6.139,0,9.209,0c-0.084,0.083,0.717-7.676,0.802-7.674
		c1.83,0.173,5.52,0.321,5.605,0.398c0.076,0.085-0.565,7.52-0.401,7.68c2.137,0,4.274,0,6.406,0
		C345.686,472.201,348.729,444.401,335.755,440.684z M201.132,445.128c-4.244-3.058-8.491-0.272-11.21,3.636
		c-4.126,5.922-2.515,15.072-3.207,24.652c1.783,0.488,4.103,0.436,6.409,0.403c0-3.233,0-6.468,0-9.698
		c2.585,0.215,6.072-0.473,8.008,0.398c0,2.967,0,5.93,0,8.896c2.665-0.143,5.962,0.355,8.009-0.407
		C209.117,462.534,207.43,449.664,201.132,445.128z M361.305,473.416c4.005,0,8.009,0,12.014,0
		c-0.044-11.678-2.391-21.027-7.207-27.887C359.059,449.321,361.847,463.049,361.305,473.416z M264,460.078
		c-4.424,2.674-4.679,8.509-5.485,14.829c0.24-0.121,12.251,0,12.295,0.124C270.408,468.16,268.51,462.797,264,460.078z
		 M199.533,464.52c-1.082,0.934-3.867,0.146-5.608,0.406c0,2.828,0,5.66,0,8.49c1.568,0.857,4.729,0.326,6.408,0
		C199.905,470.616,201.253,466.018,199.533,464.52z M334.079,471.795c1.462,0,2.934,0,4.404,0c-0.005-0.079,0.476-6.867,0.396-6.869
		c-1.464,0-2.936,0-4.403,0C334.794,464.928,334.154,471.716,334.079,471.795z M50.57,466.544c-0.184,1.935,0.434,3.063,1.601,3.639
		c0.793-0.548-0.127-2.824,1.202-2.831c0.793,0.277-0.252,2.408,1.2,2.022c0.973-0.233-0.186-2.616,1.203-2.427
		c0.756,0.719,0.001,2.963,1.602,2.826c-0.068-1.273-0.017-2.438,0.799-2.826c0.669,0.673,0.318,2.373,0.399,3.639
		c2.033,0.285,2.19-2.578,3.204,0c0.433-1.051,1.45-1.504,1.602-2.832C60.971,465.977,55.976,466.373,50.57,466.544z M35.35,470.586
		c-0.458-0.131-1.377-1.764-0.4-2.023c1.201,0.943,1.487,2.812,3.604,2.828c0.664-1.904-1.994-2.531-0.8-3.637
		c1.217,0.794,1.376,2.656,3.606,2.429c0.524-1.256-1.19-2.245,0-2.831c1.296,0.438,0.583,2.91,2.8,2.422
		c0.23-0.707-0.485-2.373,0.402-2.422c0.736,0.869,0.372,2.858,2.403,2.422c0.238-0.836-0.494-2.65,0.4-2.826
		c0.62,0.99,0.241,2.99,2,2.826c0.619-0.586,0.352-2.064,0.402-3.229c-6.705-0.229-13.418,0.048-17.222,1.612
		C32.828,469.379,34.907,470.876,35.35,470.586z M238.774,515.838c0.76-0.807,1.505-32.791-0.241-47.193
		C239.052,484.414,236.411,517.82,238.774,515.838z M52.971,470.586c1.324,0.295,4.216,1.109,5.206,0.404
		C56.846,470.643,53.49,469.201,52.971,470.586z M45.363,470.183c-1.123,0.462-2.081,0.462-3.207,0
		C41.718,471.467,45.802,471.467,45.363,470.183z M37.754,473.416c0,1.747,0,3.498,0,5.252c6.776,0.209,16.032-1.02,23.224,0.4
		c0.198-1.812-0.201-3.025-0.399-4.442C55.271,470.912,44.864,472.373,37.754,473.416z M359.886,498.076
		c0.029,0.289,0.585-0.454,0.721-0.317c0.074-1.425,1.165-15.032,7.072-14.729c3.544,0.182,5.006,6.997,5.406,10.364
		c0.841,7.092,1.381,16.668,1.435,20.02c0.006-0.32,1.688-0.199,1.688-0.441c0-11.816-0.589-25.951-0.887-38.347
		c-4.871,0.903-8.603,0.282-14.729-0.081c0.166,0.443-0.017-0.199-0.359-0.121C360.351,474.545,359.771,497.674,359.886,498.076z
		 M240.375,476.119c0.196,12.735,0.48,39.883,0.4,39.719c0.441,0.285,11.919,1.094,18.94,1.012
		c-0.601-6.668,3.653-9.574,6.847-13.092c4.324,5.334,5.646,3.516,6.247,13.213c6.222,0.084,11.893,0.496,17.621,0.084
		c-0.443-0.084-1.284-41.42-1.203-41.221C289.146,475.877,240.255,476.119,240.375,476.119z M37.754,479.877
		c-0.136,12.931-0.398,25.729-1.2,37.986c7.986-0.75,18.583-0.836,26.026-0.809c-0.958-12.551-0.499-25.632-1.602-37.178
		C54.132,479.041,44.457,478.373,37.754,479.877z M291.71,516.648c0.894-9.796-0.138-37.538-1.201-46.146
		C290.987,480.801,290.212,517.094,291.71,516.648z M362.507,515.033c3.242-0.502,6.361-1.121,9.611-1.619
		c-0.577-10.729,0.125-27.777-4.86-27.838C361.612,486.424,361.973,505.214,362.507,515.033z M206.819,493.697
		c-1.693-2.428-7.511-7.965-10.091-7.758c-2.001,0.161-7.42,4.746-8.011,5.656c-3.2,4.93-1.515,20.928-0.958,25.135
		c1.736,0,4.028-0.078,5.767-0.078c-0.114-3.756-0.29-7.563,1.996-8.895c1.528-0.889,2.97-0.805,5.051,0.163
		c1.122,1.052,1.314,5.405,1.281,8.405c1.937,0.873,4.701,0.107,7.287,0.326C208.744,508.678,210.784,499.389,206.819,493.697z
		 M333.473,486.545c-0.111-0.006-0.967-0.063-1.082-0.061c-8.5,0.264-10.322,19.717-9.129,30.168c6.433,0.396,14.881,0.859,21.225,0
		C345.292,503.318,341.821,486.969,333.473,486.545z M159.49,516.648c0.4,0,12.974,0,13.211,0.004
		c-0.559-5.256-0.874-8.406-0.718-8.408c-0.075-0.079,0.48-20.365-8.092-20.688C157.808,489.494,159.19,505.977,159.49,516.648z
		 M124.249,517.055c4.681-0.127-2.254-0.342,2.937,0.039 M360.531,515.639c0.234-3.412,0.438-12.839,0.12-17.638
		c-0.049-0.748-0.739,0.597-0.781,0c0.293,3.674-0.754,17.851-0.54,17.821C359.75,515.762,359.99,515.336,360.531,515.639z
		 M260.797,517.055c1.08,0.402,10.69,0.158,10.81,0.037c0.48-6.061-2.466-9.131-5.205-12.16
		C264.546,508.981,260.12,510.443,260.797,517.055z M194.324,516.244c1.318,0.83,4.376,0.139,6.33,0.324
		c0.16,0.162,0.32-6.789-0.321-7.596C196.649,505.577,193.335,511.039,194.324,516.244z"/>
	<path fill-rule="evenodd" clip-rule="evenodd" fill="#FFFFFF" d="M473.873,513.738"/>
	<polygon fill-rule="evenodd" clip-rule="evenodd" fill="none" stroke="#000000" stroke-miterlimit="10" points="221.577,513.254 
		222.22,414.178 306.739,414.824 306.098,512.123 297.42,512.123 297.742,421.936 229.933,421.936 230.254,513.094 226.076,513.254 
			"/>
	<g>
		<path fill-rule="evenodd" clip-rule="evenodd" fill="#FFFFFF" d="M481.354,336.073c-4.079-1.038-9.959-0.427-13.713,1.005
			C466.34,330.507,480.932,327.814,481.354,336.073z"/>
		<path fill-rule="evenodd" clip-rule="evenodd" fill="#FFFFFF" d="M482.319,339.672c-3.934-1.206-10.623-1.179-15.374-0.137
			C468.323,335.779,481.897,334.09,482.319,339.672z"/>
		<path fill-rule="evenodd" clip-rule="evenodd" fill="#FFFFFF" d="M486.164,344.361c-5.62-0.715-9.906-3.388-16.641-1.299
			c-1.672,0.52-3.946,2.809-5.214,1.037C466.559,339.027,483.22,339.018,486.164,344.361z"/>
		<path fill-rule="evenodd" clip-rule="evenodd" fill="#FFFFFF" d="M483.041,346.923c-1.058,1.875-3.521,2.459-2.985,5.789
			c-1.052-2.231-0.461-6.261-3.125-6.735c-4.083,0.261-0.193,7.834-2.402,9.811c-2.016-2.312-0.167-8.838-3.267-9.969
			c-3.721,0.727-1.28,7.095-2.386,10.215c-2.212-1.527-1.964-6.562-1.631-9.635C470.534,343.484,480.993,342.563,483.041,346.923z"
			/>
		<path fill-rule="evenodd" clip-rule="evenodd" fill="#FFFFFF" d="M470.979,348.664c0.493,1.961,1.46,5.309,0.722,7.246
			C470.81,354.903,470.574,350.981,470.979,348.664z"/>
		<path fill-rule="evenodd" clip-rule="evenodd" fill="#FFFFFF" d="M476.634,348.418c1.527,0.803,2.142,6.373,1.122,7.229
			C475.916,354.834,477.205,350.609,476.634,348.418z"/>
		<path fill-rule="evenodd" clip-rule="evenodd" fill="#FFFFFF" d="M482.372,350.188c1.191,1.497-0.088,4.04-0.155,5.668
			C481.172,354.496,481.747,351.306,482.372,350.188z"/>
		<path fill-rule="evenodd" clip-rule="evenodd" fill="#FFFFFF" d="M472.982,357.473c0.059,1.349,0.117,2.689,0.176,4.037
			c-1.463-0.233-1.02-2.553-1.773-3.563c-1.695,0.596,0.127,2.006-0.243,3.65c-1.661-0.025-1.89-1.607-2.16-3.141
			c-0.541,0.023-1.076,0.047-1.615,0.07c0.258,1.408,0.717,2.603,0.6,4.423c-0.887-0.303-0.731-1.743-1.317-2.371
			c-1.251,0.505-1.06,0.237-2.038-0.315c-1.337,0.43-0.166,0.762-0.314,2.037c-0.887-0.021-0.913-0.979-0.894-1.984
			C465.742,358.59,468.528,357.267,472.982,357.473z"/>
		<path fill-rule="evenodd" clip-rule="evenodd" fill="#FFFFFF" d="M473.808,357.842c5.197-1.4,14.791-0.036,12.373,5.525
			c-1.047-0.405,0.028-3.127-0.965-3.598c-1.16,0.746-0.439,3.213-1.436,4.11c-1.63-0.2-1.291-2.547-1.405-4.39
			c-1.831,0.13-0.151,3.482-2.705,2.949c-0.17-1.367,0.169-3.289-0.577-4.019c-1.184,0.596-0.021,3.341-1.458,3.704
			c-1.668,0.129-0.542-2.792-0.983-4.002c-2.092-0.113-0.363,3.284-1.44,4.107C473.234,362.414,475.181,358.314,473.808,357.842z"/>
		<path fill-rule="evenodd" clip-rule="evenodd" fill="#FFFFFF" d="M468.68,360.895c0.761,0.869,1.725,1.508,3.688,1.055
			c-0.082,1.344-2.3,0.734-3.6,0.966C468.739,362.241,468.71,361.568,468.68,360.895z"/>
		<path fill-rule="evenodd" clip-rule="evenodd" fill="#FFFFFF" d="M483.182,368.758c-4.438-0.869-10.648-1.328-15.776-0.119
			C465.322,362.796,484.558,361.372,483.182,368.758z"/>
		<path fill-rule="evenodd" clip-rule="evenodd" fill="#FFFFFF" d="M483.234,369.97c2.085,13.229,3.329,27.382,4.638,41.458
			c-5.272-1.878-14.918-1.499-21.026,0.108c1.182-13.259-1.164-29.749,0.995-42.11C472.664,368.352,479.694,368.264,483.234,369.97z
			"/>
		<path fill-rule="evenodd" clip-rule="evenodd" fill="#FFFFFF" d="M490.032,414.568c-0.524,1.07-1.284,1.924-1.896,2.914
			c-0.554-0.242-0.789-0.831-0.876-1.578c-1.408-0.128-0.136,2.197-1.104,2.475c-2.4-0.005-0.201-2.391-1.37-3.582
			c-1.534,0.145-0.12,2.992-1.055,3.688c-2.301,0.396-0.615-3.562-1.809-4.372c-1.326,0.333-0.018,3.087-1.475,3.301
			c-1.357-0.067-1.21-1.779-1.352-3.177c-1.537,0.145-0.115,2.995-1.052,3.686c-2.124,0.063-1.833-2.512-2.599-3.932
			c-1.658,0.878,0.024,2.687-0.632,4.072c-2.387,0.49-1.867-2.191-2.966-3.107c-1.118,0.529,0.612,3.663-1.053,3.687
			c-2.101,0.317-0.478-3.427-2.178-3.546c-1.178,1.043,0.422,2.615,0.176,4.041c-2.227-0.676-3.208-2.701-4.635-4.25
			C470.326,410.912,484.393,410.722,490.032,414.568z"/>
		<path fill-rule="evenodd" clip-rule="evenodd" fill="#FFFFFF" d="M487.856,420.325c0.061,2.048,0.84,3.316,0.648,5.635
			c-5.16-2.36-13.434-2.274-20.676-1.12C468.273,416.33,481.314,420.913,487.856,420.325z"/>
		<path fill-rule="evenodd" clip-rule="evenodd" fill="#FFFFFF" d="M488.54,426.768c2.264,10.078,2.652,22.201,3.886,33.398
			c-7.819,1.109-17.307,0.679-24.994,1.901c-0.285-12.534,0.149-24.407,0.433-36.421
			C475.061,424.439,483.478,424.373,488.54,426.768z"/>
		<path fill-rule="evenodd" clip-rule="evenodd" fill="#FFFFFF" d="M494.583,463.311c-0.096,1.333-1.101,1.83-1.492,2.898
			c-1.134-2.529-1.166,0.337-3.229,0.142c-0.138-1.262,0.143-2.976-0.562-3.617c-0.807,0.423-0.807,1.589-0.683,2.858
			c-1.608,0.206-0.943-2.068-1.737-2.753c-1.409-0.128-0.137,2.201-1.107,2.477c-1.447,0.448-0.486-1.726-1.297-1.968
			c-1.339,0.065-0.313,2.3-1.09,2.881c-1.202-0.523-1.872-1.624-1.772-3.564C487.059,462.256,492.076,461.641,494.583,463.311z"/>
		<path fill-rule="evenodd" clip-rule="evenodd" fill="#FFFFFF" d="M489.478,466.771c-0.967,0.748-3.919,0.061-5.267-0.175
			C484.674,465.191,488.12,466.482,489.478,466.771z"/>
		<path fill-rule="evenodd" clip-rule="evenodd" fill="#FFFFFF" d="M473.291,466.669c1.156,0.413,2.121,0.37,3.232-0.141
			C477.022,467.792,472.904,467.971,473.291,466.669z"/>
		<path fill-rule="evenodd" clip-rule="evenodd" fill="#FFFFFF" d="M492.058,470.299c0.262,1.406,0.716,2.602,0.597,4.42
			c-7.313-1.103-16.59,0.531-23.431,0.621c-0.076-1.752-0.152-3.502-0.229-5.247C476.117,468.738,486.545,466.822,492.058,470.299z"
			/>
		<path fill-rule="evenodd" clip-rule="evenodd" fill="#FFFFFF" d="M463.515,465.067c3.768-1.731,10.522-2.302,17.291-2.368
			c0,1.166,0.335,2.633-0.264,3.244c-1.766,0.241-1.474-1.773-2.141-2.734c-0.893,0.213-0.075,1.994-0.28,2.84
			c-2.027,0.525-1.747-1.479-2.526-2.313c-0.894,0.087-0.101,1.72-0.3,2.437c-2.216,0.586-1.604-1.916-2.929-2.296
			c-1.177,0.638,0.596,1.55,0.123,2.828c-2.238,0.325-2.48-1.528-3.741-2.268c-1.155,1.156,1.55,1.665,0.965,3.599
			c-2.138,0.076-2.506-1.777-3.759-2.668c-0.972,0.303,0.023,1.895,0.493,2.004C466.012,467.681,463.852,466.275,463.515,465.067z"
			/>
		<path fill-rule="evenodd" clip-rule="evenodd" d="M465.712,469.586l-3.697-5.179c0.575-1.404,2.591-1.499,2.686-3.355
			c0.397-6.595-0.399-14.163-0.142-21.831c0.316-9.566,3.565-19.836-2.233-23.361c-0.217-2.137,2.766-1.344,2.685-3.354
			c-0.166-15.27,0.313-29.945,0.891-44.531c-5.876-2.932-4.558-8.943-0.51-11.708c-0.09-5.536-1.483-9.66-4.95-11.513
			c0.435-2.184,2.781-2.617,3.858-4.214c-0.228-7.056,2.637-11.278,9.18-12.13c-1.275-4-2.269-6.949-0.88-10.881
			c2.177,2.568,0.175,7.152,1.724,11.654c5.596,0.374,8.425,3.777,8.529,10.143c1.381,0.613,2.746,1.234,4.125,1.845
			c-0.172,2.683-2.483,3.407-3.403,5.405c0.461,3.523-0.243,5.978,0,9.301c2.55,0.602,4.743,1.592,5.441,4.213
			c-6.245,3.506-3.292,10.975-2.348,20.326c0.958,9.516,1.207,21.092,2.528,30.226c1.273,0.726,3.206,0.732,4.128,1.841
			c-3.479,3.605-4.028,7.055-3.477,13.096c0.998,10.863,2.428,24.411,3.148,35.051c7.854,0.844,1.383,8.679-0.806,9.341
			c1.237,14.517,0.701,29.559,3.971,44.72c-3.825-0.146-8.696,0.104-13.743,0.195c-15.98,0.293-15.986,0.172-16.879,0.817
			L465.712,469.586z"/>
		<path fill-rule="evenodd" clip-rule="evenodd" fill="#E8E6AC" d="M467.386,336.766c3.754-1.432,9.633-2.043,13.713-1.004
			C480.676,327.502,466.083,330.195,467.386,336.766z"/>
		<path fill-rule="evenodd" clip-rule="evenodd" fill="#E8E6AC" d="M466.688,339.225c4.752-1.043,11.44-1.071,15.374,0.136
			C481.642,333.778,468.066,335.468,466.688,339.225z"/>
		<path fill-rule="evenodd" clip-rule="evenodd" fill="#E8E6AC" d="M464.054,343.787c1.268,1.771,3.541-0.518,5.214-1.037
			c6.734-2.088,11.021,0.585,16.64,1.299C482.964,338.705,466.303,338.715,464.054,343.787z"/>
		<path fill-rule="evenodd" clip-rule="evenodd" fill="#E8E6AC" d="M466.987,346.086c-0.332,3.074-0.581,8.107,1.633,9.635
			c1.105-3.12-1.336-9.488,2.385-10.215c3.1,1.131,1.251,7.657,3.267,9.969c2.21-1.977-1.68-9.549,2.403-9.811
			c2.664,0.476,2.073,4.504,3.124,6.736c-0.536-3.33,1.929-3.915,2.985-5.789C480.737,342.25,470.278,343.173,466.987,346.086z"/>
		<path fill-rule="evenodd" clip-rule="evenodd" fill="#E8E6AC" d="M471.445,355.598c0.737-1.937-0.229-5.284-0.722-7.246
			C470.318,350.67,470.554,354.592,471.445,355.598z"/>
		<path fill-rule="evenodd" clip-rule="evenodd" fill="#E8E6AC" d="M477.5,355.334c1.019-0.855,0.404-6.425-1.122-7.229
			C476.949,350.297,475.66,354.521,477.5,355.334z"/>
		<path fill-rule="evenodd" clip-rule="evenodd" fill="#E8E6AC" d="M481.961,355.544c0.067-1.628,1.346-4.171,0.154-5.667
			C481.491,350.994,480.916,354.184,481.961,355.544z"/>
		<path fill-rule="evenodd" clip-rule="evenodd" fill="#E8E6AC" d="M463.145,360.004c-0.019,1.006,0.009,1.965,0.896,1.984
			c0.148-1.275-1.022-1.606,0.314-2.037c0.978,0.553,0.787,0.821,2.038,0.316c0.585,0.628,0.43,2.068,1.316,2.371
			c0.118-1.821-0.342-3.016-0.6-4.424c0.539-0.023,1.074-0.047,1.616-0.07c0.27,1.534,0.499,3.115,2.159,3.141
			c0.37-1.644-1.453-3.055,0.243-3.65c0.755,1.011,0.312,3.33,1.774,3.563c-0.059-1.348-0.117-2.688-0.176-4.037
			C468.271,356.955,465.485,358.277,463.145,360.004z"/>
		<path fill-rule="evenodd" clip-rule="evenodd" fill="#E8E6AC" d="M474.954,361.918c1.078-0.822-0.652-4.221,1.44-4.107
			c0.441,1.211-0.685,4.131,0.984,4.002c1.437-0.363,0.274-3.107,1.457-3.703c0.747,0.729,0.408,2.651,0.578,4.019
			c2.554,0.533,0.874-2.819,2.705-2.95c0.114,1.843-0.225,4.189,1.404,4.39c0.996-0.897,0.276-3.364,1.437-4.11
			c0.993,0.471-0.083,3.193,0.965,3.598c2.417-5.561-7.177-6.925-12.373-5.525C474.925,358.002,472.978,362.102,474.954,361.918z"/>
		<path fill-rule="evenodd" clip-rule="evenodd" d="M468.513,362.604c1.299-0.231,3.518,0.377,3.6-0.967
			c-1.964,0.453-2.928-0.186-3.688-1.055C468.453,361.257,468.482,361.93,468.513,362.604z"/>
		<path fill-rule="evenodd" clip-rule="evenodd" fill="#E8E6AC" d="M467.147,368.326c5.129-1.209,11.34-0.75,15.777,0.119
			C484.302,361.06,465.066,362.484,467.147,368.326z"/>
		<path fill-rule="evenodd" clip-rule="evenodd" fill="#E8E6AC" d="M467.585,369.114c-2.159,12.361,0.187,28.851-0.995,42.11
			c6.108-1.607,15.754-1.986,21.026-0.108c-1.31-14.077-2.553-28.229-4.639-41.458C479.438,367.951,472.408,368.039,467.585,369.114
			z"/>
		<path fill-rule="evenodd" clip-rule="evenodd" fill="#E8E6AC" d="M463.903,414.574c1.427,1.55,2.408,3.574,4.635,4.25
			c0.244-1.425-1.354-2.998-0.177-4.04c1.7,0.118,0.078,3.862,2.179,3.546c1.665-0.023-0.066-3.158,1.052-3.687
			c1.1,0.915,0.58,3.597,2.967,3.106c0.656-1.386-1.027-3.193,0.632-4.072c0.765,1.42,0.473,3.995,2.599,3.932
			c0.937-0.689-0.485-3.54,1.052-3.686c0.141,1.397-0.007,3.109,1.352,3.177c1.456-0.213,0.147-2.968,1.475-3.3
			c1.193,0.811-0.492,4.769,1.809,4.373c0.935-0.696-0.48-3.545,1.055-3.689c1.169,1.191-1.031,3.578,1.369,3.583
			c0.969-0.277-0.304-2.603,1.104-2.476c0.087,0.748,0.321,1.336,0.876,1.578c0.612-0.99,1.372-1.844,1.896-2.914
			C484.137,410.41,470.069,410.6,463.903,414.574z"/>
		<path fill-rule="evenodd" clip-rule="evenodd" fill="#E8E6AC" d="M467.331,424.538c7.241-1.153,15.515-1.239,20.677,1.12
			c0.19-2.318-0.589-3.587-0.649-5.635C480.815,420.611,467.775,416.029,467.331,424.538z"/>
		<path fill-rule="evenodd" clip-rule="evenodd" fill="#E8E6AC" d="M467.145,425.837c-0.287,11.935-0.725,23.73-0.443,36.182
			c7.688-1.217,17.175-0.792,24.994-1.896c-1.229-11.123-1.615-23.167-3.874-33.179
			C482.758,424.568,474.341,424.637,467.145,425.837z"/>
		<path fill-rule="evenodd" clip-rule="evenodd" fill="#E8E6AC" d="M481.358,462.352c-0.1,1.94,0.57,3.041,1.771,3.565
			c0.777-0.581-0.25-2.815,1.091-2.882c0.81,0.244-0.151,2.418,1.297,1.969c0.97-0.276-0.302-2.605,1.106-2.478
			c0.795,0.685,0.129,2.96,1.738,2.753c-0.124-1.269-0.124-2.435,0.683-2.858c0.702,0.643,0.424,2.356,0.562,3.618
			c2.062,0.195,2.094-2.672,3.229-0.141c0.391-1.07,1.396-1.566,1.492-2.9C491.82,461.328,486.803,461.944,481.358,462.352z"/>
		<path fill-rule="evenodd" clip-rule="evenodd" fill="#E8E6AC" d="M466.191,467.059c-0.47-0.109-1.467-1.701-0.493-2.003
			c1.252,0.89,1.621,2.743,3.758,2.667c0.586-1.934-2.12-2.442-0.964-3.598c1.26,0.738,1.502,2.592,3.74,2.268
			c0.474-1.278-1.299-2.19-0.123-2.828c1.325,0.379,0.714,2.882,2.929,2.296c0.2-0.717-0.594-2.351,0.299-2.438
			c0.78,0.836,0.5,2.84,2.528,2.314c0.204-0.847-0.613-2.627,0.28-2.841c0.667,0.962,0.374,2.976,2.141,2.734
			c0.599-0.611,0.263-2.077,0.264-3.243c-6.769,0.065-13.523,0.637-17.292,2.368C463.595,465.964,465.755,467.368,466.191,467.059z"
			/>
		<path fill-rule="evenodd" clip-rule="evenodd" d="M483.954,466.285c1.349,0.236,4.301,0.924,5.267,0.175
			C487.864,466.17,484.418,464.879,483.954,466.285z"/>
		<path fill-rule="evenodd" clip-rule="evenodd" d="M476.268,466.217c-1.111,0.51-2.076,0.553-3.232,0.141
			C472.648,467.66,476.766,467.48,476.268,466.217z"/>
		<path fill-rule="evenodd" clip-rule="evenodd" fill="#E8E6AC" d="M467.043,469.854c0.076,1.745,0.152,3.495,0.229,5.247
			c6.841-0.09,16.117-1.723,23.431-0.621c0.12-1.818-0.334-3.013-0.596-4.42C484.593,466.584,474.166,468.5,467.043,469.854z"/>
		<path fill-rule="evenodd" clip-rule="evenodd" fill="#E8E6AC" d="M466.881,477.282c0.415,12.683,0.697,25.241,0.413,37.292
			c8.02-1.084,18.699-1.634,26.204-1.937c-1.502-12.261-1.599-25.104-3.204-36.376C483.356,475.744,473.572,475.514,466.881,477.282
			z"/>
	</g>
	<g>
		<path fill-rule="evenodd" clip-rule="evenodd" fill="#FFFFFF" d="M391.079,407.173c2.507-0.792,6.21-0.678,8.62,0.015
			C400.23,403.222,390.986,402.24,391.079,407.173z"/>
		<path fill-rule="evenodd" clip-rule="evenodd" fill="#FFFFFF" d="M390.629,409.355c2.409-0.886,6.595-1.153,9.611-0.736
			C399.217,406.444,390.654,406.016,390.629,409.355z"/>
		<path fill-rule="evenodd" clip-rule="evenodd" fill="#FFFFFF" d="M388.427,412.309c3.485-0.664,6.051-2.437,10.353-1.48
			c1.067,0.238,2.589,1.502,3.306,0.396C400.459,408.301,390.038,409.003,388.427,412.309z"/>
		<path fill-rule="evenodd" clip-rule="evenodd" fill="#FFFFFF" d="M390.492,413.699c0.74,1.071,2.306,1.314,2.114,3.318
			c0.562-1.373,0.019-3.744,1.666-4.141c2.565-0.018,0.457,4.653,1.924,5.735c1.161-1.462-0.276-5.267,1.614-6.071
			c2.356,0.273,1.106,4.167,1.933,5.978c1.318-1.004,0.945-3.987,0.605-5.803C398.166,411.123,391.585,411.018,390.492,413.699z"/>
		<path fill-rule="evenodd" clip-rule="evenodd" fill="#FFFFFF" d="M398.109,414.223c-0.225,1.188-0.686,3.222-0.14,4.343
			C398.483,417.928,398.464,415.586,398.109,414.223z"/>
		<path fill-rule="evenodd" clip-rule="evenodd" fill="#FFFFFF" d="M394.561,414.316c-0.918,0.543-1.062,3.885-0.388,4.35
			C395.288,418.104,394.299,415.645,394.561,414.316z"/>
		<path fill-rule="evenodd" clip-rule="evenodd" fill="#FFFFFF" d="M391.051,415.614c-0.683,0.942,0.228,2.399,0.341,3.366
			C391.986,418.127,391.489,416.253,391.051,415.614z"/>
		<path fill-rule="evenodd" clip-rule="evenodd" fill="#FFFFFF" d="M397.236,419.549c0.021,0.805,0.042,1.605,0.063,2.41
			c0.905-0.201,0.527-1.563,0.956-2.195c1.086,0.282,0.007,1.199,0.309,2.162c1.038-0.087,1.114-1.037,1.217-1.961
			c0.339-0.009,0.674-0.018,1.012-0.026c-0.101,0.849-0.337,1.579-0.184,2.656c0.543-0.218,0.384-1.068,0.722-1.468
			c0.805,0.248,0.674,0.098,1.263-0.273c0.854,0.199,0.137,0.445,0.283,1.198c0.554-0.049,0.527-0.62,0.474-1.218
			C401.813,419.906,400.014,419.236,397.236,419.549z"/>
		<path fill-rule="evenodd" clip-rule="evenodd" fill="#FFFFFF" d="M396.735,419.804c-3.311-0.612-9.253,0.608-7.501,3.813
			c0.639-0.285-0.15-1.859,0.45-2.182c0.757,0.395,0.412,1.893,1.075,2.385c1.01-0.188,0.695-1.57,0.689-2.672
			c1.149,0,0.243,2.066,1.818,1.641c0.047-0.822-0.247-1.95,0.188-2.416c0.764,0.305,0.156,1.986,1.071,2.143
			c1.048,0.005,0.218-1.684,0.442-2.424c1.306-0.156,0.367,1.938,1.076,2.383C397.292,422.5,395.897,420.144,396.735,419.804z"/>
		<path fill-rule="evenodd" clip-rule="evenodd" fill="#FFFFFF" d="M400.075,421.402c-0.438,0.549-1.013,0.97-2.264,0.783
			c0.111,0.797,1.471,0.34,2.295,0.422C400.097,422.205,400.086,421.805,400.075,421.402z"/>
		<path fill-rule="evenodd" clip-rule="evenodd" fill="#FFFFFF" d="M391.344,426.697c2.738-0.705,6.603-1.243,9.86-0.742
			C402.255,422.391,390.164,422.361,391.344,426.697z"/>
		<path fill-rule="evenodd" clip-rule="evenodd" fill="#FFFFFF" d="M391.363,427.421c-0.735,7.961-0.904,16.434-1.117,24.864
			c3.216-1.342,9.265-1.526,13.157-0.83c-1.311-7.839-0.556-17.749-2.438-25.012C397.904,426.009,393.503,426.255,391.363,427.421z"
			/>
		<path fill-rule="evenodd" clip-rule="evenodd" fill="#FFFFFF" d="M389.031,454.246c0.374,0.613,0.885,1.09,1.311,1.652
			c0.337-0.167,0.456-0.527,0.48-0.977c0.876-0.135,0.178,1.304,0.798,1.428c1.5-0.105,0.022-1.432,0.702-2.191
			c0.967,0.021,0.204,1.777,0.817,2.15c1.456,0.138,0.231-2.146,0.943-2.679c0.843,0.142,0.144,1.837,1.064,1.901
			c0.848-0.098,0.681-1.111,0.707-1.948c0.967,0.021,0.203,1.778,0.817,2.147c1.331-0.052,1.039-1.571,1.456-2.449
			c1.076,0.452,0.1,1.6,0.569,2.396c1.516,0.191,1.074-1.383,1.722-1.975c0.724,0.267-0.224,2.205,0.818,2.148
			c1.325,0.099,0.15-2.06,1.21-2.202c0.78,0.569-0.152,1.573,0.063,2.411c1.362-0.496,1.888-1.742,2.717-2.725
			C401.197,451.232,392.392,451.719,389.031,454.246z"/>
		<path fill-rule="evenodd" clip-rule="evenodd" fill="#FFFFFF" d="M390.641,457.579c0.05,1.221-0.383,2.009-0.165,3.38
			c3.127-1.623,8.304-1.924,12.884-1.547C402.714,454.369,394.756,457.65,390.641,457.579z"/>
		<path fill-rule="evenodd" clip-rule="evenodd" fill="#FFFFFF" d="M390.488,461.44c-0.982,6.093-0.702,13.323-0.991,20.037
			c4.937,0.329,10.852-0.331,15.713,0.069c-0.359-7.469-1.144-14.516-1.838-21.652C398.819,459.482,393.551,459.802,390.488,461.44z
			"/>
		<path fill-rule="evenodd" clip-rule="evenodd" fill="#FFFFFF" d="M388.283,483.441c0.115,0.789,0.768,1.042,1.058,1.66
			c0.6-1.553,0.745,0.151,2.026-0.053c0.03-0.756-0.219-1.764,0.194-2.176c0.521,0.217,0.572,0.911,0.55,1.672
			c1.016,0.055,0.503-1.271,0.969-1.713c0.875-0.135,0.181,1.305,0.799,1.428c0.925,0.205,0.229-1.047,0.726-1.226
			c0.841-0.02,0.296,1.354,0.807,1.667c0.729-0.362,1.102-1.046,0.953-2.196C392.944,482.494,389.779,482.342,388.283,483.441z"/>
		<path fill-rule="evenodd" clip-rule="evenodd" fill="#FFFFFF" d="M391.625,485.284c0.638,0.403,2.452-0.132,3.286-0.329
			C394.56,484.139,392.46,485.053,391.625,485.284z"/>
		<path fill-rule="evenodd" clip-rule="evenodd" fill="#FFFFFF" d="M401.744,484.533c-0.705,0.295-1.311,0.312-2.028,0.054
			C399.458,485.36,402.041,485.292,401.744,484.533z"/>
		<path fill-rule="evenodd" clip-rule="evenodd" fill="#FFFFFF" d="M390.162,487.492c-0.103,0.848-0.335,1.578-0.182,2.654
			c4.525-0.967,10.398-0.389,14.681-0.627c-0.027-1.046-0.055-2.09-0.082-3.131C400.064,485.885,393.462,485.188,390.162,487.492z"
			/>
		<path fill-rule="evenodd" clip-rule="evenodd" fill="#FFFFFF" d="M389.993,490.629c-0.515,6.904-0.019,14.695-0.427,22.196
			c4.707-0.142,11.409-0.268,16.472,0.046c-0.7-7.295-1.066-14.922-1.357-22.631C400.419,489.456,394.31,490.016,389.993,490.629z"
			/>
		<path fill-rule="evenodd" clip-rule="evenodd" fill="#FFFFFF" d="M407.789,483.166c-2.431-0.871-6.68-0.923-10.918-0.674
			c0.051,0.693-0.094,1.58,0.305,1.918c1.117,0.068,0.847-1.117,1.223-1.719c0.567,0.091,0.133,1.184,0.299,1.679
			c1.291,0.228,1.027-0.954,1.479-1.483c0.562,0.014,0.138,1.02,0.294,1.437c1.409,0.255,0.92-1.208,1.732-1.489
			c0.761,0.328-0.307,0.947,0.044,1.686c1.412,0.1,1.485-1.014,2.242-1.508c0.772,0.64-0.896,1.057-0.448,2.184
			c1.338-0.047,1.488-1.165,2.235-1.747c0.623,0.138,0.065,1.128-0.221,1.212C406.339,484.826,407.631,483.898,407.789,483.166z"/>
		<path fill-rule="evenodd" clip-rule="evenodd" d="M388.687,512.172c0.479-5.718-0.086-10.863,0.055-17.12
			c0.139-6.104,1.309-9.561-1.832-11.767c0.378-0.832,1.641-0.87,1.723-1.977c0.325-3.928-0.086-8.45,0.164-13.023
			c0.308-5.701,2.463-11.797-1.131-13.953c-0.113-1.277,1.749-0.775,1.72-1.977c0.073-9.107,0.543-17.856,1.073-26.551
			c-3.65-1.804-2.752-5.378-0.186-6.988c0.008-3.303-0.817-5.775-2.968-6.914c0.295-1.297,1.772-1.535,2.466-2.476
			c-0.062-4.21,1.782-6.702,5.894-7.149c-0.754-2.396-1.343-4.166-0.424-6.497c1.333,1.552,0.025,4.267,0.943,6.967
			c3.503,0.276,5.238,2.332,5.229,6.13c0.861,0.379,1.708,0.762,2.565,1.14c-0.138,1.599-1.595,2.009-2.194,3.192
			c0.247,2.105-0.223,3.563-0.109,5.547c1.593,0.383,2.956,0.992,3.362,2.564c-3.955,2.031-2.19,6.513-1.707,12.1
			c0.491,5.686,0.515,12.593,1.237,18.053c0.791,0.445,2.002,0.467,2.567,1.137c-2.224,2.119-2.607,4.169-2.331,7.778
			c0.501,6.488,1.239,14.582,1.568,20.937c4.914,0.576,0.767,5.188-0.612,5.563c0.607,8.67,0.099,17.637,1.972,26.711
			c-2.395-0.125-5.451,0.042-8.615-0.013c-3.406-0.062-6.992-0.007-10.671,0.108"/>
		<path fill-rule="evenodd" clip-rule="evenodd" fill="#E8E6AC" d="M391.226,406.976c2.507-0.792,6.21-0.678,8.62,0.015
			C400.376,403.024,391.135,402.043,391.226,406.976z"/>
		<path fill-rule="evenodd" clip-rule="evenodd" fill="#E8E6AC" d="M390.777,409.158c2.407-0.886,6.593-1.153,9.61-0.734
			C399.362,406.247,390.803,405.818,390.777,409.158z"/>
		<path fill-rule="evenodd" clip-rule="evenodd" fill="#E8E6AC" d="M388.574,412.112c3.483-0.665,6.05-2.438,10.352-1.481
			c1.069,0.238,2.589,1.504,3.306,0.396C400.605,408.104,390.184,408.807,388.574,412.112z"/>
		<path fill-rule="evenodd" clip-rule="evenodd" fill="#E8E6AC" d="M390.639,413.504c0.74,1.07,2.306,1.313,2.114,3.316
			c0.561-1.373,0.02-3.744,1.667-4.141c2.564-0.018,0.456,4.653,1.923,5.735c1.16-1.461-0.274-5.266,1.614-6.069
			c2.358,0.273,1.107,4.165,1.932,5.976c1.321-1.003,0.946-3.987,0.607-5.802C398.313,410.926,391.732,410.822,390.639,413.504z"/>
		<path fill="#E8E6AC" d="M398.256,414.026c-0.224,1.188-0.685,3.22-0.14,4.342C398.63,417.73,398.61,415.387,398.256,414.026z"/>
		<path fill="#E8E6AC" d="M394.71,414.12c-0.921,0.542-1.064,3.883-0.392,4.349C395.436,417.907,394.447,415.447,394.71,414.12z"/>
		<path fill-rule="evenodd" clip-rule="evenodd" fill="#E8E6AC" d="M391.197,415.417c-0.683,0.941,0.228,2.401,0.341,3.366
			C392.133,417.93,391.636,416.056,391.197,415.417z"/>
		<path fill-rule="evenodd" clip-rule="evenodd" fill="#E8E6AC" d="M397.383,419.352c0.021,0.806,0.043,1.605,0.064,2.41
			c0.905-0.201,0.527-1.563,0.955-2.194c1.086,0.281,0.007,1.198,0.311,2.161c1.036-0.086,1.112-1.037,1.215-1.961
			c0.34-0.009,0.675-0.018,1.012-0.026c-0.101,0.849-0.334,1.579-0.183,2.657c0.539-0.218,0.382-1.068,0.721-1.467
			c0.805,0.247,0.675,0.096,1.263-0.274c0.854,0.198,0.135,0.445,0.283,1.198c0.554-0.05,0.529-0.621,0.474-1.219
			C401.959,419.709,400.16,419.04,397.383,419.352z"/>
		<path fill-rule="evenodd" clip-rule="evenodd" fill="#E8E6AC" d="M396.882,419.607c-3.31-0.612-9.251,0.607-7.499,3.813
			c0.639-0.285-0.153-1.857,0.448-2.182c0.757,0.396,0.412,1.895,1.075,2.385c1.011-0.188,0.696-1.568,0.689-2.671
			c1.151-0.001,0.244,2.065,1.818,1.64c0.048-0.82-0.247-1.949,0.188-2.415c0.767,0.305,0.159,1.987,1.073,2.142
			c1.047,0.006,0.218-1.686,0.44-2.424c1.307-0.155,0.368,1.939,1.077,2.385C397.438,422.303,396.046,419.946,396.882,419.607z"/>
		<path fill-rule="evenodd" clip-rule="evenodd" d="M400.222,421.206c-0.438,0.549-1.014,0.97-2.263,0.784
			c0.112,0.795,1.472,0.339,2.294,0.421C400.242,422.01,400.231,421.607,400.222,421.206z"/>
		<path fill-rule="evenodd" clip-rule="evenodd" fill="#E8E6AC" d="M391.49,426.5c2.738-0.705,6.603-1.242,9.862-0.742
			C402.403,422.195,390.311,422.165,391.49,426.5z"/>
		<path fill-rule="evenodd" clip-rule="evenodd" fill="#E8E6AC" d="M391.509,427.225c-0.734,7.961-0.903,16.434-1.116,24.865
			c3.217-1.342,9.265-1.528,13.156-0.83c-1.31-7.84-0.553-17.751-2.438-25.014C398.05,425.813,393.649,426.059,391.509,427.225z"/>
		<path fill-rule="evenodd" clip-rule="evenodd" fill="#E8E6AC" d="M389.178,454.049c0.374,0.615,0.885,1.09,1.311,1.653
			c0.337-0.167,0.458-0.527,0.48-0.976c0.875-0.137,0.181,1.303,0.798,1.426c1.499-0.105,0.021-1.432,0.701-2.191
			c0.967,0.021,0.205,1.776,0.818,2.151c1.457,0.138,0.233-2.146,0.943-2.679c0.843,0.141,0.144,1.836,1.064,1.9
			c0.848-0.097,0.679-1.109,0.707-1.947c0.968,0.021,0.203,1.777,0.819,2.148c1.331-0.053,1.038-1.572,1.455-2.449
			c1.077,0.451,0.099,1.598,0.569,2.396c1.515,0.19,1.073-1.384,1.721-1.975c0.724,0.267-0.224,2.205,0.819,2.147
			c1.326,0.1,0.151-2.059,1.206-2.201c0.783,0.569-0.149,1.574,0.064,2.412c1.364-0.498,1.89-1.744,2.719-2.727
			C401.345,451.036,392.537,451.521,389.178,454.049z"/>
		<path fill-rule="evenodd" clip-rule="evenodd" fill="#E8E6AC" d="M390.786,457.381c0.051,1.223-0.382,2.011-0.164,3.382
			c3.127-1.624,8.306-1.925,12.884-1.546C402.86,454.172,394.902,457.454,390.786,457.381z"/>
		<path fill-rule="evenodd" clip-rule="evenodd" fill="#E8E6AC" d="M390.635,461.244c-0.98,6.094-0.703,13.324-0.991,20.037
			c4.939,0.327,10.854-0.33,15.714,0.069c-0.361-7.47-1.145-14.517-1.839-21.651C398.966,459.287,393.699,459.604,390.635,461.244z"
			/>
		<path fill-rule="evenodd" clip-rule="evenodd" fill="#E8E6AC" d="M388.43,483.244c0.115,0.789,0.767,1.043,1.058,1.662
			c0.601-1.554,0.744,0.15,2.025-0.053c0.032-0.756-0.216-1.766,0.195-2.177c0.523,0.218,0.573,0.911,0.55,1.672
			c1.016,0.054,0.503-1.271,0.969-1.712c0.876-0.137,0.18,1.303,0.799,1.426c0.925,0.205,0.23-1.047,0.728-1.226
			c0.841-0.018,0.294,1.354,0.804,1.668c0.729-0.362,1.104-1.047,0.956-2.196C393.091,482.297,389.927,482.145,388.43,483.244z"/>
		<path fill-rule="evenodd" clip-rule="evenodd" fill="#E8E6AC" d="M407.937,482.969c-2.432-0.87-6.681-0.923-10.917-0.673
			c0.049,0.694-0.096,1.579,0.305,1.919c1.116,0.067,0.844-1.117,1.221-1.719c0.569,0.09,0.136,1.184,0.299,1.678
			c1.292,0.227,1.027-0.954,1.481-1.484c0.56,0.015,0.136,1.021,0.292,1.438c1.408,0.255,0.92-1.209,1.732-1.491
			c0.763,0.331-0.307,0.948,0.045,1.688c1.414,0.098,1.484-1.016,2.241-1.508c0.773,0.639-0.899,1.057-0.448,2.182
			c1.34-0.045,1.49-1.164,2.234-1.747c0.623,0.14,0.068,1.128-0.22,1.214C406.487,484.63,407.777,483.702,407.937,482.969z"/>
		<path fill-rule="evenodd" clip-rule="evenodd" d="M391.771,485.087c0.638,0.403,2.454-0.13,3.286-0.327
			C394.707,483.941,392.608,484.856,391.771,485.087z"/>
		<path fill-rule="evenodd" clip-rule="evenodd" d="M401.891,484.338c-0.705,0.295-1.311,0.311-2.028,0.053
			C399.604,485.164,402.188,485.096,401.891,484.338z"/>
		<path fill-rule="evenodd" clip-rule="evenodd" fill="#E8E6AC" d="M390.309,487.295c-0.101,0.848-0.335,1.58-0.182,2.656
			c4.525-0.967,10.399-0.389,14.681-0.627c-0.027-1.047-0.055-2.091-0.083-3.133C400.213,485.689,393.609,484.992,390.309,487.295z"
			/>
		<path fill-rule="evenodd" clip-rule="evenodd" fill="#E8E6AC" d="M390.14,490.433c-0.515,6.903-0.019,14.695-0.427,22.195
			c4.709-0.14,11.411-0.268,16.473,0.048c-0.699-7.295-1.068-14.924-1.358-22.631C400.565,489.259,394.456,489.82,390.14,490.433z"
			/>
	</g>
	<g>
		<path fill-rule="evenodd" clip-rule="evenodd" fill="#FFFFFF" d="M140.2,412.227c-2.485-0.852-6.19-0.829-8.616-0.196
			C131.148,408.053,140.413,407.299,140.2,412.227z"/>
		<path fill-rule="evenodd" clip-rule="evenodd" fill="#FFFFFF" d="M140.597,414.42c-2.386-0.943-6.565-1.314-9.591-0.971
			C132.083,411.299,140.654,411.08,140.597,414.42z"/>
		<path fill-rule="evenodd" clip-rule="evenodd" fill="#FFFFFF" d="M142.725,417.426c-3.466-0.75-5.987-2.584-10.312-1.734
			c-1.074,0.213-2.624,1.439-3.315,0.315C130.794,413.125,141.196,414.082,142.725,417.426z"/>
		<path fill-rule="evenodd" clip-rule="evenodd" fill="#FFFFFF" d="M140.628,418.766c-0.768,1.053-2.339,1.258-2.197,3.266
			c-0.527-1.386,0.074-3.743-1.563-4.181c-2.564-0.08-0.571,4.642-2.063,5.687c-1.125-1.488,0.404-5.258-1.465-6.107
			c-2.363,0.215-1.208,4.138-2.077,5.928c-1.294-1.036-0.848-4.01-0.465-5.816C133.02,416.002,139.601,416.059,140.628,418.766z"/>
		<path fill-rule="evenodd" clip-rule="evenodd" fill="#FFFFFF" d="M133,419.103c0.194,1.194,0.606,3.237,0.033,4.345
			C132.534,422.799,132.612,420.456,133,419.103z"/>
		<path fill-rule="evenodd" clip-rule="evenodd" fill="#FFFFFF" d="M136.544,419.283c0.905,0.566,0.967,3.909,0.283,4.357
			C135.725,423.052,136.773,420.618,136.544,419.283z"/>
		<path fill-rule="evenodd" clip-rule="evenodd" fill="#FFFFFF" d="M140.023,420.667c0.658,0.958-0.287,2.394-0.424,3.356
			C139.026,423.155,139.568,421.295,140.023,420.667z"/>
		<path fill-rule="evenodd" clip-rule="evenodd" fill="#FFFFFF" d="M133.742,424.449c-0.041,0.804-0.082,1.604-0.123,2.407
			c-0.899-0.224-0.488-1.575-0.901-2.218c-1.092,0.255-0.038,1.199-0.363,2.153c-1.035-0.112-1.087-1.063-1.167-1.989
			c-0.339-0.018-0.674-0.035-1.013-0.052c0.08,0.851,0.298,1.587,0.119,2.659c-0.536-0.23-0.356-1.076-0.685-1.484
			c-0.809,0.229-0.676,0.082-1.254-0.304c-0.859,0.177-0.147,0.441-0.314,1.19c-0.552-0.063-0.512-0.633-0.444-1.229
			C129.159,424.693,130.974,424.068,133.742,424.449z"/>
		<path fill-rule="evenodd" clip-rule="evenodd" fill="#FFFFFF" d="M134.236,424.716c3.325-0.531,9.235,0.834,7.406,3.996
			c-0.631-0.302,0.197-1.855-0.396-2.192c-0.766,0.376-0.459,1.883-1.133,2.358c-1.005-0.214-0.658-1.587-0.625-2.688
			c-1.149-0.027-0.294,2.059-1.857,1.596c-0.027-0.822,0.293-1.943-0.13-2.42c-0.771,0.286-0.206,1.982-1.124,2.115
			c-1.049-0.021-0.177-1.688-0.383-2.434c-1.3-0.188-0.415,1.929-1.134,2.355C133.615,427.398,135.065,425.076,134.236,424.716z"/>
		<path fill-rule="evenodd" clip-rule="evenodd" fill="#FFFFFF" d="M130.859,426.232c0.425,0.56,0.989,0.994,2.242,0.838
			c-0.13,0.794-1.478,0.305-2.304,0.366C130.818,427.035,130.839,426.634,130.859,426.232z"/>
		<path fill-rule="evenodd" clip-rule="evenodd" fill="#FFFFFF" d="M139.458,431.739c-2.72-0.772-6.571-1.404-9.841-0.983
			C128.655,427.168,140.744,427.434,139.458,431.739z"/>
		<path fill-rule="evenodd" clip-rule="evenodd" fill="#FFFFFF" d="M139.421,432.462c0.539,7.978,0.501,16.45,0.507,24.885
			c-3.182-1.421-9.226-1.753-13.132-1.151c1.501-7.805,0.988-17.73,3.047-24.945C132.916,430.891,137.31,431.244,139.421,432.462z"
			/>
		<path fill-rule="evenodd" clip-rule="evenodd" fill="#FFFFFF" d="M141.095,459.336c-0.388,0.605-0.911,1.068-1.35,1.62
			c-0.333-0.176-0.444-0.538-0.458-0.987c-0.871-0.156-0.209,1.299-0.831,1.406c-1.498-0.142,0.012-1.432-0.649-2.207
			c-0.966-0.004-0.247,1.771-0.87,2.13c-1.459,0.102-0.179-2.151-0.877-2.701c-0.847,0.12-0.188,1.832-1.11,1.874
			c-0.845-0.117-0.654-1.127-0.661-1.965c-0.968-0.002-0.245,1.773-0.869,2.127c-1.329-0.084-1-1.596-1.396-2.484
			c-1.086,0.426-0.139,1.598-0.628,2.382c-1.519,0.154-1.039-1.409-1.672-2.016c-0.729,0.249,0.171,2.21-0.87,2.128
			c-1.328,0.066-0.101-2.063-1.155-2.23c-0.795,0.55,0.113,1.576-0.123,2.408c-1.35-0.529-1.846-1.789-2.649-2.791
			C129.006,456.025,137.798,456.728,141.095,459.336z"/>
		<path fill-rule="evenodd" clip-rule="evenodd" fill="#FFFFFF" d="M139.405,462.629c-0.079,1.219,0.333,2.018,0.082,3.383
			c-3.087-1.699-8.254-2.127-12.842-1.861C127.414,459.124,135.289,462.6,139.405,462.629z"/>
		<path fill-rule="evenodd" clip-rule="evenodd" fill="#FFFFFF" d="M139.462,466.492c0.833,6.115,0.375,13.337,0.5,20.057
			c-4.944,0.207-10.841-0.598-15.709-0.316c0.542-7.457,1.498-14.483,2.367-21.601C131.181,464.332,136.44,464.779,139.462,466.492z
			"/>
		<path fill-rule="evenodd" clip-rule="evenodd" fill="#FFFFFF" d="M141.128,488.541c-0.136,0.787-0.792,1.023-1.098,1.635
			c-0.562-1.568-0.748,0.133-2.024-0.104c-0.013-0.756,0.261-1.758-0.142-2.18c-0.526,0.205-0.594,0.897-0.59,1.658
			c-1.017,0.029-0.471-1.282-0.927-1.735c-0.871-0.157-0.212,1.3-0.833,1.406c-0.93,0.183-0.204-1.052-0.696-1.243
			c-0.84-0.039-0.328,1.348-0.845,1.647c-0.721-0.38-1.077-1.072-0.901-2.219C136.492,487.48,139.659,487.404,141.128,488.541z"/>
		<path fill-rule="evenodd" clip-rule="evenodd" fill="#FFFFFF" d="M137.741,490.302c-0.646,0.387-2.448-0.191-3.276-0.41
			C134.835,489.085,136.912,490.05,137.741,490.302z"/>
		<path fill-rule="evenodd" clip-rule="evenodd" fill="#FFFFFF" d="M127.645,489.304c0.697,0.312,1.302,0.343,2.026,0.103
			C129.909,490.186,127.329,490.055,127.645,489.304z"/>
		<path fill-rule="evenodd" clip-rule="evenodd" fill="#FFFFFF" d="M139.15,492.545c0.082,0.85,0.298,1.586,0.117,2.658
			c-4.5-1.077-10.386-0.643-14.661-0.986c0.053-1.045,0.106-2.088,0.16-3.129C129.29,490.695,135.908,490.16,139.15,492.545z"/>
		<path fill-rule="evenodd" clip-rule="evenodd" fill="#FFFFFF" d="M139.242,495.685c0.347,6.915-0.341,14.692-0.117,22.2
			c-4.702-0.256-11.398-0.547-16.467-0.357c0.878-7.275,1.432-14.892,1.911-22.59C128.849,494.257,134.941,494.967,139.242,495.685z
			"/>
		<path fill-rule="evenodd" clip-rule="evenodd" fill="#FFFFFF" d="M121.635,487.788c2.45-0.811,6.701-0.759,10.931-0.407
			c-0.068,0.692,0.055,1.584-0.353,1.912c-1.118,0.04-0.817-1.139-1.18-1.748c-0.569,0.076-0.163,1.18-0.338,1.67
			c-1.297,0.195-1.006-0.979-1.445-1.52c-0.561,0-0.161,1.016-0.328,1.43c-1.415,0.22-0.889-1.23-1.695-1.533
			c-0.769,0.311,0.284,0.956-0.086,1.686c-1.415,0.064-1.459-1.05-2.204-1.563c-0.789,0.62,0.872,1.078,0.395,2.193
			c-1.337-0.079-1.46-1.2-2.191-1.801c-0.626,0.123-0.094,1.125,0.19,1.217C123.043,489.482,121.775,488.525,121.635,487.788z"/>
		<path fill-rule="evenodd" clip-rule="evenodd" d="M140.226,518.779c-3.675-0.205-7.258-0.347-10.665-0.369
			c-3.165-0.022-6.216-0.264-8.614-0.199c2.096-9.023,1.806-18.001,2.626-26.653c-1.37-0.409-5.402-5.12-0.477-5.576
			c0.485-6.345,1.422-14.417,2.081-20.892c0.364-3.602,0.031-5.66-2.139-7.833c0.582-0.655,1.793-0.648,2.593-1.073
			c0.856-5.441,1.049-12.346,1.679-18.017c0.62-5.573,2.494-10.011-1.411-12.139c0.446-1.562,1.824-2.138,3.425-2.481
			c0.162-1.98-0.272-3.448,0.027-5.548c-0.571-1.198-2.018-1.644-2.117-3.245c0.866-0.357,1.724-0.719,2.592-1.076
			c0.084-3.797,1.87-5.811,5.378-6c0.983-2.677-0.256-5.423,1.115-6.941c0.86,2.354,0.228,4.107-0.584,6.484
			c4.099,0.548,5.881,3.084,5.716,7.291c0.671,0.959,2.141,1.232,2.405,2.537c-2.178,1.084-3.064,3.536-3.137,6.838
			c2.527,1.673,3.338,5.268-0.356,6.982c0.317,8.704,0.572,17.461,0.423,26.568c-0.058,1.201,1.815,0.744,1.671,2.019
			c-3.646,2.067-1.641,8.214-1.472,13.921c0.139,4.578-0.383,9.089-0.155,13.023c0.055,1.108,1.316,1.177,1.673,2.018
			c-3.194,2.129-2.108,5.614-2.119,11.719c-0.012,6.26-0.705,11.389-0.365,17.117"/>
		<path fill-rule="evenodd" clip-rule="evenodd" fill="#E8E6AC" d="M131.441,411.83c2.427-0.633,6.131-0.656,8.618,0.195
			C140.271,407.098,131.007,407.853,131.441,411.83z"/>
		<path fill-rule="evenodd" clip-rule="evenodd" fill="#E8E6AC" d="M130.864,413.249c3.025-0.345,7.204,0.026,9.59,0.971
			C140.51,410.88,131.942,411.099,130.864,413.249z"/>
		<path fill-rule="evenodd" clip-rule="evenodd" fill="#E8E6AC" d="M128.957,415.807c0.69,1.125,2.24-0.103,3.314-0.314
			c4.325-0.852,6.846,0.984,10.312,1.734C141.054,413.883,130.653,412.924,128.957,415.807z"/>
		<path fill-rule="evenodd" clip-rule="evenodd" fill="#E8E6AC" d="M130.656,417.341c-0.383,1.806-0.831,4.78,0.464,5.815
			c0.869-1.789-0.287-5.711,2.077-5.927c1.869,0.851,0.341,4.618,1.465,6.107c1.493-1.046-0.5-5.767,2.064-5.687
			c1.636,0.438,1.037,2.794,1.563,4.181c-0.143-2.009,1.429-2.212,2.196-3.265C139.458,415.859,132.878,415.801,130.656,417.341z"/>
		<path fill="#E8E6AC" d="M132.891,423.246c0.572-1.107,0.163-3.149-0.032-4.344C132.471,420.254,132.392,422.598,132.891,423.246z"
			/>
		<path fill="#E8E6AC" d="M136.685,423.439c0.685-0.448,0.623-3.791-0.284-4.355C136.631,420.417,135.583,422.852,136.685,423.439z"
			/>
		<path fill-rule="evenodd" clip-rule="evenodd" fill="#E8E6AC" d="M139.457,423.822c0.136-0.962,1.082-2.398,0.424-3.356
			C139.427,421.094,138.883,422.955,139.457,423.822z"/>
		<path fill-rule="evenodd" clip-rule="evenodd" fill="#E8E6AC" d="M127.456,425.383c-0.069,0.596-0.108,1.167,0.444,1.23
			c0.167-0.75-0.546-1.014,0.313-1.191c0.578,0.385,0.446,0.533,1.255,0.305c0.329,0.407,0.15,1.254,0.685,1.484
			c0.179-1.074-0.038-1.811-0.119-2.66c0.338,0.017,0.673,0.033,1.013,0.051c0.08,0.926,0.131,1.879,1.166,1.99
			c0.327-0.955-0.729-1.898,0.364-2.153c0.413,0.643,0,1.993,0.901,2.218c0.041-0.805,0.082-1.604,0.123-2.408
			C130.833,423.868,129.017,424.493,127.456,425.383z"/>
		<path fill-rule="evenodd" clip-rule="evenodd" fill="#E8E6AC" d="M134.718,427.203c0.72-0.427-0.165-2.544,1.135-2.356
			c0.206,0.743-0.665,2.413,0.383,2.434c0.916-0.132,0.351-1.829,1.124-2.114c0.423,0.477,0.102,1.598,0.13,2.418
			c1.564,0.465,0.707-1.623,1.857-1.595c-0.034,1.103-0.382,2.476,0.624,2.688c0.674-0.475,0.367-1.98,1.132-2.357
			c0.595,0.338-0.235,1.891,0.396,2.192c1.829-3.162-4.082-4.527-7.404-3.996C134.923,424.875,133.474,427.197,134.718,427.203z"/>
		<path fill-rule="evenodd" clip-rule="evenodd" d="M130.656,427.236c0.826-0.062,2.173,0.428,2.304-0.365
			c-1.252,0.156-1.819-0.279-2.242-0.839C130.697,426.434,130.676,426.835,130.656,427.236z"/>
		<path fill-rule="evenodd" clip-rule="evenodd" fill="#E8E6AC" d="M129.475,430.555c3.271-0.42,7.122,0.212,9.842,0.984
			C140.603,427.233,128.512,426.967,129.475,430.555z"/>
		<path fill-rule="evenodd" clip-rule="evenodd" fill="#E8E6AC" d="M129.703,431.049c-2.061,7.215-1.547,17.143-3.048,24.946
			c3.907-0.603,9.95-0.269,13.132,1.151c-0.006-8.434,0.033-16.908-0.506-24.885C137.167,431.045,132.774,430.69,129.703,431.049z"
			/>
		<path fill-rule="evenodd" clip-rule="evenodd" fill="#E8E6AC" d="M124.785,457.83c0.804,1.002,1.299,2.26,2.65,2.791
			c0.234-0.832-0.673-1.859,0.123-2.409c1.053,0.168-0.174,2.298,1.154,2.229c1.041,0.083,0.141-1.878,0.87-2.127
			c0.633,0.607,0.154,2.17,1.672,2.017c0.49-0.786-0.458-1.956,0.629-2.381c0.395,0.888,0.065,2.399,1.395,2.483
			c0.625-0.355-0.097-2.129,0.87-2.127c0.009,0.838-0.184,1.847,0.661,1.965c0.922-0.043,0.264-1.754,1.111-1.875
			c0.697,0.551-0.583,2.805,0.876,2.701c0.624-0.359-0.095-2.133,0.871-2.13c0.662,0.776-0.849,2.065,0.648,2.208
			c0.62-0.109-0.04-1.564,0.832-1.406c0.012,0.449,0.125,0.812,0.456,0.986c0.44-0.552,0.963-1.015,1.352-1.621
			C137.656,456.526,128.864,455.826,124.785,457.83z"/>
		<path fill-rule="evenodd" clip-rule="evenodd" fill="#E8E6AC" d="M126.502,463.951c4.587-0.268,9.755,0.162,12.842,1.861
			c0.252-1.366-0.16-2.164-0.082-3.385C135.146,462.398,127.271,458.924,126.502,463.951z"/>
		<path fill-rule="evenodd" clip-rule="evenodd" fill="#E8E6AC" d="M126.478,464.433c-0.868,7.116-1.824,14.142-2.368,21.601
			c4.868-0.281,10.766,0.521,15.71,0.316c-0.125-6.72,0.332-13.941-0.501-20.057C136.297,464.579,131.04,464.133,126.478,464.433z"
			/>
		<path fill-rule="evenodd" clip-rule="evenodd" fill="#E8E6AC" d="M132.929,487.207c-0.176,1.146,0.182,1.84,0.901,2.219
			c0.518-0.301,0.005-1.686,0.844-1.647c0.494,0.19-0.231,1.426,0.697,1.243c0.623-0.107-0.038-1.563,0.834-1.406
			c0.456,0.452-0.09,1.764,0.927,1.736c-0.005-0.762,0.063-1.453,0.59-1.658c0.402,0.422,0.129,1.424,0.141,2.18
			c1.276,0.235,1.462-1.465,2.025,0.104c0.305-0.611,0.962-0.85,1.098-1.636C139.518,487.204,136.35,487.279,132.929,487.207z"/>
		<path fill-rule="evenodd" clip-rule="evenodd" fill="#E8E6AC" d="M123.189,489.126c-0.286-0.094-0.816-1.096-0.191-1.22
			c0.73,0.602,0.854,1.724,2.191,1.803c0.478-1.114-1.183-1.574-0.395-2.193c0.744,0.512,0.789,1.625,2.204,1.563
			c0.37-0.731-0.684-1.375,0.086-1.687c0.806,0.302,0.281,1.753,1.696,1.534c0.167-0.414-0.233-1.43,0.327-1.432
			c0.44,0.542,0.147,1.716,1.445,1.521c0.175-0.491-0.232-1.596,0.338-1.671c0.362,0.61,0.061,1.788,1.179,1.748
			c0.409-0.33,0.285-1.218,0.352-1.911c-4.229-0.354-8.479-0.404-10.93,0.406C121.633,488.324,122.901,489.283,123.189,489.126z"/>
		<path fill-rule="evenodd" clip-rule="evenodd" d="M134.323,489.693c0.828,0.217,2.629,0.795,3.277,0.407
			C136.77,489.85,134.694,488.884,134.323,489.693z"/>
		<path fill-rule="evenodd" clip-rule="evenodd" d="M129.528,489.207c-0.722,0.24-1.329,0.209-2.026-0.104
			C127.188,489.854,129.768,489.986,129.528,489.207z"/>
		<path fill-rule="evenodd" clip-rule="evenodd" fill="#E8E6AC" d="M124.624,490.889c-0.053,1.04-0.106,2.084-0.159,3.129
			c4.274,0.343,10.16-0.092,14.661,0.986c0.18-1.072-0.036-1.81-0.117-2.66C135.766,489.962,129.147,490.496,124.624,490.889z"/>
		<path fill-rule="evenodd" clip-rule="evenodd" fill="#E8E6AC" d="M124.427,494.737c-0.479,7.698-1.034,15.315-1.912,22.591
			c5.069-0.191,11.766,0.102,16.469,0.357c-0.224-7.51,0.463-15.286,0.117-22.201C134.801,494.768,128.708,494.057,124.427,494.737z
			"/>
	</g>
</g>
</svg>
